<svg width="728" height="747" xmlns="http://www.w3.org/2000/svg" xmlns:xlink="http://www.w3.org/1999/xlink" overflow="hidden"><defs><clipPath id="clip0"><rect x="55" y="1168" width="728" height="747"/></clipPath></defs><g clip-path="url(#clip0)" transform="translate(-55 -1168)"><path d="M27.7035 56.3152C21.907 71.1429 16.111 85.971 11.5277 96.7547 6.94438 107.538-1.413 113.739 0.204586 121.018 1.82217 128.298 10.1796 137.194 21.2332 140.429 32.2868 143.665 51.4279 147.439 66.5255 140.429 81.6231 133.42 102.652 114.009 111.818 98.3723 120.984 82.7358 142.127 63.9175 88.8811 0" fill="#FCDAD6" fill-rule="evenodd" fill-opacity="1" transform="matrix(-0.786953 0.617013 0.617013 0.786953 608.281 1740.34)"/><path d="M118.678 57.7705C101.048 29.3324 66.4756 14.8364 58.1809 14.5307 42.6963 25.7682 1.22431 94.0568 0.0551694 113.591-1.11397 133.126 16.3067 138.548 51.1657 131.737 98.078 110.863 183.536 35.928 210.348 26.6355 232.801 4.1316 211.935 0 211.935 0 195.508 3.60621 147.927 40.5417 118.678 57.7705Z" fill="#5EA598" fill-rule="evenodd" fill-opacity="1" transform="matrix(-0.886654 0.462434 0.462434 0.886654 726.846 1773.53)"/><path d="M581.618 1173 586.467 1175.28C643.417 1212.84 679.215 1282.27 709 1379.51 707.007 1562.52 678.642 1686.49 658.043 1779.05L657.244 1782.71 646.167 1788.7C640.122 1792 634.264 1795.07 629.145 1797.09 608.672 1805.17 585.504 1824.03 567.725 1822.96 549.945 1821.88 536.475 1802.48 522.467 1790.62L515.085 1781.37 516.892 1760.69C525.263 1662.45 539.893 1457.54 523.013 1390.08 500.505 1300.13 424.728 1272.84 376.964 1274.67 376.964 1274.67 252.5 1332.37 236.426 1401.07 236.426 1401.07 269.467 1615.39 280.516 1686.85 286.04 1722.58 293.702 1751.68 298.928 1775.17L301.82 1791.74 282.67 1799.29C275.254 1801.89 267.829 1804.03 260.623 1805.17 231.798 1809.75 198.933 1808.67 170.108 1805.17L132.139 1797.45 130.716 1793.45C118.372 1748.89 112.446 1696.12 101.865 1635.96 87.7564 1555.74 46.7205 1434.08 60.9578 1353.93 87.2772 1307.75 109.123 1254.43 145.506 1209.02L167.944 1184.27 195.818 1191.08C361.498 1227.3 453.893 1192.15 554.54 1176.23Z" fill="#3A748F" fill-rule="evenodd" fill-opacity="1"/><path d="M582.08 1173 586.298 1175.36C629.037 1203.52 659.87 1249.6 685.189 1311.9L702 1359.84 689.499 1350.78C682.471 1346.19 675.75 1342.45 670.322 1340.65 648.608 1333.44 626.204 1333.1 604.146 1342.71 582.087 1352.33 554.859 1372.24 537.97 1398.34 529.526 1411.39 531.766 1430.96 530.603 1450.11L529.042 1462.88 528.253 1437.76C527.247 1418.47 525.495 1402.17 522.805 1390.1 501.283 1293.54 424.46 1272.89 376.666 1274.72 376.666 1274.72 252.127 1332.41 236.043 1401.09 236.043 1401.09 240.599 1430.14 246.912 1470.63L250.393 1493 194.683 1373.62C176.415 1348.21 165.731 1339.96 138.846 1334.47 125.405 1331.72 98.09 1345.89 74.6096 1354.43L60.0002 1358.83 60.4682 1353.96C86.8036 1307.79 108.663 1254.48 145.068 1209.09L167.52 1184.34 195.41 1191.15C361.191 1227.36 453.643 1192.23 554.351 1176.31Z" fill="#305A67" fill-rule="evenodd" fill-opacity="1"/><path d="M540.372 1796.51C541.762 1795.86 542.63 1796.21 542.457 1798.44 542.457 1798.44 543.916 1803.21 544.894 1810.1L545.036 1812 543.849 1811.15 533.817 1801.67 535.16 1800.5C537.071 1798.78 538.982 1797.15 540.372 1796.51ZM549.076 1574.07C550.792 1573.81 552.1 1574.27 552.882 1575.65 559.137 1586.65 531.684 1665.73 532.032 1687.04 532.379 1708.36 556.01 1691.86 554.967 1703.55 553.924 1715.24 527.167 1747.55 525.777 1757.18 524.387 1766.81 546.279 1753.4 546.627 1761.31 546.888 1767.24 536.593 1785.16 531.136 1796.36L530.338 1798.38 522.447 1790.92 515 1781.66 516.823 1760.96C519.638 1728.18 523.154 1683.54 525.961 1636.08L528.258 1588.75 534.868 1582.81C540.59 1578.01 545.646 1574.59 549.076 1574.07Z" fill="#305A67" fill-rule="evenodd" fill-opacity="1"/><path d="M216.001 1579.87C219.969 1577.12 230.148 1581.25 244.856 1587.09L266.669 1595.21 269.301 1612.25C272.795 1634.86 275.999 1655.59 278.551 1672.08L280.868 1687.05 280.871 1687.07C284.171 1709.32 288.255 1731.16 292.261 1751.85L300 1792.86 284.396 1799 278.563 1788.74C268.47 1774.1 253.525 1757.67 251.196 1746.85 248.09 1732.42 270.174 1732.08 267.758 1715.93 265.343 1699.78 239.119 1663.02 236.704 1649.96 234.289 1636.91 256.717 1649.27 253.267 1637.59 249.816 1625.91 208.065 1585.37 216.001 1579.87Z" fill="#305A67" fill-rule="evenodd" fill-opacity="1"/><path d="M175 1259.9 189.177 1258.34 195 1245 200.822 1258.34 215 1259.9 204.421 1269.7 207.361 1284 195 1276.71 182.639 1284 185.579 1269.7Z" fill="#FFFFFF" fill-rule="evenodd" fill-opacity="1"/><path d="M237 1311.9 251.177 1310.34 257 1297 262.823 1310.34 277 1311.9 266.421 1321.7 269.361 1336 257 1328.71 244.639 1336 247.579 1321.7Z" fill="#FFFFFF" fill-rule="evenodd" fill-opacity="1"/><path d="M175 1412.28 189.177 1410.68 195 1397 200.822 1410.68 215 1412.28 204.421 1422.33 207.361 1437 195 1429.53 182.639 1437 185.579 1422.33Z" fill="#FFFFFF" fill-rule="evenodd" fill-opacity="1"/><path d="M79.0001 1392.9 93.1774 1391.34 99 1378 104.823 1391.34 119 1392.9 108.421 1402.7 111.361 1417 99 1409.71 86.6394 1417 89.5789 1402.7Z" fill="#FFFFFF" fill-rule="evenodd" fill-opacity="1"/><path d="M119 1511.9 133.177 1510.34 139 1497 144.823 1510.34 159 1511.9 148.421 1521.7 151.361 1536 139 1528.71 126.639 1536 129.579 1521.7Z" fill="#FFFFFF" fill-rule="evenodd" fill-opacity="1"/><path d="M143 1645.9 157.177 1644.34 163 1631 168.823 1644.34 183 1645.9 172.421 1655.7 175.361 1670 163 1662.71 150.639 1670 153.579 1655.7Z" fill="#FFFFFF" fill-rule="evenodd" fill-opacity="1"/><path d="M555 1476.28 569.178 1474.68 575 1461 580.823 1474.68 595 1476.28 584.421 1486.33 587.361 1501 575 1493.53 562.639 1501 565.579 1486.33Z" fill="#FFFFFF" fill-rule="evenodd" fill-opacity="1"/><path d="M599 1585.9 612.823 1584.34 618.5 1571 624.177 1584.34 638 1585.9 627.686 1595.7 630.552 1610 618.5 1602.71 606.448 1610 609.315 1595.7Z" fill="#FFFFFF" fill-rule="evenodd" fill-opacity="1"/><path d="M702.589 1486 704 1489.38 701.88 1518.97 690.483 1526 693.362 1511.33 683 1501.28 696.886 1499.68Z" fill="#FFFFFF" fill-rule="evenodd" fill-opacity="1"/><path d="M649 1392.9 662.823 1391.34 668.5 1378 674.177 1391.34 688 1392.9 677.686 1402.7 680.552 1417 668.5 1409.71 656.448 1417 659.314 1402.7Z" fill="#FFFFFF" fill-rule="evenodd" fill-opacity="1"/><path d="M509 1279.9 523.177 1278.34 529 1265 534.823 1278.34 549 1279.9 538.421 1289.7 541.361 1304 529 1296.71 516.639 1304 519.579 1289.7Z" fill="#FFFFFF" fill-rule="evenodd" fill-opacity="1"/><path d="M659.777 1257 665.535 1270.68 667.694 1270.93 671.85 1279.68 669.094 1282.33 672 1297 659.777 1289.53 647.554 1297 650.461 1282.33 640 1272.28 654.019 1270.68Z" fill="#FFFFFF" fill-rule="evenodd" fill-opacity="1"/><path d="M427.5 1251 433.177 1264.48 447 1266.05 436.686 1275.95 438.085 1283 418.284 1276.1 418.314 1275.95 408 1266.05 421.823 1264.48Z" fill="#FFFFFF" fill-rule="evenodd" fill-opacity="1"/><path d="M656.291 1697 662.199 1710.34 673 1711.51 672.018 1716.06 665.85 1721.7 668.285 1733.38 668.149 1734.01 667.827 1735.42 656.291 1728.71 643.751 1736 646.733 1721.7 636 1711.9 650.384 1710.34Z" fill="#FFFFFF" fill-rule="evenodd" fill-opacity="1"/><path d="M538 1694.9 551.823 1693.34 557.5 1680 563.177 1693.34 577 1694.9 566.686 1704.7 569.552 1719 557.5 1711.71 545.448 1719 548.314 1704.7Z" fill="#FFFFFF" fill-rule="evenodd" fill-opacity="1"/><path d="M286.675 1729 289.428 1735.41 291.759 1748.6 295 1765.7 286.675 1760.71 274.515 1768 277.407 1753.7 267 1743.9 280.947 1742.34Z" fill="#FFFFFF" fill-rule="evenodd" fill-opacity="1"/><path d="M210 1588.9 224.177 1587.34 230 1574 235.823 1587.34 250 1588.9 239.421 1598.7 242.361 1613 230 1605.71 217.639 1613 220.579 1598.7Z" fill="#FFFFFF" fill-rule="evenodd" fill-opacity="1"/><path d="M134 1759.9 148.177 1758.34 154 1745 159.823 1758.34 174 1759.9 163.421 1769.7 166.361 1784 154 1776.71 141.639 1784 144.579 1769.7Z" fill="#FFFFFF" fill-rule="evenodd" fill-opacity="1"/></g></svg>