<svg width="216" height="188" xmlns="http://www.w3.org/2000/svg" xmlns:xlink="http://www.w3.org/1999/xlink" overflow="hidden"><defs><clipPath id="clip0"><rect x="265" y="2021" width="216" height="188"/></clipPath></defs><g clip-path="url(#clip0)" transform="translate(-265 -2021)"><path d="M446 2025C445.865 2034.01 445.73 2043.03 444.483 2051.73L441.654 2060.35 423.194 2074.71C408.08 2087.08 391.703 2101.41 378.904 2112.53 345.372 2136.98 346.988 2094.04 328.593 2088.77L328 2088.5C328.008 2088.49 328.016 2088.47 328.024 2088.46 330.484 2084.66 333.719 2080.42 336.011 2075.04 340.594 2064.28 346.389 2049.48 352.185 2034.68L446 2025Z" fill="#FCDAD6" fill-rule="evenodd" fill-opacity="1"/><path d="M379.16 2112.31C354.668 2111.11 336.395 2090.97 315.999 2076.65 254.252 2171.33 271.046 2168.79 272.769 2188.91 274.492 2209.04 293.317 2210.47 326.338 2197.39 368.634 2168.28 445.678 2077.58 470.335 2063.53 499.112 2038.61 460.162 2048.31 460.162 2048.31 444.673 2054.86 404.759 2090.01 379.16 2112.31Z" fill="#5EA598" fill-rule="evenodd" fill-opacity="1"/></g></svg>