<svg width="637" height="564" xmlns="http://www.w3.org/2000/svg" xmlns:xlink="http://www.w3.org/1999/xlink" overflow="hidden"><defs><clipPath id="clip0"><rect x="3249" y="728" width="637" height="564"/></clipPath></defs><g clip-path="url(#clip0)" transform="translate(-3249 -728)"><rect x="3251" y="729" width="634" height="560" fill="#C5E0B4" fill-opacity="0"/><path d="M3687.53 956 3744 956 3742.11 967.675C3736.99 1005.98 3723.87 1028.43 3720.19 1053.77 3716.51 1079.1 3720.36 1099.56 3720 1119.69 3719.65 1139.82 3721.06 1157.65 3718.06 1174.53 3715.06 1191.42 3711.11 1210.83 3702.01 1221 3692.91 1231.18 3674.62 1237.8 3663.44 1235.57 3652.27 1233.34 3644.33 1212.84 3643.1 1195.54 3641.88 1178.24 3651.97 1157.3 3656.08 1131.79 3660.18 1106.27 3662.32 1072.64 3667.72 1042.44 3671.77 1019.79 3680.11 992.211 3685.01 970.263L3687.53 956Z" fill="#E1A34E" fill-rule="evenodd" fill-opacity="1"/><path d="M3688.76 993.883C3693.41 993.633 3697.92 993.787 3701.95 994.511 3710.02 995.96 3717.9 999.486 3725.7 1004.05L3732.66 1008.78 3730.6 1015.79 3728.16 1023.45 3720.7 1017.74C3717.11 1015.64 3713.19 1014.03 3708.83 1013.07 3704.47 1012.1 3698.73 1012.28 3692.42 1013.08L3673.4 1016.6 3678.89 995.137Z" fill="#4C352B" fill-rule="evenodd" fill-opacity="1"/><path d="M3682.91 1051.08C3690.02 1050.68 3697.14 1050.99 3703.1 1052.51 3707.07 1053.52 3710.96 1055.05 3714.78 1056.97L3719.67 1059.89 3718.64 1072.07 3718.68 1076.34 3708.62 1071.51C3700.07 1068.95 3685.66 1070.6 3672.24 1072.57L3663.4 1073.88 3666.18 1053.47Z" fill="#4C352B" fill-rule="evenodd" fill-opacity="1"/><path d="M27.674 0 13.0647 20.5813C7.96562 29.9718 4.24301 39.5336 1.87772 48.7851L0 65.027 7.7065 68.6865C15.7309 71.7772 23.5645 73.7502 30.3727 73.2871 43.9888 72.36 60.465 62.0031 65.5933 51.8184L66.1011 47.2614 65.983 41.0342 62.8447 32.0234C59.064 24.5836 53.0342 16.9666 46.602 11.1653 43.3861 8.26444 39.5549 5.78222 35.2635 3.4956Z" fill="#4C352B" fill-rule="evenodd" fill-opacity="1" transform="matrix(-0.615407 0.78821 0.78821 0.615407 3662.9 1151.96)"/><path d="M3686.86 1110.55C3695.05 1110.81 3703.37 1113.15 3711.75 1116.53L3719.99 1120.52 3720 1137.15 3719.66 1136.85C3712.81 1132 3705.28 1128.56 3696.37 1127.91 3687.46 1127.26 3673.75 1131.98 3661.07 1136.82L3654.16 1139.45 3656 1131.87C3657.03 1125.5 3657.93 1118.62 3658.8 1111.41L3658.89 1110.61 3673.72 1111.85C3678.28 1110.93 3682.77 1110.42 3686.86 1110.55Z" fill="#4C352B" fill-rule="evenodd" fill-opacity="1"/></g></svg>