<svg width="637" height="564" xmlns="http://www.w3.org/2000/svg" xmlns:xlink="http://www.w3.org/1999/xlink" overflow="hidden"><defs><clipPath id="clip0"><rect x="1530" y="728" width="637" height="564"/></clipPath></defs><g clip-path="url(#clip0)" transform="translate(-1530 -728)"><rect x="1532" y="729" width="634" height="560" fill="#C5E0B4" fill-opacity="0"/><path d="M1967.8 956 2024.78 956 2022.88 967.676C2017.76 1005.99 2002.32 1027.21 2000.91 1053.77 1999.51 1080.34 2009.06 1108.07 2014.46 1127.09 2019.86 1146.11 2031.48 1153.18 2033.31 1167.88 2035.13 1182.58 2033.63 1208.51 2025.43 1215.26 2017.24 1222.01 1996.71 1223.03 1984.14 1208.37 1971.58 1193.72 1956.45 1156.5 1950.04 1127.33 1943.64 1098.17 1942.54 1062.84 1945.72 1033.38 1948.11 1011.28 1958.52 987.675 1964.75 968.314L1967.8 956Z" fill="#E1A34E" fill-rule="evenodd" fill-opacity="1"/><path d="M1962.24 996.378C1966.88 995.97 1971.39 995.969 1975.45 996.555 1983.56 997.727 1991.56 1000.98 1999.51 1005.28L2011.48 1012.82 2010.67 1015.33 2006.57 1027.99 2005.11 1026.35C1998.84 1020.77 1991.74 1016.5 1982.96 1014.86 1978.57 1014.05 1972.84 1014.43 1966.56 1015.44L1948.93 1019.33 1950.6 1011.2 1955.07 997.539Z" fill="#4C352B" fill-rule="evenodd" fill-opacity="1"/><path d="M1977.19 1050.06C1981.29 1050.21 1985.41 1050.88 1989.56 1051.94L2001.17 1055.86 2001.67 1068.76 2000.84 1071.43 1999.03 1070.41C1995.18 1068.84 1991.07 1067.8 1986.62 1067.46 1977.72 1066.77 1963.99 1071.43 1951.29 1076.21L1944.63 1078.72 1945.28 1057.35 1957.16 1052.94C1964.03 1051.04 1971.05 1049.84 1977.19 1050.06Z" fill="#4C352B" fill-rule="evenodd" fill-opacity="1"/><path d="M2028.2 1154.06 2030.49 1158.03C2031.91 1161.05 2032.98 1164.25 2033.44 1167.92 2035.26 1182.6 2033.76 1208.51 2025.58 1215.25 2017.4 1221.99 1996.9 1223.01 1984.36 1208.37 1981.22 1204.71 1977.92 1199.64 1974.64 1193.64L1970.12 1184.09 1981.41 1173.4C1988.8 1168.09 1997.38 1163.38 2006.86 1159.64Z" fill="#4C352B" fill-rule="evenodd" fill-opacity="1"/><path d="M2008.54 1105.71 2010.04 1111.44 2012.79 1120.88 2011.15 1120.46C2002.83 1119.39 1994.56 1119.88 1986.38 1123.48 1978.21 1127.08 1968.32 1137.68 1959.38 1147.89L1956.78 1150.87 1956.57 1150.29 1950.45 1127.9 1958.85 1119.91C1962.45 1116.96 1966.17 1114.41 1969.85 1112.6 1977.21 1108.99 1985.65 1107.16 1994.64 1106.22Z" fill="#4C352B" fill-rule="evenodd" fill-opacity="1"/></g></svg>