<svg width="636" height="564" xmlns="http://www.w3.org/2000/svg" xmlns:xlink="http://www.w3.org/1999/xlink" overflow="hidden"><defs><clipPath id="clip0"><rect x="-36" y="728" width="636" height="564"/></clipPath></defs><g clip-path="url(#clip0)" transform="translate(36 -728)"><rect x="-36.0001" y="729" width="634" height="560" fill="#C5E0B4" fill-opacity="0"/><path d="M400.313 956 456.995 956 454.942 967.665C450.527 994.935 445.572 1037.73 450.926 1063.28 456.28 1088.84 476.135 1107.33 487.067 1120.97 497.998 1134.61 512.499 1134.61 516.514 1145.12 520.53 1155.63 520.307 1177.1 511.16 1184.03 502.013 1190.96 479.928 1198.79 461.635 1186.71 443.342 1174.64 414.34 1137.75 401.401 1111.58 388.462 1085.42 384 1056.58 384 1029.74 384 1009.62 392.784 986.727 397.929 967.86L400.313 956Z" fill="#E1A34E" fill-rule="evenodd" fill-opacity="1"/><path d="M410.685 993.448C418.828 992.526 427.395 993.646 436.174 995.786L450.621 1000.36 449.113 1016.22 446.925 1014.75C439.452 1010.94 431.5 1008.61 422.592 1009.26 413.683 1009.9 400.799 1016.54 388.947 1023.15L384.182 1025.81 386.158 1009.2 388.368 1000.83 397.862 996.624C402.248 995.053 406.613 993.908 410.685 993.448Z" fill="#4C352B" fill-rule="evenodd" fill-opacity="1"/><path d="M445.134 1042 448.53 1042.17 450 1056.57 447.951 1056.35C443.828 1056.42 439.673 1057.09 435.474 1058.53 427.078 1061.42 416.372 1071.15 406.649 1080.58L394.876 1092 388 1071.2 388.26 1070.87C396.292 1061.76 408.67 1050.66 420.058 1046.21 427.649 1043.25 436.161 1042.15 445.134 1042Z" fill="#4C352B" fill-rule="evenodd" fill-opacity="1"/><path d="M483.061 1117 487.058 1121.65C497.992 1135.17 512.497 1135.17 516.514 1145.58 520.53 1155.99 520.307 1177.25 511.158 1184.12 502.009 1190.98 479.918 1198.73 461.62 1186.77L455 1181.14 456.83 1165.43C459.08 1156.7 462.623 1147.66 467.475 1138.79Z" fill="#4C352B" fill-rule="evenodd" fill-opacity="1"/><path d="M457.83 1083 466 1096.23 463.454 1096.81C455.638 1099.64 448.565 1103.82 442.98 1110.74 437.394 1117.66 433.429 1131.59 430.141 1144.74L428.076 1153 413.826 1133.22 413 1131.8 417.099 1120.06C418.947 1115.79 421.086 1111.83 423.519 1108.56 428.384 1102 435.006 1096.54 442.507 1091.63Z" fill="#4C352B" fill-rule="evenodd" fill-opacity="1"/></g></svg>