<svg width="637" height="564" xmlns="http://www.w3.org/2000/svg" xmlns:xlink="http://www.w3.org/1999/xlink" overflow="hidden"><defs><clipPath id="clip0"><rect x="2438" y="728" width="637" height="564"/></clipPath></defs><g clip-path="url(#clip0)" transform="translate(-2438 -728)"><rect x="2439" y="729" width="633" height="560" fill="#C5E0B4" fill-opacity="0"/><path d="M2874.75 956 2931 956 2929.12 967.658C2924.03 1005.91 2909.99 1028.82 2907.31 1053.63 2904.63 1078.43 2910.68 1096.63 2913.04 1116.48 2915.4 1136.33 2920.49 1156.12 2921.45 1172.73 2922.4 1189.34 2924.88 1206 2918.78 1216.16 2912.68 1226.32 2895.96 1235.9 2884.85 1233.68 2873.73 1231.45 2861.89 1221.87 2857.22 1204.11 2852.55 1186.34 2857.18 1154.04 2856.83 1127.07 2856.48 1100.11 2851.96 1071.73 2855.11 1042.31 2857.48 1020.25 2866.61 992.437 2872.01 970.346L2874.75 956Z" fill="#E1A34E" fill-rule="evenodd" fill-opacity="1"/><path d="M2876.61 997.975C2881.27 997.926 2885.77 998.274 2889.76 999.172 2897.76 1000.97 2905.49 1004.83 2913.08 1009.73L2918.22 1013.55 2917.49 1015.98 2913.56 1028.26 2907.49 1023.18C2904 1020.94 2900.15 1019.16 2895.84 1018.01 2887.21 1015.7 2872.86 1017.76 2859.5 1020.12L2858.97 1020.22 2859.18 1019.05 2863.26 1003.3 2866.26 998.839Z" fill="#4C352B" fill-rule="evenodd" fill-opacity="1"/><path d="M2870.39 1053.38C2877.46 1052.57 2884.59 1052.48 2890.62 1053.66 2894.64 1054.45 2898.61 1055.75 2902.54 1057.44L2907.23 1059.9 2906.86 1071.43 2907.35 1076.49 2897.22 1072.32C2888.53 1070.25 2874.25 1072.71 2860.95 1075.45L2854.18 1076.84 2853.8 1064.49 2854.2 1056.64Z" fill="#4C352B" fill-rule="evenodd" fill-opacity="1"/><path d="M2900.65 1176.2 2922.05 1180.39 2922.97 1197.24C2922.94 1204.75 2922.03 1211.46 2918.96 1216.54 2912.83 1226.7 2896.01 1236.29 2884.83 1234.07 2873.64 1231.84 2861.74 1222.26 2857.04 1204.48L2855.05 1188.8 2855.79 1183.8 2870.89 1178.11C2879.97 1176.21 2890.02 1175.5 2900.65 1176.2Z" fill="#4C352B" fill-rule="evenodd" fill-opacity="1"/><path d="M2891.06 1116.67C2895.33 1116.96 2899.69 1117.63 2904.11 1118.55L2913.92 1121.29 2916.59 1137.82 2915.5 1137.14C2907.9 1133.58 2899.87 1131.53 2890.99 1132.47 2882.11 1133.41 2869.46 1140.49 2857.84 1147.5L2855.92 1148.65 2856.64 1127.41 2856.53 1125.19 2865.85 1120.68C2870.18 1118.96 2874.5 1117.67 2878.56 1117.07 2882.61 1116.47 2886.79 1116.38 2891.06 1116.67Z" fill="#4C352B" fill-rule="evenodd" fill-opacity="1"/></g></svg>