<svg width="642" height="569" xmlns="http://www.w3.org/2000/svg" xmlns:xlink="http://www.w3.org/1999/xlink" overflow="hidden"><defs><clipPath id="clip0"><rect x="123" y="1530" width="642" height="569"/></clipPath></defs><g clip-path="url(#clip0)" transform="translate(-123 -1530)"><rect x="128" y="1535" width="634" height="560" fill="#C5E0B4" fill-opacity="0"/><path d="M563.639 1762 621 1762 619.001 1773.68C613.355 1809.43 598.905 1818.97 593.917 1844.32 588.929 1869.67 591.5 1902.56 589.075 1925.81 586.649 1949.06 586.252 1966.64 579.363 1983.8 572.474 2000.96 563.597 2019.86 547.741 2028.75 531.885 2037.64 495.433 2039.35 484.226 2037.12 473.019 2034.89 472.822 2007.39 479.353 1990.85 485.883 1974.32 514.122 1962.67 523.411 1937.91 532.7 1913.16 528.119 1872.52 535.089 1842.3 540.317 1819.63 552.462 1794.94 559.856 1774.87L563.639 1762Z" fill="#E1A34E" fill-rule="evenodd" fill-opacity="1"/><path d="M30.2442 4.61581C22.0336 9.9415 14.7847 15.8591 9.45971 22.9596 6.79669 26.5101 4.45486 30.7996 2.43314 35.423L0 42.3172 6.4477 45.8618 18.7444 55.1498 22.7918 41.2107C25.0914 34.72 27.7046 29.0742 30.7621 25.3267 36.876 17.8313 44.6178 13.2949 53.1735 10.2374L53.3388 10.1999 47.8042 5.9753 38.5296 0Z" fill="#4C352B" fill-rule="evenodd" fill-opacity="1" transform="matrix(-0.813531 0.581522 0.581522 0.813531 577.377 1786.52)"/><path d="M41.9916 1.01699C37.413 1.73264 33.0224 2.82723 28.8829 4.42743 22.6741 6.82772 16.1947 11.0217 10.1728 15.8446L0 25.5241 2.04662 35.2235 4.91608 50.486 14.2603 41.5153C24.864 31.3363 36.5386 20.8383 45.6955 17.7213L58.8735 15.4379 56.7839 6.36795 54.7474 0Z" fill="#4C352B" fill-rule="evenodd" fill-opacity="1" transform="matrix(-0.985981 0.166859 0.166859 0.985981 586.348 1850.65)"/><path d="M28.9176 0 14.6212 22.4125C8.656 34.6377 4.30039 47.0867 1.53343 59.1311L0 73.8887 13.4671 77.0552C31.2493 79.1968 53.7279 77.2115 61.8761 74.6141 72.7407 71.151 69.8641 43.8481 61.5408 28.176 57.3794 20.3399 47.972 14.3224 38.1084 7.32287Z" fill="#4C352B" fill-rule="evenodd" fill-opacity="1" transform="matrix(-0.993719 0.111906 0.111906 0.993719 537.253 1955.65)"/><path d="M47.0084 0 29.6823 10.9192C21.2017 17.1417 13.7143 24.056 8.21319 32.3529 5.46283 36.5017 3.04341 41.5145 0.954921 46.9164L0 49.9767 2.46345 57.6291C5.66312 66.5893 9.24931 74.6899 14.3967 82.3484L14.6836 82.7158 15.701 78.1599C19.4189 61.5083 23.9015 43.8769 30.2175 35.1188 36.5331 26.361 44.5302 21.0602 53.3677 17.4881L55.3428 16.9789 50.4062 6.26257 50.3394 6.03809Z" fill="#4C352B" fill-rule="evenodd" fill-opacity="1" transform="matrix(-0.978016 0.20853 0.20853 0.978016 575.966 1899.95)"/></g></svg>