<svg width="490" height="592" xmlns="http://www.w3.org/2000/svg" xmlns:xlink="http://www.w3.org/1999/xlink" overflow="hidden"><defs><clipPath id="clip0"><rect x="3822" y="1915" width="490" height="592"/></clipPath></defs><g clip-path="url(#clip0)" transform="translate(-3822 -1915)"><path d="M21.794 468.107C16.3791 464.155 10.9642 460.204 7.7445 432.983 4.52483 405.762-4.2561 355.418 2.47594 304.781 9.20799 254.145 28.2333 178.921 48.1368 129.163 68.0402 79.4043 121.897 6.22985 121.897 6.22985 137.117-11.332 138.288 12.6692 139.458 23.7917 140.629 34.9142 128.629 59.7935 128.921 72.9649 129.214 86.1363 142.971 90.2341 141.215 102.82 139.458 115.406 120.14 136.773 118.384 148.481 116.628 160.189 126.58 163.994 130.677 173.067 134.775 182.141 138.873 192.532 142.971 202.923" fill="#67B5A7" fill-rule="evenodd" fill-opacity="1" transform="matrix(-0.995482 0.0949507 0.0949507 0.995482 4032.37 1907.28)"/><path d="M0 440.803C5.56126 355.481 11.1225 270.16 29.8552 196.693 48.5878 123.226 80.4919 61.6129 112.396 0" stroke="#237C69" stroke-width="6.875" stroke-linecap="butt" stroke-linejoin="miter" stroke-miterlimit="8" stroke-opacity="1" fill="none" fill-rule="evenodd" transform="matrix(-0.999708 -0.0241632 -0.0241632 0.999708 4048.07 1997.95)"/><path d="M19.2394 513.485C7.3852 485.825-4.46905 458.165 1.67759 402.845 7.82424 347.525 27.1423 247.423 56.1193 181.566 85.0964 115.709 175.54 7.70325 175.54 7.70325 199.248-16.5907 198.663 23.2162 198.37 35.8022 198.078 48.3882 176.418 66.5355 173.784 83.2192 171.149 99.903 189.004 120.392 182.565 135.905 176.125 151.418 143.343 160.199 135.148 176.297 126.952 192.395 139.831 216.104 133.391 232.495 126.952 248.886 99.4386 258.838 96.5116 274.643 93.5846 290.449 119.049 310.06 115.83 327.329 112.61 344.598 82.1694 361.282 77.1936 378.258 72.2177 395.235 93.2919 406.065 85.9745 429.188 78.6571 452.311 55.973 484.654 33.2889 516.997" fill="#237C69" fill-rule="evenodd" fill-opacity="1" transform="matrix(-0.995482 0.0949507 0.0949507 0.995482 4022.7 1980.81)"/><path d="M262.373 396.898C274.666 391.923 273.788 362.36 267.641 330.163 261.495 297.967 253.592 253.184 225.493 203.718 197.394 154.252 135.635 67.3209 99.0473 33.368 62.4601-0.584934 5.96942 0.000460941 5.96942 0.000460941-8.37277 1.46395 6.84751 33.0753 12.9942 42.1489 19.1408 51.2225 36.9954 45.954 42.8493 54.4422 48.7033 62.9305 41.9712 82.5412 48.1179 93.0783 54.2646 103.615 73.5826 104.786 79.7293 117.665 85.8759 130.544 77.095 159.228 84.9978 170.35 92.9007 181.473 118.365 175.912 127.146 184.4 135.927 192.888 130.366 210.743 137.683 221.28 145.001 231.817 165.49 235.915 171.051 247.623 176.612 259.331 166.953 279.234 171.051 291.527 175.149 303.821 191.833 309.967 195.638 321.383 199.443 332.798 183.637 346.262 193.881 360.019 204.126 373.775 250.079 401.874 262.373 396.898Z" fill="#237C69" fill-rule="evenodd" fill-opacity="1" transform="matrix(-0.995482 0.0949507 0.0949507 0.995482 4309.69 2040.57)"/><path d="M0 440.803C5.56126 355.481 11.1225 270.16 29.8552 196.693 48.5878 123.226 80.4919 61.6129 112.396 0" stroke="#67B5A7" stroke-width="6.875" stroke-linecap="butt" stroke-linejoin="miter" stroke-miterlimit="8" stroke-opacity="1" fill="none" fill-rule="evenodd" transform="matrix(-0.995482 0.0949507 0.0949507 0.995482 4002.54 2064.57)"/><path d="M203.718 388.117C182.058 318.601 160.398 249.086 126.445 184.399 92.4925 119.713 58.5395 63.369 0 0" stroke="#67B5A7" stroke-width="6.875" stroke-linecap="butt" stroke-linejoin="miter" stroke-miterlimit="8" stroke-opacity="1" fill="none" fill-rule="evenodd" transform="matrix(-0.995482 0.0949507 0.0949507 0.995482 4246.72 2090.68)"/></g></svg>