<svg width="2722" height="2437" xmlns="http://www.w3.org/2000/svg" xmlns:xlink="http://www.w3.org/1999/xlink" overflow="hidden"><defs><clipPath id="clip0"><rect x="889" y="-155" width="2722" height="2437"/></clipPath><clipPath id="clip1"><rect x="1536" y="403" width="178" height="178"/></clipPath><clipPath id="clip2"><rect x="1536" y="403" width="178" height="178"/></clipPath><clipPath id="clip3"><rect x="1536" y="403" width="178" height="178"/></clipPath><clipPath id="clip4"><rect x="1358" y="586" width="210" height="211"/></clipPath><clipPath id="clip5"><rect x="1358" y="586" width="210" height="211"/></clipPath><clipPath id="clip6"><rect x="1358" y="586" width="210" height="211"/></clipPath></defs><g clip-path="url(#clip0)" transform="translate(-889 155)"><path d="M1937.55 149.939C1589.23 187.814 1187.89 381.602 1019.71 707.164 851.531 1032.73 1001.01 1523.22 1184.06 1782.6 1367.12 2041.98 1765.84 2233.96 2118.06 2263.45 2470.28 2292.95 3050.08 2134.1 3297.38 1959.57 3544.69 1785.04 3633.19 1462.86 3601.89 1216.25 3570.59 969.64 3387.43 655.643 3109.6 479.919 2831.77 304.194 2285.86 112.065 1937.55 149.939Z" fill="#FFFFFF" fill-rule="evenodd" fill-opacity="1"/><path d="M2085.5 1244C2085.5 1159.78 2153.78 1091.5 2238 1091.5L2495 1091.5C2579.22 1091.5 2647.5 1159.78 2647.5 1244L2647.5 1244C2647.5 1328.22 2579.22 1396.5 2495 1396.5L2238 1396.5C2153.78 1396.5 2085.5 1328.22 2085.5 1244Z" stroke="#595959" stroke-width="4.58333" stroke-linecap="butt" stroke-linejoin="miter" stroke-miterlimit="8" stroke-opacity="1" fill="#595959" fill-rule="evenodd" fill-opacity="1"/><path d="M2049 1151.5C2049 1041.32 2138.32 952 2248.5 952L2485.5 952C2595.68 952 2685 1041.32 2685 1151.5 2685 1261.68 2595.68 1351 2485.5 1351L2248.5 1351C2138.32 1351 2049 1261.68 2049 1151.5Z" fill="#7F7F7F" fill-rule="evenodd" fill-opacity="1"/><path d="M2321.09 1438 2373.88 1438 2373.88 1670.46 2397.13 1671.95C2513.04 1687.87 2613.7 1761.01 2661 1867.31L2623.59 1883.06C2576.03 1776.11 2467.07 1707.3 2346.83 1708.28 2227.23 1709.26 2119.44 1779.11 2072.57 1886L2035 1870.61C2081.56 1764.31 2181.17 1690.26 2296.4 1672.7L2321.09 1670.74Z" fill="#7F7F7F" fill-rule="evenodd" fill-opacity="1"/><path d="M41.1562 0 51.8436 0C74.5735-7.73429e-15 92.9998 18.4262 92.9998 41.1561L92.9998 243 0 243 0 41.1561C-7.7343e-15 18.4262 18.4263 0 41.1562 0Z" fill="#595959" fill-rule="evenodd" fill-opacity="1" transform="matrix(1 0 0 -1 2302 1509)"/><path d="M2472.85 723.09C2484.14 723.556 2496.01 725.887 2508.12 731.481 2532.33 742.668 2562.44 753.544 2586.34 793.009 2610.24 832.474 2641.52 918.683 2651.52 968.272 2661.52 1017.86 2646.86 1067.74 2646.34 1090.54 2645.83 1113.35 2610.7 1069.35 2606.89 1094.7 2603.07 1120.05 2573.94 1143.28 2581.02 1202.68 2451.74 1212.35 2353.94 1272.28 2135.71 1213.51 2129.35 1167.59 2156.31 1125.15 2151.48 1103.71 2067.2 1113.09 2047.42 1067.64 2044.46 1022.82 2041.51 978.006 2052.79 913.35 2076.06 869.454 2099.33 825.558 2151.8 777.782 2184.08 759.448 2216.36 741.114 2269.74 759.448 2269.74 759.448 2270.8 751.794 2272.06 743.538 2273.5 735.198L2274.91 727.988 2284.82 733.596C2298.24 739.819 2314.43 743.453 2331.86 743.453 2349.28 743.453 2365.47 739.819 2378.9 733.596L2387.64 728.644 2387.93 732.004C2388.61 739.415 2389.46 746.826 2390.79 753.855 2404.03 749.065 2421.52 729.616 2441.08 725.887 2450.85 724.023 2461.56 722.624 2472.85 723.09Z" fill="#9EC3E7" fill-rule="evenodd" fill-opacity="1"/><path d="M1804.38 1152.52 1804.38 1152.52C1816.39 1155.06 1824.06 1166.85 1821.52 1178.85L1665.4 1917.62 1619.99 1917.62 1778.06 1169.66C1780.59 1157.66 1792.38 1149.99 1804.38 1152.52Z" fill="#D2CCCC" fill-rule="evenodd" fill-opacity="1"/><path d="M786.69 22.2127 786.69 22.2127C786.69 34.4804 776.745 44.4255 764.477 44.4255L9.38826 44.4251 0 0 764.478 0C776.745 0 786.69 9.94513 786.69 22.2127Z" fill="#D2CCCC" fill-rule="evenodd" fill-opacity="1" transform="matrix(-0.206761 -0.978391 -0.978391 0.206761 2021.83 1917.62)"/><path d="M2994.8 1152.52 2994.8 1152.52C3006.8 1155.06 3014.48 1166.85 3011.94 1178.85L2855.82 1917.62 2810.41 1917.62 2968.48 1169.66C2971.01 1157.66 2982.8 1149.99 2994.8 1152.52Z" fill="#D2CCCC" fill-rule="evenodd" fill-opacity="1"/><path d="M786.69 22.2127 786.69 22.2127C786.69 34.4804 776.745 44.4255 764.477 44.4255L9.38826 44.4251 0 0 764.478 0C776.745 0 786.69 9.94513 786.69 22.2127Z" fill="#D2CCCC" fill-rule="evenodd" fill-opacity="1" transform="matrix(-0.206761 -0.978391 -0.978391 0.206761 3212.25 1917.62)"/><path d="M2235.41 398.969C2222.29 406.478 2203.85 418.031 2191.85 437.093 2179.84 456.154 2168.95 491.678 2163.36 513.34 2157.78 535.001 2161.69 547.998 2158.34 567.059 2154.98 586.121 2144.37 607.204 2143.25 627.71 2142.14 648.216 2144.65 678.831 2151.63 690.094 2158.61 701.358 2168.11 692.983 2185.14 695.293L2253.84 703.957C2277.02 706.846 2281.49 717.82 2324.22 712.622 2366.95 707.423 2510.21 672.765 2510.21 672.765 2519.98 661.213 2525.57 655.436 2523.61 632.909 2521.66 610.381 2507.97 572.547 2498.48 537.6 2488.98 502.653 2486.19 451.822 2466.64 423.229 2447.09 394.637 2408.56 374.997 2381.19 366.044 2353.82 357.091 2320.87 365.178 2302.44 369.51 2284 373.842 2281.77 387.127 2270.6 392.037 2259.43 396.947 2248.54 391.46 2235.41 398.969Z" fill="#404040" fill-rule="evenodd" fill-opacity="1"/><path d="M2317.24 658.046C2320.59 658.163 2324.08 658.475 2327.69 658.634 2342.13 659.271 2377.76 675.46 2377.76 675.46L2379.52 678.954 2381.15 682.191C2384.01 689.686 2385.4 699.328 2386.41 709.829L2388 728.247 2379.23 733.18C2365.77 739.38 2349.55 743 2332.08 743 2314.61 743 2298.39 739.38 2284.93 733.18L2275 727.594 2278.45 710.116 2279.87 704.279 2281.26 698.561C2284.2 687.459 2287.51 677.904 2291.12 671.636 2298.36 659.098 2307.19 657.695 2317.24 658.046Z" fill="#FCDAD6" fill-rule="evenodd" fill-opacity="1"/><path d="M2290.5 750.5C2288.42 758.823 2286.34 767.146 2286.51 774.979 2286.68 782.812 2289.09 790.156 2291.5 797.5" stroke="#5B9BD5" stroke-width="4.58333" stroke-linecap="butt" stroke-linejoin="miter" stroke-miterlimit="8" stroke-opacity="1" fill="none" fill-rule="evenodd"/><path d="M2314.5 756.5C2313 762.611 2311.5 768.722 2311.5 776.056 2311.5 783.389 2313 791.945 2314.5 800.5" stroke="#5B9BD5" stroke-width="4.58333" stroke-linecap="butt" stroke-linejoin="miter" stroke-miterlimit="8" stroke-opacity="1" fill="none" fill-rule="evenodd"/><path d="M2332.5 752.5C2334.81 759.744 2337.13 766.988 2337.46 773.988 2337.79 780.988 2336.14 787.744 2334.48 794.5" stroke="#5B9BD5" stroke-width="4.58333" stroke-linecap="butt" stroke-linejoin="miter" stroke-miterlimit="8" stroke-opacity="1" fill="none" fill-rule="evenodd"/><path d="M2358.5 749.5C2362.39 758.467 2366.27 767.435 2367.24 774.935 2368.21 782.435 2366.27 788.467 2364.33 794.5" stroke="#5B9BD5" stroke-width="4.58333" stroke-linecap="butt" stroke-linejoin="miter" stroke-miterlimit="8" stroke-opacity="1" fill="none" fill-rule="evenodd"/><path d="M2376.5 745.5C2380.25 752.608 2384 759.716 2385.11 768.049 2386.23 776.382 2384.72 785.941 2383.2 795.5" stroke="#5B9BD5" stroke-width="4.58333" stroke-linecap="butt" stroke-linejoin="miter" stroke-miterlimit="8" stroke-opacity="1" fill="none" fill-rule="evenodd"/><path d="M34.9395 0 28.361 2.04019C17.7167 5.6943 8.86583 9.27794 8.86583 9.27794L7.11589 12.3721 5.49482 15.2385C2.65334 21.8749 1.27811 30.4123 0.267256 39.7104L0 42.4759 11.2006 44.1816C16.5459 44.7183 22.0805 45 27.7493 45 57.5104 45 83.5735 37.2325 97.9752 25.6041L102 21.747 100.098 16.2076 99.2056 14.2101 96.1035 13.1491C84.0499 9.09102 58.4173 0.922161 46.2159 0.498798Z" fill="#FBC3BC" fill-rule="evenodd" fill-opacity="1" transform="matrix(-1 0 0 1 2386 671)"/><path d="M2204 582C2204 512.964 2261.31 457 2332 457 2402.69 457 2460 512.964 2460 582 2460 651.036 2402.69 707 2332 707 2261.31 707 2204 651.036 2204 582Z" fill="#FBDAD6" fill-rule="evenodd" fill-opacity="1"/><path d="M2164 593.5C2164 571.685 2179.45 554 2198.5 554 2217.55 554 2233 571.685 2233 593.5 2233 615.315 2217.55 633 2198.5 633 2179.45 633 2164 615.315 2164 593.5Z" fill="#FBDAD6" fill-rule="evenodd" fill-opacity="1"/><path d="M2421 593.5C2421 571.685 2436.67 554 2456 554 2475.33 554 2491 571.685 2491 593.5 2491 615.315 2475.33 633 2456 633 2436.67 633 2421 615.315 2421 593.5Z" fill="#FBDAD6" fill-rule="evenodd" fill-opacity="1"/><path d="M2374.86 469.881C2357.88 492.429 2351.62 498.58 2335.78 511.341 2319.93 524.102 2252.68 567.14 2247.64 566.356 2242.59 565.571 2250.22 555.789 2249.78 546.448 2231.79 560.838 2195.82 603.95 2186.06 588.831 2175.23 549.305 2174.78 505.36 2187.98 473.43 2201.17 441.5 2224.95 406.072 2265.23 397.25 2305.51 388.428 2388.39 371.146 2429.67 420.498 2470.95 469.85 2469.93 511.444 2476.36 537.782 2482.79 564.119 2468.24 578.522 2468.24 578.522 2459.1 576.636 2437.11 545.703 2421.55 526.465 2405.98 507.226 2393.8 489.497 2374.86 469.881Z" fill="#404040" fill-rule="evenodd" fill-opacity="1"/><path d="M2223 625.5C2223 618.044 2233.97 612 2247.5 612 2261.03 612 2272 618.044 2272 625.5 2272 632.956 2261.03 639 2247.5 639 2233.97 639 2223 632.956 2223 625.5Z" fill="#FBC3BC" fill-rule="evenodd" fill-opacity="1"/><path d="M2393 621.5C2393 614.044 2403.97 608 2417.5 608 2431.03 608 2442 614.044 2442 621.5 2442 628.956 2431.03 635 2417.5 635 2403.97 635 2393 628.956 2393 621.5Z" fill="#FBC3BC" fill-rule="evenodd" fill-opacity="1"/><path d="M2270 581.5C2270 574.596 2275.37 569 2282 569 2288.63 569 2294 574.596 2294 581.5 2294 588.404 2288.63 594 2282 594 2275.37 594 2270 588.404 2270 581.5Z" fill="#000000" fill-rule="evenodd" fill-opacity="1"/><path d="M2374 582.5C2374 575.596 2379.37 570 2386 570 2392.63 570 2398 575.596 2398 582.5 2398 589.404 2392.63 595 2386 595 2379.37 595 2374 589.404 2374 582.5Z" fill="#000000" fill-rule="evenodd" fill-opacity="1"/><path d="M2327.02 531.5C2324.86 546.134 2322.71 560.769 2323.79 569.052 2324.86 577.336 2328.99 580.097 2333.48 581.201 2337.97 582.306 2346.23 573.654 2350.72 575.679 2355.2 577.704 2361.31 588.38 2360.41 593.351 2359.51 598.321 2352.42 601.91 2345.33 605.5" stroke="#FBC3BC" stroke-width="4.58333" stroke-linecap="butt" stroke-linejoin="miter" stroke-miterlimit="8" stroke-opacity="1" fill="none" fill-rule="evenodd"/><path d="M2344.5 628.5C2339.62 628.409 2334.74 628.318 2331.24 626.318 2327.74 624.318 2325.62 620.409 2323.5 616.5" stroke="#000000" stroke-width="4.58333" stroke-linecap="butt" stroke-linejoin="miter" stroke-miterlimit="8" stroke-opacity="1" fill="none" fill-rule="evenodd"/><path d="M2350.5 577.5C2350.5 548.781 2373.11 525.5 2401 525.5 2428.89 525.5 2451.5 548.781 2451.5 577.5 2451.5 606.219 2428.89 629.5 2401 629.5 2373.11 629.5 2350.5 606.219 2350.5 577.5Z" stroke="#000000" stroke-width="6.875" stroke-linecap="butt" stroke-linejoin="miter" stroke-miterlimit="8" stroke-opacity="1" fill="none" fill-rule="evenodd"/><path d="M2309.5 574.5C2316.87 571.101 2324.25 567.703 2331.08 567.509 2337.91 567.315 2344.21 570.325 2350.5 573.335" stroke="#000000" stroke-width="6.875" stroke-linecap="butt" stroke-linejoin="miter" stroke-miterlimit="8" stroke-opacity="1" fill="none" fill-rule="evenodd"/><path d="M2209.5 585C2209.5 556.005 2232.11 532.5 2260 532.5 2287.89 532.5 2310.5 556.005 2310.5 585 2310.5 613.995 2287.89 637.5 2260 637.5 2232.11 637.5 2209.5 613.995 2209.5 585Z" stroke="#000000" stroke-width="6.875" stroke-linecap="butt" stroke-linejoin="miter" stroke-miterlimit="8" stroke-opacity="1" fill="none" fill-rule="evenodd"/><path d="M1501 1151.5C1501 1136.31 1513.31 1124 1528.5 1124L2706.5 1124C2721.69 1124 2734 1136.31 2734 1151.5 2734 1166.69 2721.69 1179 2706.5 1179L1528.5 1179C1513.31 1179 1501 1166.69 1501 1151.5Z" fill="#D2CCCC" fill-rule="evenodd" fill-opacity="1"/><path d="M2118 1151.5C2118 1136.31 2130.31 1124 2145.5 1124L3322.5 1124C3337.69 1124 3350 1136.31 3350 1151.5L3350 1151.5C3350 1166.69 3337.69 1179 3322.5 1179L2145.5 1179C2130.31 1179 2118 1166.69 2118 1151.5Z" fill="#C2BCBC" fill-rule="evenodd" fill-opacity="1"/><path d="M0 53.763 555.767 0 569 645.158 29.7731 681 0 53.763Z" fill="#9BE4FF" fill-rule="evenodd" fill-opacity="1" transform="matrix(-1 0 0 1 1757 271)"/><path d="M0 0 69.1632 0 69.1632 56.6956 177.519 56.6956 177.519 36.6853 248.988 36.6853 248.988 91.1575 308.929 91.1575 308.929 47.8021 361.954 47.8021 361.954 18.8985 412.674 18.8985 412.674 43.3554 444.95 43.3554 444.95 6.67004 527.946 6.67004 551 219 13.8326 198.99 0 0Z" fill="#50A5CB" fill-rule="evenodd" fill-opacity="1" transform="matrix(-1 0 0 1 1724 787)"/><path d="M0 85.0001C-2.16433e-14 38.0558 38.0558 0 85.0001 0 131.944-2.16433e-14 170 38.0558 170 85.0001 170 131.944 131.944 170 85.0001 170 38.0558 170-3.24649e-14 131.944 0 85.0001Z" fill="#FCDF2C" fill-rule="evenodd" fill-opacity="1" transform="matrix(-1 0 0 1 1422 429)"/><g clip-path="url(#clip1)"><g clip-path="url(#clip2)"><g clip-path="url(#clip3)"><path d="M144.181 88.3156C143.628 88.3156 142.891 88.3156 142.338 88.3156 142.338 88.3156 142.338 88.3156 142.338 88.3156 142.338 79.2813 137.913 70.9844 130.722 65.8219 123.347 60.6594 113.944 59.3688 105.463 62.3188 98.4563 48.675 82.9688 41.6688 68.2188 45.1719 53.4688 48.675 42.775 61.95 42.775 77.2531 42.775 77.2531 42.775 77.4375 42.775 77.6219 32.6344 75.9625 22.4938 80.2031 16.225 88.3156 10.1406 96.6125 9.03438 107.491 13.275 116.709 17.7 125.928 26.9188 132.013 37.0594 132.566L37.0594 132.75 143.997 132.75C156.166 132.75 166.122 122.794 166.122 110.625 166.122 98.4563 156.35 88.3156 144.181 88.3156Z" fill="#E3F6FF" fill-rule="nonzero" fill-opacity="1" transform="matrix(-1 0 0 1 1714 404)"/></g></g></g><g clip-path="url(#clip4)"><g clip-path="url(#clip5)"><g clip-path="url(#clip6)"><path d="M170.248 104.282C169.595 104.282 168.724 104.282 168.071 104.282 168.071 104.282 168.071 104.282 168.071 104.282 168.071 93.6146 162.846 83.8177 154.355 77.7219 145.647 71.626 134.544 70.1021 124.529 73.5854 116.256 57.475 97.9688 49.2021 80.5521 53.3385 63.1354 57.475 50.5083 73.15 50.5083 91.2198 50.5083 91.2198 50.5083 91.4375 50.5083 91.6552 38.5344 89.6958 26.5604 94.7031 19.1583 104.282 11.974 114.079 10.6677 126.924 15.675 137.809 20.9 148.695 31.7854 155.879 43.7594 156.532L43.7594 156.75 170.03 156.75C184.399 156.75 196.155 144.994 196.155 130.625 196.155 116.256 184.617 104.282 170.248 104.282Z" fill="#E3F6FF" fill-rule="nonzero" fill-opacity="1" transform="matrix(1 0 0 1.00478 1358 586)"/></g></g></g><path d="M912.676 1071.75 912.77 1112.11C933.277 1745.37 1541.18 2245.2 2285.6 2255.18L2347.1 2254.69 2339.38 2256.11C1710.03 2359.08 1116.36 2082.22 941.872 1568.11 892.02 1421.22 881.106 1268.87 904.059 1119.14Z" fill="#1C283A" fill-rule="evenodd" fill-opacity="1"/><path d="M1810.28 1005.52C1821.82 1005.49 1835.13 1009.49 1847.49 1017.53 1853.67 1021.55 1859.02 1026.2 1863.41 1031.16L1864.21 1032.39 1852.9 1028.71C1827.94 1022.58 1808.17 1023.85 1804.44 1033.11 1799.46 1045.46 1824.85 1067.34 1861.17 1081.99L1864.55 1083.09 1862.28 1084.98C1848.66 1091.06 1827.96 1088.08 1809.43 1076.03 1784.72 1059.95 1773.21 1033.82 1783.72 1017.67 1788.98 1009.6 1798.74 1005.54 1810.28 1005.52Z" fill="#8597B1" fill-rule="evenodd" fill-opacity="1"/><path d="M28.8022 0 110.198 0C126.105-4.64693e-15 139 12.8952 139 28.8022L139 146 0 146 0 28.8022C-4.64693e-15 12.8952 12.8952 0 28.8022 0Z" fill="#D6DDE5" fill-rule="evenodd" fill-opacity="1" transform="matrix(1 0 0 -1 1828 1129)"/><path d="M19.4999 0 19.4999 0C30.2694-2.38713e-15 38.9998 8.73041 38.9998 19.4999L38.9998 75.0003 0 75.0003 0 19.4999C-2.38714e-15 8.73041 8.73041 0 19.4999 0Z" fill="#FFFFFF" fill-rule="evenodd" fill-opacity="1" transform="matrix(1 0 0 -1 1907 1060)"/><path d="M1815 985C1815 978.373 1820.37 973 1827 973L1967 973C1973.63 973 1979 978.373 1979 985L1979 985C1979 991.628 1973.63 997 1967 997L1827 997C1820.37 997 1815 991.627 1815 985Z" fill="#8597B1" fill-rule="evenodd" fill-opacity="1"/><path d="M2285 1099.09C2285 1090.75 2291.75 1084 2300.09 1084L2485.92 1084C2494.25 1084 2501 1090.75 2501 1099.09L2501 1108.91C2501 1117.25 2494.25 1124 2485.92 1124L2300.09 1124C2291.75 1124 2285 1117.25 2285 1108.91Z" fill="#42413B" fill-rule="evenodd" fill-opacity="1"/><path d="M2418 1124 2465.55 847.514C2475.3 808.057 2482.24 797.85 2520.05 796L2862.27 797.394C2894.19 800.172 2903.66 802.951 2894.89 839.157L2848.62 1121.21 2418 1124Z" fill="#4F4F4F" fill-rule="evenodd" fill-opacity="1"/><path d="M53.2602 25.792C48.2561 24.2631 41.705 25.6775 35.4523 29.5571L32.6312 31.8823 32.5086 30.5948C31.0492 23.1511 27.5702 17.1189 23.0883 14.1116 21.0963 12.775 18.9063 12.0359 16.6074 12.0359 14.3086 12.0359 12.1186 12.775 10.1268 14.1116L6.98852 17.4683 8.64511 19.4188C9.6319 21.2709 10.1775 23.3071 10.1775 25.4446 10.1775 29.7194 7.99496 33.5897 4.46594 36.3912L0 38.7814 1.26626 48.7305C3.7939 58.2105 9.71093 64.8626 16.6074 64.8626L19.8379 63.828 21.482 66.7954C28.1793 73.0961 41.7119 69.5908 51.7075 58.9661 61.7032 48.3414 64.3772 34.6203 57.6799 28.3196 56.424 27.1381 54.9281 26.3015 53.2602 25.792ZM39.639 0.902063C38.7011 0.321225 37.6697 0 36.5873 0 32.2571 0 28.7469 5.13898 28.7467 11.4784 28.7467 17.8177 32.2569 22.9567 36.5871 22.9567 40.9172 22.9567 44.4274 17.8177 44.4276 11.4784 44.4276 6.72383 42.453 2.64458 39.639 0.902063Z" fill="#6E6E6E" fill-rule="evenodd" fill-opacity="1" transform="matrix(-0.929607 -0.368552 -0.368552 0.929607 2727.54 894.568)"/><path d="M2195.99 913.5C2198.17 948.275 2193.34 975.647 2181.5 1004.5" stroke="#5B9BD5" stroke-width="4.58333" stroke-linecap="butt" stroke-linejoin="miter" stroke-miterlimit="8" stroke-opacity="1" fill="#A6A1F1" fill-rule="evenodd" fill-opacity="1"/><path d="M0 105C-2.67358e-14 47.0101 47.0101 0 105 0 162.99-2.67358e-14 210 47.0101 210 105 210 162.99 162.99 210 105 210 47.0101 210-4.01037e-14 162.99 0 105Z" fill="#FCDF2C" fill-rule="evenodd" fill-opacity="0.501961" transform="matrix(-1 0 0 1 1443 409)"/><path d="M277.975 353.452 254.871 717.257 45.9965 682.376 62.6989 353.452ZM569.948 353.452 533.086 763.716 304.516 725.547 328.147 353.452ZM297.282 49.4437 281.155 303.381 65.2418 303.381 78.5591 41.1183ZM596.24 60.8226 574.446 303.381 331.327 303.381 347.333 51.3485ZM643.916 25.2437 34.5526 0 0 722.301 573.723 816.809Z" fill="#C2BCBC" fill-rule="evenodd" fill-opacity="1" transform="matrix(-0.993392 -0.11477 -0.11477 0.993392 1821.22 290.521)"/><path d="M2815.5-56.1364C2787.06 7.90168 2758.62 71.9397 2711.31 80.3184 2664.01 88.6971 2578.99 32.4395 2531.69-5.8635 2484.38-44.1664 2427.5-149.5 2427.5-149.5 2432.29-26.2121 2431.09 87.5002 2431.09 87.5002" stroke="#407281" stroke-width="6.875" stroke-linecap="butt" stroke-linejoin="miter" stroke-miterlimit="8" stroke-opacity="1" fill="none" fill-rule="evenodd"/><path d="M2429.48 32C2436.53 32 2442.25 37.7151 2442.25 44.7653L2442.25 65.4893 2446.51 66.3497C2453.38 69.2566 2458.21 76.0617 2458.21 83.9932L2458.21 131.614 2466.85 134.31C2508.66 152.085 2538 193.699 2538 242.2L2536.82 254 2306.18 254 2305 242.2C2305 185.615 2344.93 138.405 2398.02 127.487L2400.75 127.21 2400.75 83.9932C2400.75 76.0617 2405.58 69.2566 2412.45 66.3497L2416.71 65.4893 2416.71 44.7653C2416.71 37.7151 2422.43 32 2429.48 32Z" fill="#407281" fill-rule="evenodd" fill-opacity="1"/><path d="M2305 255C2305 251.686 2357.16 249 2421.5 249 2485.84 249 2538 251.686 2538 255 2538 258.314 2485.84 261 2421.5 261 2357.16 261 2305 258.314 2305 255Z" fill="#FFC000" fill-rule="evenodd" fill-opacity="1"/></g></svg>