<svg width="514" height="555" xmlns="http://www.w3.org/2000/svg" xmlns:xlink="http://www.w3.org/1999/xlink" overflow="hidden"><defs><clipPath id="clip0"><rect x="2841" y="1420" width="514" height="555"/></clipPath></defs><g clip-path="url(#clip0)" transform="translate(-2841 -1420)"><path d="M3267.15 1857C3283.03 1860.05 3298.91 1863.09 3313.16 1872.33 3327.41 1881.57 3350.22 1899.46 3352.68 1912.43 3355.13 1925.4 3343.34 1940.24 3327.9 1950.17 3312.47 1960.09 3275.21 1972.48 3260.08 1971.99 3244.94 1971.49 3236.09 1955.28 3237.07 1947.22 3238.06 1939.16 3258.01 1928.25 3265.97 1923.63 3273.94 1919.01 3282.19 1921.86 3284.85 1919.51 3287.5 1917.15 3288.88 1912.53 3281.9 1909.48 3274.92 1906.43 3258.95 1903.83 3242.97 1901.23" fill="#747577" fill-rule="evenodd" fill-opacity="1"/><path d="M2954 1939.09C2956.48 1942.89 2958.97 1946.7 2966.27 1946.99 2973.58 1947.28 2997.84 1940.84 2997.84 1940.84 3008.07 1935.13 3027.65 1912.74 3027.65 1912.74 3044.45 1910.83 3080.4 1934.99 3098.66 1929.43 3116.93 1923.86 3121.9 1882.14 3137.24 1879.36 3152.58 1876.58 3172.6 1908.93 3190.72 1912.74 3208.84 1916.54 3245.96 1902.2 3245.96 1902.2 3258.67 1893.12 3267 1858.29 3267 1858.29 3263.05 1850.82 3254.29 1879.66 3222.29 1857.41 3190.28 1835.16 3118.24 1750.11 3074.99 1724.79 3031.74 1699.46 2979.72 1685.56 2962.77 1705.47 2945.82 1725.37 2959.55 1784.8 2973.29 1844.23" fill="#595959" fill-rule="evenodd" fill-opacity="1"/><path d="M3039.5 1460.69C3060.85 1456.53 3086.94 1425.09 3086.94 1425.09 3096.42 1423.7 3096.62 1439.33 3096.42 1452.38 3096.23 1465.43 3085.75 1503.41 3085.75 1503.41 3098.8 1520.02 3142.68 1521.4 3174.7 1552.06 3206.72 1582.72 3264.83 1632.95 3277.88 1687.34 3290.92 1741.73 3270.37 1837.26 3252.97 1878.4 3235.58 1919.54 3173.51 1934.17 3173.51 1934.17 3153.94 1947.03 3150.39 1952.76 3135.56 1955.53 3120.74 1958.3 3092.08 1957.11 3084.56 1950.79 3077.05 1944.46 3090.49 1917.56 3090.49 1917.56 3094.45 1910.04 3108.28 1905.69 3108.28 1905.69 3107.89 1900.15 3091.88 1897.98 3088.12 1884.33 3084.37 1870.68 3082 1840.42 3085.75 1823.81 3089.51 1807.2 3110.66 1784.65 3110.66 1784.65 3109.87 1773.18 3081.01 1754.98 3081.01 1754.98 3074.29 1762.5 3077.05 1799.88 3070.33 1829.74 3063.61 1859.61 3048.99 1912.42 3040.68 1934.17 3032.38 1955.93 3031 1956.32 3020.52 1960.28 3010.05 1964.23 2983.76 1964.23 2977.83 1957.91 2971.9 1951.58 2981.19 1931.6 2984.94 1922.3 2988.7 1913.01 2998.38 1926.26 3000.36 1902.13 3002.34 1878 2996.8 1777.53 2996.8 1777.53 2994.83 1746.68 2988.5 1717.01 2988.5 1717.01 2984.75 1706.92 2976.05 1709.3 2974.27 1717.01 2972.49 1724.72 2975.06 1744.7 2977.83 1763.29 2980.6 1781.88 2989.89 1804.43 2990.87 1828.56 2991.86 1852.69 2989.49 1889.87 2983.76 1908.06 2978.03 1926.26 2956.48 1937.73 2956.48 1937.73 2951.14 1942.08 2950.75 1940.9 2951.74 1934.17 2952.73 1927.45 2962.02 1920.52 2962.41 1897.38 2962.81 1874.24 2958.85 1823.02 2954.11 1795.33 2949.36 1767.64 2941.06 1753.99 2933.95 1731.25 2926.83 1708.5 2911.41 1658.86 2911.41 1658.86 2907.07 1639.28 2912.4 1624.84 2907.86 1613.77 2903.31 1602.69 2889.87 1603.09 2884.14 1592.41 2878.4 1581.73 2874.45 1562.74 2873.46 1549.69 2872.47 1536.63 2878.21 1514.09 2878.21 1514.09 2875.44 1503.21 2856.86 1484.42 2856.86 1484.42 2851.32 1472.95 2845 1445.26 2845 1445.26L2910.23 1466.62C2959.25 1439.52 2999.37 1444.86 3039.5 1460.69Z" fill="#747577" fill-rule="evenodd" fill-opacity="1"/><path d="M3055 1608 3051.44 1613.93C3047.39 1619.79 3042.16 1625.38 3034.86 1629.42 3020.27 1637.52 2990.1 1643.52 2973.4 1645.33 2956.7 1647.15 2943.93 1645.19 2934.66 1640.31 2930.03 1637.87 2926.77 1634.22 2924.19 1629.97L2920 1620.79 2928.77 1622.72 2944.2 1624.69 2945.06 1625.8C2949.4 1629.59 2955.4 1631.94 2962.03 1631.94 2968.66 1631.94 2974.66 1629.59 2979 1625.8L2979.85 1624.7 2980.18 1624.69C2985.56 1624.36 2990.66 1623.95 2995.29 1623.56 3013.81 1622.03 3021.95 1619.52 3039.91 1613.51Z" fill="#595959" fill-rule="evenodd" fill-opacity="1"/><path d="M3051 1477.84 3079.56 1449.25 3089.64 1440 3093 1459.34 3083.76 1514 3066.12 1501.39 3051 1477.84Z" fill="#595959" fill-rule="evenodd" fill-opacity="1"/><path d="M2888 1487.99 2849.51 1459.29 2847 1450 2857.04 1487.14 2877.96 1515 2882.14 1499.81 2888 1487.99Z" fill="#595959" fill-rule="evenodd" fill-opacity="1"/><path d="M3002.07 1531C3008.74 1531 3014.46 1535.08 3016.91 1540.9L3017 1541.2 3016.71 1544.06C3015.21 1551.44 3008.72 1557 3000.93 1557 2994.26 1557 2988.54 1552.92 2986.09 1547.1L2986 1546.8 2986.29 1543.94C2987.79 1536.56 2994.28 1531 3002.07 1531Z" fill="#D9A532" fill-rule="evenodd" fill-opacity="1"/><path d="M2992 1544.5C2992 1539.25 2996.25 1535 3001.5 1535 3006.75 1535 3011 1539.25 3011 1544.5 3011 1549.75 3006.75 1554 3001.5 1554 2996.25 1554 2992 1549.75 2992 1544.5Z" fill="#000000" fill-rule="evenodd" fill-opacity="1"/><path d="M16.0664 0C22.7381 0 28.4624 4.08131 30.9075 9.89792L30.9999 10.1974 30.7131 13.0598C29.2112 20.4446 22.7171 25.9998 14.9335 25.9998 8.26182 25.9998 2.53755 21.9185 0.0923874 16.1019L0 15.8024 0.28678 12.94C1.78867 5.55512 8.28276 0 16.0664 0Z" fill="#D9A532" fill-rule="evenodd" fill-opacity="1" transform="matrix(-1 0 0 1 2934 1532)"/><path d="M0 10.0001C-2.54626e-15 4.47722 4.47714 0 9.99997 0 15.5228-2.5463e-15 19.9999 4.47722 19.9999 10.0001 19.9999 15.5231 15.5228 20.0003 9.99997 20.0003 4.47714 20.0003-3.81939e-15 15.5231 0 10.0001Z" fill="#000000" fill-rule="evenodd" fill-opacity="1" transform="matrix(-1 0 0 1 2929 1535)"/><path d="M2999.59 1518.27C2996.47 1519.11 2986.22 1524.87 2986.22 1524.87 2982.79 1528.96 2979 1542.81 2979 1542.81 2979.04 1544.3 2983.32 1536.78 2986.49 1533.84 2989.65 1530.89 2997.98 1525.13 2997.98 1525.13 3001.06 1522.8 3004.4 1521.04 3004.93 1519.86 3005.47 1518.67 3002.71 1517.44 2999.59 1518.27Z" fill="#595959" fill-rule="evenodd" fill-opacity="1"/><path d="M18.1343 0.208626C15.3867 0.844449 6.35881 5.22823 6.35881 5.22823 3.33641 8.34036 0 18.8815 0 18.8815 0.0392616 20.0192 3.80746 14.2969 6.59434 12.0548 9.38122 9.81277 16.7213 5.42899 16.7213 5.42899 19.4297 3.65541 22.3736 2.31685 22.8446 1.41333 23.3156 0.509801 20.882-0.427197 18.1343 0.208626Z" fill="#595959" fill-rule="evenodd" fill-opacity="1" transform="matrix(-0.988445 0.151582 0.151582 0.988445 2932.95 1518.42)"/><path d="M2955.2 1589.98C2952.03 1590.34 2947.68 1584.26 2948.02 1581.94 2948.36 1579.62 2954.08 1576.4 2957.25 1576.04 2960.41 1575.68 2966.56 1577.65 2966.99 1579.8 2967.41 1581.94 2958.36 1589.63 2955.2 1589.98Z" fill="#000000" fill-rule="evenodd" fill-opacity="1"/><path d="M2957.96 1589C2959 1588.83 2955 1598.5 2958.48 1602.47 2961.96 1606.44 2977.19 1610.66 2978.84 1612.82 2980.5 1614.98 2968.4 1615.41 2968.4 1615.41 2964.66 1614.29 2956.39 1606.09 2956.39 1606.09 2953.69 1605.74 2955.26 1611.35 2952.21 1613.34 2949.17 1615.32 2938.11 1618 2938.11 1618 2937.07 1617.83 2943.6 1614.72 2945.95 1612.3 2948.3 1609.89 2951.17 1607.21 2952.21 1603.5 2953.26 1599.79 2956.91 1589.17 2957.96 1589Z" fill="#000000" fill-rule="evenodd" fill-opacity="1"/><path d="M2940.47 1652.15C2931.12 1656.63 2931.73 1665.87 2929.62 1677.19 2927.51 1688.52 2926 1716.24 2927.81 1720.11 2929.62 1723.99 2937.16 1698.06 2940.47 1700.44 2943.79 1702.83 2945.3 1731.14 2947.71 1734.42 2950.12 1737.7 2951.63 1718.03 2954.95 1720.11 2958.26 1722.2 2964.9 1748.43 2967.61 1746.94 2970.33 1745.45 2968.52 1713.85 2971.23 1711.17 2973.95 1708.49 2981.79 1736.21 2983.9 1730.84 2986.01 1725.48 2980.88 1685.54 2983.9 1678.98 2986.91 1672.42 3001.69 1696.27 3001.99 1691.5 3002.29 1686.73 2995.66 1656.63 2985.71 1650.37 2975.75 1644.11 2949.82 1647.68 2940.47 1652.15Z" fill="#9C9C9C" fill-rule="evenodd" fill-opacity="1"/></g></svg>