<svg width="550" height="394" xmlns="http://www.w3.org/2000/svg" xmlns:xlink="http://www.w3.org/1999/xlink" overflow="hidden"><defs><clipPath id="clip0"><rect x="2951" y="64" width="550" height="394"/></clipPath></defs><g clip-path="url(#clip0)" transform="translate(-2951 -64)"><path d="M3115.46 148.061C3133.26 145.405 3164.64 142.247 3190.56 130.619 3216.49 118.99 3238.7 88.0782 3271.03 78.2919 3303.36 68.5056 3352.49 57.5577 3384.56 71.9004 3416.63 86.2431 3450.98 133.428 3463.46 164.348 3475.93 195.268 3471.79 237.328 3459.39 257.422 3446.99 277.517 3401.89 287.712 3389.04 284.915 3376.2 282.118 3382.34 240.639 3382.34 240.639 3319.7 241.281 3191.9 240.639 3191.9 240.639 3178.58 284.747 3170.67 350.211 3171.79 381.518 3172.91 412.825 3198.39 415.955 3198.61 428.478 3198.83 441 3182.96 459.784 3173.13 456.654 3163.3 453.523 3150.11 445.696 3139.6 409.694 3129.1 373.691 3111.62 290.874 3110.1 240.639 3071.92 236.245 3026.09 252.299 2999.91 245.81 2973.72 239.32 2957.72 216.585 2953 201.701 2948.27 186.816 2961.32 162.065 2971.58 156.502 2964.65 132.603 2960.26 138.11 2965.26 98.4175 2975.99 109.151 2992.45 115.301 2997.45 130.619 3035.95 116.726 3072.55 127.376 3072.55 127.376 3090.37 110.549 3118.15 98.4175 3118.15 98.4175 3125.74 100.877 3112.56 135.818 3115.46 148.061Z" fill="#E1A34E" fill-rule="evenodd" fill-opacity="1"/><path d="M3190 250 3183.37 276.452 3183.12 277.921 3179.68 278.224C3163.32 279.175 3142.22 279.203 3125.21 278.577L3113.09 277.918 3112 268.305 3124.75 264.642C3141.55 260.095 3162.47 255.157 3178.95 251.936Z" fill="#4C352B" fill-rule="evenodd" fill-opacity="1"/><path d="M3182.78 408 3185.85 411.94C3192.42 418.215 3198.89 422.138 3199 428.413 3199.22 440.964 3183.27 459.791 3173.38 456.653 3170.9 455.869 3168.22 454.79 3165.42 453.05L3157 445.673 3160.2 430.262C3162.44 425.116 3165.68 420.481 3169.68 416.588Z" fill="#4C352B" fill-rule="evenodd" fill-opacity="1"/><path d="M3085 130.375 3108 118 3102.25 145 3085 130.375Z" fill="#FFE5AE" fill-rule="evenodd" fill-opacity="1"/><path d="M2974 120 2976.33 148 2988 135.167 2974 120Z" fill="#FFE5AE" fill-rule="evenodd" fill-opacity="1"/><path d="M0 0C4.67165 4.38898 9.34335 8.77795 14.5401 9.04723 19.7368 9.31651 25.4586 5.46604 31.1804 1.61558" stroke="#843C0C" stroke-width="4.58333" stroke-linecap="butt" stroke-linejoin="miter" stroke-miterlimit="8" stroke-opacity="1" fill="none" fill-rule="evenodd" transform="matrix(-0.972991 -0.230845 -0.230845 0.972991 3012.1 175.053)"/><path d="M3008.58 177.185 3013.19 183.379" stroke="#843C0C" stroke-width="4.58333" stroke-linecap="butt" stroke-linejoin="miter" stroke-miterlimit="8" stroke-opacity="1" fill="none" fill-rule="evenodd"/><path d="M0 0 0.000360892 7.054" stroke="#843C0C" stroke-width="4.58333" stroke-linecap="butt" stroke-linejoin="miter" stroke-miterlimit="8" stroke-opacity="1" fill="none" fill-rule="evenodd" transform="matrix(-0.972991 -0.230845 -0.230845 0.972991 2996.07 180.957)"/><path d="M0 0 5.98396 7.60509" stroke="#843C0C" stroke-width="4.58333" stroke-linecap="butt" stroke-linejoin="miter" stroke-miterlimit="8" stroke-opacity="1" fill="none" fill-rule="evenodd" transform="matrix(-0.972991 -0.230845 -0.230845 0.972991 2986.34 174.459)"/><path d="M0 0C4.67165 4.38898 9.34335 8.77795 14.5401 9.04723 19.7368 9.31651 25.4586 5.46604 31.1804 1.61558" stroke="#843C0C" stroke-width="4.58333" stroke-linecap="butt" stroke-linejoin="miter" stroke-miterlimit="8" stroke-opacity="1" fill="none" fill-rule="evenodd" transform="matrix(-0.965126 0.261785 0.261785 0.965126 3065.53 168.63)"/><path d="M3063.46 172.182 3070.47 175.423" stroke="#843C0C" stroke-width="4.58333" stroke-linecap="butt" stroke-linejoin="miter" stroke-miterlimit="8" stroke-opacity="1" fill="none" fill-rule="evenodd"/><path d="M0 0 0.000360892 7.054" stroke="#843C0C" stroke-width="4.58333" stroke-linecap="butt" stroke-linejoin="miter" stroke-miterlimit="8" stroke-opacity="1" fill="none" fill-rule="evenodd" transform="matrix(-0.965126 0.261785 0.261785 0.965126 3054.26 181.473)"/><path d="M0 0 5.98396 7.60509" stroke="#843C0C" stroke-width="4.58333" stroke-linecap="butt" stroke-linejoin="miter" stroke-miterlimit="8" stroke-opacity="1" fill="none" fill-rule="evenodd" transform="matrix(-0.965126 0.261785 0.261785 0.965126 3042.61 180.406)"/><path d="M3191 241.96C3191 238.116 3194.12 235 3197.96 235L3493.04 235C3496.88 235 3500 238.116 3500 241.96L3500 283.041C3500 286.884 3496.88 290 3493.04 290L3197.96 290C3194.12 290 3191 286.884 3191 283.041Z" fill="#C2BCBC" fill-rule="evenodd" fill-opacity="1"/><path d="M3010.98 201.446C3027.59 199.268 3042.57 208.99 3044.43 223.162 3045.36 230.247 3042.83 237.103 3037.99 242.461L3034.98 244.759 3027.71 246.694C3021.43 247.973 3015.66 248.543 3010.64 247.788 3005.62 247.033 3000.96 245.346 2996.7 243.05L2985.77 235.042 2984.26 231.049C2982.4 216.878 2994.36 203.624 3010.98 201.446Z" fill="#FFE5AE" fill-rule="evenodd" fill-opacity="1"/><path d="M3008.01 203.837C3008.33 201.857 3016.29 200.639 3019.62 201.096 3022.95 201.553 3028.3 204.599 3027.99 206.579 3027.67 208.559 3021.19 213.389 3017.73 212.975 3014.26 212.562 3007.7 205.817 3008.01 203.837Z" fill="#C96F51" fill-rule="evenodd" fill-opacity="1"/><path d="M3016.17 212.01C3016.95 211.649 3016.38 221.636 3017.58 224.34 3018.77 227.044 3021.11 228.45 3023.35 228.234 3025.58 228.018 3030.99 223.042 3030.99 223.042 3031.25 223.835 3027.56 232.704 3024.91 232.993 3022.26 233.281 3015.08 224.773 3015.08 224.773 3013.19 224.088 3014.54 228.522 3013.52 228.883 3012.51 229.243 3009 226.936 3009 226.936 3008.9 226.539 3011.86 228.811 3012.9 226.503 3013.94 224.196 3015.4 212.37 3016.17 212.01Z" fill="#4C352B" fill-rule="evenodd" fill-opacity="1"/><path d="M3161.13 167.809C3153.87 168.364 3144.75 172.61 3142.41 178.284 3140.07 183.957 3143.06 197.394 3147.08 201.849 3151.09 206.303 3160.52 202.69 3166.51 205.009 3172.51 207.328 3175.95 215.984 3183.05 215.765 3190.14 215.545 3208.58 210.492 3209.07 203.689 3209.56 196.887 3193.57 180.824 3185.98 174.951 3178.39 169.078 3168.39 167.253 3161.13 167.809Z" fill="#4C352B" fill-rule="evenodd" fill-opacity="1"/><path d="M3156.61 174.155 3162.46 167.821 3167.01 167.864C3173.24 168.419 3180.29 170.546 3185.98 174.951 3192.62 180.09 3205.69 193.031 3208.53 200.743L3208.94 202.974 3207.26 203.746C3204.44 204.546 3201.01 204.878 3198.65 205.472 3193.92 206.661 3187.56 207.163 3183.84 206.339 3180.12 205.515 3180.38 202.243 3176.32 200.527 3172.27 198.81 3163.55 199.06 3159.52 196.04 3155.49 193.019 3151.26 187.535 3152.14 182.403 3152.59 179.837 3154.28 177.051 3156.61 174.155Z" fill="#C78730" fill-rule="evenodd" fill-opacity="1"/><path d="M3175.24 167.693C3173.95 168.566 3176.12 174.812 3177.79 177.299 3179.47 179.786 3182.55 180.562 3185.29 182.615 3188.04 184.667 3191.77 188.694 3194.26 189.617 3196.74 190.539 3199.56 189.205 3200.21 188.15 3200.86 187.094 3200.6 185.964 3198.15 183.283 3195.7 180.602 3189.05 175.291 3185.53 172.065 3182.01 168.839 3176.53 166.821 3175.24 167.693Z" fill="#4C352B" fill-rule="evenodd" fill-opacity="1"/><path d="M3299.27 138.722C3289.12 134.489 3289.57 125.8 3293.92 120.675 3298.27 115.551 3318.46 112.209 3325.37 107.976 3332.29 103.743 3329.72 93.1601 3335.41 95.2766 3341.1 97.3931 3356.27 112.209 3359.5 120.675 3362.73 129.142 3364.3 142.732 3354.82 146.074 3345.34 149.416 3309.42 142.955 3299.27 138.722Z" fill="#4C352B" fill-rule="evenodd" fill-opacity="1"/><path d="M3306.41 142.747C3298.55 140.06 3298.89 134.546 3302.26 131.294 3305.63 128.042 3321.27 125.921 3326.63 123.235 3331.98 120.549 3330 113.833 3334.4 115.176 3338.81 116.519 3350.56 125.921 3353.06 131.294 3355.57 136.667 3356.78 145.292 3349.43 147.413 3342.09 149.533 3314.27 145.433 3306.41 142.747Z" fill="#C78730" fill-rule="evenodd" fill-opacity="1"/><path d="M3325.58 150.248C3316.86 149.275 3310.09 145.762 3310.47 142.403 3310.84 139.043 3318.22 137.108 3326.94 138.081 3335.66 139.054 3342.43 142.567 3342.06 145.927 3341.68 149.287 3334.31 151.222 3325.58 150.248Z" fill="#4C352B" fill-rule="evenodd" fill-opacity="1"/><path d="M3395.52 159.942C3382.57 158.376 3369.63 156.81 3361.19 162.958 3352.76 169.106 3363.85 190.697 3344.93 196.829 3326 202.962 3267.69 196.793 3247.65 199.754 3227.6 202.714 3223.21 212.191 3224.63 214.592 3226.04 216.994 3240.08 213.38 3256.15 214.162 3272.23 214.944 3301.27 221.949 3321.08 219.283 3340.89 216.618 3357.95 207.393 3375 198.168" fill="#4C352B" fill-rule="evenodd" fill-opacity="1"/><path d="M3241.53 221.243C3256.28 222.683 3314.08 231.527 3346.28 219.13 3378.48 206.732 3429.69 156.427 3434.72 146.86 3439.75 137.292 3390.71 152.036 3376.44 161.723 3362.17 171.411 3368.85 196.858 3349.08 204.985 3329.31 213.113 3275.3 207.893 3257.81 210.489 3240.32 213.085 3226.79 219.803 3241.53 221.243Z" fill="#C78730" fill-rule="evenodd" fill-opacity="1"/><path d="M3173.29 350.01 3172.98 352.932 3172.5 362.229 3159.65 369.188C3151.25 373.23 3142.6 376.971 3135.15 379.83L3131.84 381 3130.51 375.597 3126.07 354.612 3126.58 354.531C3138.37 353.055 3153.6 352.076 3165.83 350.885ZM3117 306 3121.69 306.495C3133.51 308.387 3147.91 311.741 3155.59 315.009 3159.43 316.643 3164.23 318.664 3169.17 320.959L3176 324.554 3174.56 338.063 3174.36 337.955C3159.4 330.827 3134.52 321.056 3118.43 314.187L3118.33 314.141Z" fill="#4C352B" fill-rule="evenodd" fill-opacity="1"/></g></svg>