<svg width="559" height="472" xmlns="http://www.w3.org/2000/svg" xmlns:xlink="http://www.w3.org/1999/xlink" overflow="hidden"><defs><clipPath id="clip0"><rect x="3685" y="45" width="559" height="472"/></clipPath></defs><g clip-path="url(#clip0)" transform="translate(-3685 -45)"><path d="M3852.5 134.921C3870.3 132.267 3901.69 129.11 3927.62 117.488 3953.55 105.866 3979.26 75.4706 4008.1 65.1895 4036.94 54.9084 4070.58 42.467 4100.66 55.8024 4130.74 69.1378 4175.39 106.374 4188.58 145.202 4201.77 184.03 4184.23 261.514 4179.8 288.772 4175.38 316.03 4170.41 358.807 4175.78 384.346 4181.15 409.885 4201.04 428.376 4212 442.009 4222.95 455.642 4237.48 455.642 4241.51 466.147 4245.53 476.651 4245.31 498.107 4236.14 505.036 4226.98 511.964 4204.84 519.787 4186.51 507.718 4168.18 495.648 4139.11 458.771 4126.15 432.622 4113.18 406.472 4108.71 377.641 4108.71 350.821 4108.71 324.002 4124.36 292.264 4126.15 271.703 4127.94 251.141 4119.44 227.45 4119.44 227.45 4056.79 228.092 3928.96 227.45 3928.96 227.45 3915.63 271.535 3907.72 336.964 3908.84 368.254 3909.96 399.544 3935.45 402.673 3935.67 415.189 3935.89 427.705 3920.02 446.479 3910.18 443.35 3900.35 440.221 3887.15 432.399 3876.65 396.415 3866.14 360.432 3848.65 277.658 3847.14 227.45 3808.95 223.059 3763.11 239.104 3736.92 232.618 3710.73 226.132 3694.72 203.41 3690 188.533 3685.27 173.656 3698.32 148.918 3708.58 143.358 3701.65 119.472 3697.26 124.975 3702.26 85.3044 3713 96.0325 3729.46 102.179 3734.46 117.488 3772.97 103.604 3809.58 114.248 3809.58 114.248 3827.41 97.4294 3855.18 85.3044 3855.18 85.3044 3862.79 87.763 3849.6 122.685 3852.5 134.921Z" fill="#E1A34E" fill-rule="evenodd" fill-opacity="1"/><path d="M3926 237 3919.46 263.452 3919.21 264.921 3915.81 265.224C3899.67 266.175 3878.83 266.203 3862.04 265.577L3850.08 264.918 3849 255.305 3861.59 251.642C3878.17 247.095 3898.82 242.157 3915.09 238.936Z" fill="#4C352B" fill-rule="evenodd" fill-opacity="1"/><path d="M3919.78 395 3922.85 398.859C3929.42 405.007 3935.89 408.849 3936 414.996 3936.22 427.292 3920.27 445.734 3910.38 442.66 3907.9 441.892 3905.22 440.835 3902.42 439.13L3894 431.905 3897.2 416.808C3899.44 411.766 3902.68 407.226 3906.68 403.413Z" fill="#4C352B" fill-rule="evenodd" fill-opacity="1"/><path d="M3822 116.833 3845 104 3839.25 132 3822 116.833Z" fill="#FFE5AE" fill-rule="evenodd" fill-opacity="1"/><path d="M3711 107 3713.33 134 3725 121.625 3711 107Z" fill="#FFE5AE" fill-rule="evenodd" fill-opacity="1"/><path d="M0 0C4.67165 4.38898 9.34335 8.77795 14.5401 9.04723 19.7368 9.31651 25.4586 5.46604 31.1804 1.61558" stroke="#843C0C" stroke-width="4.58333" stroke-linecap="butt" stroke-linejoin="miter" stroke-miterlimit="8" stroke-opacity="1" fill="none" fill-rule="evenodd" transform="matrix(-0.972991 -0.230845 -0.230845 0.972991 3749.05 161.51)"/><path d="M3745.53 163.642 3750.14 169.836" stroke="#843C0C" stroke-width="4.58333" stroke-linecap="butt" stroke-linejoin="miter" stroke-miterlimit="8" stroke-opacity="1" fill="none" fill-rule="evenodd"/><path d="M0 0 0.000360892 7.054" stroke="#843C0C" stroke-width="4.58333" stroke-linecap="butt" stroke-linejoin="miter" stroke-miterlimit="8" stroke-opacity="1" fill="none" fill-rule="evenodd" transform="matrix(-0.972991 -0.230845 -0.230845 0.972991 3733.02 167.414)"/><path d="M0 0 5.98396 7.60509" stroke="#843C0C" stroke-width="4.58333" stroke-linecap="butt" stroke-linejoin="miter" stroke-miterlimit="8" stroke-opacity="1" fill="none" fill-rule="evenodd" transform="matrix(-0.972991 -0.230845 -0.230845 0.972991 3723.29 160.916)"/><path d="M0 0C4.67165 4.38898 9.34335 8.77795 14.5401 9.04723 19.7368 9.31651 25.4586 5.46604 31.1804 1.61558" stroke="#843C0C" stroke-width="4.58333" stroke-linecap="butt" stroke-linejoin="miter" stroke-miterlimit="8" stroke-opacity="1" fill="none" fill-rule="evenodd" transform="matrix(-0.965126 0.261785 0.261785 0.965126 3802.47 155.087)"/><path d="M3800.41 158.639 3807.41 161.88" stroke="#843C0C" stroke-width="4.58333" stroke-linecap="butt" stroke-linejoin="miter" stroke-miterlimit="8" stroke-opacity="1" fill="none" fill-rule="evenodd"/><path d="M0 0 0.000360892 7.054" stroke="#843C0C" stroke-width="4.58333" stroke-linecap="butt" stroke-linejoin="miter" stroke-miterlimit="8" stroke-opacity="1" fill="none" fill-rule="evenodd" transform="matrix(-0.965126 0.261785 0.261785 0.965126 3791.21 167.93)"/><path d="M0 0 5.98396 7.60509" stroke="#843C0C" stroke-width="4.58333" stroke-linecap="butt" stroke-linejoin="miter" stroke-miterlimit="8" stroke-opacity="1" fill="none" fill-rule="evenodd" transform="matrix(-0.965126 0.261785 0.261785 0.965126 3779.56 166.863)"/><path d="M3928 228.96C3928 225.116 3931.12 222 3934.96 222L4192.04 222C4195.88 222 4199 225.116 4199 228.96L4199 270.04C4199 273.884 4195.88 277 4192.04 277L3934.96 277C3931.12 277 3928 273.884 3928 270.04Z" fill="#C2BCBC" fill-rule="evenodd" fill-opacity="1"/><path d="M3747.93 187.903C3764.54 185.725 3779.52 195.448 3781.37 209.619 3782.3 216.704 3779.78 223.561 3774.94 228.918L3771.93 231.217 3764.65 233.151C3758.37 234.43 3752.61 235 3747.59 234.245 3742.57 233.49 3737.9 231.804 3733.65 229.507L3722.72 221.499 3721.2 217.507C3719.35 203.335 3731.31 190.082 3747.93 187.903Z" fill="#FFE5AE" fill-rule="evenodd" fill-opacity="1"/><path d="M4135.59 314.017C4143.73 313.095 4152.3 314.215 4161.08 316.356L4175.53 320.925 4174.02 336.786 4171.83 335.318C4164.36 331.509 4156.4 329.183 4147.5 329.825 4138.59 330.467 4125.7 337.112 4113.85 343.722L4109.09 346.38 4111.06 329.773 4113.27 321.399 4122.77 317.194C4127.15 315.623 4131.52 314.478 4135.59 314.017Z" fill="#4C352B" fill-rule="evenodd" fill-opacity="1"/><path d="M4170.13 363 4173.53 363.172 4175 377.567 4172.95 377.346C4168.83 377.423 4164.67 378.086 4160.47 379.53 4152.08 382.419 4141.37 392.146 4131.65 401.579L4119.88 413 4113 392.2 4113.26 391.869C4121.29 382.757 4133.67 371.661 4145.06 367.212 4152.65 364.246 4161.16 363.155 4170.13 363Z" fill="#4C352B" fill-rule="evenodd" fill-opacity="1"/><path d="M4208.06 437 4212.06 441.716C4222.99 455.405 4237.5 455.405 4241.51 465.952 4245.53 476.499 4245.31 498.042 4236.16 504.999 4227.01 511.956 4204.92 519.81 4186.62 507.692L4180 501.985 4181.83 486.072C4184.08 477.218 4187.62 468.067 4192.48 459.081Z" fill="#4C352B" fill-rule="evenodd" fill-opacity="1"/><path d="M4182.83 403 4191 416.228 4188.45 416.814C4180.64 419.636 4173.57 423.823 4167.98 430.741 4162.39 437.659 4158.43 451.587 4155.14 464.74L4153.08 473 4138.83 453.224 4138 451.796 4142.1 440.06C4143.95 435.793 4146.09 431.834 4148.52 428.556 4153.38 422.002 4160.01 416.541 4167.51 411.625Z" fill="#4C352B" fill-rule="evenodd" fill-opacity="1"/><path d="M3745.01 190.837C3745.33 188.857 3753.29 187.639 3756.62 188.096 3759.95 188.553 3765.3 191.599 3764.99 193.579 3764.67 195.558 3758.19 200.388 3754.73 199.975 3751.26 199.562 3744.7 192.817 3745.01 190.837Z" fill="#C96F51" fill-rule="evenodd" fill-opacity="1"/><path d="M3753.17 199.009C3753.95 198.666 3753.38 208.177 3754.58 210.752 3755.77 213.328 3758.11 214.667 3760.35 214.461 3762.58 214.255 3767.99 209.516 3767.99 209.516 3768.25 210.272 3764.56 218.718 3761.91 218.993 3759.26 219.268 3752.08 211.164 3752.08 211.164 3750.19 210.512 3751.54 214.735 3750.52 215.079 3749.51 215.422 3746 213.225 3746 213.225 3745.9 212.847 3748.86 215.01 3749.9 212.812 3750.94 210.615 3752.4 199.352 3753.17 199.009Z" fill="#4C352B" fill-rule="evenodd" fill-opacity="1"/><path d="M3898.08 154.266C3890.81 154.821 3881.7 159.068 3879.36 164.741 3877.02 170.414 3880.01 183.851 3884.02 188.306 3888.04 192.76 3897.46 189.147 3903.46 191.466 3909.46 193.786 3912.9 202.442 3919.99 202.222 3927.09 202.002 3945.53 196.949 3946.02 190.147 3946.51 183.344 3930.52 167.281 3922.93 161.408 3915.34 155.535 3905.34 153.71 3898.08 154.266Z" fill="#4C352B" fill-rule="evenodd" fill-opacity="1"/><path d="M3893.55 160.612 3899.4 154.279 3903.95 154.322C3910.19 154.876 3917.23 157.003 3922.93 161.408 3929.57 166.547 3942.64 179.488 3945.48 187.2L3945.89 189.431 3944.21 190.203C3941.39 191.004 3937.96 191.335 3935.59 191.929 3930.86 193.118 3924.51 193.62 3920.79 192.796 3917.07 191.972 3917.33 188.7 3913.27 186.984 3909.22 185.267 3900.5 185.518 3896.47 182.497 3892.44 179.476 3888.2 173.993 3889.09 168.86 3889.53 166.294 3891.23 163.508 3893.55 160.612Z" fill="#C78730" fill-rule="evenodd" fill-opacity="1"/><path d="M3912.18 154.151C3910.9 155.023 3913.06 161.269 3914.74 163.756 3916.42 166.243 3919.5 167.019 3922.24 169.072 3924.98 171.125 3928.72 175.151 3931.2 176.074 3933.69 176.996 3936.5 175.663 3937.15 174.607 3937.8 173.551 3937.54 172.421 3935.1 169.74 3932.65 167.059 3926 161.748 3922.48 158.522 3918.96 155.296 3913.47 153.278 3912.18 154.151Z" fill="#4C352B" fill-rule="evenodd" fill-opacity="1"/><path d="M4036.27 124.881C4026.12 120.729 4026.57 112.207 4030.92 107.182 4035.27 102.156 4055.46 98.8784 4062.37 94.7267 4069.29 90.5749 4066.72 80.1958 4072.41 82.2716 4078.1 84.3474 4093.27 98.8784 4096.5 107.182 4099.73 115.485 4101.3 128.814 4091.82 132.092 4082.34 135.37 4046.42 129.033 4036.27 124.881Z" fill="#4C352B" fill-rule="evenodd" fill-opacity="1"/><path d="M4043.41 128.747C4035.55 126.06 4035.89 120.546 4039.26 117.294 4042.63 114.042 4058.27 111.921 4063.63 109.235 4068.98 106.548 4067 99.8325 4071.4 101.176 4075.81 102.519 4087.56 111.921 4090.06 117.294 4092.57 122.667 4093.78 131.292 4086.43 133.412 4079.09 135.533 4051.27 131.433 4043.41 128.747Z" fill="#C78730" fill-rule="evenodd" fill-opacity="1"/><path d="M4062.53 136.706C4053.81 135.732 4047.04 132.22 4047.41 128.86 4047.79 125.5 4055.16 123.565 4063.89 124.538 4072.61 125.511 4079.38 129.024 4079 132.384 4078.63 135.744 4071.25 137.679 4062.53 136.706Z" fill="#4C352B" fill-rule="evenodd" fill-opacity="1"/><path d="M4132.47 146.399C4119.52 144.833 4106.58 143.267 4098.14 149.415 4089.71 155.563 4100.8 177.154 4081.87 183.286 4062.95 189.419 4004.64 183.25 3984.59 186.211 3964.54 189.171 3960.16 198.648 3961.57 201.049 3962.99 203.451 3977.03 199.837 3993.1 200.619 4009.18 201.401 4038.22 208.406 4058.03 205.741 4077.84 203.075 4094.89 193.85 4111.95 184.625" fill="#4C352B" fill-rule="evenodd" fill-opacity="1"/><path d="M3978.48 207.7C3993.23 209.141 4051.03 217.984 4083.23 205.587 4115.43 193.19 4166.64 142.885 4171.67 133.317 4176.69 123.749 4127.66 138.493 4113.39 148.18 4099.11 157.868 4105.8 183.315 4086.02 191.443 4066.25 199.57 4012.25 194.35 3994.76 196.946 3977.27 199.542 3963.74 206.26 3978.48 207.7Z" fill="#C78730" fill-rule="evenodd" fill-opacity="1"/><path d="M3909.33 336.01 3909.03 338.932 3908.56 348.229 3895.92 355.188C3887.67 359.23 3879.16 362.971 3871.85 365.831L3868.59 367 3867.28 361.598 3862.92 340.612 3863.42 340.531C3875.01 339.055 3889.98 338.076 3902 336.885ZM3854 292 3858.61 292.495C3870.23 294.387 3884.39 297.741 3891.93 301.009 3895.71 302.643 3900.43 304.664 3905.28 306.959L3912 310.554 3910.58 324.063 3910.38 323.955C3895.68 316.827 3871.22 307.056 3855.41 300.187L3855.31 300.141Z" fill="#4C352B" fill-rule="evenodd" fill-opacity="1"/></g></svg>