<svg width="344" height="124" xmlns="http://www.w3.org/2000/svg" xmlns:xlink="http://www.w3.org/1999/xlink" overflow="hidden"><defs><clipPath id="clip0"><rect x="3712" y="797" width="344" height="124"/></clipPath></defs><g clip-path="url(#clip0)" transform="translate(-3712 -797)"><path d="M3954.62 812.335C3963.37 806.648 3979.42 798.264 3991.99 798.185 4004.56 798.107 4019.64 804.281 4030.04 811.864 4040.44 819.448 4052.69 837.862 4054.42 843.684 4056.14 849.507 4041.67 844.361 4040.36 846.799 4039.06 849.238 4047.06 855.389 4046.6 858.316 4046.15 861.243 4041.1 865.37 4037.62 864.36 4034.14 863.35 4029.11 848.68 4025.73 852.256 4022.34 855.831 4021.35 881.297 4017.32 885.815 4013.28 890.334 4001.51 879.368 4001.51 879.368 4000.05 873.057 4008.56 847.954 4008.56 847.954 4007.23 842.229 3993.53 845.019 3993.53 845.019 3992.56 846.157 4002.7 852.016 4002.7 854.781 4002.7 857.545 3998.04 862.877 3993.52 861.606 3989 860.335 3981.69 847.583 3975.58 847.157 3969.46 846.731 3956.84 859.05 3956.84 859.05 3950.82 856.576 3939.48 832.308 3939.48 832.308 3939.85 825.901 3945.87 818.022 3954.62 812.335Z" fill="#FCDAD6" fill-rule="evenodd" fill-opacity="1"/><path d="M3759.33 820.354C3769.69 821.689 3819.24 809.292 3850.57 808.022 3881.89 806.752 3916.65 808.796 3947.29 812.735 3950.62 846.027 3967.93 853.05 3954.43 869.334 3940.93 885.618 3902.45 897.223 3866.3 910.441 3830.14 923.658 3732.48 920.32 3716.72 885.837" stroke="#5B9BD5" stroke-width="4.58333" stroke-linecap="butt" stroke-linejoin="miter" stroke-miterlimit="8" stroke-opacity="1" fill="#9EC3E7" fill-rule="evenodd" fill-opacity="1"/></g></svg>