<svg width="87" height="87" xmlns="http://www.w3.org/2000/svg" xmlns:xlink="http://www.w3.org/1999/xlink" overflow="hidden"><defs><clipPath id="clip0"><rect x="2424" y="1512" width="87" height="87"/></clipPath></defs><g clip-path="url(#clip0)" transform="translate(-2424 -1512)"><path d="M2510 1555.5C2510 1578.97 2491.2 1598 2468 1598 2444.8 1598 2426 1578.97 2426 1555.5 2426 1532.03 2444.8 1513 2468 1513 2491.2 1513 2510 1532.03 2510 1555.5Z" fill="#9EA4D4" fill-rule="evenodd" fill-opacity="1"/><path d="M2467.28 1528C2477.39 1531.84 2490.2 1537.1 2503.02 1542.36L2508.43 1544.57 2509.14 1546.9C2509.71 1549.67 2510 1552.54 2510 1555.47 2510 1578.96 2491.1 1598 2467.8 1598L2460.32 1597.24 2446 1565.22 2449.61 1561.58 2452.02 1568.06 2464.07 1574.94 2468.89 1576.55Z" fill="#000000" fill-rule="evenodd" fill-opacity="0.0980392"/><path d="M2486.02 1558.19C2484.92 1558.19 2484.03 1559.07 2484.03 1560.15 2484.03 1564.8 2479.13 1567.96 2474.38 1571.02 2472.63 1572.14 2469.48 1572.56 2469.48 1570.5L2469.48 1536 2465.52 1536 2465.52 1570.5C2465.52 1572.56 2462.37 1572.14 2460.62 1571.02 2455.87 1567.96 2450.97 1564.8 2450.97 1560.15 2450.97 1559.07 2450.08 1558.19 2448.98 1558.19 2447.89 1558.19 2447 1559.07 2447 1560.15 2447 1566.92 2453.08 1570.84 2458.45 1574.3 2461.92 1576.53 2465.52 1578.85 2465.52 1581.04 2465.52 1582.12 2466.4 1583 2467.5 1583 2468.6 1583 2469.48 1582.12 2469.48 1581.04 2469.48 1578.85 2473.08 1576.53 2476.55 1574.3 2481.92 1570.84 2488 1566.92 2488 1560.15 2488 1559.07 2487.11 1558.19 2486.02 1558.19Z" fill="#406A80" fill-rule="evenodd" fill-opacity="1"/><path d="M2486.06 1558.19C2485 1558.19 2484.13 1559.07 2484.13 1560.15 2484.13 1564.8 2479.34 1567.96 2474.71 1571.02 2473.01 1572.14 2469.94 1572.56 2469.94 1570.5L2469.94 1536 2468 1536 2468 1583C2469.07 1583 2469.94 1582.12 2469.94 1581.04 2469.94 1578.85 2473.44 1576.53 2476.83 1574.3 2482.06 1570.84 2488 1566.92 2488 1560.15 2488 1559.07 2487.13 1558.19 2486.06 1558.19Z" fill="#395F73" fill-rule="evenodd" fill-opacity="1"/><path d="M2486.21 1558C2485.22 1558 2484.42 1558.84 2484.42 1559.88 2484.42 1561.43 2483.88 1562.8 2483 1564.06 2483.6 1563.88 2484.23 1563.74 2484.91 1563.68 2485.02 1563.91 2485.16 1564.16 2485.3 1564.43 2485.55 1564.91 2485.83 1565.45 2486.11 1566 2487.27 1564.25 2488 1562.25 2488 1559.88 2488 1558.84 2487.2 1558 2486.21 1558Z" fill="#395F73" fill-rule="evenodd" fill-opacity="1"/><path d="M2451.3 1559.88C2451.3 1558.84 2450.34 1558 2449.15 1558 2447.96 1558 2447 1558.84 2447 1559.88 2447 1562.25 2447.88 1564.25 2449.27 1566 2449.61 1565.45 2449.94 1564.91 2450.25 1564.43 2450.41 1564.16 2450.57 1563.91 2450.71 1563.68 2451.52 1563.74 2452.29 1563.88 2453 1564.06 2451.95 1562.8 2451.3 1561.43 2451.3 1559.88Z" fill="#395F73" fill-rule="evenodd" fill-opacity="1"/><path d="M2446.41 1569C2445 1566.47 2443.59 1560.16 2447.82 1557 2452.06 1558.26 2457 1563.32 2457 1564.58 2453.47 1562.68 2450.65 1562.68 2449.94 1562.68 2449.24 1563.95 2447.12 1567.11 2446.41 1569Z" fill="#E6E6E6" fill-rule="evenodd" fill-opacity="1"/><path d="M2450.08 1563C2450.77 1563 2453.54 1563 2457 1565 2457 1563.67 2452.15 1558.33 2448 1557 2448 1557.67 2449.38 1561.67 2450.08 1563Z" fill="#CCCCCC" fill-rule="evenodd" fill-opacity="1"/><path d="M2468 1538C2465.24 1538 2463 1535.76 2463 1533 2463 1530.24 2465.24 1528 2468 1528 2470.76 1528 2473 1530.24 2473 1533 2473 1535.76 2470.76 1538 2468 1538ZM2468 1531.75C2467.31 1531.75 2466.75 1532.31 2466.75 1533 2466.75 1533.69 2467.31 1534.25 2468 1534.25 2468.69 1534.25 2469.25 1533.69 2469.25 1533 2469.25 1532.31 2468.69 1531.75 2468 1531.75Z" fill="#E6E6E6" fill-rule="evenodd" fill-opacity="1"/><path d="M2467.67 1528C2467.44 1528 2467.22 1528.02 2467 1528.04 2469.63 1528.35 2471.67 1530.45 2471.67 1533 2471.67 1535.55 2469.63 1537.65 2467 1537.96 2467.22 1537.98 2467.44 1538 2467.67 1538 2470.61 1538 2473 1535.76 2473 1533 2473 1530.24 2470.61 1528 2467.67 1528Z" fill="#CCCCCC" fill-rule="evenodd" fill-opacity="1"/><path d="M2472.7 1537C2473.42 1537 2474 1537.6 2474 1538.33L2474 1539.67C2474 1540.4 2473.42 1541 2472.7 1541L2462.3 1541C2461.58 1541 2461 1540.4 2461 1539.67L2461 1538.33C2461 1537.6 2461.58 1537 2462.3 1537L2472.7 1537Z" fill="#263740" fill-rule="evenodd" fill-opacity="1"/><path d="M2472.8 1537 2471 1537C2471.66 1537 2472.2 1537.6 2472.2 1538.33L2472.2 1539.67C2472.2 1540.4 2471.66 1541 2471 1541L2472.8 1541C2473.46 1541 2474 1540.4 2474 1539.67L2474 1538.33C2474 1537.6 2473.46 1537 2472.8 1537Z" fill="#1E2C33" fill-rule="evenodd" fill-opacity="1"/><path d="M2488.71 1569C2490 1566.47 2491.29 1560.16 2487.41 1557 2483.53 1558.26 2479 1563.32 2479 1564.58 2482.24 1562.68 2484.82 1562.68 2485.47 1562.68 2486.12 1563.95 2488.06 1567.11 2488.71 1569Z" fill="#CCCCCC" fill-rule="evenodd" fill-opacity="1"/><path d="M2485.92 1563C2485.23 1563 2482.46 1563 2479 1565 2479 1563.67 2483.85 1558.33 2488 1557 2488 1557.67 2486.62 1561.67 2485.92 1563Z" fill="#E6E6E6" fill-rule="evenodd" fill-opacity="1"/></g></svg>