<svg width="1136" height="697" xmlns="http://www.w3.org/2000/svg" xmlns:xlink="http://www.w3.org/1999/xlink" overflow="hidden"><defs><clipPath id="clip0"><rect x="-435" y="2259" width="1136" height="697"/></clipPath></defs><g clip-path="url(#clip0)" transform="translate(435 -2259)"><path d="M-367.414 2818.68C-403.104 2662.27-424.807 2415.1-387.67 2363.92-350.533 2312.75 88.84 2279.44 237.388 2268.34 385.935 2257.23 456.833 2257.23 503.616 2297.3 550.399 2337.37 488.665 2467.23 518.085 2508.75 547.505 2550.27 644.929 2527.1 680.137 2546.41 715.345 2565.72 689.783 2737.1 677.243 2815.79 453.457 2839.44-85.7523 2870.82-367.414 2818.68Z" fill="#FFC802" fill-rule="evenodd" fill-opacity="1"/><path d="M693 2703 688.242 2742.91C684.623 2770.37 680.664 2795.85 677.521 2815.54 663.5 2817.02 648.242 2818.53 631.89 2820.05L620.957 2821 610.865 2802.02C605.901 2791.26 602.456 2781.6 602.094 2774.96 600.643 2748.39 616.116 2728.58 645.61 2716.98 652.983 2714.08 663.349 2710.49 675.165 2707.09Z" fill="#A6A6A6" fill-rule="evenodd" fill-opacity="1"/><path d="M-165.165 2679C-80.5743 2679-12 2751.38-12 2840.67L-12.5091 2846-117.211 2843.57C-187.359 2840.56-253.493 2835.43-311.843 2827.56L-317 2826.75-315.218 2808.09C-300.936 2734.42-239.182 2679-165.165 2679Z" fill="#E4A311" fill-rule="evenodd" fill-opacity="1"/><path d="M-315.072 2533.06C-348.786 2522.91-329.52 2445.36-329.52 2445.36-303.031 2426.68-156.135 2421-156.135 2421-122.422 2431.15-127.238 2506.26-127.238 2506.26-152.282 2525.34-281.358 2543.21-315.072 2533.06Z" fill="#FFFFFF" fill-rule="evenodd" fill-opacity="1"/><path d="M-48.9759 2499.06C-82.8518 2488.91-63.494 2411.36-63.494 2411.36-36.8774 2392.68 110.724 2387 110.724 2387 144.6 2397.15 139.761 2472.26 139.761 2472.26 114.596 2491.34-15.1001 2509.21-48.9759 2499.06Z" fill="#FFFFFF" fill-rule="evenodd" fill-opacity="1"/><path d="M223.024 2469.06C189.148 2458.91 208.506 2381.36 208.506 2381.36 235.123 2362.68 382.725 2357 382.725 2357 416.6 2367.15 411.761 2442.26 411.761 2442.26 386.596 2461.34 256.9 2479.21 223.024 2469.06Z" fill="#FFFFFF" fill-rule="evenodd" fill-opacity="1"/><path d="M-309.316 2631 423 2561.18 405.633 2535-318 2578.64-309.316 2631Z" fill="#404040" fill-rule="evenodd" fill-opacity="1"/><path d="M422.5 2657C507.276 2657 576 2729.19 576 2818.25L575.378 2824.74 521.867 2828.85C461.455 2833.2 393.724 2837.22 322.456 2840.32L271.279 2842 269 2818.25C269 2729.19 337.724 2657 422.5 2657Z" fill="#E4A311" fill-rule="evenodd" fill-opacity="1"/><path d="M-287 2827.5C-287 2758.74-231.26 2703-162.5 2703-93.7407 2703-38.0002 2758.74-38.0002 2827.5-38.0002 2896.26-93.7407 2952-162.5 2952-231.26 2952-287 2896.26-287 2827.5Z" fill="#262626" fill-rule="evenodd" fill-opacity="1"/><path d="M-244 2827.5C-244 2782.49-207.511 2746-162.5 2746-117.489 2746-81.0001 2782.49-81.0001 2827.5-81.0001 2872.51-117.489 2909-162.5 2909-207.511 2909-244 2872.51-244 2827.5Z" fill="#FFFFFF" fill-rule="evenodd" fill-opacity="1"/><path d="M-216 2827.5C-216 2797.95-191.823 2774-162 2774-132.177 2774-108 2797.95-108 2827.5-108 2857.05-132.177 2881-162 2881-191.823 2881-216 2857.05-216 2827.5Z" fill="#A6A6A6" fill-rule="evenodd" fill-opacity="1"/><path d="M295 2804.5C295 2735.74 350.741 2680 419.5 2680 488.26 2680 544 2735.74 544 2804.5 544 2873.26 488.26 2929 419.5 2929 350.741 2929 295 2873.26 295 2804.5Z" fill="#262626" fill-rule="evenodd" fill-opacity="1"/><path d="M338 2804.5C338 2759.49 374.489 2723 419.5 2723 464.511 2723 501 2759.49 501 2804.5 501 2849.51 464.511 2886 419.5 2886 374.489 2886 338 2849.51 338 2804.5Z" fill="#FFFFFF" fill-rule="evenodd" fill-opacity="1"/><path d="M366 2804C366 2774.18 390.177 2750 420 2750 449.823 2750 474 2774.18 474 2804 474 2833.82 449.823 2858 420 2858 390.177 2858 366 2833.82 366 2804Z" fill="#A6A6A6" fill-rule="evenodd" fill-opacity="1"/><path d="M-367.855 2833.35C-378.36 2842.99-428.015 2807.32-428.015 2807.32-438.997 2788.52-433.745 2720.55-433.745 2720.55-423.24 2710.91-364.99 2749.47-364.99 2749.47-353.531 2767.79-357.351 2823.71-367.855 2833.35Z" fill="#A6A6A6" fill-rule="evenodd" fill-opacity="1"/></g></svg>