<svg width="1137" height="697" xmlns="http://www.w3.org/2000/svg" xmlns:xlink="http://www.w3.org/1999/xlink" overflow="hidden"><defs><clipPath id="clip0"><rect x="554" y="1003" width="1137" height="697"/></clipPath></defs><g clip-path="url(#clip0)" transform="translate(-554 -1003)"><path d="M622.586 1562.73C586.896 1406.58 565.193 1159.83 602.33 1108.75 639.467 1057.66 1078.84 1024.41 1227.39 1013.33 1375.94 1002.24 1446.83 1002.24 1493.62 1042.24 1540.4 1082.24 1478.67 1211.88 1508.08 1253.33 1537.51 1294.78 1634.93 1271.64 1670.14 1290.92 1705.35 1310.2 1679.78 1481.29 1667.24 1559.84 1443.46 1583.46 904.248 1614.78 622.586 1562.73Z" fill="#FFC802" fill-rule="evenodd" fill-opacity="1"/><path d="M1683 1448 1678.24 1487.91C1674.62 1515.37 1670.66 1540.85 1667.52 1560.54 1653.5 1562.02 1638.24 1563.53 1621.89 1565.05L1610.96 1566 1600.86 1547.02C1595.9 1536.26 1592.46 1526.6 1592.09 1519.96 1590.64 1493.39 1606.12 1473.58 1635.61 1461.98 1642.98 1459.08 1653.35 1455.49 1665.16 1452.09Z" fill="#A6A6A6" fill-rule="evenodd" fill-opacity="1"/><path d="M824.835 1423C909.426 1423 978 1495.38 978 1584.67L977.491 1590 872.789 1587.57C802.641 1584.56 736.507 1579.43 678.157 1571.56L673 1570.75 674.782 1552.09C689.064 1478.42 750.818 1423 824.835 1423Z" fill="#E4A311" fill-rule="evenodd" fill-opacity="1"/><path d="M674.928 1277.08C641.214 1267.02 660.48 1190.15 660.48 1190.15 686.969 1171.63 833.865 1166 833.865 1166 867.578 1176.06 862.762 1250.52 862.762 1250.52 837.718 1269.44 708.642 1287.15 674.928 1277.08Z" fill="#FFFFFF" fill-rule="evenodd" fill-opacity="1"/><path d="M941.024 1243.08C907.148 1233.02 926.506 1156.15 926.506 1156.15 953.123 1137.63 1100.72 1132 1100.72 1132 1134.6 1142.06 1129.76 1216.52 1129.76 1216.52 1104.6 1235.44 974.9 1253.15 941.024 1243.08Z" fill="#FFFFFF" fill-rule="evenodd" fill-opacity="1"/><path d="M1213.02 1213.08C1179.15 1203.02 1198.51 1126.15 1198.51 1126.15 1225.12 1107.63 1372.72 1102 1372.72 1102 1406.6 1112.06 1401.76 1186.52 1401.76 1186.52 1376.6 1205.44 1246.9 1223.14 1213.02 1213.08Z" fill="#FFFFFF" fill-rule="evenodd" fill-opacity="1"/><path d="M680.684 1375 1413 1305.18 1395.63 1279 672 1322.64 680.684 1375Z" fill="#404040" fill-rule="evenodd" fill-opacity="1"/><path d="M1412.5 1401C1497.28 1401 1566 1473.58 1566 1563.12L1565.38 1569.64 1511.87 1573.77C1451.45 1578.15 1383.72 1582.2 1312.46 1585.31L1261.28 1587 1259 1563.12C1259 1473.58 1327.72 1401 1412.5 1401Z" fill="#E4A311" fill-rule="evenodd" fill-opacity="1"/><path d="M703 1572C703 1503.52 758.74 1448 827.5 1448 896.259 1448 952 1503.52 952 1572 952 1640.48 896.259 1696 827.5 1696 758.74 1696 703 1640.48 703 1572Z" fill="#262626" fill-rule="evenodd" fill-opacity="1"/><path d="M746 1572C746 1527.26 782.489 1491 827.5 1491 872.511 1491 909 1527.26 909 1572 909 1616.74 872.511 1653 827.5 1653 782.489 1653 746 1616.74 746 1572Z" fill="#FFFFFF" fill-rule="evenodd" fill-opacity="1"/><path d="M774 1572C774 1542.18 798.177 1518 828 1518 857.823 1518 882 1542.18 882 1572 882 1601.82 857.823 1626 828 1626 798.177 1626 774 1601.82 774 1572Z" fill="#A6A6A6" fill-rule="evenodd" fill-opacity="1"/><path d="M1285 1548.5C1285 1479.74 1340.74 1424 1409.5 1424 1478.26 1424 1534 1479.74 1534 1548.5 1534 1617.26 1478.26 1673 1409.5 1673 1340.74 1673 1285 1617.26 1285 1548.5Z" fill="#262626" fill-rule="evenodd" fill-opacity="1"/><path d="M1328 1548.5C1328 1503.49 1364.49 1467 1409.5 1467 1454.51 1467 1491 1503.49 1491 1548.5 1491 1593.51 1454.51 1630 1409.5 1630 1364.49 1630 1328 1593.51 1328 1548.5Z" fill="#FFFFFF" fill-rule="evenodd" fill-opacity="1"/><path d="M1356 1549C1356 1519.18 1380.18 1495 1410 1495 1439.82 1495 1464 1519.18 1464 1549 1464 1578.82 1439.82 1603 1410 1603 1380.18 1603 1356 1578.82 1356 1549Z" fill="#A6A6A6" fill-rule="evenodd" fill-opacity="1"/><path d="M622.145 1577.35C611.641 1586.99 561.985 1551.32 561.985 1551.32 551.003 1532.52 556.255 1464.55 556.255 1464.55 566.76 1454.91 625.01 1493.47 625.01 1493.47 636.469 1511.79 632.649 1567.71 622.145 1577.35Z" fill="#A6A6A6" fill-rule="evenodd" fill-opacity="1"/></g></svg>