<svg width="87" height="92" xmlns="http://www.w3.org/2000/svg" xmlns:xlink="http://www.w3.org/1999/xlink" overflow="hidden"><defs><clipPath id="clip0"><rect x="2424" y="1255" width="87" height="92"/></clipPath></defs><g clip-path="url(#clip0)" transform="translate(-2424 -1255)"><path d="M2511 1302.5C2511 1325.97 2491.97 1345 2468.5 1345 2445.03 1345 2426 1325.97 2426 1302.5 2426 1279.03 2445.03 1260 2468.5 1260 2491.97 1260 2511 1279.03 2511 1302.5Z" fill="#445C7F" fill-rule="evenodd" fill-opacity="1"/><path d="M2493.69 1281 2510.1 1293.93 2510.14 1294.06C2510.7 1296.82 2511 1299.68 2511 1302.6 2511 1326.02 2492.07 1345 2468.72 1345L2464.79 1344.6 2443 1322.54Z" fill="#000000" fill-rule="evenodd" fill-opacity="0.14902"/><path d="M2442 1283.2C2442 1281.43 2443.43 1280 2445.2 1280L2491.8 1280C2493.57 1280 2495 1281.43 2495 1283.2L2495 1319.8C2495 1321.57 2493.57 1323 2491.8 1323L2445.2 1323C2443.43 1323 2442 1321.57 2442 1319.8Z" fill="#ECECEC" fill-rule="evenodd" fill-opacity="1"/><rect x="2445" y="1293" width="46.9998" height="27.0001" fill="#4E627F" fill-opacity="1"/><path d="M2457.65 1312.56 2452.4 1307.02C2451.87 1306.46 2451.87 1305.54 2452.4 1304.98L2457.65 1299.44C2458.92 1298.09 2460.86 1300.13 2459.58 1301.48L2455.3 1306 2459.58 1310.52C2460.86 1311.87 2458.92 1313.9 2457.65 1312.56Z" fill="#FFFFFF" fill-rule="evenodd" fill-opacity="1"/><path d="M2462.23 1312.73 2471.09 1297.76C2472.11 1296.04 2474.8 1297.54 2473.77 1299.27L2464.91 1314.24C2463.89 1315.96 2461.21 1314.46 2462.23 1312.73Z" fill="#FFFFFF" fill-rule="evenodd" fill-opacity="1"/><path d="M2478.65 1299.44 2484.55 1304.98C2485.15 1305.54 2485.15 1306.46 2484.55 1307.02L2478.65 1312.56C2477.21 1313.91 2475.03 1311.87 2476.47 1310.52L2481.29 1306 2476.47 1301.48C2475.03 1300.13 2477.21 1298.1 2478.65 1299.44Z" fill="#FFFFFF" fill-rule="evenodd" fill-opacity="1"/><path d="M0 2.50008C-6.36542e-16 1.11932 1.11924 0 2.4999 0 3.88056 -6.36588e-16 4.9998 1.11932 4.9998 2.50008 4.9998 3.88084 3.88056 5.00016 2.4999 5.00016 1.11924 5.00016 -9.54812e-16 3.88084 0 2.50008Z" fill="#FF0000" fill-rule="evenodd" fill-opacity="1" transform="matrix(1 0 0 -1 2446 1289)"/><path d="M0 2.50008C-7.63859e-16 1.11932 1.34311 0 2.99992 0 4.65673 -6.36588e-16 5.99984 1.11932 5.99984 2.50008 5.99984 3.88084 4.65673 5.00016 2.99992 5.00016 1.34311 5.00016-1.14579e-15 3.88084 0 2.50008Z" fill="#FFD255" fill-rule="evenodd" fill-opacity="1" transform="matrix(1 0 0 -1 2454 1289)"/><path d="M0 2.50008C-6.36588e-16 1.11932 1.11932 0 2.50008 0 3.88084 -6.36588e-16 5.00016 1.11932 5.00016 2.50008 5.00016 3.88084 3.88084 5.00016 2.50008 5.00016 1.11932 5.00016 -9.54881e-16 3.88084 0 2.50008Z" fill="#00B050" fill-rule="evenodd" fill-opacity="1" transform="matrix(1 0 0 -1 2463 1289)"/></g></svg>