<svg width="64" height="64" xmlns="http://www.w3.org/2000/svg" xmlns:xlink="http://www.w3.org/1999/xlink" overflow="hidden"><defs><clipPath id="clip0"><rect x="1576" y="105" width="64" height="64"/></clipPath></defs><g clip-path="url(#clip0)" transform="translate(-1576 -105)"><path d="M1596.92 120.814 1594.47 122.634C1591.42 125.338 1589.2 129.008 1588.29 133.179L1588.21 133.63 1596.92 133.63ZM1604.5 110.5 1604.5 115.584 1604.5 118.036 1604.5 156.964 1604.5 160.41 1604.5 164.5 1604.36 164.493C1602.68 164.319 1601.05 163.987 1599.49 163.51L1596.89 162.446 1596.89 154.161 1596.92 154.186 1596.92 141.37 1588.23 141.37 1588.85 143.863C1589.52 145.858 1590.49 147.709 1591.71 149.357L1591.73 149.381 1591.73 159.625 1590.92 159.046C1584.59 154.087 1580.5 146.28 1580.5 137.5 1580.5 123.451 1590.96 111.897 1604.36 110.507Z" stroke="#576E90" stroke-width="3.4375" stroke-linecap="butt" stroke-linejoin="miter" stroke-miterlimit="8" stroke-opacity="1" fill="none" fill-rule="evenodd"/><path d="M1610.5 110.5 1610.64 110.507C1623.22 111.831 1633.2 122.235 1634.4 135.295L1634.5 137.495 1627.18 137.495 1627.12 136.15C1626.83 132.832 1625.77 129.747 1624.11 127.095L1622.65 125.114 1622.65 160.905 1622.63 160.923C1621.46 161.727 1620.23 162.438 1618.94 163.046L1615.06 164.5 1615.06 119.399 1614.8 119.268C1613.83 118.887 1612.84 118.584 1611.81 118.366L1610.5 118.159Z" stroke="#576E90" stroke-width="3.4375" stroke-linecap="butt" stroke-linejoin="miter" stroke-miterlimit="8" stroke-opacity="1" fill="none" fill-rule="evenodd"/></g></svg>