<svg width="60" height="64" xmlns="http://www.w3.org/2000/svg" xmlns:xlink="http://www.w3.org/1999/xlink" overflow="hidden"><defs><clipPath id="clip0"><rect x="1750" y="110" width="60" height="64"/></clipPath></defs><g clip-path="url(#clip0)" transform="translate(-1750 -110)"><path d="M1769.92 125.814 1767.47 127.634C1764.42 130.338 1762.2 134.008 1761.29 138.179L1761.21 138.63 1769.92 138.63ZM1777.5 115.5 1777.5 120.584 1777.5 123.036 1777.5 161.964 1777.5 165.41 1777.5 169.5 1777.36 169.493C1775.68 169.319 1774.05 168.986 1772.49 168.51L1769.89 167.446 1769.89 159.161 1769.92 159.186 1769.92 146.37 1761.23 146.37 1761.85 148.862C1762.52 150.858 1763.49 152.709 1764.71 154.357L1764.73 154.381 1764.73 164.625 1763.92 164.045C1757.59 159.086 1753.5 151.28 1753.5 142.5 1753.5 128.451 1763.96 116.897 1777.36 115.507Z" stroke="#D6DCE5" stroke-width="3.4375" stroke-linecap="butt" stroke-linejoin="miter" stroke-miterlimit="8" stroke-opacity="1" fill="none" fill-rule="evenodd"/><path d="M1783.5 115.5 1783.64 115.507C1796.22 116.807 1806.2 127.018 1807.4 139.836L1807.5 141.995 1800.18 141.995 1800.12 140.675C1799.83 137.419 1798.77 134.391 1797.11 131.788L1795.65 129.844 1795.65 164.971 1795.63 164.989C1794.46 165.778 1793.23 166.476 1791.94 167.073L1788.06 168.5 1788.06 124.234 1787.8 124.106C1786.83 123.732 1785.84 123.434 1784.81 123.22L1783.5 123.017Z" stroke="#D6DCE5" stroke-width="3.4375" stroke-linecap="butt" stroke-linejoin="miter" stroke-miterlimit="8" stroke-opacity="1" fill="none" fill-rule="evenodd"/></g></svg>