<svg width="3859" height="1783" xmlns="http://www.w3.org/2000/svg" xmlns:xlink="http://www.w3.org/1999/xlink" overflow="hidden"><defs><clipPath id="clip0"><rect x="142" y="206" width="3859" height="1783"/></clipPath></defs><g clip-path="url(#clip0)" transform="translate(-142 -206)"><path d="M3942.3 1867.99 2838.27 1882C2683.81 1882 2628.25 1840.2 2628.25 1762.7 2595.25 1577.14 2658.41 860.038 2596.25 782.681 2555.34 731.771 2471.95 712.638 2064.24 700.031 1656.53 687.424 787.851 711.709 150 707.038 151.223 647.302 149.465 605.085 150.687 545.349L1418.65 545.349C1746.75 545.349 1970.5 540.064 2119.23 545.349 2267.97 550.634 2634.73 517.234 2751.03 661.145 2867.33 805.057 2817.19 1287.74 2817.02 1408.82 2816.69 1409.92 2816.36 1411.02 2816.03 1412.12L2801.36 1655.18C2801.36 1685.79 2865.49 1728.12 2926.5 1728.12L3993 1728.12 3993 1863.5 3942.3 1867.99Z" fill="#767171" fill-rule="evenodd" fill-opacity="1"/><rect x="150" y="213" width="3843" height="1771" stroke="#FF0000" stroke-width="10.3125" stroke-linecap="butt" stroke-linejoin="miter" stroke-miterlimit="8" stroke-opacity="0" fill="none"/><path d="M3991.5 1799.11C3735.12 1806.53 3077.82 1820.39 2860.08 1813.75 2746.82 1810.29 2717.63 1822.87 2693.06 1661.28 2668.5 1499.68 2738.45 1013.33 2712.68 844.173 2686.91 675.017 2581.69 648.916 2538.45 646.341 2307.61 632.601 706.304 636.173 172.5 639.745" stroke="#FFFFFF" stroke-width="20.625" stroke-linecap="butt" stroke-linejoin="miter" stroke-miterlimit="8" stroke-dasharray="82.5 61.875" stroke-opacity="1" fill="none" fill-rule="evenodd"/></g></svg>