<svg width="4913" height="1783" xmlns="http://www.w3.org/2000/svg" xmlns:xlink="http://www.w3.org/1999/xlink" overflow="hidden"><defs><clipPath id="clip0"><rect x="-513" y="206" width="4913" height="1783"/></clipPath></defs><g clip-path="url(#clip0)" transform="translate(513 -206)"><path d="M-512 335 1590.61 335 2006.19 337.921C2059.66 338.674 2218.77 360.964 2292.13 416.786 2365.49 472.608 2445.68 539.598 2446.34 672.853 2448.02 1008.26 2448.19 1172.15 2449.26 1371.48 2450.23 1551.06 2441.28 1651.36 2542.94 1708.28 2655.84 1771.5 2912.35 1741.46 3126.09 1754.76L4399 1753.59 4399 1928.85 3140.22 1922.65C2954 1924.25 2853.83 1929.91 2698.2 1928.87 2427.82 1927.07 2284.23 1737.92 2283.65 1550.77 2282.96 1329.24 2286.67 1041.65 2281.57 886.168 2276.47 730.688 2282.31 654.468 2253.06 617.894 2177.8 523.773 2109.34 516.248 2009.11 511.653L-512 496.147-512 335Z" fill="#767171" fill-rule="evenodd" fill-opacity="1"/><path d="M4399.5 1836.52C4020.76 1845.51 3479.07 1842.15 2792.72 1851.34 2645.5 1853.31 2401.79 1840.29 2378.32 1608.27 2344.48 1273.66 2387.83 1057.2 2356.91 678.491 2345.61 540.004 2262.6 451.44 1954.05 435.225L-506.5 424.5" stroke="#FFFFFF" stroke-width="6.875" stroke-linecap="butt" stroke-linejoin="miter" stroke-miterlimit="8" stroke-dasharray="27.5 20.625" stroke-opacity="1" fill="none" fill-rule="evenodd"/><rect x="-435" y="213" width="4746" height="1771" stroke="#FF0000" stroke-width="10.3125" stroke-linecap="butt" stroke-linejoin="miter" stroke-miterlimit="8" stroke-opacity="0" fill="none"/></g></svg>