<svg width="87" height="87" xmlns="http://www.w3.org/2000/svg" xmlns:xlink="http://www.w3.org/1999/xlink" overflow="hidden"><defs><clipPath id="clip0"><rect x="2424" y="1384" width="87" height="87"/></clipPath></defs><g clip-path="url(#clip0)" transform="translate(-2424 -1384)"><path d="M2510 1428C2510 1451.2 2491.2 1470 2468 1470 2444.8 1470 2426 1451.2 2426 1428 2426 1404.8 2444.8 1386 2468 1386 2491.2 1386 2510 1404.8 2510 1428Z" fill="#5E799E" fill-rule="evenodd" fill-opacity="1"/><path d="M2486.45 1406 2508.57 1417.98 2509.14 1419.79C2509.7 1422.53 2510 1425.36 2510 1428.26 2510 1448.58 2495.47 1465.53 2476.16 1469.45L2470.66 1470 2455 1443.2Z" fill="#000000" fill-rule="evenodd" fill-opacity="0.14902"/><path d="M2449.54 1431 2446 1436.43 2456.57 1447 2462 1443.46Z" fill="#E14206" fill-rule="evenodd" fill-opacity="1"/><path d="M2452.49 1414.53 2443 1424.47 2450.58 1427 2463 1414Z" fill="#E14206" fill-rule="evenodd" fill-opacity="1"/><path d="M2469.33 1450 2478.51 1440.51 2479 1430 2467 1442.42Z" fill="#B6330B" fill-rule="evenodd" fill-opacity="1"/><path d="M2444.68 1437.63 2447.42 1440.37 2444.13 1443.66 2441.39 1440.92Z" fill="#FFB655" fill-rule="evenodd" fill-opacity="1"/><path d="M2452.24 1451.77 2449.5 1449.03 2452.79 1445.74 2455.53 1448.48Z" fill="#FF9811" fill-rule="evenodd" fill-opacity="1"/><path d="M2443.82 1446.47 2448.67 1441.62 2451.4 1444.35 2446.55 1449.2Z" fill="#FFB655" fill-rule="evenodd" fill-opacity="1"/><path d="M2487.84 1406.81 2487.52 1406 2480.67 1412.75C2482.58 1414.63 2482.58 1417.67 2480.67 1419.55 2478.76 1421.43 2475.67 1421.43 2473.76 1419.55L2456 1437.03 2464.1 1445 2483.71 1425.7C2488.72 1420.76 2490.34 1413.35 2487.84 1406.81Z" fill="#BAD0DC" fill-rule="evenodd" fill-opacity="1"/><path d="M2480.63 1419.63C2482.46 1417.8 2482.46 1414.83 2480.63 1413L2474 1419.63C2475.83 1421.46 2478.8 1421.46 2480.63 1419.63Z" fill="#3298CB" fill-rule="evenodd" fill-opacity="1"/><path d="M2473.45 1419.24C2471.57 1417.33 2471.57 1414.24 2473.45 1412.33 2475.33 1410.43 2478.37 1410.43 2480.25 1412.33L2487 1405.48 2486.19 1405.17C2484.17 1404.39 2482.05 1404 2479.89 1404 2475.14 1404 2470.67 1405.88 2467.3 1409.29L2448 1428.9 2455.97 1437 2473.45 1419.24Z" fill="#D1E4EC" fill-rule="evenodd" fill-opacity="1"/><path d="M2473.37 1412.54C2471.54 1414.6 2471.54 1417.94 2473.37 1420L2480 1412.54C2478.17 1410.49 2475.2 1410.49 2473.37 1412.54Z" fill="#27CFF7" fill-rule="evenodd" fill-opacity="1"/></g></svg>