<svg width="2456" height="6728" xmlns="http://www.w3.org/2000/svg" xmlns:xlink="http://www.w3.org/1999/xlink" overflow="hidden"><defs><clipPath id="clip0"><rect x="9391" y="-64" width="2456" height="6728"/></clipPath><linearGradient x1="1216.5" y1="0" x2="1216.5" y2="4290" gradientUnits="userSpaceOnUse" spreadMethod="reflect" id="fill1"><stop offset="0" stop-color="#C7D5ED" stop-opacity="1"/><stop offset="0.88" stop-color="#9C9DC0" stop-opacity="1"/><stop offset="1" stop-color="#9C9DC0" stop-opacity="1"/></linearGradient></defs><g clip-path="url(#clip0)" transform="translate(-9391 64)"><rect x="9400" y="-60.0002" width="2425" height="4289" fill="#445C7F" fill-opacity="1"/><path d="M10574.4-60.0002 11823-60.0002 11823 1192.65 11820.6 1194.69C11617.1 1324.12 11032.5 1164.01 10771.6 1058.85 10493.3 946.684 10248.3 668.045 10186.1 491.837 10164.6 343.811 10307.4 146.287 10526.1-22.7418Z" fill="#354762" fill-rule="evenodd" fill-opacity="1"/><path d="M9398-60.0002 10815.3-60.0002 10841.9-46.0221C10854.1-35.8102 10860.4-24.5603 10858.7-11.9258 10851.9 38.6089 10759 139.549 10582.3 183.962 10405.5 228.374 10043.9 220.122 9798 254.551 9675.05 271.766 9536.65 300.793 9411.79 328.001L9398 331Z" fill="#8FAADC" fill-rule="evenodd" fill-opacity="0.305882"/><path d="M35.9199 0.688805C26.0566-0.222271 16.3559-0.239943 6.96407 0.699015L0 2.17637 0 748 2432 748 2432 35.1247 2411.08 32.4638C2354.91 32.4638 2305.39 56.4054 2276.14 92.8202L2266.71 107.44 2233.04 92.3332C2202.46 81.6422 2168.84 75.7304 2133.55 75.7304 2098.26 75.7304 2064.64 81.6422 2034.06 92.3332L2013.4 101.605 1980.84 88.8825C1969.05 85.8465 1956.84 84.2517 1944.34 84.2517 1906.83 84.2517 1871.99 98.6024 1843.08 123.178L1816.92 150.348 1804.39 147.078C1786.76 144.041 1768.5 142.447 1749.79 142.447 1674.98 142.447 1607.24 167.958 1558.21 209.205L1542.48 225.249 1528 218.084C1501.47 207.846 1472.3 202.185 1441.68 202.185 1365.13 202.185 1297.64 237.567 1257.79 291.384L1249.02 306.118 1223.44 279.299C1194.82 254.723 1160.3 240.373 1123.16 240.373 1110.78 240.373 1098.69 241.968 1087.01 245.004L1078.64 248.306 1070.66 241.11C1037.4 216.535 997.3 202.185 954.136 202.185 910.972 202.185 870.872 216.535 837.609 241.11L836.354 242.243 828.829 232.269C791.113 191.023 739.009 165.511 681.457 165.511 638.292 165.511 598.193 179.862 564.929 204.437L561.862 207.205 546.604 179.966C508.16 124.284 442.288 83.4062 364.346 70.1234L326.597 66.9539 321.69 62.9832C257.865 17.1797 189.049-3.86147 139.261 12.9608L114.625 26.1278 103.28 19.7004C81.1224 9.31457 58.1108 2.73951 35.9199 0.688805Z" fill="#576E90" fill-rule="evenodd" fill-opacity="1" transform="matrix(-1 0 0 1 11825 1243)"/><path d="M11825 1407 11825 2334 9393 2334 9393 1474.2 9405 1477.15C9415.06 1480.85 9425.12 1485.75 9434.99 1491.76L9445.09 1499.19 9467.03 1483.97C9511.38 1464.51 9572.67 1488.84 9629.52 1541.81L9633.89 1546.41 9667.51 1550.07C9736.93 1565.43 9795.6 1612.71 9829.84 1677.1L9843.43 1708.6 9846.16 1705.4C9875.79 1676.98 9911.5 1660.38 9949.95 1660.38 10001.2 1660.38 10047.6 1689.89 10081.2 1737.58L10087.9 1749.12 10089 1747.81C10118.7 1719.39 10154.4 1702.79 10192.8 1702.79 10231.3 1702.79 10267 1719.39 10296.6 1747.81L10303.7 1756.13 10311.2 1752.31C10321.6 1748.8 10332.3 1746.96 10343.4 1746.96 10376.4 1746.96 10407.2 1763.55 10432.7 1791.97L10455.5 1822.99 10463.3 1805.95C10498.8 1743.71 10558.9 1702.79 10627.1 1702.79 10654.3 1702.79 10680.3 1709.34 10703.9 1721.18L10716.8 1729.47 10730.8 1710.91C10774.5 1663.21 10834.8 1633.71 10901.5 1633.71 10918.1 1633.71 10934.4 1635.55 10950.1 1639.06L10961.3 1642.85 10984.6 1611.43C11010.3 1583.01 11041.3 1566.41 11074.8 1566.41 11085.9 1566.41 11096.8 1568.25 11107.3 1571.77L11136.3 1586.48 11154.7 1575.76C11181.9 1563.39 11211.8 1556.56 11243.3 1556.56 11274.7 1556.56 11304.7 1563.39 11331.9 1575.76L11361.9 1593.23 11370.3 1576.32C11396.3 1534.21 11440.4 1506.52 11490.5 1506.52L11526.1 1512.4 11540.4 1493.14C11555.8 1476.07 11574.5 1466.1 11594.5 1466.1 11601.2 1466.1 11607.8 1467.21 11614.1 1469.32L11627.2 1475.98 11642.9 1464.09C11673.3 1447.02 11709.9 1437.05 11749.3 1437.05 11762.5 1437.05 11775.3 1438.16 11787.7 1440.27L11797.9 1442.89Z" fill="#8195B2" fill-rule="evenodd" fill-opacity="1"/><path d="M11680.8 1811.23C11715.6 1812.94 11755.1 1823.91 11791 1843.76L11825 1868.1 11825 2359 9393 2359 9393 1868.76 9404.66 1855.58C9433.98 1831.2 9478.36 1815.65 9528.03 1815.65 9561.15 1815.65 9591.91 1822.56 9617.43 1834.39L9631.42 1842.31 9641.69 1838.02C9646.99 1836.55 9652.47 1835.79 9658.09 1835.79 9674.95 1835.79 9690.61 1842.7 9703.6 1854.53L9715.36 1867.61 9720.99 1866.03C9728.91 1864.57 9737.12 1863.8 9745.53 1863.8 9787.56 1863.8 9824.61 1882.99 9846.49 1912.18L9853.55 1923.9 9878.75 1911.79C9901.63 1903.22 9926.79 1898.48 9953.19 1898.48 9979.6 1898.48 10004.8 1903.22 10027.6 1911.79L10043.1 1919.22 10067.5 1909.02C10076.3 1906.59 10085.4 1905.31 10094.8 1905.31 10122.8 1905.31 10148.9 1916.81 10170.5 1936.51L10190.1 1958.29 10199.5 1955.66C10212.7 1953.23 10226.3 1951.95 10240.3 1951.95 10282.3 1951.95 10321.3 1963.45 10353.7 1983.15L10373.3 1997.71 10382.3 1989.98C10410.3 1970.28 10444 1958.78 10480.3 1958.78 10540.9 1958.78 10594.2 1990.73 10625.8 2039.33L10636.5 2059.94 10657 2044.8C10673.1 2035.55 10690.7 2030.44 10709.2 2030.44 10718.5 2030.44 10727.5 2031.72 10736.3 2034.15L10742.5 2036.8 10748.5 2031.03C10773.4 2011.33 10803.4 1999.83 10835.7 1999.83 10868 1999.83 10898 2011.33 10922.9 2031.03L10923.8 2031.94 10929.5 2023.95C10957.7 1990.89 10996.7 1970.44 11039.7 1970.44 11050.5 1970.44 11061 1971.72 11071.2 1974.15L11078.4 1976.77 11093.4 1955C11110.1 1935.3 11130.1 1923.8 11151.7 1923.8 11158.9 1923.8 11166 1925.07 11172.7 1927.51L11185.9 1934.66 11203.8 1921.47C11228.3 1906.7 11256.6 1896.54 11287.1 1892.38L11305.6 1891.13 11308.9 1888.26C11347.2 1858.89 11387.8 1842.23 11421.5 1843.64 11430 1843.99 11438 1845.47 11445.5 1848.17 11450.1 1849.86 11454.4 1851.97 11458.3 1854.47L11463.6 1858.74 11477.9 1850.91C11492.8 1844.12 11508 1839.8 11522.8 1838.33 11537.5 1836.87 11551.8 1838.28 11564.7 1842.95 11571.2 1845.29 11577 1848.33 11582.1 1851.98L11588.3 1857.77 11599 1834.34C11616.1 1817.1 11646.1 1809.53 11680.8 1811.23Z" fill="#A9BAD6" fill-rule="evenodd" fill-opacity="1"/><path d="M157.908 0C99.8229 0 47.9232 15.9628 13.6298 41.0071L0 54.5457 0 484.058 0 558.026 0 4290 2433 4290 2433 558.026 2433 484.058 2433 38.6726 2421.42 44.2473 2415.22 39.8614C2410.62 37.2929 2405.59 35.1263 2400.15 33.3959 2391.43 30.6261 2382.05 29.104 2372.18 28.7408 2332.67 27.2917 2285.19 44.4091 2240.51 74.5718L2236.65 77.5139 2214.98 78.7995C2179.31 83.0693 2146.23 93.5067 2117.56 108.679L2096.61 122.225 2081.23 114.876C2073.29 112.377 2065.08 111.065 2056.66 111.065 2031.41 111.065 2007.96 122.877 1988.51 143.106L1970.89 165.471 1962.46 162.78C1950.59 160.281 1938.3 158.968 1925.71 158.968 1875.35 158.968 1829.76 179.967 1796.75 213.919L1790.17 222.129 1789.07 221.197C1759.97 200.968 1724.88 189.155 1687.11 189.155 1649.34 189.155 1614.25 200.968 1585.14 221.197L1578.17 227.12 1570.84 224.402C1560.62 221.903 1550.04 220.59 1539.21 220.59 1517.54 220.59 1496.9 225.841 1478.12 235.334L1454.16 250.882 1441.6 229.715C1404.74 179.808 1342.32 146.996 1271.53 146.996 1229.05 146.996 1189.59 158.809 1156.86 179.038L1146.34 186.978 1123.44 172.024C1085.6 151.795 1039.99 139.982 990.887 139.982 974.521 139.982 958.542 141.294 943.108 143.793L932.15 146.486 909.254 124.12C883.963 103.891 853.474 92.0796 820.654 92.0796 809.714 92.0796 799.033 93.3915 788.717 95.8904L760.223 106.362 742.142 98.7306C715.385 89.9305 685.968 85.0636 655.088 85.0636 624.21 85.0636 594.792 89.9305 568.035 98.7306L538.572 111.167 530.318 99.1315C504.729 69.157 461.394 49.4493 412.243 49.4493 402.413 49.4493 392.816 50.238 383.547 51.739L376.964 53.356 363.213 39.9229C348.022 27.7727 329.711 20.6776 309.998 20.6776 303.427 20.6776 297.012 21.4664 290.817 22.9673L278.808 27.3806 262.448 19.2453C232.606 7.09508 196.632 0 157.908 0Z" fill="url(#fill1)" fill-rule="evenodd" transform="matrix(-1 0 0 1 11839 2063)"/><path d="M10310.2 4503.14C10574.6 4509.5 10908.3 4752.33 11184.5 4751.27 11391.6 4750.48 11629.1 4628 11809.2 4551.6L11830 4543.39 11830 6232.18 11691.5 6252.93C11141.2 6320.41 10358.5 6276.98 9537.13 6215.06L9397 6204.15 9397 4660.54 9481.73 4699.33C9515.77 4709.05 9554.1 4714.16 9598.17 4713.1 9774.42 4708.86 10045.9 4496.78 10310.2 4503.14Z" fill="#9998BE" fill-rule="evenodd" fill-opacity="1"/><path d="M912.862 0.065772C1177.14 3.04717 1510.71 116.839 1786.73 116.342 1993.74 115.97 2231.15 58.5768 2411.24 22.7764L2432 18.9267 2432 810.31 2293.53 820.036C1743.46 851.656 961.124 831.304 140.074 802.29L0 797.175 0 73.8255 84.6921 92.0018C118.718 96.5593 157.038 98.9508 201.083 98.4539 377.266 96.4663 648.588-2.91563 912.862 0.065772Z" fill="#898BB8" fill-rule="evenodd" fill-opacity="1" transform="matrix(-1 0 0 1 11830 4848)"/><path d="M765.263 34.0423C946.458 9.49165 1053.63-15.7125 1335.43 106.415 1477.49 197.999 1700.29 235.041 1897.09 131.497 2057.4 47.1507 2211.92 169.311 2390.46 71.5951L2432 0 2411.04 1531.71 6.52969 1543 0 210.931 248.256 253.717C422.921 248.292 584.067 58.593 765.263 34.0423Z" fill="#7D759F" fill-rule="evenodd" fill-opacity="1" transform="matrix(-1 0 0 1 11835 5095)"/><path d="M1854.09 46.1364 1786.46 88.8396 1755.71 72.8254 1718.82 94.1774 1693.91 116.936 1688.08 110.191 1565.1 120.866 1534.36 72.8254 1454.42 88.8396 1405.23 56.812 1374.49 126.204 1319.15 99.5152 1288.4 131.543 1208.47 142.218 1190.02 184.922 1110.09 184.922 1079.34 206.273 993.262 200.935 888.732 200.935 827.244 232.963 808.798 291.679 722.715 291.679 747.309 216.949 691.971 206.273 710.417 136.881 655.078 131.543 648.929 67.4876 593.59 104.853 513.655 88.8396 507.506 131.543 439.87 136.881 433.721 83.5018 378.382 88.8396 304.596 67.4876 298.448 115.529 230.811 83.5018 181.62 104.853 107.834 115.529 83.2393 72.8254 0 62.5029 0 1065.06 138.854 1078.49C952.757 1154.67 1728.28 1208.1 2273.56 1125.09L2410.83 1099.55 2421 62.4025 2364.44 88.8396 2315.25 67.4876 2241.47 142.218 2198.43 126.204 2167.68 158.232 2112.34 136.881 2081.6 94.1774 2032.41 115.529 1983.22 56.812 1927.88 72.8254ZM0 0 0 55.3617 21.7513 3.43315Z" fill="#666189" fill-rule="evenodd" fill-opacity="1" transform="matrix(-1 0 0 1 11835 5471)"/><path d="M2417.27 0 2338.51 29.8107 2268.5 67.0745 2163.48 67.0745 2049.72 126.697 1997.21 81.9798 1830.94 96.8852 1769.68 126.697 1682.17 89.4329 1638.42 29.8107 1507.15 37.2638 1437.14 67.0745 1445.89 134.149 1314.62 59.6222 1253.37 119.244 1130.85 119.244 1043.34 104.338 938.324 178.866 807.057 193.771 780.804 238.487 702.044 275.751 675.79 320.468 509.518 327.92 395.754 313.015 246.984 313.015 185.727 335.373 141.97 298.109 80.7128 313.015 10.7035 275.751 0 795.33 0 878.015 138.829 891.978C952.581 971.18 1727.97 1026.74 2273.14 940.422L2410.38 913.87 2419 0.295249Z" fill="#5A5576" fill-rule="evenodd" fill-opacity="1" transform="matrix(-1 0 0 1 11835 5676)"/><path d="M2434.05 0 2427.24 12.2958 2416.35 13.0137 2405.55 5.34903 2400 11.7646 2389.69 11.5138 2386.31 17.7859 2396.23 24.5778 2385.79 28.0579 2396.82 37.1038 2388.98 38.5509 2382.82 41.2837 2393.09 45.7257 2379.18 50.3659 2373.84 44.668 2361.72 46.8626 2360.97 42.2589 2345.34 40.9619 2346.82 45.5178 2340.52 47.3297 2334.44 50.5227 2328.95 43.904 2315.27 41.0824 2316.76 45.6384 2330.03 55.0011 2318.11 53.9252 2314.74 60.1973 2325.78 60.4003 2324.36 65.1477 2316.67 67.5157 2317.65 73.5005 2304.78 71.0914 2295.42 72.1739 2298.05 74.7926 2294.72 76.8734 2301.71 79.2051 2296.35 82.3502 2299.71 84.9211 2309.95 84.7116 2318.74 84.5977 2313.91 90.9653 2305.05 90.619 2304.2 94.3977 2312.87 98.0147 2309.49 104.287 2313.15 108.699 2320.33 107.76 2312.83 115.701 2307.85 121.148 2305.34 114.798 2298.28 112.006 2297.75 108.783 2290.19 107.42 2287.91 102.452 2280.19 100.168 2274.87 107.965 2274.9 112.617 2270.57 117.555 2262.48 112.97C2262.56 114.981 2262.65 116.992 2262.73 119.003L2245.16 119.23 2248.51 121.801 2257.53 123.069 2249.07 129.676 2248.65 131.565 2256.36 133.849 2256.39 138.5 2261.92 140.928 2252.86 143.852C2252.78 143.869 2252.86 144.85 2253.07 146.673 2253.1 146.849 2253.12 147.025 2253.14 147.202L2240.71 147.493 2253.91 153.114C2253.98 153.592 2254.04 154.07 2254.11 154.548L2254.22 155.33 2243.26 159.25 2254.99 160.775 2255.05 161.2 2247.85 168.09 2242.1 171.252 2249.37 173.555 2243.75 177.503 2249.72 179.494 2258.21 182.78 2258.59 185.269 2245.79 186.113 2242.71 190.291 2236.89 193.059 2244.1 194.969 2239.59 198.048 2241.16 199.933 2250.82 197.706 2251.27 200.459 2241.18 203.906 2227.02 201.66 2222.04 198.013 2232.32 195.745 2226.97 193.713 2232.66 190.158 2222.54 189.633 2216.86 193.187 2210.98 195.562 2203.45 191.686 2213.92 190.598 2206.99 182.708 2217.53 182.013 2214.9 177.417 2220.65 174.255 2208.05 173.893 2208.82 167.085 2202.29 165.528 2190.69 175.037 2183.38 176.314 2179.05 169.047 2184.63 168.679 2191.62 165.436 2196.75 162.316 2202.27 161.554 2199.08 157.392 2201.92 155.615C2201.78 153.504 2201.65 151.393 2201.51 149.282L2192.83 149.854 2189.57 145.299 2182.82 146.142 2178.93 149.181 2172.89 146.796 2177.96 143.282 2169.87 139.84 2163.05 140.29 2172.07 134.13 2174.21 128.027 2165.72 129.779 2162.51 133.17 2156.03 128.033 2157.93 124.33 2148.63 124.943 2144 119.683 2140.13 115.169 2137.01 122.926 2139.58 127.129 2137.81 131.619 2130.34 128.136 2122.82 135.786 2116.07 136.629 2119.81 140.357 2111.06 140.536 2107.3 144.362 2093.25 138.928 2091.9 142.197 2084.4 142.294 2095.65 145.925 2089.21 148.734 2092.83 151.675 2100.7 149.964 2096.77 156.583 2087.89 155.976 2088.43 163.095 2081.06 163.979 2089.14 167.421 2096.58 166.93 2098.04 172.002 2104.74 170.765 2112.37 171.455 2103.84 176.787 2107.46 179.728 2099.27 179.473 2095.59 176.138 2089.55 173.754 2088.89 177.374 2083.31 177.742 2086.44 181.511 2079.06 182.395 2071.59 178.912 2077.28 175.357 2071.93 173.325 2078.04 168.55 2070.22 166.681 2064.89 168.622 2060.66 165.721 2064.29 161.109 2057.89 160.338 2052.44 161.492 2051.97 154.766 2046.22 157.928 2043.45 152.545 2038.49 152.872 2036.97 147.408 2042.16 144.68 2038.29 140.166 2026.89 143.302 2030.63 135.503 2025.68 128.277 2032.44 127.434 2033.59 122.986 2039.79 122.577 2034.42 116.571 2042.59 112.853 2034.99 108.584 2034.35 104.651 2028.44 103.053 2025.11 105.658 2023.89 98.186 2014.73 92.0322 2012.1 98.9626 2006.59 99.7237 2011.21 104.984 2005.33 107.359 2009.2 111.873 1997.72 110.643 1998.61 104.622 1990.16 102.793 1989.01 107.242 1982.68 106.864 1978.73 109.51 1974.54 114.556 1967.78 115.398 1962.35 108.999 1960.34 115.889 1952.9 116.379 1949.35 113.831 1944.22 116.952 1938.83 118.499 1945.87 123.203 1937.44 125.348 1942.56 129.781 1937.24 131.722 1942.58 133.754 1937.71 138.448 1931.32 137.677 1929.24 132.646 1923.87 138.167 1917.48 137.396 1912.22 139.73 1906.57 139.705 1904.86 133.061 1899.95 141.334 1892.83 143.791 1884.7 143.929 1892.3 148.198 1892.38 152.565 1901.35 157.539 1898.7 160.496 1902.68 161.824 1894.51 165.542 1902.15 166.231 1899.14 170.802 1905.34 170.393C1905.29 172.649 1905.24 174.905 1905.19 177.16L1897.79 174.071 1893.28 177.15 1882.09 173.913 1885.54 179.648 1881.29 184.301 1875.97 186.242 1889.57 188.922 1882.09 192.993 1883.48 197.671 1873.49 197.932 1872.41 202.773 1859.49 200.445 1857.28 194.628 1850.98 198.224C1851.07 196.23 1851.16 194.237 1851.25 192.243L1843.32 193.561 1842.78 186.442 1844.29 180.38 1837.89 179.609 1840.03 173.506 1833.57 172.341 1833.54 168.368 1827.94 164.763 1820.07 166.474 1814.85 165.228 1815.45 169.564 1810.6 168.801 1810.13 161.802 1803.34 167.659 1796.83 166.228 1793.79 160.862 1790.46 157.893 1784.11 157.709C1784.05 156.207 1784 154.705 1783.94 153.203L1775.17 154.268 1774.74 160.309 1763.09 160.515 1767.92 156.386 1762.62 153.515 1768.35 148.714 1763.06 147.474 1761.98 140.379 1751.56 145.665 1748.71 152.956 1745.98 150.083 1739.78 151.145 1738.28 154.982 1729.82 158.54 1737.09 162.942 1730.45 168.416 1736.51 169.367C1736.56 170.87 1736.62 172.372 1736.67 173.874L1743.18 175.305 1736.69 182.025 1738.68 190.077 1728.09 185.966 1723.26 190.095 1727.8 193.254 1725.1 198.531 1720.26 197.77 1716.34 202.857 1711.34 199.219 1709.39 205.837 1704.25 204.213 1697.74 204.413 1700.33 209.3 1695.5 211.798 1690.65 209.407 1682.49 210.567 1687.49 215.835 1681.75 217.376 1686.6 221.398 1678.45 224.188 1671.33 222.662 1675.26 219.206 1669.81 218.349C1669.86 217.135 1669.9 215.92 1669.95 214.705L1663.45 216.535 1659.08 219.512 1650.91 219.042 1655.14 216.449 1647.86 210.416 1655.57 210.407 1661.93 212.221 1664.48 207.328 1671.75 208.47 1680.51 205.775 1673.4 204.249 1675.49 197.247 1666.57 197.065 1664.13 190.164 1671.55 192.553 1675.78 189.959 1670.02 186.609 1681.96 184.007 1674.55 183.248 1673.93 179.893 1658.82 184.033 1655.94 179.914 1647.31 178.965 1651.84 175.603 1645.33 174.173 1639.56 165.933 1631.41 168.723 1630.64 164.121 1634.1 160.186 1632.72 152.229 1627.89 156.358 1622.16 161.159 1613.08 159.731 1614.15 163.565 1606.6 168.081 1604.17 164.44 1596.15 161.956 1596.93 168.188 1604.51 175.083 1597.85 174.036 1589.09 176.732 1593.33 180.658 1586.84 182.488 1583.65 179.135 1577.15 177.704 1572.92 181.929 1564.45 180.596 1562.65 186.831 1565.08 188.842 1561.01 192.682 1566.3 193.922 1570.7 197.465 1576.91 201.293 1582.36 202.15 1576.48 208.965 1569.52 207.055 1560.11 196.615 1553.31 197.581 1552.57 204.39 1540.02 203.638 1545.02 207.276 1541.41 211.595 1551.69 213.213 1543.09 220.415 1553.23 222.417 1544.92 225.591 1539.62 222.721 1534.77 218.699 1524.64 218.327 1529.49 222.349 1523.75 223.89 1533.44 227.043 1527.7 230.214 1513.18 231.19 1503.95 226.886 1505 224.199 1514.08 227.257 1516.04 225.529 1512.25 222.081 1519.81 220.826 1514.66 217.572 1512.53 213.163 1494.98 210.403 1510.09 206.262 1516.43 204.816 1511.73 200.411 1519.44 198.772 1514.44 195.134 1508.52 187.278 1520.92 186.784 1508.5 180.757 1526.03 175.367 1507.57 173.279 1499.57 185.035 1495.55 179.118 1484.87 186.58 1478.68 179.436 1470.43 190.314 1464.55 181.162 1453.9 185.044 1449.53 181.357 1440.47 191.096 1452.52 191.893 1455.6 199.242 1445.38 201.903 1452.35 206.213 1443.18 207.613 1441.05 213.715 1453.71 214.471 1459.96 222.009 1451.47 223.761 1458.77 230.037 1439.93 233.664 1449.09 239.817 1446.82 245.134 1431.02 248.163 1435.52 252.637 1442.62 257.733 1429.62 262.565 1442.5 268.474 1450.24 265.976 1454.12 268.861 1451.77 273.007 1445.44 274.72 1450.33 277.915 1441.83 279.231 1439.41 283.5 1423.86 279.963C1423.78 281.098 1423.7 282.233 1423.63 283.367L1416.31 284.441 1428.52 286.562 1423.15 290.176 1427.66 292.61 1434.8 289.895 1433.14 296.946 1424.25 297.502 1427.13 304.464 1420.2 306.298 1429.26 308.645 1436.38 307.191 1439.48 312.011 1445.62 309.918 1453.32 309.604 1446.74 315.983 1451.25 318.418 1443.15 319.233 1438.44 316.418 1431.75 314.848 1432.3 318.511 1426.96 319.601 1431.26 322.917 1424.33 324.751 1415.87 322.284 1420.27 318.031 1414.36 316.72 1418.77 311.206 1410.49 310.38 1405.92 312.991 1400.81 310.677 1402.84 305.648 1396.33 305.72 1391.37 307.57 1388.69 300.988 1384.1 304.86 1379.62 299.902 1374.87 300.872 1371.58 295.672 1375.76 292.301 1370.48 288.346 1360.36 292.928 1361.44 284.738 1354.21 278.243 1360.55 276.53 1360.21 271.986 1366.14 270.774 1358.9 265.541 1365.66 260.804 1356.82 257.576 1354.89 253.775 1348.58 252.965 1346.18 255.973 1342.51 248.751 1331.52 243.865C1331.42 246.261 1331.33 248.657 1331.24 251.054L1326.09 252.524 1332.35 257.118 1327.38 260.23 1332.66 264.185 1321.02 264.466 1319.9 258.401 1311.03 257.696C1311.14 259.211 1311.26 260.726 1311.37 262.24L1305.05 262.692 1302.05 265.821 1299.62 271.351 1293.29 273.064 1285.85 267.451 1286.17 274.518 1279.04 275.972 1274.73 273.917 1270.73 277.668 1265.97 279.899 1274.42 283.628 1266.88 286.845 1273.35 290.558 1268.78 293.169 1274.69 294.48 1271.47 299.751 1264.95 299.823 1261.26 295.124 1257.83 301.277 1251.32 301.348 1246.94 304.339 1241.41 305.05 1237.53 298.709 1235.46 307.522 1229.3 310.877 1221.39 312.072 1230.24 315.3 1231.77 319.602 1242.18 323.348 1240.57 326.614 1244.9 327.408 1238.13 332.145 1245.84 331.831 1244.4 336.739 1250.33 335.527 1252.43 342.231 1244.16 340.143 1240.76 343.773 1228.74 342.032 1234.01 347.249 1231.39 352.399 1226.82 355.01 1241.02 355.886 1235.04 360.882 1237.95 365.321 1228.26 366.88 1228.8 371.804 1215.38 371.187 1214.41 369.885 1217.07 386.901 1215.92 387.078 1208.25 381.938 1206.71 387.078 1199.04 388.264 1192.13 383.915 1198.27 381.543 1191.36 379.962 1196.73 375.217 1185.99 373.636 1193.66 368.496 1186.76 367.31 1179.85 364.542 1176.01 367.31 1166.8 367.31 1162.96 360.589 1157.59 367.31 1149.15 366.915 1143 362.17 1137.63 359.798 1129.96 360.589 1127.65 356.24 1117.67 358.612 1119.98 364.542 1106.16 366.519 1110 361.775 1102.32 359.798 1106.93 354.263 1100.02 353.868 1095.42 347.147 1085.44 353.868C1085.44 356.372 1085.44 358.876 1085.44 361.38L1080.83 359.007 1073.92 360.984C1073.92 362.302 1073.92 363.62 1073.92 364.938L1065.48 369.682 1076.23 372.845 1070.85 379.171 1078.53 379.171 1080.83 383.52 1089.28 383.915 1084.67 391.427 1090.81 398.939 1076.23 396.567 1072.39 401.311 1079.3 403.683 1078.53 409.218 1072.39 409.218 1070.09 414.753 1062.41 411.986 1063.18 418.707 1056.27 417.916 1053.16 418.397 1053.16 422.796 1053.97 423.451 1053.16 424.007 1046.98 429.91 1035.55 428.85 1041.29 421.954 1032.48 421.023 1036.89 412.979 1049.24 411.037 1045.69 405.203 1036.29 404.686 1042.18 399.765 1031.45 398.098 1032.77 390.54 1044.49 388.615 1033.25 379.84 1029.79 383.899 1018.35 381.066 1014.68 390.671 1003.97 380.693 999.533 388.342 987.213 381.973 984.632 388.202 973.958 377.334 956.199 381.141 974.796 384.816 963.932 391.948 976.308 391.266 972.299 399.593 968.208 403.663 976.215 404.556 972.601 409.356 979.217 410.186 995.131 412.854 978.426 417.241 977.355 421.801 973.026 425.506 980.794 426.033 977.855 429.801 980.2 431.324 988.462 427.443 990.132 430 982.009 435.128 967.428 435.534 961.01 432.94 969.848 428.908 963.809 427.926 967.661 423.491 957.729 424.815 953.876 429.25 949.309 432.589 940.348 430.235 949.902 427.299 939.708 420.989 949.501 418.418 944.91 414.488 949.001 410.418 936.764 412.348 934.437 405.684 927.484 405.371 920.635 416.583 914.2 419.129 906.787 412.945 911.971 411.584 917.214 407.212 920.728 403.293 925.674 401.567 920.746 398.154 922.672 395.936 919.431 389.941 911.367 392.058 906.2 388.28 900.102 390.309 897.739 393.925 890.885 392.73 894.161 388.446 884.863 386.608 878.526 388.272 884.403 380.738 883.705 374.502 876.356 377.716 874.808 381.546 866.284 377.793C866.337 376.496 866.389 375.198 866.441 373.901L857.801 376.17 851.005 371.964 845.262 368.337C845.428 371.003 845.595 373.669 845.762 376.336L850.114 379.9 850.434 384.523 841.712 382.534 837.942 391.227 831.843 393.256 837.109 396.153 828.806 397.905 826.921 402.252 811.007 399.584 811.187 402.96 804.036 404.41 816.453 405.856 811.548 409.712 816.336 411.878 823.109 408.816 822.318 415.87 813.537 416.892 817.255 423.618 810.581 425.799 819.879 427.637 826.792 425.821 830.469 430.419 836.329 428.024 843.957 427.305 838.179 433.957 842.967 436.123 835.002 437.359 829.974 434.828 823.12 433.632 824.115 437.222 818.93 438.584 823.621 441.632 816.947 443.812 808.224 441.823 812.076 437.388 806.036 436.407 809.749 430.725 801.405 430.348 797.175 433.171 791.81 431.156 793.219 426.079 786.742 426.496 782.035 428.588 778.556 422.227 774.465 426.297 769.397 421.636 764.789 422.847 760.873 417.884 764.626 414.331 758.883 410.704 749.37 415.77C749.395 413.053 749.42 410.336 749.445 407.619L741.456 401.587 747.555 399.557 746.659 395.085 752.419 393.573 744.57 388.787 750.726 383.747 741.527 381.028 739.141 377.375 732.764 376.91 730.739 380.009 726.207 373.069 714.663 368.826 715.262 375.943 710.316 377.67 717.112 381.876 712.544 385.215 718.287 388.842 706.725 389.739 704.875 383.806 695.956 383.581 696.851 388.053 690.614 388.835 688.013 392.085 686.267 397.679 680.169 399.708 672.081 394.557 673.257 401.523 668.644 402.734 668.215 398.391 663.347 400.116 655.164 399.167 650.468 403.261 651.376 407.193 645.263 408.954 648.806 414.787 642.664 416.154 645.584 422.005 646.722 429.096 638.568 428.542 640.243 434.43 633.163 431.47 632.346 437.43 620.119 440.953 617.907 436.268 607.97 436.953C608.063 435.368 608.156 433.782 608.25 432.196L599.895 428.877 612.717 424.942 606.997 423.525 601.7 419.326 603.762 413.329 593.46 417.587 588.277 414.968 581.683 418.722 579.951 412.044 586.179 411.863 582.128 407.627 589.516 406.224 580.567 403.319 584.19 401.63 580.875 398.956 588.572 393.191 587.634 388.865 594.141 383.926 586.074 384.557 578.456 382.8 571.656 375.082C571.61 377.327 571.565 379.571 571.519 381.815L565.942 382.373 560.194 380.562 554.051 381.928 547.451 376.975 546.578 382.145 540.435 383.512 534.515 379.331 539.325 376.816 533.606 375.399 537.622 370.533 528.788 369.207 534.644 363.892 528.953 362.87 523.147 360.269 520.233 363.124 512.759 363.342 509.159 356.718 505.285 363.559 498.406 363.364 493.08 358.77 488.548 356.527 482.377 357.499 480.194 353.209 472.268 355.814 474.566 361.684 463.498 363.985 466.269 359.155 459.898 357.362 463.234 351.724 457.6 351.492 453.376 344.887 445.766 351.837 446.31 359.341 442.401 357.08 436.939 359.218C437.034 360.535 437.129 361.851 437.225 363.168L430.717 368.107 439.666 371.012 435.764 377.458 441.992 377.277 444.175 381.567 451.055 381.762 447.862 389.375 453.388 396.734 441.382 394.709 438.612 399.539 444.389 401.745C444.315 403.595 444.241 405.444 444.167 407.293L439.184 407.438 437.716 413.022 431.288 410.438 432.397 417.134 426.734 416.508 420.592 417.874 425.266 422.092 421.758 425.36 416.038 423.944 408.736 426.531 415.902 430.676 411.091 433.191 417.548 436.169 410.983 440.318 403.481 440.141 405.686 436.119 400.08 436.282 398.577 432.764 393.172 435.691 390.315 439.337 382.276 440.363 385.161 437.112 375.475 432.645 382.863 431.242 389.771 431.833C389.855 430.115 389.939 428.398 390.022 426.68L397.496 426.463 404.684 422.295 397.182 422.118 396.044 415.027 387.41 416.466 381.969 410.292 390.152 411.241 393.037 407.991 386.014 405.821 396.288 401.168 388.842 401.781 386.745 398.675 374.123 405.376 369.506 401.948 360.815 402.597 363.643 398.557 356.763 398.362 347.529 391.507 340.963 395.656 338.157 391.384 339.711 386.985 334.807 379.608 332.037 384.438 328.7 390.076 319.358 390.348 322.107 393.831 316.902 399.523 312.936 396.472 304.13 395.541 307.674 401.375 318.04 406.614 311.188 406.813 304.001 410.981 309.835 413.977 304.43 416.905 299.87 414.267 292.99 414.072 290.842 418.884 282.123 419.138 283.203 425.439 286.432 426.928 284.255 431.345 289.89 431.577 295.695 434.178 303.369 436.725 308.975 436.561 306.405 444.156 298.873 443.584 285.164 435.276 279.079 437.432 281.434 444.092 269.063 445.64 275.492 448.223 273.967 453.017 284.555 452.708 279.55 461.166 290.167 461.252 283.631 465.796 277.259 464.003 270.802 461.025 260.923 462.5 267.38 465.478 262.569 467.993 273.272 469.264 269.198 473.34 255.724 476.899 244.936 474.443C244.87 473.521 244.803 472.6 244.736 471.678L254.815 472.968 255.918 470.957 250.735 468.337 257.414 465.768 251.014 463.58 246.992 459.739 234.134 460.114C234.062 459.281 233.991 458.449 233.919 457.616L241.551 453.565 246.985 451.032 240.499 447.659 247.149 444.695 240.721 442.112 231.981 435.979C231.968 435.837 231.955 435.695 231.942 435.552L243.177 432.937 231.423 430.096C231.398 429.835 231.373 429.573 231.348 429.312 231.3 428.833 231.252 428.355 231.203 427.876L242.941 421.071 230.579 421.956 230.521 421.427C230.304 419.604 230.15 418.628 230.068 418.618L220.421 416.582 225.324 413.659 224.26 409.056 231.35 406.07 230.487 404.242 220.573 398.507 229.189 396.402 231.904 393.543 214.471 394.978 213.307 388.988 206.383 394.287 200.944 389.812 199.88 385.209 192.781 378.002 185.691 380.989 184.601 386.118 177.443 388.18C177.521 389.258 177.599 390.337 177.678 391.416L171.35 394.844 170.36 401.36 164.158 396.444 154.872 389.3 162.197 389.55 164.779 384.842 159.969 378.958 167.688 374.563 165.962 370.907 157.279 372.086 151.01 366.246 159.726 365.528 169.901 364.768 172.617 361.909 166.583 359.305 172.944 356.339 169.164 354.596 171.151 351.758 161.638 351.572 149.477 355.17 149.041 349.159 140.886 347.543 138.363 342.983 149.234 341.74 144.424 335.856 132.891 338.045 143.821 327.533 144.215 322.888 131.358 326.97 127.485 334.033 120.722 331.45 114.059 330.254 114.453 325.609 99.3075 328.367C99.4192 329.908 99.5308 331.449 99.6425 332.991L87.1464 331.965 83.2069 338.103 68.3555 334.829 77.4659 329.467 70.7363 327.346 62.6483 326.655 71.424 316.669 60.2855 314.213 68.4992 306.56 63.6887 300.677 53.5475 301.899 46.5495 296.079 37.6731 304.678 26.7356 304.997 17.1174 293.481C21.416 364.577 22.4071 789.662 0 855.919L2436.87 863C2424.42 792.291 2446.49 70.709 2434.05 0Z" fill="#3D4067" fill-rule="evenodd" fill-opacity="1" transform="matrix(-1 0 0 1 11844 5794)"/></g></svg>