<svg width="2453" height="6723" xmlns="http://www.w3.org/2000/svg" xmlns:xlink="http://www.w3.org/1999/xlink" overflow="hidden"><defs><clipPath id="clip0"><rect x="1947" y="-82" width="2453" height="6723"/></clipPath><linearGradient x1="3169" y1="-81.0001" x2="3169" y2="4208" gradientUnits="userSpaceOnUse" spreadMethod="reflect" id="fill1"><stop offset="0" stop-color="#C5E5F5" stop-opacity="1"/><stop offset="0.49" stop-color="#D2EFF8" stop-opacity="1"/><stop offset="1" stop-color="#D2EFF8" stop-opacity="1"/></linearGradient><linearGradient x1="1216.5" y1="0.000144441" x2="1216.5" y2="748" gradientUnits="userSpaceOnUse" spreadMethod="reflect" id="fill2"><stop offset="0" stop-color="#FFFFFF" stop-opacity="0.34902"/><stop offset="0.0113636" stop-color="#FFFFFF" stop-opacity="0.345053"/><stop offset="0.0227273" stop-color="#FFFFFF" stop-opacity="0.341087"/><stop offset="0.0340909" stop-color="#FFFFFF" stop-opacity="0.337121"/><stop offset="0.0454545" stop-color="#FFFFFF" stop-opacity="0.333155"/><stop offset="0.0568182" stop-color="#FFFFFF" stop-opacity="0.329189"/><stop offset="0.0681818" stop-color="#FFFFFF" stop-opacity="0.325223"/><stop offset="0.0795455" stop-color="#FFFFFF" stop-opacity="0.321257"/><stop offset="0.0909091" stop-color="#FFFFFF" stop-opacity="0.317291"/><stop offset="0.102273" stop-color="#FFFFFF" stop-opacity="0.313324"/><stop offset="0.113636" stop-color="#FFFFFF" stop-opacity="0.309358"/><stop offset="0.125" stop-color="#FFFFFF" stop-opacity="0.305392"/><stop offset="0.136364" stop-color="#FFFFFF" stop-opacity="0.301426"/><stop offset="0.147727" stop-color="#FFFFFF" stop-opacity="0.29746"/><stop offset="0.159091" stop-color="#FFFFFF" stop-opacity="0.293494"/><stop offset="0.170455" stop-color="#FFFFFF" stop-opacity="0.289528"/><stop offset="0.181818" stop-color="#FFFFFF" stop-opacity="0.285562"/><stop offset="0.193182" stop-color="#FFFFFF" stop-opacity="0.281595"/><stop offset="0.204545" stop-color="#FFFFFF" stop-opacity="0.277629"/><stop offset="0.215909" stop-color="#FFFFFF" stop-opacity="0.273663"/><stop offset="0.227273" stop-color="#FFFFFF" stop-opacity="0.269697"/><stop offset="0.238636" stop-color="#FFFFFF" stop-opacity="0.265731"/><stop offset="0.25" stop-color="#FFFFFF" stop-opacity="0.261765"/><stop offset="0.261364" stop-color="#FFFFFF" stop-opacity="0.257799"/><stop offset="0.272727" stop-color="#FFFFFF" stop-opacity="0.253832"/><stop offset="0.284091" stop-color="#FFFFFF" stop-opacity="0.249866"/><stop offset="0.295455" stop-color="#FFFFFF" stop-opacity="0.2459"/><stop offset="0.306818" stop-color="#FFFFFF" stop-opacity="0.241934"/><stop offset="0.318182" stop-color="#FFFFFF" stop-opacity="0.237968"/><stop offset="0.329545" stop-color="#FFFFFF" stop-opacity="0.234002"/><stop offset="0.340909" stop-color="#FFFFFF" stop-opacity="0.230036"/><stop offset="0.352273" stop-color="#FFFFFF" stop-opacity="0.22607"/><stop offset="0.363636" stop-color="#FFFFFF" stop-opacity="0.222103"/><stop offset="0.375" stop-color="#FFFFFF" stop-opacity="0.218137"/><stop offset="0.386364" stop-color="#FFFFFF" stop-opacity="0.214171"/><stop offset="0.397727" stop-color="#FFFFFF" stop-opacity="0.210205"/><stop offset="0.409091" stop-color="#FFFFFF" stop-opacity="0.206239"/><stop offset="0.420455" stop-color="#FFFFFF" stop-opacity="0.202273"/><stop offset="0.431818" stop-color="#FFFFFF" stop-opacity="0.198307"/><stop offset="0.443182" stop-color="#FFFFFF" stop-opacity="0.19434"/><stop offset="0.454545" stop-color="#FFFFFF" stop-opacity="0.190374"/><stop offset="0.465909" stop-color="#FFFFFF" stop-opacity="0.186408"/><stop offset="0.477273" stop-color="#FFFFFF" stop-opacity="0.182442"/><stop offset="0.488636" stop-color="#FFFFFF" stop-opacity="0.178476"/><stop offset="0.5" stop-color="#FFFFFF" stop-opacity="0.17451"/><stop offset="0.511364" stop-color="#FFFFFF" stop-opacity="0.170544"/><stop offset="0.522727" stop-color="#FFFFFF" stop-opacity="0.166578"/><stop offset="0.534091" stop-color="#FFFFFF" stop-opacity="0.162611"/><stop offset="0.545455" stop-color="#FFFFFF" stop-opacity="0.158645"/><stop offset="0.556818" stop-color="#FFFFFF" stop-opacity="0.154679"/><stop offset="0.568182" stop-color="#FFFFFF" stop-opacity="0.150713"/><stop offset="0.579545" stop-color="#FFFFFF" stop-opacity="0.146747"/><stop offset="0.590909" stop-color="#FFFFFF" stop-opacity="0.142781"/><stop offset="0.602273" stop-color="#FFFFFF" stop-opacity="0.138815"/><stop offset="0.613636" stop-color="#FFFFFF" stop-opacity="0.134848"/><stop offset="0.625" stop-color="#FFFFFF" stop-opacity="0.130882"/><stop offset="0.636364" stop-color="#FFFFFF" stop-opacity="0.126916"/><stop offset="0.647727" stop-color="#FFFFFF" stop-opacity="0.12295"/><stop offset="0.659091" stop-color="#FFFFFF" stop-opacity="0.118984"/><stop offset="0.670455" stop-color="#FFFFFF" stop-opacity="0.115018"/><stop offset="0.681818" stop-color="#FFFFFF" stop-opacity="0.111052"/><stop offset="0.693182" stop-color="#FFFFFF" stop-opacity="0.107086"/><stop offset="0.704545" stop-color="#FFFFFF" stop-opacity="0.103119"/><stop offset="0.715909" stop-color="#FFFFFF" stop-opacity="0.0991533"/><stop offset="0.727273" stop-color="#FFFFFF" stop-opacity="0.0951872"/><stop offset="0.738636" stop-color="#FFFFFF" stop-opacity="0.091221"/><stop offset="0.75" stop-color="#FFFFFF" stop-opacity="0.0872549"/><stop offset="0.761364" stop-color="#FFFFFF" stop-opacity="0.0832888"/><stop offset="0.772727" stop-color="#FFFFFF" stop-opacity="0.0793227"/><stop offset="0.784091" stop-color="#FFFFFF" stop-opacity="0.0753565"/><stop offset="0.795455" stop-color="#FFFFFF" stop-opacity="0.0713904"/><stop offset="0.806818" stop-color="#FFFFFF" stop-opacity="0.0674242"/><stop offset="0.818182" stop-color="#FFFFFF" stop-opacity="0.0634581"/><stop offset="0.829545" stop-color="#FFFFFF" stop-opacity="0.059492"/><stop offset="0.840909" stop-color="#FFFFFF" stop-opacity="0.0555259"/><stop offset="0.852273" stop-color="#FFFFFF" stop-opacity="0.0515597"/><stop offset="0.863636" stop-color="#FFFFFF" stop-opacity="0.0475936"/><stop offset="0.875" stop-color="#FFFFFF" stop-opacity="0.0436275"/><stop offset="0.886364" stop-color="#FFFFFF" stop-opacity="0.0396613"/><stop offset="0.897727" stop-color="#FFFFFF" stop-opacity="0.0356952"/><stop offset="0.909091" stop-color="#FFFFFF" stop-opacity="0.031729"/><stop offset="0.920455" stop-color="#FFFFFF" stop-opacity="0.0277629"/><stop offset="0.931818" stop-color="#FFFFFF" stop-opacity="0.0237968"/><stop offset="0.943182" stop-color="#FFFFFF" stop-opacity="0.0198307"/><stop offset="0.954545" stop-color="#FFFFFF" stop-opacity="0.0158645"/><stop offset="0.965909" stop-color="#FFFFFF" stop-opacity="0.0118984"/><stop offset="0.977273" stop-color="#FFFFFF" stop-opacity="0.00793226"/><stop offset="0.988636" stop-color="#FFFFFF" stop-opacity="0.00396613"/><stop offset="1" stop-color="#FFFFFF" stop-opacity="0"/></linearGradient><linearGradient x1="3165.5" y1="1386" x2="3165.5" y2="2312" gradientUnits="userSpaceOnUse" spreadMethod="reflect" id="fill3"><stop offset="0" stop-color="#FFFFFF" stop-opacity="0.423529"/><stop offset="0.01" stop-color="#FFFFFF" stop-opacity="0.423529"/><stop offset="1" stop-color="#FFFFFF" stop-opacity="0.403922"/></linearGradient><linearGradient x1="3165.5" y1="1789" x2="3165.5" y2="2337" gradientUnits="userSpaceOnUse" spreadMethod="reflect" id="fill4"><stop offset="0" stop-color="#FFFFFF" stop-opacity="0.741176"/><stop offset="0.00574713" stop-color="#FFFFFF" stop-opacity="0.737232"/><stop offset="0.0114943" stop-color="#FFFFFF" stop-opacity="0.733288"/><stop offset="0.0172414" stop-color="#FFFFFF" stop-opacity="0.729344"/><stop offset="0.0229885" stop-color="#FFFFFF" stop-opacity="0.7254"/><stop offset="0.0287356" stop-color="#FFFFFF" stop-opacity="0.721456"/><stop offset="0.0344828" stop-color="#FFFFFF" stop-opacity="0.717512"/><stop offset="0.0402299" stop-color="#FFFFFF" stop-opacity="0.713568"/><stop offset="0.045977" stop-color="#FFFFFF" stop-opacity="0.709624"/><stop offset="0.0517241" stop-color="#FFFFFF" stop-opacity="0.70568"/><stop offset="0.0574713" stop-color="#FFFFFF" stop-opacity="0.701735"/><stop offset="0.0632184" stop-color="#FFFFFF" stop-opacity="0.697791"/><stop offset="0.0689655" stop-color="#FFFFFF" stop-opacity="0.693847"/><stop offset="0.0747126" stop-color="#FFFFFF" stop-opacity="0.689903"/><stop offset="0.0804598" stop-color="#FFFFFF" stop-opacity="0.685959"/><stop offset="0.0862069" stop-color="#FFFFFF" stop-opacity="0.682015"/><stop offset="0.091954" stop-color="#FFFFFF" stop-opacity="0.678071"/><stop offset="0.0977011" stop-color="#FFFFFF" stop-opacity="0.674127"/><stop offset="0.103448" stop-color="#FFFFFF" stop-opacity="0.670183"/><stop offset="0.109195" stop-color="#FFFFFF" stop-opacity="0.666238"/><stop offset="0.114943" stop-color="#FFFFFF" stop-opacity="0.662294"/><stop offset="0.12069" stop-color="#FFFFFF" stop-opacity="0.65835"/><stop offset="0.126437" stop-color="#FFFFFF" stop-opacity="0.654406"/><stop offset="0.132184" stop-color="#FFFFFF" stop-opacity="0.650462"/><stop offset="0.137931" stop-color="#FFFFFF" stop-opacity="0.646518"/><stop offset="0.143678" stop-color="#FFFFFF" stop-opacity="0.642574"/><stop offset="0.149425" stop-color="#FFFFFF" stop-opacity="0.63863"/><stop offset="0.155172" stop-color="#FFFFFF" stop-opacity="0.634686"/><stop offset="0.16092" stop-color="#FFFFFF" stop-opacity="0.630741"/><stop offset="0.166667" stop-color="#FFFFFF" stop-opacity="0.626797"/><stop offset="0.172414" stop-color="#FFFFFF" stop-opacity="0.622853"/><stop offset="0.178161" stop-color="#FFFFFF" stop-opacity="0.618909"/><stop offset="0.183908" stop-color="#FFFFFF" stop-opacity="0.614965"/><stop offset="0.189655" stop-color="#FFFFFF" stop-opacity="0.611021"/><stop offset="0.195402" stop-color="#FFFFFF" stop-opacity="0.607077"/><stop offset="0.201149" stop-color="#FFFFFF" stop-opacity="0.603133"/><stop offset="0.206897" stop-color="#FFFFFF" stop-opacity="0.599189"/><stop offset="0.212644" stop-color="#FFFFFF" stop-opacity="0.595245"/><stop offset="0.218391" stop-color="#FFFFFF" stop-opacity="0.5913"/><stop offset="0.224138" stop-color="#FFFFFF" stop-opacity="0.587356"/><stop offset="0.229885" stop-color="#FFFFFF" stop-opacity="0.583412"/><stop offset="0.235632" stop-color="#FFFFFF" stop-opacity="0.579468"/><stop offset="0.241379" stop-color="#FFFFFF" stop-opacity="0.575524"/><stop offset="0.247126" stop-color="#FFFFFF" stop-opacity="0.57158"/><stop offset="0.252874" stop-color="#FFFFFF" stop-opacity="0.567636"/><stop offset="0.258621" stop-color="#FFFFFF" stop-opacity="0.563692"/><stop offset="0.264368" stop-color="#FFFFFF" stop-opacity="0.559748"/><stop offset="0.270115" stop-color="#FFFFFF" stop-opacity="0.555803"/><stop offset="0.275862" stop-color="#FFFFFF" stop-opacity="0.551859"/><stop offset="0.281609" stop-color="#FFFFFF" stop-opacity="0.547915"/><stop offset="0.287356" stop-color="#FFFFFF" stop-opacity="0.543971"/><stop offset="0.293103" stop-color="#FFFFFF" stop-opacity="0.540027"/><stop offset="0.298851" stop-color="#FFFFFF" stop-opacity="0.536083"/><stop offset="0.304598" stop-color="#FFFFFF" stop-opacity="0.532139"/><stop offset="0.310345" stop-color="#FFFFFF" stop-opacity="0.528195"/><stop offset="0.316092" stop-color="#FFFFFF" stop-opacity="0.524251"/><stop offset="0.321839" stop-color="#FFFFFF" stop-opacity="0.520307"/><stop offset="0.327586" stop-color="#FFFFFF" stop-opacity="0.516362"/><stop offset="0.333333" stop-color="#FFFFFF" stop-opacity="0.512418"/><stop offset="0.33908" stop-color="#FFFFFF" stop-opacity="0.508474"/><stop offset="0.344828" stop-color="#FFFFFF" stop-opacity="0.50453"/><stop offset="0.350575" stop-color="#FFFFFF" stop-opacity="0.500586"/><stop offset="0.356322" stop-color="#FFFFFF" stop-opacity="0.496642"/><stop offset="0.362069" stop-color="#FFFFFF" stop-opacity="0.492698"/><stop offset="0.367816" stop-color="#FFFFFF" stop-opacity="0.488754"/><stop offset="0.373563" stop-color="#FFFFFF" stop-opacity="0.48481"/><stop offset="0.37931" stop-color="#FFFFFF" stop-opacity="0.480865"/><stop offset="0.385057" stop-color="#FFFFFF" stop-opacity="0.476921"/><stop offset="0.390805" stop-color="#FFFFFF" stop-opacity="0.472977"/><stop offset="0.396552" stop-color="#FFFFFF" stop-opacity="0.469033"/><stop offset="0.402299" stop-color="#FFFFFF" stop-opacity="0.465089"/><stop offset="0.408046" stop-color="#FFFFFF" stop-opacity="0.461145"/><stop offset="0.413793" stop-color="#FFFFFF" stop-opacity="0.457201"/><stop offset="0.41954" stop-color="#FFFFFF" stop-opacity="0.453257"/><stop offset="0.425287" stop-color="#FFFFFF" stop-opacity="0.449313"/><stop offset="0.431034" stop-color="#FFFFFF" stop-opacity="0.445369"/><stop offset="0.436782" stop-color="#FFFFFF" stop-opacity="0.441424"/><stop offset="0.442529" stop-color="#FFFFFF" stop-opacity="0.43748"/><stop offset="0.448276" stop-color="#FFFFFF" stop-opacity="0.433536"/><stop offset="0.454023" stop-color="#FFFFFF" stop-opacity="0.429592"/><stop offset="0.45977" stop-color="#FFFFFF" stop-opacity="0.425648"/><stop offset="0.465517" stop-color="#FFFFFF" stop-opacity="0.421704"/><stop offset="0.471264" stop-color="#FFFFFF" stop-opacity="0.41776"/><stop offset="0.477012" stop-color="#FFFFFF" stop-opacity="0.413816"/><stop offset="0.482759" stop-color="#FFFFFF" stop-opacity="0.409872"/><stop offset="0.488506" stop-color="#FFFFFF" stop-opacity="0.405927"/><stop offset="0.494253" stop-color="#FFFFFF" stop-opacity="0.401983"/><stop offset="0.5" stop-color="#FFFFFF" stop-opacity="0.398039"/><stop offset="0.505747" stop-color="#FFFFFF" stop-opacity="0.394095"/><stop offset="0.511494" stop-color="#FFFFFF" stop-opacity="0.390151"/><stop offset="0.517241" stop-color="#FFFFFF" stop-opacity="0.386207"/><stop offset="0.522988" stop-color="#FFFFFF" stop-opacity="0.382263"/><stop offset="0.528736" stop-color="#FFFFFF" stop-opacity="0.378319"/><stop offset="0.534483" stop-color="#FFFFFF" stop-opacity="0.374375"/><stop offset="0.54023" stop-color="#FFFFFF" stop-opacity="0.37043"/><stop offset="0.545977" stop-color="#FFFFFF" stop-opacity="0.366486"/><stop offset="0.551724" stop-color="#FFFFFF" stop-opacity="0.362542"/><stop offset="0.557471" stop-color="#FFFFFF" stop-opacity="0.358598"/><stop offset="0.563218" stop-color="#FFFFFF" stop-opacity="0.354654"/><stop offset="0.568965" stop-color="#FFFFFF" stop-opacity="0.35071"/><stop offset="0.574713" stop-color="#FFFFFF" stop-opacity="0.346766"/><stop offset="0.58046" stop-color="#FFFFFF" stop-opacity="0.342822"/><stop offset="0.586207" stop-color="#FFFFFF" stop-opacity="0.338878"/><stop offset="0.591954" stop-color="#FFFFFF" stop-opacity="0.334933"/><stop offset="0.597701" stop-color="#FFFFFF" stop-opacity="0.330989"/><stop offset="0.603448" stop-color="#FFFFFF" stop-opacity="0.327045"/><stop offset="0.609195" stop-color="#FFFFFF" stop-opacity="0.323101"/><stop offset="0.614943" stop-color="#FFFFFF" stop-opacity="0.319157"/><stop offset="0.62069" stop-color="#FFFFFF" stop-opacity="0.315213"/><stop offset="0.626437" stop-color="#FFFFFF" stop-opacity="0.311269"/><stop offset="0.632184" stop-color="#FFFFFF" stop-opacity="0.307325"/><stop offset="0.637931" stop-color="#FFFFFF" stop-opacity="0.303381"/><stop offset="0.643678" stop-color="#FFFFFF" stop-opacity="0.299437"/><stop offset="0.649425" stop-color="#FFFFFF" stop-opacity="0.295492"/><stop offset="0.655172" stop-color="#FFFFFF" stop-opacity="0.291548"/><stop offset="0.66092" stop-color="#FFFFFF" stop-opacity="0.287604"/><stop offset="0.666667" stop-color="#FFFFFF" stop-opacity="0.28366"/><stop offset="0.672414" stop-color="#FFFFFF" stop-opacity="0.279716"/><stop offset="0.678161" stop-color="#FFFFFF" stop-opacity="0.275772"/><stop offset="0.683908" stop-color="#FFFFFF" stop-opacity="0.271828"/><stop offset="0.689655" stop-color="#FFFFFF" stop-opacity="0.267884"/><stop offset="0.695402" stop-color="#FFFFFF" stop-opacity="0.26394"/><stop offset="0.701149" stop-color="#FFFFFF" stop-opacity="0.259996"/><stop offset="0.706897" stop-color="#FFFFFF" stop-opacity="0.256051"/><stop offset="0.712644" stop-color="#FFFFFF" stop-opacity="0.252107"/><stop offset="0.718391" stop-color="#FFFFFF" stop-opacity="0.248163"/><stop offset="0.724138" stop-color="#FFFFFF" stop-opacity="0.244219"/><stop offset="0.729885" stop-color="#FFFFFF" stop-opacity="0.240275"/><stop offset="0.735632" stop-color="#FFFFFF" stop-opacity="0.236331"/><stop offset="0.741379" stop-color="#FFFFFF" stop-opacity="0.232387"/><stop offset="0.747126" stop-color="#FFFFFF" stop-opacity="0.228443"/><stop offset="0.752874" stop-color="#FFFFFF" stop-opacity="0.224499"/><stop offset="0.758621" stop-color="#FFFFFF" stop-opacity="0.220554"/><stop offset="0.764368" stop-color="#FFFFFF" stop-opacity="0.21661"/><stop offset="0.770115" stop-color="#FFFFFF" stop-opacity="0.212666"/><stop offset="0.775862" stop-color="#FFFFFF" stop-opacity="0.208722"/><stop offset="0.781609" stop-color="#FFFFFF" stop-opacity="0.204778"/><stop offset="0.787356" stop-color="#FFFFFF" stop-opacity="0.200834"/><stop offset="0.793103" stop-color="#FFFFFF" stop-opacity="0.19689"/><stop offset="0.798851" stop-color="#FFFFFF" stop-opacity="0.192946"/><stop offset="0.804598" stop-color="#FFFFFF" stop-opacity="0.189002"/><stop offset="0.810345" stop-color="#FFFFFF" stop-opacity="0.185057"/><stop offset="0.816092" stop-color="#FFFFFF" stop-opacity="0.181113"/><stop offset="0.821839" stop-color="#FFFFFF" stop-opacity="0.177169"/><stop offset="0.827586" stop-color="#FFFFFF" stop-opacity="0.173225"/><stop offset="0.833333" stop-color="#FFFFFF" stop-opacity="0.169281"/><stop offset="0.83908" stop-color="#FFFFFF" stop-opacity="0.165337"/><stop offset="0.844828" stop-color="#FFFFFF" stop-opacity="0.161393"/><stop offset="0.850575" stop-color="#FFFFFF" stop-opacity="0.157449"/><stop offset="0.856322" stop-color="#FFFFFF" stop-opacity="0.153505"/><stop offset="0.862069" stop-color="#FFFFFF" stop-opacity="0.149561"/><stop offset="0.867816" stop-color="#FFFFFF" stop-opacity="0.145616"/><stop offset="0.873563" stop-color="#FFFFFF" stop-opacity="0.141672"/><stop offset="0.87931" stop-color="#FFFFFF" stop-opacity="0.137728"/><stop offset="0.885057" stop-color="#FFFFFF" stop-opacity="0.133784"/><stop offset="0.890805" stop-color="#FFFFFF" stop-opacity="0.12984"/><stop offset="0.896552" stop-color="#FFFFFF" stop-opacity="0.125896"/><stop offset="0.902299" stop-color="#FFFFFF" stop-opacity="0.121952"/><stop offset="0.908046" stop-color="#FFFFFF" stop-opacity="0.118008"/><stop offset="0.913793" stop-color="#FFFFFF" stop-opacity="0.114064"/><stop offset="0.91954" stop-color="#FFFFFF" stop-opacity="0.110119"/><stop offset="0.925287" stop-color="#FFFFFF" stop-opacity="0.106175"/><stop offset="0.931035" stop-color="#FFFFFF" stop-opacity="0.102231"/><stop offset="0.936782" stop-color="#FFFFFF" stop-opacity="0.0982872"/><stop offset="0.942529" stop-color="#FFFFFF" stop-opacity="0.094343"/><stop offset="0.948276" stop-color="#FFFFFF" stop-opacity="0.0903989"/><stop offset="0.954023" stop-color="#FFFFFF" stop-opacity="0.0864548"/><stop offset="0.95977" stop-color="#FFFFFF" stop-opacity="0.0825107"/><stop offset="0.965517" stop-color="#FFFFFF" stop-opacity="0.0785666"/><stop offset="0.971264" stop-color="#FFFFFF" stop-opacity="0.0746225"/><stop offset="0.977012" stop-color="#FFFFFF" stop-opacity="0.0706784"/><stop offset="0.982759" stop-color="#FFFFFF" stop-opacity="0.0667343"/><stop offset="0.988506" stop-color="#FFFFFF" stop-opacity="0.0627902"/><stop offset="0.994253" stop-color="#FFFFFF" stop-opacity="0.0588461"/><stop offset="1" stop-color="#FFFFFF" stop-opacity="0.054902"/></linearGradient><linearGradient x1="1216" y1="0" x2="1216" y2="4175" gradientUnits="userSpaceOnUse" spreadMethod="reflect" id="fill5"><stop offset="0" stop-color="#F7FAFB" stop-opacity="1"/><stop offset="0.25" stop-color="#F7F9FB" stop-opacity="1"/><stop offset="0.95" stop-color="#E6D3E3" stop-opacity="1"/><stop offset="1" stop-color="#E6D3E3" stop-opacity="1"/></linearGradient><linearGradient x1="1215.5" y1="0" x2="1215.5" y2="1544" gradientUnits="userSpaceOnUse" spreadMethod="reflect" id="fill6"><stop offset="0" stop-color="#D4C4D3" stop-opacity="1"/><stop offset="0.0196078" stop-color="#D3C3D2" stop-opacity="1"/><stop offset="0.0392157" stop-color="#D3C3D2" stop-opacity="1"/><stop offset="0.0588235" stop-color="#D3C3D2" stop-opacity="1"/><stop offset="0.0784314" stop-color="#D3C3D2" stop-opacity="1"/><stop offset="0.0980392" stop-color="#D3C3D2" stop-opacity="1"/><stop offset="0.117647" stop-color="#D3C3D2" stop-opacity="1"/><stop offset="0.137255" stop-color="#D3C2D2" stop-opacity="1"/><stop offset="0.156863" stop-color="#D2C2D2" stop-opacity="1"/><stop offset="0.176471" stop-color="#D2C1D2" stop-opacity="1"/><stop offset="0.196078" stop-color="#D2C1D1" stop-opacity="1"/><stop offset="0.215686" stop-color="#D1C1D1" stop-opacity="1"/><stop offset="0.235294" stop-color="#D1C0D1" stop-opacity="1"/><stop offset="0.254902" stop-color="#D0BFD1" stop-opacity="1"/><stop offset="0.27451" stop-color="#D0BFD0" stop-opacity="1"/><stop offset="0.294118" stop-color="#CFBED0" stop-opacity="1"/><stop offset="0.313726" stop-color="#CFBED0" stop-opacity="1"/><stop offset="0.333333" stop-color="#CEBDCF" stop-opacity="1"/><stop offset="0.352941" stop-color="#CEBCCF" stop-opacity="1"/><stop offset="0.372549" stop-color="#CDBBCF" stop-opacity="1"/><stop offset="0.392157" stop-color="#CDBBCE" stop-opacity="1"/><stop offset="0.411765" stop-color="#CCBACE" stop-opacity="1"/><stop offset="0.431373" stop-color="#CBB9CE" stop-opacity="1"/><stop offset="0.45098" stop-color="#CBB8CD" stop-opacity="1"/><stop offset="0.470588" stop-color="#CAB7CD" stop-opacity="1"/><stop offset="0.490196" stop-color="#C9B6CC" stop-opacity="1"/><stop offset="0.509804" stop-color="#C8B5CC" stop-opacity="1"/><stop offset="0.529412" stop-color="#C7B4CB" stop-opacity="1"/><stop offset="0.54902" stop-color="#C7B3CB" stop-opacity="1"/><stop offset="0.568627" stop-color="#C6B1CA" stop-opacity="1"/><stop offset="0.588235" stop-color="#C5B0CA" stop-opacity="1"/><stop offset="0.607843" stop-color="#C4AFC9" stop-opacity="1"/><stop offset="0.627451" stop-color="#C3AEC8" stop-opacity="1"/><stop offset="0.647059" stop-color="#C2ADC8" stop-opacity="1"/><stop offset="0.666667" stop-color="#C1ABC7" stop-opacity="1"/><stop offset="0.686275" stop-color="#C0AAC7" stop-opacity="1"/><stop offset="0.705882" stop-color="#BFA8C6" stop-opacity="1"/><stop offset="0.72549" stop-color="#BEA7C5" stop-opacity="1"/><stop offset="0.745098" stop-color="#BCA6C5" stop-opacity="1"/><stop offset="0.764706" stop-color="#BBA4C4" stop-opacity="1"/><stop offset="0.784314" stop-color="#BAA3C3" stop-opacity="1"/><stop offset="0.803922" stop-color="#B9A1C3" stop-opacity="1"/><stop offset="0.823529" stop-color="#B89FC2" stop-opacity="1"/><stop offset="0.843137" stop-color="#B69EC1" stop-opacity="1"/><stop offset="0.862745" stop-color="#B59CC0" stop-opacity="1"/><stop offset="0.882353" stop-color="#B49AC0" stop-opacity="1"/><stop offset="0.901961" stop-color="#B399BF" stop-opacity="1"/><stop offset="0.921569" stop-color="#B197BE" stop-opacity="1"/><stop offset="0.941176" stop-color="#B095BD" stop-opacity="1"/><stop offset="0.960784" stop-color="#AE93BC" stop-opacity="1"/><stop offset="0.980392" stop-color="#AD91BB" stop-opacity="1"/><stop offset="1" stop-color="#AC90BB" stop-opacity="1"/></linearGradient><linearGradient x1="1107.88" y1="-195.349" x2="1329.12" y2="1059.35" gradientUnits="userSpaceOnUse" spreadMethod="reflect" id="fill7"><stop offset="0" stop-color="#6B5D86" stop-opacity="1"/><stop offset="0.79" stop-color="#3D4067" stop-opacity="1"/><stop offset="1" stop-color="#3D4067" stop-opacity="1"/></linearGradient></defs><g clip-path="url(#clip0)" transform="translate(-1947 82)"><rect x="1956" y="-81.0001" width="2426" height="4289" fill="url(#fill1)"/><path d="M3130.36-81.0001 4379-81.0001 4379 1171.65 4376.58 1173.69C4173.09 1303.12 3588.49 1143.01 3327.58 1037.85 3049.27 925.684 2804.26 647.045 2742.13 470.837 2720.64 322.811 2863.44 125.287 3082.15-43.7418Z" fill="#FFFFFF" fill-rule="evenodd" fill-opacity="0.431373"/><path d="M1954-81.0001 3371.34-81.0001 3397.85-67.0221C3410.14-56.8102 3416.43-45.5603 3414.72-32.9258 3407.89 17.6089 3315.04 118.549 3138.26 162.962 2961.47 207.374 2599.91 199.122 2354 233.551 2231.05 250.766 2092.65 279.793 1967.79 307.001L1954 310Z" fill="#8FAADC" fill-rule="evenodd" fill-opacity="0.305882"/><path d="M35.9346 0.688805C26.0673-0.222271 16.3626-0.239943 6.96694 0.699015L0 2.17637 0 748 2433 748 2433 35.1247 2412.07 32.4638C2355.88 32.4638 2306.33 56.4054 2277.08 92.8202L2267.64 107.44 2233.96 92.3332C2203.36 81.6422 2169.73 75.7304 2134.43 75.7304 2099.12 75.7304 2065.49 81.6422 2034.9 92.3332L2014.23 101.605 1981.65 88.8825C1969.86 85.8465 1957.65 84.2517 1945.14 84.2517 1907.62 84.2517 1872.76 98.6024 1843.84 123.178L1817.67 150.348 1805.14 147.078C1787.49 144.041 1769.22 142.447 1750.51 142.447 1675.66 142.447 1607.9 167.958 1558.85 209.205L1543.11 225.249 1528.63 218.084C1502.09 207.846 1472.91 202.185 1442.27 202.185 1365.69 202.185 1298.17 237.567 1258.3 291.384L1249.53 306.118 1223.95 279.299C1195.31 254.723 1160.78 240.373 1123.62 240.373 1111.23 240.373 1099.14 241.968 1087.46 245.004L1079.08 248.306 1071.1 241.11C1037.83 216.535 997.71 202.185 954.529 202.185 911.346 202.185 871.23 216.535 837.953 241.11L836.698 242.243 829.17 232.269C791.439 191.023 739.313 165.511 681.737 165.511 638.555 165.511 598.439 179.862 565.161 204.437L562.093 207.205 546.829 179.966C508.369 124.284 442.47 83.4062 364.496 70.1234L326.731 66.9539 321.822 62.9832C257.971 17.1797 189.126-3.86147 139.319 12.9608L114.672 26.1278 103.322 19.7004C81.1558 9.31457 58.1347 2.73951 35.9346 0.688805Z" fill="url(#fill2)" fill-rule="evenodd" transform="matrix(-1 0 0 1 4382 1222)"/><path d="M4382 1386 4382 2312 1949 2312 1949 1453.13 1961 1456.08C1971.07 1459.77 1981.13 1464.67 1991 1470.67L2001.11 1478.09 2023.06 1462.88C2067.43 1443.45 2128.74 1467.76 2185.61 1520.67L2189.99 1525.26 2223.62 1528.92C2293.07 1544.26 2351.76 1591.48 2386.02 1655.81L2399.61 1687.27 2402.35 1684.08C2431.99 1655.69 2467.72 1639.11 2506.18 1639.11 2557.46 1639.11 2603.89 1668.58 2637.49 1716.23L2644.2 1727.75 2645.31 1726.44C2674.95 1698.05 2710.68 1681.47 2749.14 1681.47 2787.6 1681.47 2823.33 1698.05 2852.97 1726.44L2860.08 1734.75 2867.54 1730.94C2877.94 1727.43 2888.71 1725.59 2899.75 1725.59 2932.85 1725.59 2963.6 1742.17 2989.1 1770.56L3011.9 1801.54 3019.71 1784.52C3055.22 1722.35 3115.36 1681.47 3183.56 1681.47 3210.85 1681.47 3236.84 1688.01 3260.48 1699.84L3273.37 1708.12 3287.4 1689.58C3331.08 1641.94 3391.44 1612.46 3458.1 1612.46 3474.77 1612.46 3491.04 1614.31 3506.75 1617.81L3517.91 1621.59 3541.23 1590.21C3566.98 1561.82 3598.03 1545.24 3631.45 1545.24 3642.59 1545.24 3653.46 1547.08 3663.97 1550.59L3692.98 1565.28 3711.4 1554.57C3738.64 1542.22 3768.6 1535.39 3800.04 1535.39 3831.49 1535.39 3861.44 1542.22 3888.69 1554.57L3918.69 1572.03 3927.09 1555.14C3953.15 1513.07 3997.28 1485.41 4047.33 1485.41L4082.96 1491.29 4097.26 1472.04C4112.72 1454.99 4131.37 1445.04 4151.45 1445.04 4158.14 1445.04 4164.67 1446.14 4170.98 1448.25L4184.12 1454.91 4199.86 1443.02C4230.25 1425.97 4266.88 1416.02 4306.32 1416.02 4319.46 1416.02 4332.29 1417.12 4344.69 1419.23L4354.88 1421.86Z" fill="url(#fill3)" fill-rule="evenodd"/><path d="M4237.78 1789.23C4272.54 1790.94 4312.03 1801.91 4348.03 1821.76L4382 1846.1 4382 2337 1949 2337 1949 1846.76 1960.66 1833.58C1990 1809.2 2034.4 1793.65 2084.09 1793.65 2117.22 1793.65 2147.99 1800.56 2173.52 1812.39L2187.52 1820.31 2197.79 1816.02C2203.09 1814.55 2208.58 1813.79 2214.2 1813.79 2231.06 1813.79 2246.73 1820.7 2259.72 1832.53L2271.49 1845.61 2277.12 1844.03C2285.05 1842.57 2293.26 1841.8 2301.67 1841.8 2343.72 1841.8 2380.79 1860.99 2402.68 1890.18L2409.74 1901.9 2434.95 1889.79C2457.84 1881.22 2483 1876.48 2509.42 1876.48 2535.84 1876.48 2561 1881.22 2583.89 1889.79L2599.36 1897.22 2623.74 1887.02C2632.56 1884.59 2641.7 1883.31 2651.06 1883.31 2679.14 1883.31 2705.22 1894.81 2726.86 1914.51L2746.44 1936.29 2755.82 1933.66C2769.02 1931.23 2782.69 1929.95 2796.69 1929.95 2838.7 1929.95 2877.72 1941.45 2910.09 1961.15L2929.68 1975.71 2938.68 1967.98C2966.68 1948.28 3000.44 1936.78 3036.78 1936.78 3097.34 1936.78 3150.74 1968.73 3182.27 2017.33L3193.01 2037.94 3213.51 2022.8C3229.58 2013.55 3247.24 2008.44 3265.78 2008.44 3275.05 2008.44 3284.1 2009.72 3292.84 2012.15L3299.1 2014.8 3305.07 2009.03C3329.97 1989.33 3359.99 1977.83 3392.3 1977.83 3424.61 1977.83 3454.63 1989.33 3479.53 2009.03L3480.47 2009.94 3486.1 2001.95C3514.34 1968.89 3553.34 1948.44 3596.42 1948.44 3607.19 1948.44 3617.71 1949.72 3627.87 1952.15L3635.08 1954.77 3650.15 1933C3666.79 1913.3 3686.85 1901.8 3708.45 1901.8 3715.65 1901.8 3722.68 1903.07 3729.47 1905.51L3742.63 1912.66 3760.55 1899.47C3785.07 1884.7 3813.38 1874.54 3843.89 1870.38L3862.43 1869.13 3865.74 1866.26C3903.96 1836.89 3944.57 1820.23 3978.37 1821.64 3986.82 1821.99 3994.84 1823.47 4002.3 1826.17 4006.96 1827.86 4011.26 1829.97 4015.19 1832.47L4020.5 1836.74 4034.78 1828.91C4049.64 1822.12 4064.89 1817.8 4079.66 1816.33 4094.42 1814.87 4108.7 1816.28 4121.62 1820.95 4128.08 1823.29 4133.89 1826.33 4139.04 1829.98L4145.16 1835.77 4155.94 1812.34C4172.99 1795.1 4203.01 1787.53 4237.78 1789.23Z" fill="url(#fill4)" fill-rule="evenodd"/><path d="M157.908 0C99.8229 0 47.9232 15.5349 13.6298 39.9078L0 53.0835 0 471.082 0 543.067 0 4175 2433 4175 2433 543.067 2433 471.082 2433 37.6359 2421.42 43.0612 2415.22 38.7928C2410.62 36.2932 2405.59 34.1847 2400.15 32.5006 2391.43 29.8051 2382.05 28.3238 2372.18 27.9704 2332.67 26.5602 2285.19 43.2187 2240.51 72.5728L2236.65 75.436 2214.98 76.6871C2179.31 80.8426 2146.23 91.0001 2117.56 105.766L2096.61 118.948 2081.23 111.797C2073.29 109.365 2065.08 108.087 2056.66 108.087 2031.41 108.087 2007.96 119.583 1988.51 139.27L1970.89 161.036 1962.46 158.416C1950.59 155.984 1938.3 154.707 1925.71 154.707 1875.35 154.707 1829.76 175.143 1796.75 208.185L1790.17 216.175 1789.07 215.268C1759.97 195.581 1724.88 184.085 1687.11 184.085 1649.34 184.085 1614.25 195.581 1585.14 215.268L1578.17 221.032 1570.84 218.387C1560.62 215.955 1550.04 214.677 1539.21 214.677 1517.54 214.677 1496.9 219.787 1478.12 229.025L1454.16 244.157 1441.6 223.557C1404.74 174.988 1342.32 143.056 1271.53 143.056 1229.05 143.056 1189.59 154.552 1156.86 174.239L1146.34 181.966 1123.44 167.413C1085.6 147.726 1039.99 136.23 990.887 136.23 974.521 136.23 958.542 137.506 943.108 139.938L932.15 142.56 909.254 120.793C883.963 101.106 853.474 89.6112 820.654 89.6112 809.714 89.6112 799.033 90.888 788.717 93.32L760.223 103.511 742.142 96.084C715.385 87.5198 685.968 82.7833 655.088 82.7833 624.21 82.7833 594.792 87.5198 568.035 96.084L538.572 108.187 530.318 96.4742C504.729 67.3032 461.394 48.1237 412.243 48.1237 402.413 48.1237 392.816 48.8913 383.547 50.352L376.964 51.9257 363.213 38.8527C348.022 27.0282 329.711 20.1234 309.998 20.1234 303.427 20.1234 297.012 20.8909 290.817 22.3517L278.808 26.6466 262.448 18.7294C232.606 6.90489 196.632 0 157.908 0Z" fill="#F6F9FA" fill-rule="evenodd" fill-opacity="1" transform="matrix(-1 0 0 1 4382 2066)"/><path d="M157.843 0C99.7818 0 47.9035 15.5349 13.6241 39.9078L0 53.0835 0 471.082 0 543.067 0 4175 2432 4175 2432 543.067 2432 471.082 2432 37.6359 2420.42 43.0612 2414.23 38.7928C2409.62 36.2932 2404.6 34.1847 2399.16 32.5006 2390.45 29.8051 2381.07 28.3238 2371.2 27.9704 2331.71 26.5602 2284.25 43.2187 2239.59 72.5728L2235.73 75.436 2214.07 76.6871C2178.41 80.8425 2145.34 91.0001 2116.69 105.766L2095.75 118.948 2080.37 111.797C2072.44 109.365 2064.23 108.087 2055.81 108.087 2030.58 108.087 2007.14 119.583 1987.69 139.27L1970.08 161.036 1961.66 158.416C1949.79 155.984 1937.5 154.707 1924.92 154.707 1874.58 154.707 1829.01 175.143 1796.02 208.185L1789.43 216.175 1788.34 215.267C1759.24 195.581 1724.17 184.085 1686.41 184.085 1648.66 184.085 1613.59 195.581 1584.49 215.267L1577.52 221.032 1570.19 218.387C1559.98 215.955 1549.41 214.677 1538.58 214.677 1516.92 214.677 1496.28 219.787 1477.51 229.025L1453.56 244.157 1441 223.557C1404.16 174.988 1341.77 143.056 1271.01 143.056 1228.55 143.056 1189.11 154.552 1156.39 174.239L1145.87 181.966 1122.98 167.412C1085.15 147.726 1039.56 136.23 990.48 136.23 974.12 136.23 958.148 137.506 942.721 139.938L931.767 142.56 908.88 120.793C883.6 101.106 853.123 89.6112 820.317 89.6112 809.381 89.6112 798.705 90.888 788.393 93.3199L759.91 103.511 741.836 96.084C715.091 87.5198 685.686 82.7833 654.819 82.7833 623.953 82.7833 594.547 87.5198 567.801 96.084L538.35 108.187 530.1 96.4742C504.521 67.3032 461.205 48.1237 412.074 48.1237 402.248 48.1237 392.655 48.8913 383.389 50.352L376.809 51.9257 363.064 38.8527C347.879 27.0282 329.575 20.1234 309.871 20.1234 303.302 20.1234 296.89 20.8909 290.697 22.3517L278.693 26.6466 262.34 18.7294C232.51 6.90489 196.551 0 157.843 0Z" fill="url(#fill5)" fill-rule="evenodd" transform="matrix(-1 0 0 1 4395 2156)"/><path d="M2866.24 4482.14C3130.62 4488.5 3464.33 4731.33 3740.46 4730.27 3947.56 4729.48 4185.07 4607 4365.23 4530.6L4386 4522.39 4386 6211.18 4247.47 6231.93C3697.18 6299.41 2914.52 6255.98 2093.13 6194.06L1953 6183.15 1953 4639.54 2037.73 4678.33C2071.77 4688.05 2110.1 4693.16 2154.17 4692.1 2330.42 4687.86 2601.85 4475.78 2866.24 4482.14Z" fill="#7030A0" fill-rule="evenodd" fill-opacity="0.0352941"/><path d="M912.862 0.0656933C1177.14 3.04352 1510.71 116.699 1786.73 116.203 1993.74 115.831 2231.15 58.5067 2411.24 22.7491L2432 18.9041 2432 809.34 2293.53 819.055C1743.46 850.637 961.124 830.309 140.074 801.33L0 796.222 0 73.7372 84.6921 91.8918C118.718 96.4438 157.038 98.8324 201.083 98.3361 377.266 96.3509 648.588-2.91214 912.862 0.0656933Z" fill="#4472C4" fill-rule="evenodd" fill-opacity="0.109804" transform="matrix(-1 0 0 1 4386 4827)"/><path d="M764.948 34.0644C946.069 9.4978 1053.2-15.7227 1334.88 106.484 1476.88 198.127 1699.59 235.193 1896.31 131.582 2056.55 47.1812 2211.01 169.42 2389.48 71.6415L2431 0 2410.05 1532.7 6.52701 1544 0 211.068 248.154 253.882C422.747 248.453 583.827 58.6309 764.948 34.0644Z" fill="url(#fill6)" fill-rule="evenodd" transform="matrix(-1 0 0 1 4391 5073)"/><path d="M1854.09 46.1364 1786.46 88.8396 1755.71 72.8254 1718.82 94.1774 1693.91 116.936 1688.08 110.191 1565.1 120.866 1534.36 72.8254 1454.42 88.8396 1405.23 56.812 1374.49 126.204 1319.15 99.5152 1288.4 131.543 1208.47 142.218 1190.02 184.922 1110.09 184.922 1079.34 206.273 993.262 200.935 888.732 200.935 827.244 232.963 808.798 291.679 722.715 291.679 747.309 216.948 691.971 206.273 710.417 136.881 655.078 131.543 648.929 67.4876 593.59 104.853 513.655 88.8396 507.506 131.543 439.87 136.881 433.721 83.5018 378.382 88.8396 304.596 67.4876 298.448 115.529 230.811 83.5018 181.62 104.853 107.834 115.529 83.2393 72.8254 0 62.5029 0 1065.06 138.854 1078.49C952.757 1154.67 1728.28 1208.1 2273.56 1125.09L2410.83 1099.55 2421 62.4025 2364.44 88.8396 2315.25 67.4876 2241.47 142.218 2198.43 126.204 2167.68 158.232 2112.34 136.881 2081.6 94.1774 2032.41 115.529 1983.22 56.812 1927.88 72.8254ZM0 0 0 55.3617 21.7513 3.43315Z" fill="#B8B3DB" fill-rule="evenodd" fill-opacity="1" transform="matrix(-1 0 0 1 4391 5450)"/><path d="M2417.27 0 2338.51 29.8107 2268.5 67.0745 2163.48 67.0745 2049.72 126.697 1997.21 81.9798 1830.94 96.8851 1769.68 126.697 1682.17 89.4329 1638.42 29.8107 1507.15 37.2638 1437.14 67.0745 1445.89 134.149 1314.62 59.6222 1253.37 119.244 1130.85 119.244 1043.34 104.338 938.324 178.866 807.057 193.771 780.804 238.487 702.044 275.751 675.79 320.468 509.518 327.92 395.754 313.015 246.984 313.015 185.727 335.373 141.97 298.109 80.7128 313.015 10.7035 275.751 0 795.329 0 878.015 138.829 891.977C952.581 971.18 1727.97 1026.74 2273.14 940.421L2410.38 913.869 2419 0.295248Z" fill="#7D759F" fill-rule="evenodd" fill-opacity="1" transform="matrix(-1 0 0 1 4391 5655)"/><path d="M2433.05 0 2426.25 12.3101 2415.36 13.0288 2404.57 5.35523 2399.02 11.7782 2388.71 11.5272 2385.33 17.8066 2395.25 24.6063 2384.81 28.0904 2395.83 37.1468 2388 38.5955 2381.85 41.3315 2392.11 45.7787 2378.2 50.4243 2372.86 44.7197 2360.75 46.9169 2360 42.3079 2344.38 41.0094 2345.86 45.5706 2339.56 47.3845 2333.48 50.5812 2327.99 43.9549 2314.32 41.13 2315.81 45.6913 2329.08 55.0648 2317.16 53.9877 2313.79 60.2671 2324.83 60.4703 2323.4 65.2232 2315.72 67.5939 2316.7 73.5857 2303.84 71.1737 2294.48 72.2575 2297.11 74.8792 2293.78 76.9624 2300.77 79.2969 2295.41 82.4456 2298.77 85.0195 2309 84.8098 2317.79 84.6957 2312.96 91.0707 2304.1 90.724 2303.25 94.5071 2311.92 98.1283 2308.54 104.408 2312.2 108.825 2319.38 107.885 2311.88 115.835 2306.9 121.288 2304.4 114.931 2297.34 112.136 2296.81 108.909 2289.25 107.545 2286.97 102.571 2279.26 100.284 2273.93 108.09 2273.96 112.747 2269.64 117.691 2261.55 113.101C2261.63 115.114 2261.72 117.127 2261.8 119.141L2244.24 119.368 2247.59 121.942 2256.6 123.211 2248.15 129.826 2247.72 131.717 2255.43 134.004 2255.46 138.661 2261 141.091 2251.94 144.018C2251.86 144.036 2251.94 145.018 2252.15 146.843 2252.17 147.019 2252.19 147.196 2252.22 147.372L2239.79 147.664 2252.99 153.292C2253.05 153.77 2253.12 154.248 2253.18 154.727L2253.29 155.51 2242.34 159.434 2254.06 160.961 2254.12 161.387 2246.92 168.285 2241.18 171.45 2248.45 173.756 2242.83 177.708 2248.79 179.702 2257.29 182.991 2257.66 185.484 2244.86 186.329 2241.79 190.511 2235.98 193.283 2243.18 195.195 2238.67 198.278 2240.24 200.165 2249.9 197.935 2250.35 200.691 2240.26 204.143 2226.11 201.893 2221.12 198.243 2231.4 195.972 2226.06 193.937 2231.74 190.379 2221.63 189.852 2215.95 193.411 2210.07 195.789 2202.54 191.908 2213.02 190.819 2206.08 182.92 2216.62 182.224 2213.99 177.622 2219.74 174.457 2207.15 174.095 2207.91 167.279 2201.39 165.72 2189.79 175.24 2182.48 176.519 2178.16 169.243 2183.73 168.875 2190.72 165.628 2195.85 162.504 2201.36 161.742 2198.18 157.575 2201.02 155.795C2200.88 153.682 2200.74 151.568 2200.61 149.455L2191.93 150.028 2188.68 145.467 2181.92 146.311 2178.03 149.353 2172 146.966 2177.07 143.448 2168.98 140.002 2162.17 140.452 2171.18 134.286 2173.31 128.176 2164.83 129.93 2161.62 133.325 2155.14 128.181 2157.04 124.474 2147.74 125.088 2143.12 119.822 2139.25 115.302 2136.14 123.069 2138.7 127.277 2136.93 131.771 2129.47 128.284 2121.95 135.944 2115.2 136.788 2118.94 140.52 2110.2 140.699 2106.44 144.529 2092.39 139.089 2091.05 142.362 2083.54 142.459 2094.79 146.094 2088.36 148.906 2091.97 151.851 2099.84 150.138 2095.91 156.765 2087.04 156.157 2087.58 163.284 2080.2 164.169 2088.29 167.615 2095.73 167.124 2097.18 172.201 2103.87 170.963 2111.5 171.653 2102.98 176.992 2106.59 179.937 2098.41 179.681 2094.73 176.342 2088.7 173.955 2088.04 177.58 2082.46 177.948 2085.58 181.722 2078.21 182.606 2070.74 179.119 2076.43 175.561 2071.08 173.526 2077.19 168.745 2069.37 166.874 2064.05 168.817 2059.81 165.913 2063.44 161.296 2057.05 160.524 2051.6 161.68 2051.12 154.946 2045.38 158.111 2042.61 152.722 2037.65 153.049 2036.13 147.578 2041.33 144.848 2037.45 140.328 2026.06 143.468 2029.8 135.66 2024.85 128.425 2031.61 127.582 2032.76 123.128 2038.96 122.719 2033.59 116.706 2041.75 112.984 2034.16 108.709 2033.51 104.772 2027.61 103.172 2024.28 105.78 2023.06 98.2997 2013.9 92.1389 2011.28 99.0773 2005.76 99.8393 2010.38 105.105 2004.51 107.483 2008.38 112.003 1996.9 110.771 1997.79 104.743 1989.35 102.913 1988.2 107.366 1981.87 106.988 1977.92 109.637 1973.73 114.688 1966.98 115.532 1961.54 109.126 1959.54 116.023 1952.1 116.514 1948.55 113.963 1943.42 117.087 1938.03 118.637 1945.07 123.345 1936.65 125.493 1941.76 129.931 1936.44 131.874 1941.79 133.909 1936.92 138.608 1930.52 137.836 1928.45 132.8 1923.09 138.327 1916.69 137.555 1911.44 139.892 1905.79 139.867 1904.08 133.215 1899.17 141.498 1892.05 143.958 1883.93 144.096 1891.52 148.37 1891.61 152.742 1900.57 157.722 1897.92 160.682 1901.9 162.011 1893.74 165.734 1901.37 166.424 1898.36 171 1904.56 170.591C1904.51 172.849 1904.46 175.107 1904.41 177.366L1897.01 174.273 1892.5 177.356 1881.32 174.114 1884.77 179.856 1880.52 184.514 1875.2 186.457 1888.79 189.141 1881.32 193.217 1882.71 197.9 1872.73 198.161 1871.64 203.008 1858.73 200.677 1856.52 194.853 1850.22 198.453C1850.31 196.457 1850.4 194.462 1850.49 192.466L1842.56 193.785 1842.02 186.658 1843.53 180.589 1837.14 179.817 1839.27 173.707 1832.82 172.541 1832.79 168.563 1827.19 164.954 1819.32 166.667 1814.11 165.419 1814.7 169.76 1809.86 168.997 1809.38 161.99 1802.6 167.854 1796.1 166.421 1793.06 161.049 1789.72 158.076 1783.37 157.892C1783.32 156.388 1783.26 154.884 1783.21 153.38L1774.45 154.446 1774.01 160.495 1762.37 160.701 1767.2 156.567 1761.9 153.693 1767.63 148.886 1762.33 147.645 1761.25 140.542 1750.84 145.834 1747.99 153.133 1745.26 150.256 1739.07 151.32 1737.57 155.162 1729.11 158.723 1736.38 163.131 1729.74 168.611 1735.79 169.564C1735.85 171.068 1735.9 172.572 1735.96 174.076L1742.46 175.508 1735.98 182.236 1737.97 190.297 1727.38 186.182 1722.55 190.315 1727.1 193.478 1724.39 198.761 1719.55 197.999 1715.64 203.092 1710.64 199.449 1708.69 206.076 1703.55 204.45 1697.05 204.649 1699.63 209.542 1694.8 212.044 1689.96 209.65 1681.8 210.811 1686.8 216.085 1681.06 217.628 1685.91 221.655 1677.76 224.448 1670.65 222.92 1674.57 219.46 1669.12 218.602C1669.17 217.386 1669.22 216.17 1669.27 214.954L1662.77 216.786 1658.4 219.767 1650.23 219.296 1654.46 216.699 1647.18 210.66 1654.89 210.651 1661.25 212.467 1663.8 207.568 1671.06 208.712 1679.82 206.014 1672.71 204.486 1674.81 197.475 1665.89 197.294 1663.45 190.385 1670.86 192.776 1675.09 190.179 1669.33 186.826 1681.27 184.22 1673.86 183.46 1673.25 180.101 1658.14 184.247 1655.26 180.122 1646.64 179.172 1651.16 175.807 1644.66 174.375 1638.89 166.125 1630.74 168.919 1629.97 164.312 1633.43 160.372 1632.05 152.405 1627.23 156.539 1621.5 161.346 1612.42 159.916 1613.49 163.755 1605.95 168.276 1603.52 164.631 1595.5 162.144 1596.27 168.383 1603.85 175.286 1597.2 174.238 1588.44 176.936 1592.68 180.867 1586.19 182.699 1583 179.343 1576.5 177.91 1572.28 182.139 1563.81 180.805 1562.01 187.047 1564.44 189.061 1560.37 192.905 1565.66 194.147 1570.06 197.694 1576.26 201.527 1581.71 202.385 1575.83 209.207 1568.88 207.295 1559.47 196.842 1552.67 197.81 1551.94 204.627 1539.39 203.874 1544.39 207.516 1540.77 211.84 1551.06 213.46 1542.46 220.67 1552.59 222.675 1544.29 225.852 1538.99 222.979 1534.14 218.952 1524.01 218.58 1528.86 222.606 1523.12 224.149 1532.81 227.306 1527.07 230.481 1512.56 231.457 1503.33 227.148 1504.38 224.459 1513.46 227.521 1515.42 225.79 1511.63 222.339 1519.18 221.082 1514.04 217.824 1511.91 213.41 1494.36 210.647 1509.47 206.501 1515.81 205.054 1511.11 200.643 1518.82 199.002 1513.82 195.36 1507.9 187.495 1520.29 187 1507.88 180.967 1525.4 175.57 1506.95 173.48 1498.95 185.249 1494.94 179.326 1484.26 186.796 1478.07 179.644 1469.83 190.534 1463.95 181.372 1453.3 185.258 1448.94 181.567 1439.88 191.318 1451.92 192.115 1455 199.472 1444.79 202.137 1451.76 206.452 1442.59 207.853 1440.46 213.963 1453.11 214.72 1459.36 222.266 1450.87 224.02 1458.17 230.304 1439.34 233.934 1448.49 240.095 1446.23 245.418 1430.44 248.451 1434.93 252.93 1442.03 258.032 1429.04 262.869 1441.91 268.785 1449.65 266.284 1453.52 269.172 1451.18 273.323 1444.84 275.038 1449.74 278.237 1441.24 279.555 1438.82 283.828 1423.28 280.288C1423.2 281.424 1423.12 282.56 1423.04 283.696L1415.73 284.771 1427.94 286.894 1422.57 290.512 1427.08 292.949 1434.21 290.231 1432.55 297.29 1423.67 297.846 1426.55 304.817 1419.62 306.653 1428.67 309.003 1435.79 307.547 1438.89 312.373 1445.03 310.277 1452.73 309.963 1446.14 316.349 1450.65 318.787 1442.55 319.602 1437.85 316.784 1431.16 315.212 1431.71 318.88 1426.37 319.971 1430.68 323.292 1423.75 325.128 1415.29 322.657 1419.68 318.4 1413.78 317.087 1418.18 311.567 1409.91 310.74 1405.34 313.353 1400.24 311.037 1402.27 306.002 1395.76 306.074 1390.8 307.927 1388.12 301.337 1383.54 305.213 1379.05 300.25 1374.31 301.22 1371.01 296.014 1375.2 292.639 1369.92 288.68 1359.8 293.268 1360.88 285.068 1353.66 278.566 1359.99 276.851 1359.65 272.301 1365.58 271.088 1358.34 265.849 1365.1 261.106 1356.26 257.874 1354.33 254.069 1348.03 253.258 1345.63 256.269 1341.96 249.04 1330.97 244.148C1330.88 246.547 1330.78 248.946 1330.69 251.344L1325.54 252.817 1331.8 257.416 1326.84 260.532 1332.12 264.491 1320.48 264.773 1319.36 258.701 1310.49 257.995C1310.61 259.511 1310.72 261.028 1310.83 262.544L1304.52 262.996 1301.52 266.129 1299.09 271.665 1292.76 273.38 1285.32 267.761 1285.64 274.836 1278.52 276.292 1274.2 274.235 1270.21 277.99 1265.45 280.223 1273.89 283.957 1266.36 287.177 1272.83 290.895 1268.26 293.508 1274.16 294.821 1270.95 300.099 1264.43 300.17 1260.74 295.466 1257.32 301.626 1250.8 301.697 1246.43 304.692 1240.9 305.403 1237.03 299.055 1234.95 307.879 1228.8 311.237 1220.89 312.434 1229.73 315.665 1231.26 319.973 1241.67 323.723 1240.06 326.993 1244.39 327.787 1237.63 332.53 1245.32 332.216 1243.89 337.129 1249.82 335.916 1251.91 342.627 1243.65 340.537 1240.25 344.171 1228.24 342.428 1233.51 347.651 1230.88 352.807 1226.32 355.421 1240.51 356.298 1234.53 361.3 1237.44 365.745 1227.76 367.305 1228.29 372.235 1214.88 371.617 1213.91 370.313 1216.57 387.349 1215.42 387.527 1207.75 382.381 1206.22 387.527 1198.54 388.714 1191.64 384.36 1197.78 381.985 1190.87 380.402 1196.24 375.652 1185.5 374.069 1193.17 368.923 1186.27 367.736 1179.36 364.965 1175.53 367.736 1166.32 367.736 1162.48 361.007 1157.11 367.736 1148.67 367.34 1142.54 362.59 1137.16 360.215 1129.49 361.007 1127.19 356.653 1117.22 359.028 1119.52 364.965 1105.71 366.944 1109.54 362.194 1101.87 360.215 1106.48 354.673 1099.57 354.278 1094.97 347.549 1084.99 354.278C1084.99 356.785 1084.99 359.292 1084.99 361.798L1080.39 359.423 1073.48 361.402C1073.48 362.722 1073.48 364.041 1073.48 365.361L1065.04 370.111 1075.79 373.277 1070.41 379.61 1078.09 379.61 1080.39 383.964 1088.83 384.36 1084.22 391.881 1090.36 399.401 1075.79 397.026 1071.95 401.776 1078.85 404.151 1078.09 409.693 1071.95 409.692 1069.65 415.234 1061.98 412.463 1062.74 419.192 1055.84 418.401 1052.73 418.882 1052.73 423.286 1053.53 423.942 1052.73 424.498 1046.55 430.409 1035.12 429.347 1040.86 422.443 1032.06 421.511 1036.47 413.458 1048.81 411.513 1045.26 405.673 1035.87 405.155 1041.75 400.228 1031.02 398.56 1032.35 390.993 1044.06 389.066 1032.82 380.28 1029.37 384.343 1017.94 381.507 1014.27 391.124 1003.56 381.134 999.123 388.792 986.808 382.416 984.228 388.652 973.558 377.771 955.807 381.583 974.396 385.262 963.537 392.402 975.908 391.719 971.9 400.056 967.811 404.131 975.814 405.025 972.202 409.83 978.816 410.662 994.723 413.333 978.024 417.724 976.954 422.29 972.627 425.999 980.391 426.527 977.454 430.299 979.798 431.824 988.057 427.938 989.726 430.498 981.606 435.632 967.031 436.039 960.616 433.442 969.451 429.405 963.414 428.422 967.264 423.982 957.336 425.308 953.485 429.748 948.919 433.091 939.962 430.734 949.513 427.794 939.323 421.477 949.112 418.902 944.523 414.968 948.612 410.894 936.38 412.826 934.054 406.154 927.103 405.84 920.257 417.066 913.825 419.615 906.415 413.424 911.597 412.061 916.838 407.684 920.351 403.761 925.295 402.032 920.368 398.615 922.294 396.395 919.054 390.392 910.993 392.512 905.828 388.73 899.732 390.761 897.371 394.382 890.52 393.185 893.794 388.896 884.5 387.056 878.166 388.722 884.041 381.179 883.343 374.936 875.997 378.154 874.45 381.988 865.929 378.231C865.981 376.932 866.034 375.633 866.086 374.334L857.449 376.606 850.656 372.395 844.915 368.764C845.082 371.433 845.249 374.102 845.415 376.772L849.765 380.34 850.085 384.969 841.367 382.978 837.598 391.68 831.502 393.712 836.766 396.612 828.466 398.366 826.581 402.718 810.674 400.047 810.854 403.427 803.706 404.879 816.118 406.327 811.215 410.187 816.001 412.355 822.771 409.289 821.98 416.352 813.204 417.375 816.92 424.109 810.249 426.292 819.543 428.132 826.453 426.315 830.128 430.917 835.986 428.52 843.611 427.8 837.835 434.46 842.622 436.628 834.659 437.866 829.634 435.332 822.782 434.135 823.777 437.729 818.595 439.092 823.283 442.143 816.611 444.326 807.893 442.335 811.743 437.895 805.706 436.912 809.417 431.224 801.076 430.847 796.848 433.673 791.485 431.656 792.893 426.573 786.419 426.99 781.714 429.085 778.236 422.716 774.147 426.791 769.082 422.125 764.475 423.337 760.561 418.368 764.312 414.811 758.572 411.18 749.062 416.252C749.088 413.532 749.113 410.812 749.138 408.092L741.152 402.052 747.248 400.02 746.352 395.543 752.11 394.029 744.265 389.238 750.418 384.192 741.223 381.469 738.838 377.812 732.464 377.347 730.44 380.45 725.909 373.501 714.37 369.253 714.969 376.379 710.025 378.108 716.818 382.319 712.252 385.662 717.993 389.293 706.436 390.19 704.586 384.251 695.67 384.025 696.565 388.502 690.33 389.285 687.731 392.54 685.986 398.139 679.89 400.171 671.806 395.014 672.98 401.988 668.369 403.201 667.941 398.852 663.075 400.579 654.895 399.629 650.201 403.729 651.109 407.664 644.998 409.428 648.54 415.268 642.4 416.636 645.319 422.494 646.457 429.593 638.306 429.039 639.98 434.933 632.903 431.97 632.087 437.937 619.864 441.464 617.653 436.774 607.721 437.46C607.814 435.872 607.907 434.284 608 432.697L599.649 429.374 612.466 425.434 606.748 424.016 601.453 419.812 603.514 413.808 593.216 418.071 588.036 415.448 581.445 419.207 579.713 412.521 585.939 412.34 581.889 408.099 589.274 406.695 580.329 403.786 583.95 402.096 580.637 399.419 588.33 393.647 587.393 389.315 593.898 384.371 585.833 385.002 578.219 383.243 571.421 375.517C571.375 377.764 571.33 380.01 571.285 382.257L565.71 382.816 559.964 381.003 553.824 382.37 547.227 377.412 546.353 382.588 540.213 383.956 534.296 379.77 539.104 377.253 533.387 375.834 537.401 370.963 528.571 369.635 534.425 364.313 528.736 363.291 522.932 360.686 520.02 363.545 512.549 363.763 508.95 357.132 505.078 363.981 498.201 363.785 492.877 359.186 488.348 356.94 482.179 357.913 479.997 353.618 472.075 356.227 474.372 362.103 463.308 364.407 466.078 359.572 459.709 357.776 463.044 352.131 457.412 351.9 453.191 345.287 445.584 352.245 446.127 359.758 442.22 357.494 436.759 359.635C436.855 360.953 436.95 362.271 437.046 363.589L430.54 368.533 439.485 371.442 435.585 377.896 441.811 377.714 443.993 382.009 450.87 382.205 447.678 389.826 453.202 397.194 441.201 395.166 438.432 400.002 444.207 402.211C444.133 404.062 444.059 405.913 443.985 407.765L439.004 407.91 437.537 413.5 431.111 410.914 432.22 417.618 426.559 416.991 420.419 418.358 425.092 422.581 421.585 425.853 415.868 424.435 408.568 427.025 415.732 431.175 410.922 433.693 417.377 436.674 410.815 440.828 403.315 440.651 405.519 436.624 399.916 436.787 398.414 433.265 393.011 436.196 390.155 439.846 382.119 440.873 385.003 437.619 375.321 433.146 382.706 431.742 389.612 432.333C389.695 430.614 389.779 428.894 389.862 427.175L397.333 426.957 404.518 422.785 397.019 422.607 395.881 415.508 387.251 416.949 381.813 410.768 389.992 411.718 392.876 408.464 385.856 406.291 396.125 401.633 388.683 402.246 386.586 399.137 373.97 405.845 369.354 402.414 360.667 403.064 363.494 399.019 356.617 398.823 347.386 391.96 340.823 396.114 338.019 391.837 339.572 387.434 334.67 380.048 331.901 384.884 328.565 390.528 319.227 390.801 321.975 394.287 316.772 399.986 312.808 396.932 304.006 396 307.548 401.84 317.909 407.085 311.061 407.285 303.876 411.457 309.708 414.457 304.305 417.388 299.747 414.747 292.87 414.552 290.723 419.369 282.007 419.624 283.087 425.932 286.314 427.423 284.139 431.845 289.771 432.077 295.574 434.681 303.245 437.231 308.848 437.067 306.279 444.671 298.751 444.098 285.047 435.781 278.965 437.939 281.318 444.607 268.953 446.156 275.379 448.742 273.854 453.542 284.438 453.233 279.436 461.7 290.048 461.786 283.514 466.336 277.145 464.54 270.691 461.559 260.816 463.036 267.27 466.017 262.461 468.535 273.159 469.808 269.087 473.889 255.619 477.452 244.836 474.993C244.769 474.07 244.702 473.148 244.635 472.225L254.711 473.516 255.813 471.503 250.632 468.88 257.309 466.308 250.911 464.117 246.89 460.272 234.038 460.647C233.966 459.814 233.895 458.98 233.823 458.147L241.452 454.091 246.884 451.555 240.4 448.178 247.048 445.21 240.622 442.624 231.886 436.484C231.873 436.342 231.86 436.2 231.847 436.057L243.077 433.439 231.328 430.595C231.303 430.333 231.278 430.071 231.253 429.81 231.205 429.33 231.157 428.851 231.109 428.372L242.842 421.559 230.485 422.445 230.426 421.915C230.21 420.091 230.055 419.113 229.973 419.103L220.33 417.065 225.231 414.138 224.168 409.531 231.256 406.54 230.393 404.71 220.482 398.969 229.095 396.862 231.809 393.999 214.383 395.435 213.219 389.439 206.299 394.743 200.862 390.263 199.798 385.656 192.702 378.44 185.615 381.431 184.525 386.565 177.37 388.629C177.449 389.709 177.527 390.79 177.605 391.87L171.279 395.301 170.291 401.825 164.091 396.903 154.809 389.752 162.131 390.002 164.712 385.288 159.903 379.397 167.619 374.997 165.894 371.337 157.214 372.518 150.948 366.67 159.661 365.952 169.832 365.191 172.546 362.329 166.514 359.721 172.873 356.752 169.095 355.007 171.08 352.166 161.572 351.979 149.415 355.581 148.98 349.563 140.828 347.946 138.307 343.381 149.173 342.136 144.364 336.245 132.837 338.437 143.762 327.913 144.156 323.263 131.304 327.349 127.433 334.42 120.672 331.834 114.012 330.637 114.406 325.986 99.2668 328.747C99.3784 330.291 99.49 331.833 99.6016 333.376L87.1107 332.349 83.1728 338.495 68.3275 335.217 77.4341 329.848 70.7073 327.725 62.6226 327.033 71.3948 317.036 60.2607 314.577 68.4711 306.916 63.6625 301.025 53.5255 302.249 46.5304 296.422 37.6577 305.031 26.7247 305.35 17.1104 293.821C21.4073 364.999 22.398 790.577 0 856.911L2435.87 864C2423.42 793.21 2445.49 70.7909 2433.05 0Z" fill="url(#fill7)" fill-rule="evenodd" transform="matrix(-1 0 0 1 4400 5772)"/></g></svg>