<svg width="1488" height="4998" xmlns="http://www.w3.org/2000/svg" xmlns:xlink="http://www.w3.org/1999/xlink" overflow="hidden"><defs><clipPath id="clip0"><rect x="-562" y="-394" width="1488" height="4998"/></clipPath><clipPath id="clip1"><rect x="-562" y="-394" width="1488" height="4997"/></clipPath><clipPath id="clip2"><rect x="-563" y="-394" width="1489" height="4997"/></clipPath><linearGradient x1="2826.51" y1="-572.294" x2="2826.51" y2="2368.84" gradientUnits="userSpaceOnUse" spreadMethod="reflect" id="fill3"><stop offset="0" stop-color="#C5E5F5" stop-opacity="1"/><stop offset="0.49" stop-color="#D2EFF8" stop-opacity="1"/><stop offset="1" stop-color="#D2EFF8" stop-opacity="1"/></linearGradient><linearGradient x1="752.761" y1="9.8894e-05" x2="752.761" y2="512.138" gradientUnits="userSpaceOnUse" spreadMethod="reflect" id="fill4"><stop offset="0" stop-color="#FFFFFF" stop-opacity="0.34902"/><stop offset="0.0113636" stop-color="#FFFFFF" stop-opacity="0.345053"/><stop offset="0.0227273" stop-color="#FFFFFF" stop-opacity="0.341087"/><stop offset="0.0340909" stop-color="#FFFFFF" stop-opacity="0.337121"/><stop offset="0.0454545" stop-color="#FFFFFF" stop-opacity="0.333155"/><stop offset="0.0568182" stop-color="#FFFFFF" stop-opacity="0.329189"/><stop offset="0.0681818" stop-color="#FFFFFF" stop-opacity="0.325223"/><stop offset="0.0795455" stop-color="#FFFFFF" stop-opacity="0.321257"/><stop offset="0.0909091" stop-color="#FFFFFF" stop-opacity="0.317291"/><stop offset="0.102273" stop-color="#FFFFFF" stop-opacity="0.313324"/><stop offset="0.113636" stop-color="#FFFFFF" stop-opacity="0.309358"/><stop offset="0.125" stop-color="#FFFFFF" stop-opacity="0.305392"/><stop offset="0.136364" stop-color="#FFFFFF" stop-opacity="0.301426"/><stop offset="0.147727" stop-color="#FFFFFF" stop-opacity="0.29746"/><stop offset="0.159091" stop-color="#FFFFFF" stop-opacity="0.293494"/><stop offset="0.170455" stop-color="#FFFFFF" stop-opacity="0.289528"/><stop offset="0.181818" stop-color="#FFFFFF" stop-opacity="0.285562"/><stop offset="0.193182" stop-color="#FFFFFF" stop-opacity="0.281595"/><stop offset="0.204545" stop-color="#FFFFFF" stop-opacity="0.277629"/><stop offset="0.215909" stop-color="#FFFFFF" stop-opacity="0.273663"/><stop offset="0.227273" stop-color="#FFFFFF" stop-opacity="0.269697"/><stop offset="0.238636" stop-color="#FFFFFF" stop-opacity="0.265731"/><stop offset="0.25" stop-color="#FFFFFF" stop-opacity="0.261765"/><stop offset="0.261364" stop-color="#FFFFFF" stop-opacity="0.257799"/><stop offset="0.272727" stop-color="#FFFFFF" stop-opacity="0.253832"/><stop offset="0.284091" stop-color="#FFFFFF" stop-opacity="0.249866"/><stop offset="0.295455" stop-color="#FFFFFF" stop-opacity="0.2459"/><stop offset="0.306818" stop-color="#FFFFFF" stop-opacity="0.241934"/><stop offset="0.318182" stop-color="#FFFFFF" stop-opacity="0.237968"/><stop offset="0.329545" stop-color="#FFFFFF" stop-opacity="0.234002"/><stop offset="0.340909" stop-color="#FFFFFF" stop-opacity="0.230036"/><stop offset="0.352273" stop-color="#FFFFFF" stop-opacity="0.22607"/><stop offset="0.363636" stop-color="#FFFFFF" stop-opacity="0.222103"/><stop offset="0.375" stop-color="#FFFFFF" stop-opacity="0.218137"/><stop offset="0.386364" stop-color="#FFFFFF" stop-opacity="0.214171"/><stop offset="0.397727" stop-color="#FFFFFF" stop-opacity="0.210205"/><stop offset="0.409091" stop-color="#FFFFFF" stop-opacity="0.206239"/><stop offset="0.420455" stop-color="#FFFFFF" stop-opacity="0.202273"/><stop offset="0.431818" stop-color="#FFFFFF" stop-opacity="0.198307"/><stop offset="0.443182" stop-color="#FFFFFF" stop-opacity="0.19434"/><stop offset="0.454545" stop-color="#FFFFFF" stop-opacity="0.190374"/><stop offset="0.465909" stop-color="#FFFFFF" stop-opacity="0.186408"/><stop offset="0.477273" stop-color="#FFFFFF" stop-opacity="0.182442"/><stop offset="0.488636" stop-color="#FFFFFF" stop-opacity="0.178476"/><stop offset="0.5" stop-color="#FFFFFF" stop-opacity="0.17451"/><stop offset="0.511364" stop-color="#FFFFFF" stop-opacity="0.170544"/><stop offset="0.522727" stop-color="#FFFFFF" stop-opacity="0.166578"/><stop offset="0.534091" stop-color="#FFFFFF" stop-opacity="0.162611"/><stop offset="0.545455" stop-color="#FFFFFF" stop-opacity="0.158645"/><stop offset="0.556818" stop-color="#FFFFFF" stop-opacity="0.154679"/><stop offset="0.568182" stop-color="#FFFFFF" stop-opacity="0.150713"/><stop offset="0.579545" stop-color="#FFFFFF" stop-opacity="0.146747"/><stop offset="0.590909" stop-color="#FFFFFF" stop-opacity="0.142781"/><stop offset="0.602273" stop-color="#FFFFFF" stop-opacity="0.138815"/><stop offset="0.613636" stop-color="#FFFFFF" stop-opacity="0.134848"/><stop offset="0.625" stop-color="#FFFFFF" stop-opacity="0.130882"/><stop offset="0.636364" stop-color="#FFFFFF" stop-opacity="0.126916"/><stop offset="0.647727" stop-color="#FFFFFF" stop-opacity="0.12295"/><stop offset="0.659091" stop-color="#FFFFFF" stop-opacity="0.118984"/><stop offset="0.670455" stop-color="#FFFFFF" stop-opacity="0.115018"/><stop offset="0.681818" stop-color="#FFFFFF" stop-opacity="0.111052"/><stop offset="0.693182" stop-color="#FFFFFF" stop-opacity="0.107086"/><stop offset="0.704545" stop-color="#FFFFFF" stop-opacity="0.103119"/><stop offset="0.715909" stop-color="#FFFFFF" stop-opacity="0.0991533"/><stop offset="0.727273" stop-color="#FFFFFF" stop-opacity="0.0951872"/><stop offset="0.738636" stop-color="#FFFFFF" stop-opacity="0.091221"/><stop offset="0.75" stop-color="#FFFFFF" stop-opacity="0.0872549"/><stop offset="0.761364" stop-color="#FFFFFF" stop-opacity="0.0832888"/><stop offset="0.772727" stop-color="#FFFFFF" stop-opacity="0.0793227"/><stop offset="0.784091" stop-color="#FFFFFF" stop-opacity="0.0753565"/><stop offset="0.795455" stop-color="#FFFFFF" stop-opacity="0.0713904"/><stop offset="0.806818" stop-color="#FFFFFF" stop-opacity="0.0674242"/><stop offset="0.818182" stop-color="#FFFFFF" stop-opacity="0.0634581"/><stop offset="0.829545" stop-color="#FFFFFF" stop-opacity="0.059492"/><stop offset="0.840909" stop-color="#FFFFFF" stop-opacity="0.0555259"/><stop offset="0.852273" stop-color="#FFFFFF" stop-opacity="0.0515597"/><stop offset="0.863636" stop-color="#FFFFFF" stop-opacity="0.0475936"/><stop offset="0.875" stop-color="#FFFFFF" stop-opacity="0.0436275"/><stop offset="0.886364" stop-color="#FFFFFF" stop-opacity="0.0396613"/><stop offset="0.897727" stop-color="#FFFFFF" stop-opacity="0.0356952"/><stop offset="0.909091" stop-color="#FFFFFF" stop-opacity="0.031729"/><stop offset="0.920455" stop-color="#FFFFFF" stop-opacity="0.0277629"/><stop offset="0.931818" stop-color="#FFFFFF" stop-opacity="0.0237968"/><stop offset="0.943182" stop-color="#FFFFFF" stop-opacity="0.0198307"/><stop offset="0.954545" stop-color="#FFFFFF" stop-opacity="0.0158645"/><stop offset="0.965909" stop-color="#FFFFFF" stop-opacity="0.0118984"/><stop offset="0.977273" stop-color="#FFFFFF" stop-opacity="0.00793226"/><stop offset="0.988636" stop-color="#FFFFFF" stop-opacity="0.00396613"/><stop offset="1" stop-color="#FFFFFF" stop-opacity="0"/></linearGradient><linearGradient x1="2824.07" y1="434.098" x2="2824.07" y2="1069.8" gradientUnits="userSpaceOnUse" spreadMethod="reflect" id="fill5"><stop offset="0" stop-color="#FFFFFF" stop-opacity="0.423529"/><stop offset="0.01" stop-color="#FFFFFF" stop-opacity="0.423529"/><stop offset="1" stop-color="#FFFFFF" stop-opacity="0.403922"/></linearGradient><linearGradient x1="2824.07" y1="710.489" x2="2824.07" y2="1086.06" gradientUnits="userSpaceOnUse" spreadMethod="reflect" id="fill6"><stop offset="0" stop-color="#FFFFFF" stop-opacity="0.741176"/><stop offset="0.00574713" stop-color="#FFFFFF" stop-opacity="0.737232"/><stop offset="0.0114943" stop-color="#FFFFFF" stop-opacity="0.733288"/><stop offset="0.0172414" stop-color="#FFFFFF" stop-opacity="0.729344"/><stop offset="0.0229885" stop-color="#FFFFFF" stop-opacity="0.7254"/><stop offset="0.0287356" stop-color="#FFFFFF" stop-opacity="0.721456"/><stop offset="0.0344828" stop-color="#FFFFFF" stop-opacity="0.717512"/><stop offset="0.0402299" stop-color="#FFFFFF" stop-opacity="0.713568"/><stop offset="0.045977" stop-color="#FFFFFF" stop-opacity="0.709624"/><stop offset="0.0517241" stop-color="#FFFFFF" stop-opacity="0.70568"/><stop offset="0.0574713" stop-color="#FFFFFF" stop-opacity="0.701735"/><stop offset="0.0632184" stop-color="#FFFFFF" stop-opacity="0.697791"/><stop offset="0.0689655" stop-color="#FFFFFF" stop-opacity="0.693847"/><stop offset="0.0747126" stop-color="#FFFFFF" stop-opacity="0.689903"/><stop offset="0.0804598" stop-color="#FFFFFF" stop-opacity="0.685959"/><stop offset="0.0862069" stop-color="#FFFFFF" stop-opacity="0.682015"/><stop offset="0.091954" stop-color="#FFFFFF" stop-opacity="0.678071"/><stop offset="0.0977011" stop-color="#FFFFFF" stop-opacity="0.674127"/><stop offset="0.103448" stop-color="#FFFFFF" stop-opacity="0.670183"/><stop offset="0.109195" stop-color="#FFFFFF" stop-opacity="0.666238"/><stop offset="0.114943" stop-color="#FFFFFF" stop-opacity="0.662294"/><stop offset="0.12069" stop-color="#FFFFFF" stop-opacity="0.65835"/><stop offset="0.126437" stop-color="#FFFFFF" stop-opacity="0.654406"/><stop offset="0.132184" stop-color="#FFFFFF" stop-opacity="0.650462"/><stop offset="0.137931" stop-color="#FFFFFF" stop-opacity="0.646518"/><stop offset="0.143678" stop-color="#FFFFFF" stop-opacity="0.642574"/><stop offset="0.149425" stop-color="#FFFFFF" stop-opacity="0.63863"/><stop offset="0.155172" stop-color="#FFFFFF" stop-opacity="0.634686"/><stop offset="0.16092" stop-color="#FFFFFF" stop-opacity="0.630741"/><stop offset="0.166667" stop-color="#FFFFFF" stop-opacity="0.626797"/><stop offset="0.172414" stop-color="#FFFFFF" stop-opacity="0.622853"/><stop offset="0.178161" stop-color="#FFFFFF" stop-opacity="0.618909"/><stop offset="0.183908" stop-color="#FFFFFF" stop-opacity="0.614965"/><stop offset="0.189655" stop-color="#FFFFFF" stop-opacity="0.611021"/><stop offset="0.195402" stop-color="#FFFFFF" stop-opacity="0.607077"/><stop offset="0.201149" stop-color="#FFFFFF" stop-opacity="0.603133"/><stop offset="0.206897" stop-color="#FFFFFF" stop-opacity="0.599189"/><stop offset="0.212644" stop-color="#FFFFFF" stop-opacity="0.595245"/><stop offset="0.218391" stop-color="#FFFFFF" stop-opacity="0.5913"/><stop offset="0.224138" stop-color="#FFFFFF" stop-opacity="0.587356"/><stop offset="0.229885" stop-color="#FFFFFF" stop-opacity="0.583412"/><stop offset="0.235632" stop-color="#FFFFFF" stop-opacity="0.579468"/><stop offset="0.241379" stop-color="#FFFFFF" stop-opacity="0.575524"/><stop offset="0.247126" stop-color="#FFFFFF" stop-opacity="0.57158"/><stop offset="0.252874" stop-color="#FFFFFF" stop-opacity="0.567636"/><stop offset="0.258621" stop-color="#FFFFFF" stop-opacity="0.563692"/><stop offset="0.264368" stop-color="#FFFFFF" stop-opacity="0.559748"/><stop offset="0.270115" stop-color="#FFFFFF" stop-opacity="0.555803"/><stop offset="0.275862" stop-color="#FFFFFF" stop-opacity="0.551859"/><stop offset="0.281609" stop-color="#FFFFFF" stop-opacity="0.547915"/><stop offset="0.287356" stop-color="#FFFFFF" stop-opacity="0.543971"/><stop offset="0.293103" stop-color="#FFFFFF" stop-opacity="0.540027"/><stop offset="0.298851" stop-color="#FFFFFF" stop-opacity="0.536083"/><stop offset="0.304598" stop-color="#FFFFFF" stop-opacity="0.532139"/><stop offset="0.310345" stop-color="#FFFFFF" stop-opacity="0.528195"/><stop offset="0.316092" stop-color="#FFFFFF" stop-opacity="0.524251"/><stop offset="0.321839" stop-color="#FFFFFF" stop-opacity="0.520307"/><stop offset="0.327586" stop-color="#FFFFFF" stop-opacity="0.516362"/><stop offset="0.333333" stop-color="#FFFFFF" stop-opacity="0.512418"/><stop offset="0.33908" stop-color="#FFFFFF" stop-opacity="0.508474"/><stop offset="0.344828" stop-color="#FFFFFF" stop-opacity="0.50453"/><stop offset="0.350575" stop-color="#FFFFFF" stop-opacity="0.500586"/><stop offset="0.356322" stop-color="#FFFFFF" stop-opacity="0.496642"/><stop offset="0.362069" stop-color="#FFFFFF" stop-opacity="0.492698"/><stop offset="0.367816" stop-color="#FFFFFF" stop-opacity="0.488754"/><stop offset="0.373563" stop-color="#FFFFFF" stop-opacity="0.48481"/><stop offset="0.37931" stop-color="#FFFFFF" stop-opacity="0.480865"/><stop offset="0.385057" stop-color="#FFFFFF" stop-opacity="0.476921"/><stop offset="0.390805" stop-color="#FFFFFF" stop-opacity="0.472977"/><stop offset="0.396552" stop-color="#FFFFFF" stop-opacity="0.469033"/><stop offset="0.402299" stop-color="#FFFFFF" stop-opacity="0.465089"/><stop offset="0.408046" stop-color="#FFFFFF" stop-opacity="0.461145"/><stop offset="0.413793" stop-color="#FFFFFF" stop-opacity="0.457201"/><stop offset="0.41954" stop-color="#FFFFFF" stop-opacity="0.453257"/><stop offset="0.425287" stop-color="#FFFFFF" stop-opacity="0.449313"/><stop offset="0.431034" stop-color="#FFFFFF" stop-opacity="0.445369"/><stop offset="0.436782" stop-color="#FFFFFF" stop-opacity="0.441424"/><stop offset="0.442529" stop-color="#FFFFFF" stop-opacity="0.43748"/><stop offset="0.448276" stop-color="#FFFFFF" stop-opacity="0.433536"/><stop offset="0.454023" stop-color="#FFFFFF" stop-opacity="0.429592"/><stop offset="0.45977" stop-color="#FFFFFF" stop-opacity="0.425648"/><stop offset="0.465517" stop-color="#FFFFFF" stop-opacity="0.421704"/><stop offset="0.471264" stop-color="#FFFFFF" stop-opacity="0.41776"/><stop offset="0.477012" stop-color="#FFFFFF" stop-opacity="0.413816"/><stop offset="0.482759" stop-color="#FFFFFF" stop-opacity="0.409872"/><stop offset="0.488506" stop-color="#FFFFFF" stop-opacity="0.405927"/><stop offset="0.494253" stop-color="#FFFFFF" stop-opacity="0.401983"/><stop offset="0.5" stop-color="#FFFFFF" stop-opacity="0.398039"/><stop offset="0.505747" stop-color="#FFFFFF" stop-opacity="0.394095"/><stop offset="0.511494" stop-color="#FFFFFF" stop-opacity="0.390151"/><stop offset="0.517241" stop-color="#FFFFFF" stop-opacity="0.386207"/><stop offset="0.522988" stop-color="#FFFFFF" stop-opacity="0.382263"/><stop offset="0.528736" stop-color="#FFFFFF" stop-opacity="0.378319"/><stop offset="0.534483" stop-color="#FFFFFF" stop-opacity="0.374375"/><stop offset="0.54023" stop-color="#FFFFFF" stop-opacity="0.37043"/><stop offset="0.545977" stop-color="#FFFFFF" stop-opacity="0.366486"/><stop offset="0.551724" stop-color="#FFFFFF" stop-opacity="0.362542"/><stop offset="0.557471" stop-color="#FFFFFF" stop-opacity="0.358598"/><stop offset="0.563218" stop-color="#FFFFFF" stop-opacity="0.354654"/><stop offset="0.568965" stop-color="#FFFFFF" stop-opacity="0.35071"/><stop offset="0.574713" stop-color="#FFFFFF" stop-opacity="0.346766"/><stop offset="0.58046" stop-color="#FFFFFF" stop-opacity="0.342822"/><stop offset="0.586207" stop-color="#FFFFFF" stop-opacity="0.338878"/><stop offset="0.591954" stop-color="#FFFFFF" stop-opacity="0.334933"/><stop offset="0.597701" stop-color="#FFFFFF" stop-opacity="0.330989"/><stop offset="0.603448" stop-color="#FFFFFF" stop-opacity="0.327045"/><stop offset="0.609195" stop-color="#FFFFFF" stop-opacity="0.323101"/><stop offset="0.614943" stop-color="#FFFFFF" stop-opacity="0.319157"/><stop offset="0.62069" stop-color="#FFFFFF" stop-opacity="0.315213"/><stop offset="0.626437" stop-color="#FFFFFF" stop-opacity="0.311269"/><stop offset="0.632184" stop-color="#FFFFFF" stop-opacity="0.307325"/><stop offset="0.637931" stop-color="#FFFFFF" stop-opacity="0.303381"/><stop offset="0.643678" stop-color="#FFFFFF" stop-opacity="0.299437"/><stop offset="0.649425" stop-color="#FFFFFF" stop-opacity="0.295492"/><stop offset="0.655172" stop-color="#FFFFFF" stop-opacity="0.291548"/><stop offset="0.66092" stop-color="#FFFFFF" stop-opacity="0.287604"/><stop offset="0.666667" stop-color="#FFFFFF" stop-opacity="0.28366"/><stop offset="0.672414" stop-color="#FFFFFF" stop-opacity="0.279716"/><stop offset="0.678161" stop-color="#FFFFFF" stop-opacity="0.275772"/><stop offset="0.683908" stop-color="#FFFFFF" stop-opacity="0.271828"/><stop offset="0.689655" stop-color="#FFFFFF" stop-opacity="0.267884"/><stop offset="0.695402" stop-color="#FFFFFF" stop-opacity="0.26394"/><stop offset="0.701149" stop-color="#FFFFFF" stop-opacity="0.259996"/><stop offset="0.706897" stop-color="#FFFFFF" stop-opacity="0.256051"/><stop offset="0.712644" stop-color="#FFFFFF" stop-opacity="0.252107"/><stop offset="0.718391" stop-color="#FFFFFF" stop-opacity="0.248163"/><stop offset="0.724138" stop-color="#FFFFFF" stop-opacity="0.244219"/><stop offset="0.729885" stop-color="#FFFFFF" stop-opacity="0.240275"/><stop offset="0.735632" stop-color="#FFFFFF" stop-opacity="0.236331"/><stop offset="0.741379" stop-color="#FFFFFF" stop-opacity="0.232387"/><stop offset="0.747126" stop-color="#FFFFFF" stop-opacity="0.228443"/><stop offset="0.752874" stop-color="#FFFFFF" stop-opacity="0.224499"/><stop offset="0.758621" stop-color="#FFFFFF" stop-opacity="0.220554"/><stop offset="0.764368" stop-color="#FFFFFF" stop-opacity="0.21661"/><stop offset="0.770115" stop-color="#FFFFFF" stop-opacity="0.212666"/><stop offset="0.775862" stop-color="#FFFFFF" stop-opacity="0.208722"/><stop offset="0.781609" stop-color="#FFFFFF" stop-opacity="0.204778"/><stop offset="0.787356" stop-color="#FFFFFF" stop-opacity="0.200834"/><stop offset="0.793103" stop-color="#FFFFFF" stop-opacity="0.19689"/><stop offset="0.798851" stop-color="#FFFFFF" stop-opacity="0.192946"/><stop offset="0.804598" stop-color="#FFFFFF" stop-opacity="0.189002"/><stop offset="0.810345" stop-color="#FFFFFF" stop-opacity="0.185057"/><stop offset="0.816092" stop-color="#FFFFFF" stop-opacity="0.181113"/><stop offset="0.821839" stop-color="#FFFFFF" stop-opacity="0.177169"/><stop offset="0.827586" stop-color="#FFFFFF" stop-opacity="0.173225"/><stop offset="0.833333" stop-color="#FFFFFF" stop-opacity="0.169281"/><stop offset="0.83908" stop-color="#FFFFFF" stop-opacity="0.165337"/><stop offset="0.844828" stop-color="#FFFFFF" stop-opacity="0.161393"/><stop offset="0.850575" stop-color="#FFFFFF" stop-opacity="0.157449"/><stop offset="0.856322" stop-color="#FFFFFF" stop-opacity="0.153505"/><stop offset="0.862069" stop-color="#FFFFFF" stop-opacity="0.149561"/><stop offset="0.867816" stop-color="#FFFFFF" stop-opacity="0.145616"/><stop offset="0.873563" stop-color="#FFFFFF" stop-opacity="0.141672"/><stop offset="0.87931" stop-color="#FFFFFF" stop-opacity="0.137728"/><stop offset="0.885057" stop-color="#FFFFFF" stop-opacity="0.133784"/><stop offset="0.890805" stop-color="#FFFFFF" stop-opacity="0.12984"/><stop offset="0.896552" stop-color="#FFFFFF" stop-opacity="0.125896"/><stop offset="0.902299" stop-color="#FFFFFF" stop-opacity="0.121952"/><stop offset="0.908046" stop-color="#FFFFFF" stop-opacity="0.118008"/><stop offset="0.913793" stop-color="#FFFFFF" stop-opacity="0.114064"/><stop offset="0.91954" stop-color="#FFFFFF" stop-opacity="0.110119"/><stop offset="0.925287" stop-color="#FFFFFF" stop-opacity="0.106175"/><stop offset="0.931035" stop-color="#FFFFFF" stop-opacity="0.102231"/><stop offset="0.936782" stop-color="#FFFFFF" stop-opacity="0.0982872"/><stop offset="0.942529" stop-color="#FFFFFF" stop-opacity="0.094343"/><stop offset="0.948276" stop-color="#FFFFFF" stop-opacity="0.0903989"/><stop offset="0.954023" stop-color="#FFFFFF" stop-opacity="0.0864548"/><stop offset="0.95977" stop-color="#FFFFFF" stop-opacity="0.0825107"/><stop offset="0.965517" stop-color="#FFFFFF" stop-opacity="0.0785666"/><stop offset="0.971264" stop-color="#FFFFFF" stop-opacity="0.0746225"/><stop offset="0.977012" stop-color="#FFFFFF" stop-opacity="0.0706784"/><stop offset="0.982759" stop-color="#FFFFFF" stop-opacity="0.0667343"/><stop offset="0.988506" stop-color="#FFFFFF" stop-opacity="0.0627902"/><stop offset="0.994253" stop-color="#FFFFFF" stop-opacity="0.0588461"/><stop offset="1" stop-color="#FFFFFF" stop-opacity="0.054902"/></linearGradient><linearGradient x1="752.761" y1="0" x2="752.761" y2="2863.09" gradientUnits="userSpaceOnUse" spreadMethod="reflect" id="fill7"><stop offset="0" stop-color="#F7FAFB" stop-opacity="1"/><stop offset="0.33" stop-color="#F7F9FB" stop-opacity="1"/><stop offset="1" stop-color="#E6D3E3" stop-opacity="1"/></linearGradient><linearGradient x1="786.904" y1="0" x2="786.904" y2="1572.18" gradientUnits="userSpaceOnUse" spreadMethod="reflect" id="fill8"><stop offset="0" stop-color="#D4C4D3" stop-opacity="1"/><stop offset="0.0196078" stop-color="#D3C3D2" stop-opacity="1"/><stop offset="0.0392157" stop-color="#D3C3D2" stop-opacity="1"/><stop offset="0.0588235" stop-color="#D3C3D2" stop-opacity="1"/><stop offset="0.0784314" stop-color="#D3C3D2" stop-opacity="1"/><stop offset="0.0980392" stop-color="#D3C3D2" stop-opacity="1"/><stop offset="0.117647" stop-color="#D3C3D2" stop-opacity="1"/><stop offset="0.137255" stop-color="#D3C2D2" stop-opacity="1"/><stop offset="0.156863" stop-color="#D2C2D2" stop-opacity="1"/><stop offset="0.176471" stop-color="#D2C1D2" stop-opacity="1"/><stop offset="0.196078" stop-color="#D2C1D1" stop-opacity="1"/><stop offset="0.215686" stop-color="#D1C1D1" stop-opacity="1"/><stop offset="0.235294" stop-color="#D1C0D1" stop-opacity="1"/><stop offset="0.254902" stop-color="#D0BFD1" stop-opacity="1"/><stop offset="0.27451" stop-color="#D0BFD0" stop-opacity="1"/><stop offset="0.294118" stop-color="#CFBED0" stop-opacity="1"/><stop offset="0.313726" stop-color="#CFBED0" stop-opacity="1"/><stop offset="0.333333" stop-color="#CEBDCF" stop-opacity="1"/><stop offset="0.352941" stop-color="#CEBCCF" stop-opacity="1"/><stop offset="0.372549" stop-color="#CDBBCF" stop-opacity="1"/><stop offset="0.392157" stop-color="#CDBBCE" stop-opacity="1"/><stop offset="0.411765" stop-color="#CCBACE" stop-opacity="1"/><stop offset="0.431373" stop-color="#CBB9CE" stop-opacity="1"/><stop offset="0.45098" stop-color="#CBB8CD" stop-opacity="1"/><stop offset="0.470588" stop-color="#CAB7CD" stop-opacity="1"/><stop offset="0.490196" stop-color="#C9B6CC" stop-opacity="1"/><stop offset="0.509804" stop-color="#C8B5CC" stop-opacity="1"/><stop offset="0.529412" stop-color="#C7B4CB" stop-opacity="1"/><stop offset="0.54902" stop-color="#C7B3CB" stop-opacity="1"/><stop offset="0.568627" stop-color="#C6B1CA" stop-opacity="1"/><stop offset="0.588235" stop-color="#C5B0CA" stop-opacity="1"/><stop offset="0.607843" stop-color="#C4AFC9" stop-opacity="1"/><stop offset="0.627451" stop-color="#C3AEC8" stop-opacity="1"/><stop offset="0.647059" stop-color="#C2ADC8" stop-opacity="1"/><stop offset="0.666667" stop-color="#C1ABC7" stop-opacity="1"/><stop offset="0.686275" stop-color="#C0AAC7" stop-opacity="1"/><stop offset="0.705882" stop-color="#BFA8C6" stop-opacity="1"/><stop offset="0.72549" stop-color="#BEA7C5" stop-opacity="1"/><stop offset="0.745098" stop-color="#BCA6C5" stop-opacity="1"/><stop offset="0.764706" stop-color="#BBA4C4" stop-opacity="1"/><stop offset="0.784314" stop-color="#BAA3C3" stop-opacity="1"/><stop offset="0.803922" stop-color="#B9A1C3" stop-opacity="1"/><stop offset="0.823529" stop-color="#B89FC2" stop-opacity="1"/><stop offset="0.843137" stop-color="#B69EC1" stop-opacity="1"/><stop offset="0.862745" stop-color="#B59CC0" stop-opacity="1"/><stop offset="0.882353" stop-color="#B49AC0" stop-opacity="1"/><stop offset="0.901961" stop-color="#B399BF" stop-opacity="1"/><stop offset="0.921569" stop-color="#B197BE" stop-opacity="1"/><stop offset="0.941176" stop-color="#B095BD" stop-opacity="1"/><stop offset="0.960784" stop-color="#AE93BC" stop-opacity="1"/><stop offset="0.980392" stop-color="#AD91BB" stop-opacity="1"/><stop offset="1" stop-color="#AC90BB" stop-opacity="1"/></linearGradient><linearGradient x1="713.362" y1="-125.785" x2="862.071" y2="717.588" gradientUnits="userSpaceOnUse" spreadMethod="reflect" id="fill9"><stop offset="0" stop-color="#6B5D86" stop-opacity="1"/><stop offset="0.79" stop-color="#3D4067" stop-opacity="1"/><stop offset="1" stop-color="#3D4067" stop-opacity="1"/></linearGradient></defs><g clip-path="url(#clip0)" transform="translate(562 394)"><g clip-path="url(#clip1)"><g clip-path="url(#clip2)"><path d="M2076.19-572.294 3576.83-572.294 3576.83 2368.84 2076.19 2368.84Z" fill="url(#fill3)" fill-rule="nonzero" transform="matrix(1.00017 0 0 1 -2645.98 178.294)"/><path d="M2802.32-572.294 3575.21-572.294 3575.21 287.365 3573.71 288.763C3447.76 377.587 3085.9 267.705 2924.39 195.539 2752.11 118.562 2600.47-72.6585 2562.01-193.585 2548.71-295.17 2637.09-430.726 2772.47-546.724Z" fill="#FFFFFF" fill-rule="evenodd" fill-opacity="0.431373" transform="matrix(1.00017 0 0 1 -2645.98 178.294)"/><path d="M2074.56-572.294 2951.51-572.294 2967.91-562.703C2975.52-555.697 2979.42-547.979 2978.35-539.31 2974.12-504.639 2916.68-435.384 2807.3-404.912 2697.91-374.443 2474.21-380.104 2322.05-356.482 2245.98-344.672 2160.34-324.755 2083.1-306.088L2074.56-304.031Z" fill="#8FAADC" fill-rule="evenodd" fill-opacity="0.305882" transform="matrix(1.00017 0 0 1 -2645.98 178.294)"/><path d="M22.236 0.471607C16.1302-0.152184 10.1251-0.164282 4.31109 0.478598L0 1.49011 0 512.138 1505.52 512.138 1505.52 24.049 1492.57 22.2271C1457.8 22.2271 1427.14 38.6194 1409.04 63.5517L1403.2 73.5617 1382.36 63.2183C1363.43 55.8984 1342.61 51.8508 1320.77 51.8508 1298.92 51.8508 1278.11 55.8984 1259.18 63.2183L1246.39 69.5662 1226.23 60.8558C1218.93 58.777 1211.38 57.6851 1203.64 57.6851 1180.42 57.6851 1158.85 67.5106 1140.95 84.3369L1124.76 102.94 1117 100.701C1106.09 98.6218 1094.78 97.5299 1083.2 97.5299 1036.89 97.5299 994.958 114.997 964.607 143.237L954.865 154.223 945.907 149.317C929.481 142.307 911.425 138.431 892.469 138.431 845.081 138.431 803.302 162.657 778.63 199.503L773.203 209.591 757.369 191.229C739.647 174.403 718.284 164.578 695.288 164.578 687.622 164.578 680.138 165.669 672.91 167.749L667.727 170.009 662.791 165.082C642.2 148.256 617.375 138.431 590.656 138.431 563.934 138.431 539.11 148.256 518.519 165.082L517.742 165.858 513.084 159.029C489.737 130.789 457.482 113.322 421.854 113.322 395.133 113.322 370.31 123.147 349.717 139.973L347.82 141.868 338.373 123.218C314.574 85.0944 273.797 57.1063 225.547 48.0119L202.179 45.8417 199.142 43.1231C159.631 11.7625 117.03-2.64385 86.2094 8.87398L70.9585 17.8891 63.9351 13.4884C50.2186 6.37746 35.9734 1.87568 22.236 0.471607Z" fill="url(#fill4)" fill-rule="evenodd" transform="matrix(-1.00017 0 0 1 931.458 500.209)"/><path d="M3576.83 434.098 3576.83 1069.8 2071.31 1069.8 2071.31 480.182 2078.74 482.206C2084.97 484.742 2091.2 488.105 2097.31 492.223L2103.55 497.32 2117.14 486.879C2144.59 473.537 2182.54 490.223 2217.74 526.549L2220.43 529.697 2241.24 532.21C2284.22 542.744 2320.54 575.163 2341.74 619.321L2350.14 640.922 2351.83 638.728C2370.17 619.238 2392.28 607.859 2416.09 607.859 2447.82 607.859 2476.55 628.089 2497.35 660.801L2501.49 668.709 2502.19 667.811C2520.53 648.322 2542.64 636.942 2566.43 636.942 2590.23 636.942 2612.34 648.322 2630.68 667.811L2635.09 673.518 2639.7 670.899C2646.14 668.491 2652.81 667.226 2659.62 667.226 2680.11 667.226 2699.14 678.607 2714.92 698.097L2729.03 719.365 2733.86 707.68C2755.84 665.002 2793.04 636.942 2835.24 636.942 2852.14 636.942 2868.22 641.43 2882.85 649.55L2890.83 655.232 2899.5 642.508C2926.53 609.798 2963.88 589.566 3005.13 589.566 3015.45 589.566 3025.51 590.831 3035.24 593.239L3042.15 595.832 3056.57 574.285C3072.5 554.796 3091.72 543.416 3112.4 543.416 3119.29 543.416 3126.02 544.68 3132.53 547.088L3150.48 557.177 3161.87 549.825C3178.73 541.346 3197.27 536.657 3216.73 536.657 3236.17 536.657 3254.72 541.346 3271.58 549.825L3290.14 561.805 3295.34 550.21C3311.47 521.332 3338.76 502.345 3369.74 502.345L3391.8 506.379 3400.64 493.167C3410.2 481.461 3421.75 474.625 3434.17 474.625 3438.31 474.625 3442.35 475.386 3446.25 476.831L3454.39 481.401 3464.13 473.245C3482.93 461.538 3505.61 454.704 3529.99 454.704 3538.14 454.704 3546.07 455.463 3553.75 456.91L3560.06 458.713Z" fill="url(#fill5)" fill-rule="evenodd" transform="matrix(1.00017 0 0 1 -2645.98 178.294)"/><path d="M3487.59 710.65C3509.1 711.818 3533.54 719.341 3555.81 732.939L3576.83 749.62 3576.83 1086.06 2071.31 1086.06 2071.31 750.078 2078.53 741.044C2096.68 724.33 2124.15 713.679 2154.9 713.679 2175.4 713.679 2194.45 718.412 2210.24 726.522L2218.91 731.951 2225.26 729.004C2228.55 728.003 2231.95 727.478 2235.42 727.478 2245.85 727.478 2255.55 732.212 2263.58 740.32L2270.87 749.283 2274.35 748.204C2279.26 747.202 2284.35 746.677 2289.55 746.677 2315.56 746.677 2338.5 759.829 2352.05 779.831L2356.42 787.861 2372.01 779.563C2386.17 773.69 2401.75 770.444 2418.1 770.444 2434.44 770.444 2450.02 773.69 2464.18 779.563L2473.76 784.655 2488.84 777.667C2494.29 775.999 2499.95 775.125 2505.74 775.125 2523.12 775.125 2539.26 783.007 2552.64 796.506L2564.77 811.431 2570.57 809.634C2578.74 807.966 2587.19 807.09 2595.86 807.09 2621.85 807.09 2646 814.974 2666.03 828.473L2678.16 838.452 2683.72 833.154C2701.05 819.654 2721.94 811.771 2744.42 811.771 2781.9 811.771 2814.94 833.668 2834.45 866.971L2841.1 881.096 2853.78 870.72C2863.73 864.384 2874.65 860.881 2886.13 860.881 2891.85 860.881 2897.46 861.757 2902.86 863.425L2906.75 865.24 2910.44 861.286C2925.85 847.786 2944.42 839.904 2964.42 839.904 2984.41 839.904 3002.98 847.786 3018.39 861.286L3018.98 861.908 3022.46 856.429C3039.94 833.773 3064.06 819.76 3090.73 819.76 3097.39 819.76 3103.9 820.636 3110.19 822.303L3114.64 824.099 3123.97 809.176C3134.27 795.677 3146.69 787.793 3160.05 787.793 3164.51 787.793 3168.85 788.669 3173.06 790.337L3181.19 795.241 3192.29 786.201C3207.46 776.077 3224.97 769.112 3243.86 766.262L3255.33 765.405 3257.37 763.441C3281.03 743.313 3306.17 731.89 3327.07 732.858 3332.29 733.1 3337.27 734.116 3341.89 735.965 3344.76 737.119 3347.41 738.564 3349.85 740.278L3353.14 743.205 3361.98 737.842C3371.17 733.189 3380.61 730.224 3389.75 729.222 3398.89 728.221 3407.72 729.185 3415.71 732.386 3419.71 733.988 3423.31 736.072 3426.49 738.576L3430.28 742.54 3436.95 726.486C3447.5 714.669 3466.08 709.483 3487.59 710.65Z" fill="url(#fill6)" fill-rule="evenodd" transform="matrix(1.00017 0 0 1 -2645.98 178.294)"/><path d="M97.7121 0C61.7697 0 29.6546 10.6534 8.434 27.3677L0 36.4031 0 323.055 0 372.42 0 2863.09 1505.52 2863.09 1505.52 372.42 1505.52 323.055 1505.52 25.8096 1498.35 29.5302 1494.52 26.603C1491.67 24.8889 1488.56 23.4429 1485.19 22.2881 1479.8 20.4395 1474 19.4237 1467.89 19.1813 1443.44 18.2142 1414.06 29.6381 1386.41 49.7682L1384.02 51.7319 1370.61 52.5899C1348.54 55.4395 1328.07 62.4052 1310.33 72.5311L1297.37 81.5712 1287.85 76.667C1282.94 74.9992 1277.85 74.1231 1272.65 74.1231 1257.02 74.1231 1242.51 82.0067 1230.47 95.5073L1219.57 110.433 1214.36 108.637C1207.01 106.969 1199.41 106.093 1191.61 106.093 1160.45 106.093 1132.24 120.108 1111.82 142.767L1107.74 148.246 1107.06 147.624C1089.05 134.124 1067.34 126.24 1043.97 126.24 1020.6 126.24 998.886 134.124 980.875 147.624L976.557 151.577 972.024 149.763C965.703 148.095 959.156 147.219 952.451 147.219 939.043 147.219 926.268 150.723 914.649 157.059L899.821 167.437 892.05 153.309C869.242 120.002 830.621 98.1035 786.814 98.1035 760.529 98.1035 736.113 105.987 715.856 119.488L709.346 124.787 695.176 114.807C671.762 101.306 643.536 93.4224 613.154 93.4224 603.027 93.4224 593.138 94.2979 583.588 95.9657L576.807 97.7632 562.639 82.8364C546.991 69.3358 528.123 61.4528 507.815 61.4528 501.045 61.4528 494.436 62.3283 488.053 63.9961L470.42 70.9847 459.231 65.8916C442.674 60.0185 424.471 56.7704 405.364 56.7704 386.256 56.7704 368.053 60.0185 351.496 65.8916L333.263 74.1912 328.157 66.1592C312.323 46.1545 285.508 33.0018 255.093 33.0018 249.011 33.0018 243.072 33.5283 237.336 34.5299L233.263 35.6092 224.754 26.644C215.353 18.5352 204.023 13.8 191.824 13.8 187.758 13.8 183.789 14.3264 179.955 15.3281L172.524 18.2734 162.401 12.8441C143.935 4.73518 121.674 0 97.7121 0Z" fill="#F6F9FA" fill-rule="evenodd" fill-opacity="1" transform="matrix(-1.00017 0 0 1 931.458 1079.01)"/><path d="M97.7121 0C61.7697 0 29.6546 10.6534 8.434 27.3677L0 36.4031 0 323.055 0 372.42 0 2863.09 1505.52 2863.09 1505.52 372.42 1505.52 323.055 1505.52 25.8096 1498.35 29.5302 1494.52 26.603C1491.67 24.8889 1488.56 23.4429 1485.19 22.2881 1479.8 20.4395 1474 19.4237 1467.89 19.1813 1443.44 18.2142 1414.06 29.6381 1386.41 49.7682L1384.02 51.7319 1370.61 52.5899C1348.54 55.4395 1328.07 62.4052 1310.33 72.5311L1297.37 81.5712 1287.85 76.667C1282.94 74.9992 1277.85 74.1231 1272.65 74.1231 1257.02 74.1231 1242.51 82.0067 1230.47 95.5073L1219.57 110.433 1214.36 108.637C1207.01 106.969 1199.41 106.093 1191.61 106.093 1160.45 106.093 1132.24 120.108 1111.82 142.767L1107.74 148.246 1107.06 147.624C1089.05 134.124 1067.34 126.24 1043.97 126.24 1020.6 126.24 998.886 134.124 980.875 147.624L976.557 151.577 972.024 149.763C965.703 148.095 959.156 147.219 952.451 147.219 939.043 147.219 926.268 150.723 914.649 157.059L899.821 167.437 892.05 153.309C869.242 120.002 830.621 98.1035 786.814 98.1035 760.529 98.1035 736.113 105.987 715.856 119.488L709.346 124.787 695.176 114.807C671.762 101.306 643.536 93.4224 613.154 93.4224 603.027 93.4224 593.138 94.2979 583.588 95.9657L576.807 97.7632 562.639 82.8364C546.991 69.3358 528.123 61.4528 507.815 61.4528 501.045 61.4528 494.436 62.3283 488.053 63.9961L470.42 70.9847 459.231 65.8916C442.674 60.0185 424.471 56.7704 405.364 56.7704 386.256 56.7704 368.053 60.0185 351.496 65.8916L333.263 74.1912 328.157 66.1592C312.323 46.1545 285.508 33.0018 255.093 33.0018 249.011 33.0018 243.072 33.5283 237.336 34.5299L233.263 35.6092 224.754 26.644C215.353 18.5352 204.023 13.8 191.824 13.8 187.758 13.8 183.789 14.3264 179.955 15.3281L172.524 18.2734 162.401 12.8441C143.935 4.73518 121.674 0 97.7121 0Z" fill="url(#fill7)" fill-rule="evenodd" transform="matrix(-1.00017 0 0 1 931.458 1124.53)"/><path d="M2636.42 2538.02C2800.01 2542.38 3006.51 2708.8 3177.38 2708.07 3305.53 2707.53 3452.49 2623.59 3563.99 2571.24L3576.83 2565.61 3576.83 3722.98 3491.12 3737.21C3150.59 3783.45 2666.29 3753.69 2158.02 3711.26L2071.31 3703.78 2071.31 2645.9 2123.75 2672.48C2144.8 2679.15 2168.52 2682.64 2195.79 2681.91 2304.86 2679 2472.81 2533.67 2636.42 2538.02Z" fill="#7030A0" fill-rule="evenodd" fill-opacity="0.0352941" transform="matrix(1.00017 0 0 1 -2645.98 178.294)"/><path d="M565.104 0.045153C728.702 2.0919 935.199 80.2108 1106.07 79.8697 1234.22 79.614 1381.19 40.2134 1492.67 15.6361L1505.52 12.9933 1505.52 556.282 1419.8 562.96C1079.29 584.668 594.98 570.695 86.7124 550.777L0 547.265 0 50.6816 52.4284 63.1599C73.4922 66.2887 97.2138 67.9304 124.48 67.5892 233.546 66.2248 401.506-2.0016 565.104 0.045153Z" fill="#4472C4" fill-rule="evenodd" fill-opacity="0.109804" transform="matrix(-1.00017 0 0 1 934.71 2971.48)"/><path d="M495.221 23.3587C612.476 6.51286 681.833-10.7814 864.188 73.0183 956.117 135.861 1100.3 161.277 1227.65 90.2292 1331.39 32.3533 1431.39 116.176 1546.93 49.1262L1573.81 0 1560.24 1524.07 1471.41 1542.28C1118.51 1601.5 616.607 1563.39 89.8642 1509.05L0 1499.47 0 144.734 160.653 174.093C273.683 170.37 377.964 40.2046 495.221 23.3587Z" fill="url(#fill8)" fill-rule="evenodd" transform="matrix(-1.00017 0 0 1 965.606 3321.03)"/><path d="M1200.3 32.9093 1156.51 63.3698 1136.61 51.9467 1112.73 67.1772 1096.6 83.4111 1092.83 78.5996 1013.21 86.2147 993.31 51.9467 941.563 63.3698 909.718 40.5242 889.814 90.0221 853.989 70.9847 834.085 93.8303 782.337 101.445 770.397 131.906 718.648 131.906 698.744 147.136 643.017 143.328 575.347 143.328 535.54 166.173 523.598 208.056 467.87 208.056 483.793 154.751 447.968 147.136 459.909 97.6377 424.084 93.8303 420.102 48.1393 384.277 74.7923 332.529 63.3698 328.549 93.8303 284.762 97.6377 280.782 59.5623 244.956 63.3698 197.189 48.1393 193.209 82.4072 149.422 59.5623 117.577 74.7923 69.8094 82.4072 53.8873 51.9467 0 44.5836 0 759.716 89.8914 769.294C616.794 823.633 1118.85 861.747 1471.85 802.53L1560.72 784.314 1567.3 44.5121 1530.69 63.3698 1498.85 48.1393 1451.08 101.445 1423.21 90.0221 1403.31 112.868 1367.49 97.6377 1347.58 67.1772 1315.74 82.4072 1283.89 40.5242 1248.07 51.9467ZM0 0 0 39.4897 14.0813 2.44888Z" fill="#B8B3DB" fill-rule="evenodd" fill-opacity="1" transform="matrix(-1.00017 0 0 1 959.102 3873.81)"/><path d="M1564.56 0 1513.58 20.441 1468.27 45.9924 1400.3 45.9924 1326.66 86.875 1292.68 56.2129 1185.06 66.4334 1145.41 86.875 1088.77 61.3234 1060.45 20.441 975.489 25.5514 930.175 45.9924 935.84 91.9848 850.879 40.8824 811.231 81.7643 731.933 81.7643 675.292 71.5438 607.322 122.647 522.361 132.867 505.369 163.528 454.393 189.08 437.4 219.743 329.781 224.853 256.148 214.631 159.859 214.631 120.21 229.963 91.8892 204.411 52.2406 214.631 6.92776 189.08 0 545.35 0 602.048 89.8559 611.622C616.55 665.93 1118.41 704.025 1471.27 644.84L1560.1 626.634 1565.68 0.202449Z" fill="#7D759F" fill-rule="evenodd" fill-opacity="1" transform="matrix(-1.00017 0 0 1 959.102 4031.52)"/><path d="M1572.88 0 1568.48 8.43187 1561.44 8.92415 1554.47 3.66811 1550.88 8.0676 1544.21 7.89562 1542.03 12.1967 1548.44 16.8542 1541.7 19.2408 1548.82 25.444 1543.76 26.4362 1539.78 28.3103 1546.41 31.3565 1537.42 34.5384 1533.97 30.631 1526.14 32.1361 1525.65 28.979 1515.56 28.0897 1516.52 31.2139 1512.44 32.4564 1508.51 34.646 1504.96 30.1072 1496.13 28.1723 1497.09 31.2965 1505.66 37.7171 1497.96 36.9793 1495.78 41.2804 1502.92 41.4196 1502 44.6752 1497.03 46.2989 1497.66 50.403 1489.35 48.751 1483.3 49.4933 1485 51.289 1482.85 52.716 1487.36 54.3149 1483.9 56.4717 1486.07 58.2348 1492.69 58.091 1498.37 58.013 1495.25 62.3795 1489.52 62.1421 1488.97 64.7332 1494.57 67.2136 1492.39 71.5149 1494.75 74.5404 1499.4 73.8968 1494.55 79.342 1491.33 83.0772 1489.71 78.7227 1485.15 76.8083 1484.8 74.5983 1479.92 73.6636 1478.44 70.2565 1473.46 68.6905 1470.02 74.0371 1470.04 77.227 1467.24 80.6136 1462.01 77.469C1462.07 78.8481 1462.12 80.2271 1462.18 81.6061L1450.82 81.7622 1452.99 83.5254 1458.81 84.3944 1453.35 88.9251 1453.07 90.2208 1458.06 91.7869 1458.08 94.9768 1461.65 96.6412 1455.8 98.6463C1455.75 98.6585 1455.8 99.331 1455.93 100.581 1455.95 100.702 1455.96 100.823 1455.98 100.944L1447.94 101.144 1456.48 104.998C1456.52 105.326 1456.56 105.654 1456.6 105.981L1456.67 106.518 1449.59 109.206 1457.17 110.251 1457.21 110.543 1452.56 115.268 1448.84 117.436 1453.54 119.015 1449.91 121.723 1453.76 123.088 1459.26 125.341 1459.5 127.049 1451.22 127.627 1449.24 130.492 1445.48 132.39 1450.14 133.7 1447.22 135.812 1448.23 137.104 1454.48 135.577 1454.77 137.465 1448.25 139.829 1439.1 138.288 1435.88 135.788 1442.52 134.233 1439.07 132.839 1442.74 130.401 1436.2 130.041 1432.53 132.478 1428.73 134.107 1423.86 131.449 1430.64 130.703 1426.15 125.292 1432.97 124.816 1431.27 121.664 1434.98 119.496 1426.84 119.247 1427.33 114.579 1423.12 113.511 1415.62 120.032 1410.89 120.908 1408.1 115.924 1411.71 115.672 1416.22 113.448 1419.54 111.308 1423.1 110.786 1421.04 107.932 1422.88 106.713C1422.79 105.265 1422.7 103.818 1422.61 102.37L1417 102.763 1414.9 99.6389 1410.53 100.217 1408.02 102.301 1404.12 100.665 1407.4 98.2558 1402.17 95.8954 1397.76 96.2038 1403.59 91.9799 1404.97 87.7949 1399.48 88.9962 1397.41 91.3218 1393.22 87.7988 1394.45 85.2595 1388.44 85.68 1385.45 82.0729 1382.95 78.977 1380.94 84.2969 1382.6 87.1792 1381.45 90.2575 1376.63 87.8693 1371.76 93.1157 1367.4 93.6936 1369.82 96.2502 1364.17 96.3729 1361.74 98.9961 1352.65 95.2701 1351.79 97.5115 1346.94 97.5782 1354.21 100.068 1350.05 101.994 1352.39 104.012 1357.47 102.838 1354.93 107.377 1349.2 106.961 1349.54 111.843 1344.78 112.449 1350 114.809 1354.81 114.473 1355.75 117.95 1360.08 117.102 1365.01 117.575 1359.5 121.232 1361.84 123.249 1356.55 123.074 1354.17 120.787 1350.27 119.152 1349.84 121.635 1346.23 121.887 1348.25 124.471 1343.49 125.077 1338.66 122.689 1342.34 120.252 1338.88 118.858 1342.83 115.583 1337.77 114.301 1334.33 115.632 1331.59 113.643 1333.94 110.481 1329.81 109.952 1326.29 110.744 1325.98 106.131 1322.26 108.299 1320.48 104.608 1317.27 104.832 1316.29 101.085 1319.64 99.2146 1317.14 96.1188 1309.78 98.2693 1312.19 92.9214 1308.99 87.9659 1313.36 87.3879 1314.1 84.3374 1318.11 84.0572 1314.64 79.9387 1319.92 77.3891 1315.01 74.4614 1314.59 71.7646 1310.78 70.6685 1308.62 72.4548 1307.83 67.3311 1301.92 63.1111 1300.22 67.8636 1296.65 68.3857 1299.64 71.9927 1295.84 73.6213 1298.35 76.7173 1290.92 75.8734 1291.5 71.7445 1286.04 70.4906 1285.3 73.5412 1281.21 73.2822 1278.65 75.0965 1275.95 78.5567 1271.58 79.1345 1268.07 74.7464 1266.77 79.4709 1261.96 79.8073 1259.67 78.0597 1256.35 80.1998 1252.87 81.2611 1257.42 84.4863 1251.98 85.9575 1255.28 88.9973 1251.84 90.3282 1255.3 91.7221 1252.15 94.9407 1248.01 94.4119 1246.67 90.9623 1243.21 94.7482 1239.07 94.2195 1235.67 95.8202 1232.03 95.8028 1230.92 91.2464 1227.74 96.92 1223.14 98.6047 1217.89 98.6995 1222.8 101.627 1222.86 104.622 1228.65 108.032 1226.94 110.06 1229.51 110.971 1224.23 113.521 1229.17 113.993 1227.22 117.128 1231.23 116.847C1231.2 118.394 1231.16 119.941 1231.13 121.488L1226.35 119.369 1223.44 121.481 1216.21 119.261 1218.43 123.194 1215.69 126.384 1212.25 127.715 1221.04 129.554 1216.2 132.345 1217.1 135.553 1210.65 135.732 1209.95 139.052 1201.6 137.455 1200.17 133.466 1196.1 135.932C1196.16 134.565 1196.22 133.198 1196.28 131.831L1191.15 132.735 1190.8 127.853 1191.78 123.695 1187.65 123.167 1189.02 118.982 1184.85 118.183 1184.83 115.458 1181.21 112.986 1176.13 114.16 1172.75 113.305 1173.14 116.278 1170.01 115.756 1169.7 110.956 1165.32 114.972 1161.11 113.991 1159.15 110.312 1156.99 108.276 1152.89 108.149C1152.85 107.119 1152.82 106.089 1152.78 105.059L1147.12 105.789 1146.83 109.932 1139.31 110.073 1142.43 107.242 1139 105.273 1142.71 101.981 1139.29 101.13 1138.59 96.2651 1131.86 99.8901 1130.01 104.89 1128.25 102.919 1124.24 103.648 1123.27 106.279 1117.81 108.719 1122.51 111.738 1118.22 115.491 1122.13 116.144C1122.16 117.174 1122.2 118.204 1122.24 119.234L1126.44 120.215 1122.25 124.824 1123.54 130.346 1116.69 127.527 1113.57 130.358 1116.51 132.524 1114.76 136.143 1111.63 135.621 1109.1 139.109 1105.87 136.614 1104.61 141.153 1101.28 140.039 1097.08 140.176 1098.75 143.527 1095.63 145.241 1092.5 143.601 1087.22 144.397 1090.46 148.009 1086.75 149.066 1089.88 151.824 1084.61 153.737 1080.01 152.691 1082.55 150.321 1079.03 149.733C1079.06 148.9 1079.09 148.067 1079.12 147.234L1074.92 148.489 1072.09 150.531 1066.82 150.209 1069.55 148.43 1064.84 144.293 1069.83 144.287 1073.94 145.531 1075.59 142.175 1080.28 142.959 1085.94 141.11 1081.35 140.064 1082.7 135.262 1076.94 135.138 1075.36 130.405 1080.15 132.043 1082.89 130.264 1079.17 127.968 1086.88 126.183 1082.09 125.662 1081.69 123.361 1071.93 126.201 1070.07 123.376 1064.49 122.725 1067.42 120.42 1063.21 119.439 1059.48 113.789 1054.21 115.702 1053.72 112.546 1055.96 109.848 1055.06 104.391 1051.94 107.222 1048.24 110.515 1042.37 109.536 1043.06 112.165 1038.19 115.262 1036.62 112.765 1031.43 111.062 1031.93 115.335 1036.83 120.064 1032.53 119.346 1026.87 121.194 1029.61 123.886 1025.41 125.141 1023.36 122.842 1019.15 121.861 1016.42 124.758 1010.95 123.844 1009.79 128.119 1011.35 129.498 1008.72 132.132 1012.15 132.982 1014.99 135.412 1019 138.037 1022.52 138.625 1018.72 143.298 1014.22 141.988 1008.14 134.829 1003.75 135.492 1003.27 140.161 995.16 139.645 998.392 142.14 996.054 145.102 1002.7 146.211 997.147 151.15 1003.7 152.523 998.329 154.699 994.903 152.731 991.768 149.973 985.221 149.718 988.354 152.476 984.644 153.533 990.905 155.695 987.197 157.869 977.819 158.538 971.849 155.587 972.528 153.745 978.398 155.842 979.664 154.657 977.214 152.292 982.098 151.431 978.77 149.2 977.393 146.177 966.053 144.284 975.817 141.444 979.918 140.453 976.881 137.432 981.861 136.308 978.63 133.813 974.805 128.426 982.817 128.087 974.792 123.954 986.117 120.258 974.192 118.826 969.021 126.888 966.425 122.831 959.52 127.948 955.522 123.048 950.194 130.508 946.388 124.232 939.509 126.894 936.687 124.366 930.834 131.044 938.613 131.59 940.607 136.63 934.003 138.455 938.511 141.411 932.583 142.37 931.203 146.555 939.386 147.074 943.424 152.243 937.939 153.444 942.654 157.748 930.481 160.235 936.399 164.455 934.938 168.101 924.726 170.178 927.631 173.246 932.221 176.741 923.822 180.055 932.143 184.106 937.144 182.393 939.651 184.371 938.132 187.215 934.038 188.389 937.204 190.58 931.71 191.483 930.148 194.411 920.099 191.985C920.048 192.764 919.996 193.541 919.946 194.32L915.219 195.056 923.109 196.51 919.64 198.987 922.555 200.657 927.166 198.796 926.095 203.631 920.35 204.011 922.212 208.786 917.734 210.045 923.584 211.654 928.185 210.656 930.19 213.961 934.16 212.526 939.135 212.311 934.879 216.685 937.794 218.354 932.56 218.914 929.52 216.984 925.195 215.908 925.552 218.419 922.098 219.167 924.88 221.44 920.403 222.699 914.936 221.006 917.775 218.089 913.958 217.19 916.805 213.41 911.454 212.843 908.501 214.633 905.203 213.048 906.516 209.599 902.307 209.648 899.104 210.916 897.368 206.403 894.405 209.058 891.51 205.658 888.442 206.323 886.312 202.758 889.016 200.446 885.602 197.734 879.062 200.875 879.762 195.259 875.091 190.806 879.184 189.631 878.963 186.514 882.799 185.683 878.119 182.095 882.49 178.847 876.775 176.632 875.528 174.026 871.454 173.472 869.901 175.533 867.53 170.581 860.425 167.23C860.365 168.874 860.305 170.517 860.243 172.16L856.917 173.169 860.964 176.318 857.753 178.453 861.167 181.165 853.639 181.359 852.919 177.2 847.186 176.715C847.259 177.754 847.334 178.793 847.407 179.832L843.323 180.141 841.387 182.287 839.815 186.078 835.721 187.254 830.917 183.404 831.118 188.25 826.517 189.249 823.726 187.839 821.147 190.411 818.071 191.941 823.527 194.499 818.656 196.705 822.838 199.251 819.884 201.041 823.701 201.94 821.62 205.554 817.411 205.603 815.024 202.382 812.81 206.601 808.6 206.65 805.771 208.7 802.196 209.188 799.692 204.84 798.351 210.884 794.373 213.184 789.263 214.004 794.978 216.218 795.966 219.167 802.697 221.736 801.653 223.977 804.453 224.52 800.081 227.768 805.058 227.553 804.128 230.919 807.963 230.088 809.316 234.684 803.975 233.254 801.78 235.743 794.013 234.549 797.418 238.126 795.722 241.657 792.77 243.448 801.944 244.049 798.081 247.475 799.962 250.52 793.701 251.588 794.048 254.965 785.379 254.542 784.749 253.648 786.47 265.318 785.728 265.439 780.768 261.915 779.776 265.439 774.817 266.253 770.353 263.27 774.32 261.644 769.857 260.559 773.328 257.306 766.384 256.222 771.344 252.697 766.88 251.882 762.417 249.985 759.936 251.882 753.984 251.882 751.504 247.275 748.032 251.882 742.577 251.612 738.608 248.359 735.137 246.732 730.177 247.275 728.689 244.291 722.241 245.919 723.729 249.985 714.801 251.341 717.281 248.088 712.32 246.732 715.297 242.935 710.833 242.665 707.857 238.056 701.409 242.665C701.409 244.382 701.409 246.099 701.409 247.816L698.432 246.19 693.969 247.545C693.969 248.449 693.969 249.353 693.969 250.257L688.513 253.51 695.457 255.679 691.984 260.016 696.945 260.016 698.432 263 703.889 263.27 700.913 268.422 704.88 273.573 695.457 271.947 692.976 275.2 697.44 276.826 696.945 280.622 692.976 280.622 691.488 284.417 686.53 282.52 687.025 287.129 682.561 286.586 680.55 286.916 680.55 289.933 681.073 290.382 680.55 290.763 676.558 294.811 669.171 294.084 672.881 289.356 667.19 288.717 670.04 283.201 678.017 281.869 675.726 277.868 669.652 277.514 673.455 274.138 666.52 272.997 667.377 267.814 674.95 266.494 667.683 260.477 665.452 263.258 658.06 261.315 655.686 267.903 648.766 261.06 645.898 266.307 637.937 261.938 636.268 266.211 629.37 258.756 617.895 261.367 629.911 263.888 622.893 268.778 630.89 268.311 628.299 274.021 625.655 276.811 630.828 277.424 628.494 280.716 632.77 281.286 643.053 283.115 632.258 286.124 631.565 289.25 628.768 291.79 633.787 292.153 631.888 294.736 633.404 295.781 638.743 293.12 639.823 294.873 634.573 298.389 625.151 298.667 621.004 296.889 626.715 294.123 622.813 293.45 625.302 290.41 618.883 291.317 616.394 294.359 613.442 296.648 607.652 295.034 613.826 293.021 607.239 288.693 613.567 286.93 610.6 284.235 613.243 281.445 605.337 282.768 603.833 278.198 599.339 277.983 594.914 285.672 590.755 287.418 585.965 283.178 589.314 282.243 592.703 279.245 594.974 276.559 598.17 275.374 594.985 273.034 596.229 271.514 594.135 267.403 588.924 268.854 585.585 266.263 581.645 267.655 580.119 270.134 575.688 269.315 577.807 266.377 571.798 265.117 567.702 266.258 571.5 261.091 571.05 256.815 566.301 259.02 565.301 261.645 559.793 259.072C559.827 258.182 559.859 257.293 559.893 256.402L554.31 257.958 549.919 255.074 546.207 252.588C546.314 254.415 546.423 256.244 546.531 258.072L549.343 260.517 549.55 263.688 543.913 262.323 541.477 268.284 537.536 269.675 540.939 271.662 535.574 272.864 534.355 275.844 524.071 274.015 524.188 276.33 519.568 277.325 527.591 278.317 524.421 280.96 527.515 282.446 531.892 280.346 531.381 285.183 525.707 285.883 528.11 290.496 523.797 291.992 529.806 293.252 534.272 292.008 536.649 295.16 540.435 293.518 545.365 293.024 541.63 297.586 544.724 299.072 539.577 299.919 536.328 298.183 531.9 297.363 532.542 299.825 529.193 300.76 532.223 302.849 527.91 304.345 522.273 302.981 524.762 299.939 520.86 299.266 523.258 295.37 517.867 295.112 515.134 297.046 511.666 295.666 512.577 292.184 508.392 292.47 505.35 293.905 503.101 289.543 500.459 292.333 497.183 289.138 494.206 289.967 491.675 286.565 494.101 284.128 490.389 281.64 484.242 285.114C484.258 283.251 484.274 281.388 484.29 279.525L479.128 275.389 483.069 273.997 482.491 270.931 486.212 269.893 481.141 266.611 485.118 263.156 479.174 261.289 477.633 258.786 473.511 258.467 472.202 260.592 469.274 255.833 461.815 252.923 462.202 257.804 459.005 258.987 463.397 261.871 460.446 264.162 464.156 266.648 456.685 267.264 455.49 263.195 449.725 263.04 450.304 266.107 446.274 266.643 444.594 268.872 443.466 272.708 439.525 274.099 434.298 270.568 435.057 275.345 432.077 276.176 431.8 273.197 428.654 274.379 423.367 273.729 420.332 276.536 420.919 279.232 416.968 280.44 419.257 284.441 415.288 285.378 417.176 289.39 417.911 294.253 412.642 293.873 413.724 297.911 409.149 295.881 408.621 299.968 400.719 302.384 399.29 299.171 392.87 299.641C392.93 298.554 392.99 297.466 393.05 296.378L387.652 294.104 395.938 291.405 392.241 290.432 388.818 287.553 390.15 283.441 383.494 286.361 380.144 284.565 375.883 287.139 374.764 282.56 378.788 282.435 376.171 279.531 380.944 278.569 375.161 276.576 377.502 275.418 375.361 273.584 380.335 269.632 379.728 266.664 383.934 263.278 378.72 263.71 373.797 262.506 369.402 257.213C369.373 258.751 369.344 260.291 369.315 261.829L365.712 262.213 361.997 260.971 358.028 261.907 353.762 258.511 353.198 262.057 349.229 262.993 345.404 260.127 348.512 258.402 344.815 257.43 347.411 254.093 341.702 253.185 345.486 249.539 341.809 248.839 338.056 247.055 336.174 249.013 331.345 249.162 329.018 244.62 326.515 249.312 322.07 249.177 318.628 246.026 315.7 244.49 311.711 245.155 310.3 242.213 305.179 244 306.665 248.026 299.513 249.603 301.303 246.291 297.186 245.062 299.342 241.196 295.7 241.036 292.972 236.507 288.054 241.272 288.405 246.418 285.879 244.868 282.349 246.335C282.411 247.237 282.472 248.14 282.534 249.042L278.328 252.43 284.111 254.422 281.59 258.843 285.615 258.717 287.026 261.66 291.471 261.793 289.408 267.014 292.979 272.061 285.222 270.672 283.43 273.984 287.163 275.498C287.116 276.766 287.069 278.034 287.02 279.302L283.801 279.401 282.851 283.23 278.697 281.458 279.414 286.051 275.754 285.62 271.786 286.558 274.807 289.449 272.54 291.691 268.843 290.72 264.125 292.494 268.755 295.336 265.647 297.061 269.819 299.103 265.577 301.948 260.728 301.826 262.154 299.069 258.532 299.181 257.56 296.768 254.067 298.776 252.222 301.275 247.026 301.979 248.891 299.75 242.631 296.687 247.406 295.725 251.869 296.129C251.925 294.952 251.978 293.774 252.032 292.596L256.862 292.447 261.507 289.589 256.659 289.468 255.923 284.605 250.344 285.592 246.828 281.359 252.116 282.009 253.98 279.78 249.442 278.292 256.08 275.101 251.269 275.522 249.913 273.392 241.758 277.987 238.775 275.636 233.158 276.081 234.985 273.311 230.54 273.177 224.573 268.476 220.33 271.321 218.517 268.391 219.522 265.375 216.353 260.317 214.561 263.629 212.405 267.495 206.369 267.682 208.146 270.069 204.782 273.973 202.22 271.882 196.529 271.243 198.818 275.244 205.517 278.835 201.09 278.972 196.445 281.83 200.215 283.885 196.723 285.893 193.775 284.084 189.33 283.95 187.942 287.249 182.308 287.425 183.005 291.745 185.091 292.766 183.685 295.794 187.327 295.954 191.078 297.737 196.037 299.483 199.659 299.373 197.999 304.58 193.131 304.189 184.274 298.492 180.341 299.97 181.863 304.537 173.868 305.598 178.022 307.369 177.037 310.656 183.879 310.445 180.645 316.244 187.506 316.304 183.282 319.419 179.165 318.19 174.992 316.148 168.609 317.16 172.781 319.202 169.672 320.927 176.588 321.798 173.956 324.593 165.248 327.033 158.278 325.351C158.234 324.718 158.191 324.086 158.148 323.453L164.661 324.338 165.373 322.959 162.025 321.162 166.341 319.402 162.205 317.901 159.606 315.267 151.297 315.524C151.251 314.953 151.205 314.381 151.158 313.81L156.09 311.033 159.601 309.295 155.41 306.983 159.708 304.95 155.554 303.179 149.906 298.973C149.898 298.875 149.889 298.778 149.881 298.68L157.141 296.887 149.545 294.939C149.529 294.759 149.513 294.58 149.497 294.401 149.466 294.073 149.435 293.744 149.403 293.416L156.988 288.75 149 289.356 148.962 288.994C148.822 287.743 148.723 287.074 148.67 287.067L142.436 285.672 145.604 283.667 144.916 280.512 149.499 278.463 148.941 277.21 142.534 273.277 148.101 271.833 149.856 269.872 138.591 270.856 137.839 266.749 133.365 270.383 129.85 267.313 129.162 264.157 124.575 259.215 119.993 261.263 119.289 264.78 114.664 266.195C114.714 266.934 114.765 267.674 114.815 268.414L110.726 270.765 110.087 275.233 106.079 271.862 100.078 266.964 104.812 267.134 106.48 263.905 103.372 259.872 108.36 256.857 107.244 254.35 101.633 255.158 97.5822 251.154 103.215 250.661 109.79 250.141 111.545 248.179 107.645 246.394 111.756 244.36 109.314 243.165 110.597 241.218 104.45 241.09 96.5916 243.558 96.31 239.437 91.0405 238.328 89.4103 235.201 96.435 234.348 93.3264 230.314 85.8741 231.815 92.9367 224.606 93.1913 221.421 84.8832 224.22 82.3808 229.064 78.0101 227.292 73.7047 226.472 73.9592 223.287 64.1725 225.178C64.2447 226.235 64.3167 227.292 64.3889 228.348L56.3139 227.644 53.7683 231.854 44.1713 229.608 50.0585 225.932 45.7098 224.477 40.4833 224.004 46.1542 217.156 38.9564 215.472 44.2641 210.224 41.1555 206.19 34.6023 207.027 30.0802 203.037 24.3443 208.933 17.2766 209.152 11.0612 201.255C13.839 250.009 14.4795 541.512 0 586.947L1574.7 591.804C1566.66 543.315 1580.92 48.4887 1572.88 0Z" fill="url(#fill9)" fill-rule="evenodd" transform="matrix(-1.00017 0 0 1 962.354 4067.29)"/></g></g></g></svg>