<svg width="1488" height="4998" xmlns="http://www.w3.org/2000/svg" xmlns:xlink="http://www.w3.org/1999/xlink" overflow="hidden"><defs><clipPath id="clip0"><rect x="1280" y="-394" width="1488" height="4998"/></clipPath><clipPath id="clip1"><rect x="1280" y="-394" width="1488" height="4997"/></clipPath><clipPath id="clip2"><rect x="1280" y="-394" width="1488" height="4997"/></clipPath><linearGradient x1="747.604" y1="0.141084" x2="747.604" y2="2842.53" gradientUnits="userSpaceOnUse" spreadMethod="reflect" id="fill3"><stop offset="0" stop-color="#C7D5ED" stop-opacity="1"/><stop offset="0.05" stop-color="#C7D5ED" stop-opacity="1"/><stop offset="1" stop-color="#7D759F" stop-opacity="1"/></linearGradient></defs><g clip-path="url(#clip0)" transform="translate(-1280 394)"><g clip-path="url(#clip1)"><g clip-path="url(#clip2)"><path d="M234.981 0.0548179 1725.43 0.0548179 1725.43 2920.12 234.981 2920.12Z" fill="#445C7F" fill-rule="evenodd" fill-opacity="1" transform="matrix(1 0 0 1.00026 1048.99 -394)"/><path d="M956.103 0.0548071 1723.71 0.0548071 1723.71 853.385 1722.22 854.771C1597.13 942.942 1237.74 833.868 1077.34 762.237 906.242 685.824 755.634 496.013 717.432 375.975 704.224 275.138 791.998 140.581 926.458 25.436Z" fill="#354862" fill-rule="evenodd" fill-opacity="1" transform="matrix(1 0 0 1.00026 1048.99 -394)"/><path d="M233.255 0.0547981 1104.4 0.0547981 1120.7 9.57346C1128.25 16.5265 1132.13 24.1862 1131.07 32.79 1126.87 67.2002 1069.8 135.935 961.143 166.177 852.479 196.417 630.258 190.799 479.102 214.243 403.534 225.965 318.467 245.731 241.735 264.258L233.255 266.299Z" fill="#8FAADC" fill-rule="evenodd" fill-opacity="0.309804" transform="matrix(1 0 0 1.00026 1048.99 -394)"/><path d="M22.088 0.5541C16.024-0.0656006 10.06-0.0775985 4.28591 0.561112L0.0043605 1.56584 0.0043605 508.842 1495.2 508.842 1495.2 23.9758 1482.34 22.1659C1447.81 22.1659 1417.36 38.45 1399.38 63.2178L1393.58 73.1616 1372.88 62.8864C1354.08 55.6149 1333.41 51.5941 1311.72 51.5941 1290.02 51.5941 1269.35 55.6149 1250.55 62.8864L1237.85 69.1926 1217.83 60.5394C1210.58 58.4746 1203.08 57.3898 1195.39 57.3898 1172.33 57.3898 1150.91 67.1506 1133.14 83.8658L1117.05 102.345 1109.35 100.121C1098.51 98.0562 1087.28 96.9713 1075.78 96.9713 1029.78 96.9713 988.139 114.323 957.998 142.377L948.323 153.29 939.425 148.417C923.114 141.453 905.18 137.602 886.353 137.602 839.292 137.602 797.798 161.668 773.296 198.271L767.907 208.293 752.182 190.052C734.581 173.337 713.363 163.577 690.523 163.577 682.911 163.577 675.481 164.661 668.3 166.727L663.152 168.972 658.25 164.078C637.801 147.363 613.144 137.602 586.61 137.602 560.072 137.602 535.419 147.363 514.97 164.078L514.198 164.848 509.572 158.065C486.382 130.011 454.351 112.659 418.966 112.659 392.428 112.659 367.775 122.419 347.323 139.135L345.439 141.017 336.058 122.49C312.422 84.6179 271.924 56.815 224.005 47.7803L200.797 45.6245 197.781 42.924C158.54 11.7704 116.232-2.54081 85.6225 8.90094L70.4763 17.8566 63.5009 13.485C49.8788 6.4209 35.731 1.94885 22.088 0.5541Z" fill="#576E90" fill-rule="evenodd" fill-opacity="1" transform="matrix(-1 1.22497e-16 1.22465e-16 1.00026 2774.62 493.857)"/><path d="M1725.43 999.013 1725.43 1630.32 230.235 1630.32 230.235 1044.78 237.614 1046.79C243.798 1049.31 249.983 1052.65 256.054 1056.74L262.254 1061.8 275.753 1051.43C303.008 1038.18 340.696 1054.75 375.654 1090.82L378.334 1093.95 399.002 1096.44C441.677 1106.91 477.752 1139.1 498.805 1182.95L507.155 1204.41 508.834 1202.23C527.048 1182.87 549.008 1171.57 572.646 1171.57 604.164 1171.57 632.696 1191.66 653.348 1224.15L657.465 1232 658.159 1231.11C676.374 1211.75 698.333 1200.45 721.955 1200.45 745.593 1200.45 767.553 1211.75 785.767 1231.11L790.143 1236.78 794.73 1234.18C801.125 1231.79 807.744 1230.53 814.51 1230.53 834.852 1230.53 853.761 1241.83 869.425 1261.19L883.44 1282.31 888.235 1270.7C910.065 1228.32 947.011 1200.45 988.929 1200.45 1005.71 1200.45 1021.67 1204.91 1036.21 1212.98L1044.13 1218.62 1052.74 1205.98C1079.59 1173.5 1116.68 1153.4 1157.65 1153.4 1167.9 1153.4 1177.89 1154.66 1187.55 1157.06L1194.41 1159.63 1208.73 1138.23C1224.56 1118.88 1243.64 1107.57 1264.18 1107.57 1271.03 1107.57 1277.72 1108.83 1284.17 1111.22L1302 1121.24 1313.32 1113.94C1330.06 1105.52 1348.47 1100.86 1367.8 1100.86 1387.11 1100.86 1405.53 1105.52 1422.28 1113.94L1440.7 1125.84 1445.87 1114.32C1461.89 1085.64 1488.99 1066.79 1519.76 1066.79L1541.66 1070.8 1550.45 1057.67C1559.94 1046.05 1571.41 1039.26 1583.75 1039.26 1587.86 1039.26 1591.87 1040.02 1595.74 1041.45L1603.83 1045.99 1613.5 1037.89C1632.17 1026.26 1654.7 1019.48 1678.92 1019.48 1687 1019.48 1694.88 1020.23 1702.51 1021.67L1708.77 1023.46Z" fill="#8195B2" fill-rule="evenodd" fill-opacity="1" transform="matrix(1 0 0 1.00026 1048.99 -394)"/><path d="M1636.81 1273.62C1658.17 1274.78 1682.43 1282.25 1704.56 1295.77L1725.43 1312.34 1725.43 1646.72 230.235 1646.72 230.235 1312.8 237.404 1303.82C255.424 1287.21 282.712 1276.62 313.246 1276.62 333.607 1276.62 352.531 1281.33 368.21 1289.39L376.816 1294.79 383.13 1291.86C386.391 1290.86 389.766 1290.34 393.221 1290.34 403.571 1290.34 413.211 1295.05 421.187 1303.1L428.421 1312.01 431.877 1310.94C436.754 1309.94 441.807 1309.42 446.976 1309.42 472.811 1309.42 495.591 1322.49 509.041 1342.37L513.386 1350.35 528.869 1342.11C542.936 1336.27 558.402 1333.04 574.648 1333.04 590.873 1333.04 606.343 1336.27 620.406 1342.11L629.917 1347.16 644.903 1340.22C650.31 1338.56 655.929 1337.69 661.681 1337.69 678.941 1337.69 694.972 1345.53 708.263 1358.94L720.306 1373.78 726.071 1371.99C734.18 1370.33 742.577 1369.46 751.181 1369.46 776.999 1369.46 800.978 1377.3 820.871 1390.71L832.914 1400.63 838.438 1395.36C855.651 1381.95 876.398 1374.12 898.729 1374.12 935.952 1374.12 968.76 1395.88 988.135 1428.97L994.741 1443.02 1007.34 1432.7C1017.22 1426.4 1028.07 1422.92 1039.47 1422.92 1045.15 1422.92 1050.72 1423.79 1056.08 1425.45L1059.94 1427.25 1063.61 1423.33C1078.91 1409.91 1097.36 1402.07 1117.21 1402.07 1137.08 1402.07 1155.52 1409.91 1170.82 1423.33L1171.4 1423.94 1174.86 1418.5C1192.22 1395.98 1216.18 1382.06 1242.66 1382.06 1249.28 1382.06 1255.74 1382.92 1261.99 1384.58L1266.41 1386.37 1275.68 1371.54C1285.9 1358.12 1298.24 1350.28 1311.51 1350.28 1315.93 1350.28 1320.25 1351.16 1324.43 1352.81L1332.5 1357.68 1343.53 1348.7C1358.59 1338.64 1375.98 1331.72 1394.75 1328.88L1406.13 1328.03 1408.16 1326.08C1431.66 1306.08 1456.62 1294.73 1477.39 1295.68 1482.57 1295.93 1487.51 1296.94 1492.1 1298.77 1494.95 1299.92 1497.59 1301.36 1500.01 1303.06L1503.27 1305.97 1512.05 1300.64C1521.18 1296.02 1530.56 1293.07 1539.63 1292.07 1548.71 1291.08 1557.48 1292.04 1565.42 1295.22 1569.39 1296.81 1572.96 1298.88 1576.13 1301.37L1579.89 1305.31 1586.51 1289.35C1596.98 1277.61 1615.44 1272.46 1636.81 1273.62Z" fill="#A9B9D5" fill-rule="evenodd" fill-opacity="1" transform="matrix(1 0 0 1.00026 1048.99 -394)"/><path d="M97.0464 0.141084C61.3506 0.141084 29.4556 10.7174 8.38058 27.3108L0.0043605 36.2809 0.0043605 320.86 0.0043605 369.868 0.0043605 2842.53 1495.2 2842.53 1495.2 369.868 1495.2 320.86 1495.2 25.764 1488.08 29.4578 1484.27 26.5517C1481.45 24.85 1478.36 23.4145 1475.01 22.2679 1469.66 20.4327 1463.89 19.4243 1457.83 19.1837 1433.54 18.2235 1404.37 29.5649 1376.91 49.5496L1374.53 51.4991 1361.22 52.3505C1339.3 55.1795 1318.97 62.095 1301.35 72.1476L1288.47 81.1222 1279.02 76.2534C1274.15 74.5981 1269.09 73.7282 1263.92 73.7282 1248.41 73.7282 1233.99 81.555 1222.04 94.9579L1211.21 109.776 1206.04 107.993C1198.74 106.337 1191.18 105.467 1183.45 105.467 1152.5 105.467 1124.48 119.381 1104.2 141.876L1100.15 147.315 1099.48 146.698C1081.59 133.295 1060.03 125.468 1036.81 125.468 1013.6 125.468 992.04 133.295 974.154 146.698L969.864 150.622 965.364 148.821C959.085 147.166 952.582 146.296 945.924 146.296 932.607 146.296 919.921 149.775 908.382 156.064L893.654 166.367 885.939 152.341C863.289 119.275 824.931 97.5353 781.422 97.5353 755.319 97.5353 731.068 105.362 710.951 118.765L704.487 124.026 690.415 114.118C667.161 100.714 639.13 92.8879 608.954 92.8879 598.895 92.8879 589.074 93.757 579.589 95.4127L572.858 97.1974 558.786 82.3784C543.243 68.9755 524.506 61.1495 504.337 61.1495 497.614 61.1495 491.051 62.0186 484.712 63.6743L467.201 70.6122 456.085 65.5562C439.645 59.7255 421.565 56.5008 402.589 56.5008 383.612 56.5008 365.534 59.7255 349.09 65.5562L330.983 73.7955 325.911 65.822C310.185 45.9619 283.555 32.9042 253.348 32.9042 247.308 32.9042 241.41 33.427 235.713 34.4214L231.668 35.4928 223.217 26.5925C213.881 18.5423 202.628 13.8414 190.513 13.8414 186.475 13.8414 182.533 14.364 178.726 15.3584L171.345 18.2824 161.292 12.8922C142.952 4.84203 120.844 0.141084 97.0464 0.141084Z" fill="url(#fill3)" fill-rule="evenodd" transform="matrix(-1 1.22497e-16 1.22465e-16 1.00026 2774.62 1068.78)"/><path d="M791.467 3088.07C953.937 3092.4 1159.02 3257.62 1328.72 3256.9 1455.99 3256.36 1601.94 3173.02 1712.68 3121.05L1725.43 3115.46 1725.43 4264.52 1640.31 4278.65C1302.11 4324.56 821.13 4295.01 316.346 4252.89L230.235 4245.46 230.235 3195.17 282.308 3221.56C303.219 3228.18 326.777 3231.65 353.855 3230.92 462.183 3228.03 628.98 3083.74 791.467 3088.07Z" fill="#7030A0" fill-rule="evenodd" fill-opacity="0.0392157" transform="matrix(1 0 0 1.00026 1048.99 -394)"/><path d="M561.233 0.367361C723.711 2.40016 928.793 79.9899 1098.49 79.6512 1225.76 79.397 1371.72 40.2634 1482.44 15.8526L1495.2 13.2278 1495.2 552.835 1410.07 559.468C1071.89 581.031 590.904 567.153 86.1226 547.368L0.00467197 543.881 0.00467197 50.6607 52.0735 63.0547C72.9929 66.162 96.5519 67.7927 123.631 67.454 231.95 66.0986 398.758-1.66559 561.233 0.367361Z" fill="#4472C4" fill-rule="evenodd" fill-opacity="0.109804" transform="matrix(-1 1.22497e-16 1.22465e-16 1.00026 2777.64 2948.09)"/><path d="M491.806 23.5518C608.25 6.82333 677.129-10.3503 858.227 72.8652 949.523 135.27 1092.71 160.509 1219.18 89.9562 1322.21 32.4837 1421.51 115.722 1536.25 49.1396L1562.95 0.355918 1549.48 1513.8 1461.26 1531.89C1110.8 1590.69 612.354 1552.84 89.245 1498.88L0.00109008 1489.37 0.00109008 144.081 159.545 173.235C271.796 169.538 375.357 40.2802 491.806 23.5518Z" fill="#7D759F" fill-rule="evenodd" fill-opacity="1" transform="matrix(-1 1.22497e-16 1.22465e-16 1.00026 2808.28 3295.12)"/><path d="M1192.01 33.0952 1148.52 63.349 1128.76 52.0036 1105.04 67.1308 1089.03 83.2543 1085.28 78.4757 1006.22 86.0393 986.447 52.0036 935.058 63.349 903.433 40.6585 883.665 89.8207 848.091 70.9121 828.323 93.6029 776.934 101.166 765.076 131.42 713.683 131.42 693.919 146.547 638.577 142.765 571.373 142.765 531.842 165.455 519.98 207.054 464.638 207.054 480.453 154.11 444.875 146.547 456.733 97.3847 421.155 93.6029 417.201 48.2218 381.623 74.6939 330.232 63.349 326.279 93.6029 282.795 97.3847 278.842 59.5672 243.265 63.349 195.828 48.2218 191.875 82.2575 148.391 59.5672 116.766 74.6939 69.328 82.2575 53.516 52.0036 0.00109007 44.6903 0.00109007 754.974 89.2714 764.485C612.535 818.459 1111.12 856.311 1461.68 797.496L1549.93 779.402 1556.47 44.6191 1520.11 63.349 1488.49 48.2218 1441.05 101.166 1413.38 89.8207 1393.62 112.511 1358.04 97.3847 1338.27 67.1308 1306.65 82.2575 1275.02 40.6585 1239.44 52.0036ZM0.00109007 0.408956 0.00109007 39.6308 13.9851 2.84119Z" fill="#666189" fill-rule="evenodd" fill-opacity="1" transform="matrix(-1 1.22497e-16 1.22465e-16 1.00026 2801.81 3844.15)"/><path d="M1553.63 0.424066 1503.01 20.7264 1458.02 46.1044 1390.52 46.1044 1317.4 86.7095 1283.65 56.2557 1176.79 66.4067 1137.42 86.7095 1081.17 61.3312 1053.05 20.7264 968.682 25.8021 923.684 46.1044 929.306 91.7845 844.941 41.029 805.569 81.6336 726.822 81.6336 670.578 71.4826 603.085 122.239 518.715 132.39 501.843 162.843 451.222 188.221 434.346 218.676 327.48 223.751 254.362 213.599 158.744 213.599 119.372 228.826 91.249 203.449 51.8772 213.599 6.88063 188.221 0.0012457 542.073 0.0012457 598.386 89.2299 607.897C612.246 661.836 1110.61 699.671 1461 640.89L1549.21 622.805 1554.75 0.625192Z" fill="#5A5577" fill-rule="evenodd" fill-opacity="1" transform="matrix(-1 1.22497e-16 1.22465e-16 1.00026 2801.81 4000.83)"/><path d="M1562.14 0.427446 1557.77 8.80114 1550.78 9.29008 1543.85 4.07024 1540.29 8.4394 1533.67 8.26869 1531.5 12.54 1537.87 17.1654 1531.17 19.5355 1538.24 25.696 1533.22 26.6814 1529.26 28.5426 1535.85 31.5678 1526.92 34.7276 1523.5 30.8473 1515.72 32.342 1515.23 29.2067 1505.21 28.3234 1506.16 31.4262 1502.11 32.6601 1498.21 34.8346 1494.69 30.327 1485.91 28.4055 1486.86 31.5081 1495.38 37.8844 1487.73 37.1518 1485.57 41.4233 1492.65 41.5615 1491.74 44.7947 1486.81 46.4073 1487.44 50.4829 1479.18 48.8423 1473.17 49.5793 1474.86 51.3628 1472.72 52.7799 1477.21 54.3679 1473.77 56.5099 1475.92 58.2606 1482.5 58.1182 1488.14 58.0405 1485.04 62.3768 1479.35 62.1412 1478.8 64.7143 1484.36 67.1774 1482.2 71.4494 1484.55 74.454 1489.16 73.8145 1484.34 79.2223 1481.14 82.932 1479.54 78.6073 1475 76.7061 1474.66 74.5114 1469.81 73.5832 1468.35 70.1997 1463.4 68.6445 1459.98 73.9539 1460 77.1221 1457.22 80.4853 1452.03 77.3624C1452.08 78.7321 1452.13 80.1013 1452.19 81.4709L1440.91 81.6258 1443.07 83.3769 1448.85 84.2399 1443.42 88.7393 1443.15 90.0261 1448.1 91.5817 1448.12 94.7495 1451.67 96.4022 1445.86 98.3936C1445.8 98.4057 1445.86 99.0737 1445.99 100.315 1446.01 100.435 1446.02 100.555 1446.03 100.675L1438.05 100.874 1446.53 104.701C1446.57 105.027 1446.61 105.353 1446.65 105.678L1446.73 106.211 1439.69 108.88 1447.22 109.919 1447.26 110.208 1442.64 114.901 1438.95 117.054 1443.61 118.622 1440 121.311 1443.84 122.667 1449.29 124.905 1449.53 126.6 1441.32 127.175 1439.34 130.02 1435.61 131.905 1440.23 133.206 1437.34 135.303 1438.34 136.586 1444.54 135.07 1444.83 136.944 1438.36 139.292 1429.27 137.762 1426.07 135.279 1432.67 133.735 1429.24 132.35 1432.89 129.93 1426.4 129.571 1422.75 131.992 1418.97 133.61 1414.14 130.97 1420.87 130.229 1416.41 124.855 1423.18 124.382 1421.49 121.252 1425.18 119.099 1417.1 118.853 1417.59 114.216 1413.4 113.156 1405.95 119.632 1401.26 120.501 1398.48 115.552 1402.07 115.302 1406.55 113.093 1409.85 110.968 1413.38 110.45 1411.34 107.615 1413.16 106.405C1413.08 104.967 1412.99 103.529 1412.9 102.092L1407.33 102.482 1405.24 99.3792 1400.9 99.9531 1398.41 102.023 1394.54 100.399 1397.78 98.0057 1392.59 95.6617 1388.22 95.9681 1394 91.7733 1395.38 87.6169 1389.93 88.8101 1387.87 91.1196 1383.71 87.6208 1384.93 85.0991 1378.96 85.5168 1375.99 81.9348 1373.5 78.8598 1371.51 84.1432 1373.15 87.0055 1372.02 90.0628 1367.22 87.6907 1362.4 92.9013 1358.06 93.4752 1360.47 96.0138 1354.85 96.1359 1352.44 98.741 1343.42 95.0407 1342.56 97.2669 1337.74 97.3329 1344.96 99.8055 1340.83 101.718 1343.15 103.722 1348.2 102.557 1345.68 107.064 1339.98 106.651 1340.33 111.499 1335.59 112.101 1340.79 114.445 1345.56 114.111 1346.49 117.565 1350.79 116.723 1355.69 117.192 1350.22 120.823 1352.54 122.826 1347.28 122.653 1344.92 120.382 1341.05 118.758 1340.63 121.223 1337.04 121.474 1339.05 124.041 1334.31 124.642 1329.52 122.271 1333.17 119.85 1329.74 118.466 1333.66 115.214 1328.63 113.941 1325.22 115.262 1322.5 113.287 1324.83 110.146 1320.73 109.621 1317.23 110.407 1316.92 105.827 1313.23 107.98 1311.46 104.314 1308.28 104.537 1307.3 100.815 1310.63 98.958 1308.15 95.8835 1300.83 98.019 1303.23 92.7084 1300.06 87.787 1304.39 87.213 1305.13 84.1834 1309.11 83.9051 1305.66 79.8152 1310.9 77.283 1306.03 74.3755 1305.62 71.6975 1301.83 70.6088 1299.69 72.3827 1298.9 67.2943 1293.03 63.1034 1291.34 67.8229 1287.8 68.3416 1290.76 71.924 1286.99 73.5409 1289.48 76.6159 1282.11 75.7779 1282.68 71.6772 1277.26 70.4319 1276.52 73.4615 1272.46 73.2044 1269.92 75.0064 1267.23 78.4425 1262.9 79.0164 1259.41 74.6586 1258.12 79.3504 1253.34 79.6844 1251.07 77.9489 1247.77 80.0745 1244.31 81.1283 1248.83 84.3314 1243.43 85.7925 1246.71 88.8114 1243.29 90.1327 1246.72 91.517 1243.6 94.7136 1239.49 94.1885 1238.16 90.7627 1234.72 94.5225 1230.61 93.9973 1227.24 95.587 1223.61 95.5698 1222.51 91.0449 1219.36 96.6792 1214.79 98.3522 1209.58 98.4463 1214.45 101.354 1214.51 104.328 1220.26 107.715 1218.56 109.729 1221.11 110.633 1215.87 113.165 1220.77 113.635 1218.84 116.748 1222.82 116.469C1222.79 118.006 1222.76 119.542 1222.73 121.077L1217.98 118.973 1215.08 121.071 1207.9 118.866 1210.11 122.772 1207.38 125.941 1203.97 127.262 1212.7 129.088 1207.9 131.86 1208.79 135.046 1202.38 135.223 1201.68 138.521 1193.39 136.935 1191.98 132.973 1187.93 135.422C1187.99 134.065 1188.05 132.707 1188.11 131.349L1183.02 132.247 1182.67 127.399 1183.64 123.27 1179.54 122.745 1180.91 118.589 1176.76 117.796 1176.75 115.09 1173.15 112.634 1168.09 113.8 1164.74 112.951 1165.13 115.904 1162.02 115.385 1161.72 110.618 1157.36 114.607 1153.18 113.633 1151.23 109.978 1149.09 107.956 1145.01 107.831C1144.98 106.808 1144.94 105.785 1144.91 104.762L1139.28 105.487 1139 109.602 1131.53 109.742 1134.63 106.93 1131.22 104.975 1134.91 101.705 1131.51 100.86 1130.81 96.0289 1124.13 99.629 1122.3 104.594 1120.55 102.637 1116.57 103.36 1115.6 105.974 1110.18 108.397 1114.84 111.395 1110.58 115.123 1114.46 115.771C1114.5 116.793 1114.53 117.817 1114.57 118.84L1118.75 119.814 1114.59 124.39 1115.86 129.874 1109.06 127.075 1105.96 129.886 1108.88 132.038 1107.14 135.632 1104.04 135.113 1101.52 138.578 1098.31 136.1 1097.07 140.607 1093.76 139.501 1089.59 139.637 1091.25 142.965 1088.15 144.667 1085.04 143.038 1079.8 143.829 1083.01 147.416 1079.33 148.466 1082.44 151.205 1077.2 153.105 1072.64 152.066 1075.15 149.712 1071.66 149.128C1071.69 148.301 1071.72 147.474 1071.75 146.646L1067.58 147.892 1064.77 149.92 1059.53 149.6 1062.24 147.834 1057.57 143.726 1062.52 143.719 1066.6 144.955 1068.25 141.623 1072.9 142.401 1078.53 140.565 1073.96 139.526 1075.31 134.757 1069.58 134.634 1068.02 129.934 1072.78 131.56 1075.49 129.794 1071.8 127.513 1079.46 125.74 1074.7 125.223 1074.31 122.939 1064.61 125.759 1062.76 122.953 1057.22 122.306 1060.13 120.017 1055.95 119.043 1052.25 113.431 1047.01 115.332 1046.52 112.198 1048.75 109.518 1047.86 104.099 1044.76 106.911 1041.08 110.18 1035.26 109.208 1035.94 111.819 1031.1 114.894 1029.54 112.415 1024.39 110.723 1024.89 114.967 1029.75 119.663 1025.48 118.95 1019.86 120.786 1022.58 123.46 1018.41 124.706 1016.37 122.423 1012.19 121.448 1009.48 124.325 1004.04 123.418 1002.89 127.663 1004.45 129.033 1001.84 131.648 1005.23 132.493 1008.05 134.906 1012.04 137.513 1015.54 138.096 1011.76 142.737 1007.29 141.437 1001.26 134.326 996.894 134.985 996.42 139.622 988.363 139.11 991.574 141.587 989.252 144.529 995.854 145.63 990.335 150.535 996.843 151.898 991.513 154.06 988.109 152.106 984.997 149.366 978.495 149.113 981.606 151.852 977.921 152.902 984.139 155.048 980.454 157.208 971.142 157.873 965.213 154.942 965.886 153.112 971.716 155.195 972.976 154.018 970.542 151.67 975.392 150.815 972.087 148.599 970.719 145.597 959.456 143.717 969.152 140.897 973.226 139.912 970.209 136.912 975.155 135.796 971.948 133.318 968.147 127.968 976.104 127.631 968.134 123.527 979.383 119.856 967.538 118.434 962.403 126.44 959.827 122.411 952.966 127.493 948.996 122.627 943.706 130.036 939.926 123.803 933.095 126.446 930.29 123.935 924.478 130.568 932.206 131.111 934.182 136.115 927.623 137.928 932.102 140.863 926.217 141.816 924.844 145.972 932.97 146.487 936.983 151.621 931.533 152.814 936.215 157.088 924.128 159.558 930.005 163.748 928.551 167.37 918.411 169.432 921.297 172.479 925.854 175.95 917.513 179.241 925.776 183.264 930.743 181.562 933.233 183.528 931.727 186.351 927.662 187.517 930.804 189.694 925.349 190.59 923.796 193.498 913.815 191.089C913.767 191.862 913.716 192.634 913.664 193.407L908.969 194.139 916.805 195.582 913.362 198.043 916.257 199.701 920.836 197.853 919.77 202.654 914.065 203.032 915.916 207.774 911.467 209.024 917.276 210.622 921.845 209.631 923.839 212.914 927.783 211.488 932.724 211.275 928.495 215.618 931.39 217.276 926.191 217.832 923.174 215.915 918.876 214.846 919.23 217.341 915.8 218.084 918.566 220.341 914.117 221.591 908.688 219.91 911.506 217.013 907.718 216.12 910.544 212.366 905.228 211.803 902.298 213.58 899.022 212.006 900.326 208.582 896.144 208.63 892.964 209.889 891.238 205.407 888.299 208.044 885.421 204.668 882.375 205.328 880.26 201.787 882.944 199.491 879.553 196.798 873.058 199.917 873.753 194.341 869.114 189.918 873.179 188.751 872.959 185.655 876.769 184.83 872.122 181.267 876.463 178.041 870.788 175.842 869.55 173.254 865.502 172.703 863.962 174.75 861.606 169.832 854.551 166.504C854.49 168.137 854.43 169.769 854.369 171.4L851.064 172.403 855.086 175.53 851.897 177.65 855.284 180.343 847.81 180.535 847.094 176.405 841.402 175.924C841.476 176.956 841.549 177.988 841.622 179.02L837.566 179.326 835.642 181.458 834.08 185.223 830.015 186.39 825.242 182.567 825.441 187.38 820.875 188.371 818.101 186.972 815.542 189.526 812.487 191.045 817.902 193.585 813.065 195.776 817.22 198.304 814.286 200.082 818.075 200.975 816.008 204.564 811.831 204.613 809.457 201.414 807.261 205.604 803.079 205.653 800.27 207.689 796.719 208.173 794.233 203.855 792.9 209.857 788.947 212.142 783.873 212.956 789.547 215.155 790.531 218.084 797.215 220.635 796.18 222.86 798.958 223.399 794.617 226.625 799.558 226.412 798.635 229.754 802.445 228.929 803.787 233.494 798.484 232.073 796.305 234.545 788.594 233.36 791.972 236.912 790.289 240.419 787.355 242.196 796.469 242.794 792.633 246.196 794.501 249.22 788.283 250.281 788.624 253.635 780.015 253.215 779.389 252.327 781.098 263.916 780.365 264.036 775.437 260.537 774.453 264.036 769.525 264.845 765.093 261.882 769.033 260.267 764.601 259.19 768.049 255.96 761.149 254.882 766.077 251.382 761.641 250.573 757.209 248.689 754.745 250.573 748.834 250.573 746.374 245.997 742.922 250.573 737.506 250.305 733.567 247.074 730.119 245.458 725.191 245.997 723.715 243.034 717.307 244.651 718.787 248.689 709.92 250.036 712.384 246.805 707.456 245.458 710.412 241.688 705.98 241.42 703.024 236.842 696.62 241.42C696.62 243.125 696.62 244.83 696.62 246.535L693.665 244.921 689.229 246.265C689.229 247.163 689.229 248.061 689.229 248.959L683.813 252.189 690.709 254.343 687.261 258.651 692.184 258.651 693.665 261.614 699.08 261.882 696.128 266.999 700.068 272.114 690.709 270.499 688.245 273.73 692.676 275.344 692.184 279.115 688.245 279.115 686.765 282.883 681.841 280.999 682.333 285.577 677.901 285.037 675.903 285.365 675.903 288.362 676.421 288.807 675.903 289.185 671.938 293.206 664.602 292.484 668.287 287.789 662.634 287.154 665.465 281.676 673.388 280.354 671.114 276.38 665.081 276.028 668.857 272.676 661.97 271.542 662.82 266.395 670.341 265.084 663.122 259.108 660.908 261.87 653.568 259.941 651.208 266.484 644.338 259.688 641.486 264.898 633.58 260.56 631.923 264.803 625.071 257.4 613.675 259.993 625.61 262.496 618.641 267.352 626.581 266.889 624.009 272.559 621.381 275.33 626.521 275.939 624.204 279.209 628.45 279.774 638.664 281.59 627.94 284.579 627.254 287.684 624.475 290.206 629.459 290.566 627.574 293.132 629.08 294.17 634.383 291.526 635.453 293.267 630.24 296.76 620.881 297.035 616.764 295.269 622.434 292.523 618.559 291.854 621.032 288.835 614.659 289.736 612.186 292.757 609.252 295.03 603.504 293.427 609.636 291.428 603.094 287.13 609.377 285.379 606.43 282.703 609.057 279.932 601.204 281.246 599.711 276.707 595.249 276.494 590.852 284.13 586.722 285.864 581.963 281.653 585.29 280.725 588.655 277.747 590.912 275.08 594.084 273.903 590.921 271.579 592.159 270.07 590.079 265.986 584.901 267.428 581.587 264.854 577.673 266.237 576.159 268.699 571.757 267.885 573.863 264.967 567.895 263.716 563.826 264.85 567.597 259.718 567.149 255.472 562.432 257.661 561.44 260.269 555.968 257.713C556.003 256.83 556.037 255.947 556.072 255.062L550.527 256.607 546.164 253.742 542.479 251.274C542.583 253.089 542.69 254.905 542.798 256.72L545.59 259.148 545.797 262.297 540.201 260.942 537.78 266.861 533.866 268.243 537.245 270.217 531.916 271.41 530.707 274.37 520.493 272.553 520.61 274.852 516.018 275.84 523.989 276.825 520.839 279.451 523.911 280.927 528.261 278.841 527.751 283.644 522.116 284.34 524.502 288.92 520.221 290.406 526.189 291.658 530.625 290.422 532.986 293.553 536.744 291.922 541.642 291.431 537.931 295.962 541.003 297.438 535.894 298.279 532.666 296.554 528.269 295.74 528.904 298.185 525.581 299.114 528.589 301.188 524.304 302.674 518.707 301.319 521.179 298.298 517.304 297.63 519.686 293.761 514.331 293.504 511.617 295.426 508.174 294.055 509.075 290.596 504.92 290.881 501.899 292.306 499.664 287.974 497.04 290.745 493.787 287.572 490.831 288.396 488.32 285.016 490.727 282.596 487.042 280.126 480.936 283.576C480.949 281.726 480.967 279.875 480.984 278.025L475.857 273.917 479.771 272.535 479.197 269.49 482.891 268.46 477.855 265.2 481.804 261.769 475.901 259.915 474.373 257.429 470.278 257.113 468.979 259.223 466.071 254.497 458.662 251.606 459.046 256.454 455.87 257.629 460.232 260.493 457.302 262.768 460.987 265.237 453.565 265.849 452.379 261.808 446.652 261.654 447.231 264.699 443.226 265.232 441.556 267.446 440.439 271.255 436.525 272.637 431.332 269.13 432.085 273.874 429.126 274.699 428.852 271.741 425.727 272.915 420.476 272.269 417.462 275.057 418.045 277.734 414.121 278.934 416.395 282.908 412.453 283.838 414.328 287.823 415.057 292.652 409.824 292.274 410.899 296.285 406.355 294.268 405.831 298.327 397.983 300.727 396.564 297.536 390.187 298.003C390.247 296.923 390.307 295.842 390.367 294.762L385.006 292.503 393.234 289.823 389.563 288.857 386.164 285.998 387.486 281.915 380.875 284.815 377.549 283.03 373.316 285.586 372.206 281.04 376.202 280.915 373.603 278.032 378.343 277.076 372.6 275.096 374.925 273.946 372.798 272.125 377.738 268.2 377.135 265.254 381.313 261.89 376.134 262.32 371.245 261.123 366.88 255.868C366.851 257.395 366.822 258.924 366.793 260.451L363.215 260.832 359.525 259.599 355.584 260.529 351.347 257.156 350.786 260.677 346.845 261.608 343.045 258.761 346.133 257.048 342.461 256.082 345.039 252.769 339.368 251.867 343.128 248.246 339.475 247.551 335.748 245.779 333.879 247.723 329.083 247.872 326.772 243.361 324.285 248.021 319.871 247.886 316.452 244.757 313.544 243.232 309.583 243.892 308.181 240.971 303.095 242.745 304.571 246.743 297.468 248.309 299.246 245.021 295.157 243.8 297.298 239.96 293.681 239.802 290.972 235.304 286.087 240.036 286.436 245.146 283.927 243.607 280.421 245.064C280.483 245.96 280.544 246.856 280.605 247.753L276.428 251.117 282.171 253.095 279.667 257.485 283.665 257.361 285.067 260.283 289.481 260.416 287.432 265.6 290.978 270.612 283.274 269.233 281.495 272.522 285.202 274.026C285.155 275.285 285.109 276.545 285.06 277.804L281.863 277.902 280.92 281.705 276.794 279.945 277.506 284.506 273.872 284.078 269.93 285.01 272.931 287.881 270.679 290.107 267.008 289.143 262.322 290.905 266.92 293.727 263.833 295.44 267.976 297.468 263.763 300.294 258.949 300.173 260.364 297.434 256.767 297.546 255.802 295.15 252.333 297.144 250.5 299.625 245.34 300.324 247.192 298.111 240.975 295.069 245.718 294.113 250.15 294.515C250.205 293.346 250.258 292.176 250.311 291.007L255.109 290.858 259.722 288.019 254.907 287.9 254.175 283.071 248.635 284.051 245.142 279.846 250.395 280.492 252.246 278.278 247.739 276.801 254.332 273.632 249.554 274.05 248.207 271.935 240.108 276.497 237.145 274.163 231.566 274.605 233.381 271.854 228.966 271.721 223.04 267.052 218.826 269.878 217.025 266.968 218.023 263.973 214.876 258.95 213.097 262.239 210.956 266.079 204.96 266.264 206.725 268.634 203.384 272.511 200.839 270.435 195.188 269.8 197.461 273.774 204.114 277.34 199.717 277.476 195.103 280.315 198.848 282.355 195.38 284.349 192.452 282.553 188.037 282.42 186.659 285.696 181.064 285.87 181.756 290.161 183.828 291.175 182.431 294.183 186.049 294.341 189.773 296.112 194.698 297.846 198.296 297.736 196.647 302.908 191.813 302.519 183.016 296.861 179.11 298.329 180.621 302.864 172.681 303.919 176.807 305.677 175.829 308.942 182.623 308.732 179.412 314.491 186.226 314.551 182.031 317.645 177.942 316.424 173.797 314.396 167.458 315.4 171.601 317.428 168.514 319.142 175.383 320.007 172.769 322.782 164.12 325.206 157.197 323.535C157.154 322.906 157.112 322.279 157.068 321.65L163.537 322.529 164.244 321.16 160.919 319.375 165.205 317.627 161.098 316.136 158.516 313.521 150.264 313.776C150.219 313.209 150.172 312.641 150.127 312.074L155.024 309.316 158.512 307.59 154.349 305.294 158.618 303.274 154.492 301.516 148.883 297.339C148.874 297.242 148.866 297.145 148.858 297.048L156.068 295.268 148.525 293.333C148.509 293.154 148.492 292.976 148.477 292.799 148.445 292.473 148.415 292.146 148.384 291.82L155.917 287.187 147.983 287.789 147.946 287.429C147.806 286.187 147.708 285.522 147.655 285.515L141.464 284.13 144.611 282.139 143.927 279.005 148.478 276.971 147.924 275.726 141.561 271.82 147.09 270.386 148.833 268.439 137.645 269.416 136.898 265.337 132.455 268.946 128.963 265.898 128.281 262.764 123.725 257.855 119.174 259.889 118.475 263.382 113.881 264.787C113.931 265.521 113.981 266.256 114.032 266.991L109.97 269.325 109.336 273.763 105.355 270.415 99.3956 265.55 104.097 265.72 105.754 262.513 102.666 258.508 107.62 255.514 106.513 253.024 100.94 253.827 96.9165 249.85 102.511 249.36 109.041 248.844 110.784 246.895 106.911 245.122 110.994 243.102 108.568 241.915 109.843 239.983 103.737 239.855 95.9327 242.306 95.653 238.213 90.4196 237.112 88.8002 234.007 95.7773 233.16 92.6898 229.153 85.2881 230.644 92.3028 223.485 92.5556 220.322 84.3042 223.102 81.8191 227.912 77.4781 226.152 73.2022 225.338 73.4546 222.175 63.7348 224.053C63.8068 225.102 63.878 226.152 63.9496 227.201L55.9299 226.502 53.4017 230.683 43.8704 228.453 49.717 224.802 45.3984 223.357 40.2074 222.887 45.8394 216.086 38.691 214.414 43.9623 209.201 40.875 205.196 34.3667 206.027 29.8754 202.065 24.1787 207.919 17.1592 208.137 10.9863 200.295C13.7451 248.713 14.3812 538.207 0.000622944 583.326L1563.95 588.151C1555.96 539.998 1570.13 48.5817 1562.14 0.427446Z" fill="#3D4067" fill-rule="evenodd" fill-opacity="1" transform="matrix(-1 1.22497e-16 1.22465e-16 1.00026 2805.26 4036.22)"/></g></g></g></svg>