<svg width="3657" height="1783" xmlns="http://www.w3.org/2000/svg" xmlns:xlink="http://www.w3.org/1999/xlink" overflow="hidden"><defs><clipPath id="clip0"><rect x="165" y="206" width="3657" height="1783"/></clipPath></defs><g clip-path="url(#clip0)" transform="translate(-165 -206)"><path d="M172 335 1590.86 335 2006.48 337.921C2059.95 338.674 2219.08 360.964 2292.44 416.786 2365.81 472.608 2446 539.598 2446.67 672.853 2448.35 1008.26 2448.52 1172.15 2449.59 1371.48 2450.55 1551.06 2441.61 1651.36 2543.27 1708.28 2656.19 1771.5 2912.73 1741.46 3126.49 1754.76L3816 1753.59 3816 1919.28 3140.62 1922.65C2954.38 1924.25 2854.2 1929.91 2698.56 1928.87 2428.15 1927.07 2284.54 1737.92 2283.96 1550.77 2283.27 1329.24 2289.54 1040.37 2281.88 886.168 2274.23 731.967 2283.44 687.989 2238.02 625.57 2196.4 562.836 2098.12 508.572 2009.4 511.653L172 500.93 172 335Z" fill="#767171" fill-rule="evenodd" fill-opacity="1"/><path d="M3816.5 1836.65C3546.75 1845.64 3160.95 1842.28 2672.13 1851.48 2567.28 1853.45 2383.49 1735.2 2376.99 1608.38 2359.82 1273.26 2383.76 1057.26 2361.74 678.515 2353.69 540.015 2199.2 437.094 2074.82 435.226L172.5 424.5" stroke="#FFFFFF" stroke-width="6.875" stroke-linecap="butt" stroke-linejoin="miter" stroke-miterlimit="8" stroke-dasharray="27.5 20.625" stroke-opacity="1" fill="none" fill-rule="evenodd"/><rect x="172" y="213" width="3644" height="1771" stroke="#FF0000" stroke-width="10.3125" stroke-linecap="butt" stroke-linejoin="miter" stroke-miterlimit="8" stroke-opacity="0" fill="none"/></g></svg>