<svg width="3648" height="1746" xmlns="http://www.w3.org/2000/svg" xmlns:xlink="http://www.w3.org/1999/xlink" overflow="hidden"><defs><clipPath id="clip0"><rect x="192" y="197" width="3648" height="1746"/></clipPath></defs><g clip-path="url(#clip0)" transform="translate(-192 -197)"><rect x="209" y="213" width="3617" height="1716" stroke="#FF0000" stroke-width="27.5" stroke-linecap="butt" stroke-linejoin="miter" stroke-miterlimit="8" stroke-opacity="0" fill="none"/><path d="M211.816 342.91 1590.95 335 2006.53 337.921C2060 338.674 2277.05 349.962 2349.67 394.782 2422.3 439.601 2441.62 473.584 2442.29 606.838 2443.97 942.241 2448.54 1172.15 2449.61 1371.47 2450.57 1551.05 2427.62 1669.78 2521.28 1739.08 2576.99 1780.29 2912.7 1741.45 3126.44 1754.75L3831 1760.29C3830.93 1815.01 3830.86 1869.72 3830.78 1924.44L3140.57 1922.64C2954.35 1924.23 2668.35 1947.85 2509.35 1933.26 2428.23 1925.82 2288.97 1878.74 2288.39 1691.59 2287.7 1470.06 2287.01 1070.98 2281.92 886.164 2276.82 701.346 2281.1 623.309 2257.81 582.685 2226.54 528.172 2109.68 516.246 2009.45 511.652L211 522.474C211.272 462.619 211.544 402.765 211.816 342.91Z" fill="#767171" fill-rule="evenodd" fill-opacity="1"/><path d="M3811.5 1844.65C3432.78 1853.64 3057.24 1853.44 2793.05 1850.9 2528.86 1848.35 2375.74 1910.23 2378.67 1607.87 2381.92 1272.37 2379.42 1066.4 2357.26 678.27 2347.61 509.166 2372.95 420.47 1954.43 435.052L220.5 434.111" stroke="#FFFFFF" stroke-width="6.875" stroke-linecap="butt" stroke-linejoin="miter" stroke-miterlimit="8" stroke-dasharray="27.5 20.625" stroke-opacity="1" fill="none" fill-rule="evenodd"/></g></svg>