<svg width="42" height="46" xmlns="http://www.w3.org/2000/svg" xmlns:xlink="http://www.w3.org/1999/xlink" overflow="hidden"><defs><clipPath id="clip0"><rect x="2653" y="-160" width="42" height="46"/></clipPath></defs><g clip-path="url(#clip0)" transform="translate(-2653 160)"><path d="M2693-137.5 2685.53-134.845 2685.53-140.155ZM2687.58-150.582 2684.18-143.425 2680.43-147.18ZM2674.5-156 2677.16-148.535 2671.85-148.535ZM2661.42-150.582 2668.58-147.18 2664.82-143.425ZM2656-137.5 2663.47-140.155 2663.47-134.845ZM2661.42-124.42 2664.82-131.575 2668.58-127.82ZM2674.5-119 2671.85-126.465 2677.16-126.465ZM2687.58-124.42 2680.43-127.82 2684.18-131.575ZM2665.25-137.5C2665.25-142.609 2669.39-146.75 2674.5-146.75 2679.61-146.75 2683.75-142.609 2683.75-137.5 2683.75-132.391 2679.61-128.25 2674.5-128.25 2669.39-128.25 2665.25-132.391 2665.25-137.5Z" fill="#FFC000" fill-rule="evenodd" fill-opacity="1"/></g></svg>