<svg width="638" height="843" xmlns="http://www.w3.org/2000/svg" xmlns:xlink="http://www.w3.org/1999/xlink" overflow="hidden"><defs><clipPath id="clip0"><rect x="297" y="174" width="638" height="843"/></clipPath></defs><g clip-path="url(#clip0)" transform="translate(-297 -174)"><path d="M545.53 665.841C532.175 700.665 518.82 735.489 499.634 761.745 480.448 788.001 447.28 800.851 430.415 823.375 413.55 845.899 397.274 876.326 398.445 896.89 399.615 917.454 437.437 946.757 437.437 946.757 438.85 957.794 416.49 964.258 406.921 963.111 397.353 961.964 387.395 962.195 380.027 939.876 372.659 917.558 364.64 759.024 359.667 714.846" fill="#B67D51" fill-rule="evenodd" fill-opacity="1"/><path d="M574.465 311.309C585.279 330.664 594.147 361.688 597.797 387.162 601.448 412.636 620.145 441.555 596.368 464.152 572.59 486.749 500.201 495.447 455.134 522.743 410.067 550.04 356.533 564.076 325.964 627.928 295.396 691.781 342.895 735.507 339.871 768.731 336.846 801.956 314.356 807.537 307.817 827.275 301.279 847.013 300.64 887.159 300.64 887.159 309.057 917.377 358.322 1008.58 358.322 1008.58 375.308 1027.24 402.553 999.109 402.553 999.109 404.333 992.823 376.659 984.581 368.999 970.871 361.339 957.162 351.687 936.099 356.594 916.849 361.501 897.6 380.553 880.183 398.438 855.375 416.324 830.567 463.908 768.002 463.908 768.002 476.823 743.008 475.924 705.415 475.924 705.415 496.741 690.398 556.939 686.395 588.807 677.901 620.676 669.408 637.654 669.87 667.137 654.455 696.62 639.041 742.418 609.643 765.706 585.414 788.995 561.186 806.397 543.844 806.869 509.083 807.342 474.321 780.223 406.086 768.542 376.845 756.861 347.604 737.146 350.576 736.782 333.637 736.418 316.697 762.277 294.418 766.359 275.207 770.44 255.995 766.979 234.648 761.269 218.367 755.559 202.087 745.324 177.329 732.099 177.522 718.873 177.715 699.848 213.742 681.916 219.528 663.985 225.314 624.509 212.237 624.509 212.237 612.295 207.421 608.629 190.633 608.629 190.633 601.708 193.018 582.982 226.55 582.982 226.55 574.898 230.643 560.128 215.191 560.128 215.191 551.783 222.605 532.913 271.032 532.913 271.032 534.89 287.07 563.651 291.954 574.465 311.309Z" fill="#CE8D61" fill-rule="evenodd" fill-opacity="1"/><path d="M608.166 435.826 619.64 437.514C653.362 443.003 682.89 450.256 695.644 464.559 712.648 483.63 723.754 527.372 687.013 546.842 650.271 566.312 520.13 551.192 475.195 581.377 430.261 611.562 437.971 698.472 417.405 727.952 396.839 757.432 380.244 774.323 351.797 758.258 348.242 756.25 344.292 753.259 340.057 749.499L335.723 745.192 334.675 741.694C324.025 712.386 303.038 675.818 325.965 627.929 356.533 564.076 410.067 550.04 455.134 522.744 500.202 495.448 572.591 486.749 596.368 464.152 605.285 455.678 608.228 446.315 608.232 436.579Z" fill="#B67D51" fill-rule="evenodd" fill-opacity="1"/><path d="M753.027 417.26C770.638 409.007 788.25 400.755 798.597 382.91 808.945 365.065 805.604 319.312 815.112 310.191 824.619 301.069 855.64 328.182 855.64 328.182 859.525 331.726 838.42 331.454 838.42 331.454 836.001 332.805 841.124 336.293 841.124 336.293 838.224 354.209 826.696 418.428 821.021 438.953 815.346 459.479 807.073 459.445 807.073 459.445 809.288 462.652 821.018 474.934 834.311 458.195 847.604 441.456 886.832 359.009 886.832 359.009 902.563 341.331 920.745 350.008 928.7 352.125 936.655 354.241 934.562 371.707 934.562 371.707 931.824 375.141 912.276 372.73 912.276 372.73 902.791 391.362 897.231 459.443 877.657 483.501 858.082 507.56 794.829 517.08 794.829 517.08L794.829 517.08" fill="#CE8D61" fill-rule="evenodd" fill-opacity="1"/><path d="M729.511 180.619C744.857 178.632 760.609 193.625 769.302 210.927 777.995 228.229 781.661 276.572 781.671 284.43 781.68 292.287 769.357 258.072 769.357 258.072 767.857 261.449 774.356 300.543 772.675 304.694 770.994 308.845 759.271 282.976 759.271 282.976 756.496 285.585 756.023 320.347 756.023 320.347 752.252 319.279 746.122 284.821 736.644 276.571 727.167 268.321 709.595 281.948 699.16 270.847 688.725 259.746 677.23 222.845 677.23 222.845 683.92 206.409 714.166 182.605 729.511 180.619Z" fill="#B67D51" fill-rule="evenodd" fill-opacity="1"/><path d="M632.653 230.874C628.655 230.534 622.362 232.052 617.561 236.652 612.759 241.251 604.27 250.832 603.846 258.47 603.421 266.109 612.76 280.982 615.013 282.481 617.265 283.98 614.527 272.687 617.359 267.463 620.191 262.238 627.973 255.931 632.004 251.135 636.035 246.34 641.115 241.947 641.544 238.689 641.974 235.431 636.65 231.213 632.653 230.874Z" fill="#B67D51" fill-rule="evenodd" fill-opacity="1"/><path d="M638.967 258.288C638.67 251.826 643.668 246.348 650.13 246.051 656.592 245.755 662.07 250.752 662.367 257.214 662.664 263.676 657.666 269.155 651.204 269.451 644.742 269.748 639.263 264.75 638.967 258.288Z" fill="#000000" fill-rule="evenodd" fill-opacity="1"/><path d="M724.668 175.267C720.165 176.551 712.782 194.662 712.782 194.662 715.304 196.611 739.798 186.961 739.798 186.961 742.008 183.848 729.171 173.984 724.668 175.267Z" fill="#000000" fill-rule="evenodd" fill-opacity="1"/><path d="M596.535 396.153C665.129 391.051 697.025 381.12 743.888 342.492 755.378 356.295 761.504 357.316 761.504 357.316 754.132 366.991 719.159 390.309 699.653 400.54 680.147 410.772 644.469 418.706 644.469 418.706 627.865 421.205 600.03 415.534 600.03 415.534 592.061 412.209 601.534 410.471 596.535 396.153Z" fill="#047872" fill-rule="evenodd" fill-opacity="1"/></g></svg>