<svg width="2722" height="2437" xmlns="http://www.w3.org/2000/svg" xmlns:xlink="http://www.w3.org/1999/xlink" overflow="hidden"><defs><clipPath id="clip0"><rect x="889" y="-155" width="2722" height="2437"/></clipPath><linearGradient x1="2428.5" y1="134" x2="2428.5" y2="1132" gradientUnits="userSpaceOnUse" spreadMethod="reflect" id="fill1"><stop offset="0" stop-color="#FFE699" stop-opacity="0.541176"/><stop offset="0.28" stop-color="#FEE8A6" stop-opacity="0.258824"/><stop offset="1" stop-color="#F6F8FC" stop-opacity="0"/></linearGradient><radialGradient cx="243840" cy="243840" r="344842" fx="243840" fy="243840" gradientUnits="userSpaceOnUse" spreadMethod="pad" id="fill2" gradientTransform="scale(0.000360892 0.000360892)"><stop offset="0" stop-color="#FFF3CC" stop-opacity="1"/><stop offset="0.39" stop-color="#FFF3CC" stop-opacity="1"/><stop offset="0.75" stop-color="#F6F8FC" stop-opacity="0"/><stop offset="1" stop-color="#F6F8FC" stop-opacity="0"/></radialGradient><clipPath id="clip3"><rect x="1536" y="403" width="178" height="178"/></clipPath><clipPath id="clip4"><rect x="1536" y="403" width="178" height="178"/></clipPath><clipPath id="clip5"><rect x="1536" y="403" width="178" height="178"/></clipPath><clipPath id="clip6"><rect x="1358" y="586" width="210" height="211"/></clipPath><clipPath id="clip7"><rect x="1358" y="586" width="210" height="211"/></clipPath><clipPath id="clip8"><rect x="1358" y="586" width="210" height="211"/></clipPath></defs><g clip-path="url(#clip0)" transform="translate(-889 155)"><path d="M912.676 1071.75 912.77 1112.11C933.277 1745.37 1541.18 2245.2 2285.6 2255.18L2347.1 2254.69 2339.38 2256.11C1710.03 2359.08 1116.36 2082.22 941.872 1568.11 892.02 1421.22 881.106 1268.87 904.059 1119.14Z" fill="#ECE3E3" fill-rule="evenodd" fill-opacity="1"/><path d="M1937.55 149.939C1589.23 187.814 1187.89 381.602 1019.71 707.164 851.531 1032.73 1001.01 1523.22 1184.06 1782.6 1367.12 2041.98 1765.84 2233.96 2118.06 2263.45 2470.28 2292.95 3050.08 2134.1 3297.38 1959.57 3544.69 1785.04 3633.19 1462.86 3601.89 1216.25 3570.59 969.64 3387.43 655.643 3109.6 479.919 2831.77 304.194 2285.86 112.065 1937.55 149.939Z" fill="#243142" fill-rule="evenodd" fill-opacity="1"/><path d="M1546 1132 2425.34 134 3311 1132Z" fill="url(#fill1)" fill-rule="evenodd"/><path d="M2321.09 1438 2373.88 1438 2373.88 1670.46 2397.13 1671.95C2513.04 1687.87 2613.7 1761.01 2661 1867.31L2623.59 1883.06C2576.03 1776.11 2467.07 1707.3 2346.83 1708.28 2227.23 1709.26 2119.44 1779.11 2072.57 1886L2035 1870.61C2081.56 1764.31 2181.17 1690.26 2296.4 1672.7L2321.09 1670.74Z" fill="#676767" fill-rule="evenodd" fill-opacity="1"/><path d="M41.1562 0 51.8436 0C74.5735-7.73429e-15 92.9998 18.4262 92.9998 41.1561L92.9998 243 0 243 0 41.1561C-7.7343e-15 18.4262 18.4263 0 41.1562 0Z" fill="#404040" fill-rule="evenodd" fill-opacity="1" transform="matrix(1 0 0 -1 2302 1509)"/><path d="M2085.5 1244C2085.5 1159.78 2153.78 1091.5 2238 1091.5L2495 1091.5C2579.22 1091.5 2647.5 1159.78 2647.5 1244L2647.5 1244C2647.5 1328.22 2579.22 1396.5 2495 1396.5L2238 1396.5C2153.78 1396.5 2085.5 1328.22 2085.5 1244Z" stroke="#595959" stroke-width="4.58333" stroke-linecap="butt" stroke-linejoin="miter" stroke-miterlimit="8" stroke-opacity="1" fill="#595959" fill-rule="evenodd" fill-opacity="1"/><path d="M2049 1151.5C2049 1041.32 2138.32 952 2248.5 952L2485.5 952C2595.68 952 2685 1041.32 2685 1151.5 2685 1261.68 2595.68 1351 2485.5 1351L2248.5 1351C2138.32 1351 2049 1261.68 2049 1151.5Z" fill="#7F7F7F" fill-rule="evenodd" fill-opacity="1"/><path d="M1804.38 1152.52 1804.38 1152.52C1816.39 1155.06 1824.06 1166.85 1821.52 1178.85L1665.4 1917.62 1619.99 1917.62 1778.06 1169.66C1780.59 1157.66 1792.38 1149.99 1804.38 1152.52Z" fill="#837F7F" fill-rule="evenodd" fill-opacity="1"/><path d="M786.69 22.2127 786.69 22.2127C786.69 34.4804 776.745 44.4255 764.477 44.4255L9.38826 44.4251 0 0 764.478 0C776.745 0 786.69 9.94513 786.69 22.2127Z" fill="#837F7F" fill-rule="evenodd" fill-opacity="1" transform="matrix(-0.206761 -0.978391 -0.978391 0.206761 2021.83 1917.62)"/><path d="M2994.8 1152.52 2994.8 1152.52C3006.8 1155.06 3014.48 1166.85 3011.94 1178.85L2855.82 1917.62 2810.41 1917.62 2968.48 1169.66C2971.01 1157.66 2982.8 1149.99 2994.8 1152.52Z" fill="#837F7F" fill-rule="evenodd" fill-opacity="1"/><path d="M786.69 22.2127 786.69 22.2127C786.69 34.4804 776.745 44.4255 764.477 44.4255L9.38826 44.4251 0 0 764.478 0C776.745 0 786.69 9.94513 786.69 22.2127Z" fill="#837F7F" fill-rule="evenodd" fill-opacity="1" transform="matrix(-0.206761 -0.978391 -0.978391 0.206761 3212.25 1917.62)"/><path d="M2473.18 720.092C2488.52 709.349 2521.67 687.425 2533.37 658.353 2568.68 647.356 2686.13 623.306 2684.99 654.109 2665.63 686.825 2586.43 794.68 2526.57 843.173 2508.92 930.226 2644.49 1126.59 2581.62 1186.07 2452.01 1195.47 2368.16 1257.14 2149.37 1200.04 2143 1155.42 2177.13 907.39 2172.3 886.563 2102.26 806.842 2011.68 741.023 2005.48 703.373 1999.27 665.723 2055.03 634.717 2102.77 646.203 2150.5 657.688 2241.12 741.142 2269.54 755.418 2297.97 769.694 2271.87 739.959 2273.31 731.856L2274.73 724.851 2284.66 730.299C2298.12 736.346 2314.35 739.877 2331.82 739.877 2349.29 739.877 2365.52 736.346 2378.98 730.299L2387.75 725.488 2388.04 728.753C2388.72 735.953 2389.57 743.154 2390.91 749.983 2404.18 745.33 2421.71 726.432 2441.32 722.809 2451.12 720.997 2457.83 730.834 2473.18 720.092Z" fill="#8FAADD" fill-rule="evenodd" fill-opacity="1"/><path d="M2235.41 398.969C2222.29 406.478 2203.85 418.031 2191.85 437.093 2179.84 456.154 2168.95 491.678 2163.36 513.34 2157.78 535.001 2161.69 547.998 2158.34 567.059 2154.98 586.121 2144.37 607.204 2143.25 627.71 2142.14 648.216 2144.65 678.831 2151.63 690.094 2158.61 701.358 2168.11 692.983 2185.14 695.293L2253.84 703.957C2277.02 706.846 2281.49 717.82 2324.22 712.622 2366.95 707.423 2510.21 672.765 2510.21 672.765 2519.98 661.213 2525.57 655.436 2523.61 632.909 2521.66 610.381 2507.97 572.547 2498.48 537.6 2488.98 502.653 2486.19 451.822 2466.64 423.229 2447.09 394.637 2408.56 374.997 2381.19 366.044 2353.82 357.091 2320.87 365.178 2302.44 369.51 2284 373.842 2281.77 387.127 2270.6 392.037 2259.43 396.947 2248.54 391.46 2235.41 398.969Z" fill="#404040" fill-rule="evenodd" fill-opacity="1"/><path d="M2317.24 658.046C2320.59 658.163 2324.08 658.475 2327.69 658.634 2342.13 659.271 2377.76 675.46 2377.76 675.46L2379.52 678.954 2381.15 682.191C2384.01 689.686 2385.4 699.328 2386.41 709.829L2388 728.247 2379.23 733.18C2365.77 739.38 2349.55 743 2332.08 743 2314.61 743 2298.39 739.38 2284.93 733.18L2275 727.594 2278.45 710.116 2279.87 704.279 2281.26 698.561C2284.2 687.459 2287.51 677.904 2291.12 671.636 2298.36 659.098 2307.19 657.695 2317.24 658.046Z" fill="#FCDAD6" fill-rule="evenodd" fill-opacity="1"/><path d="M34.9395 0 28.361 2.04019C17.7167 5.6943 8.86583 9.27794 8.86583 9.27794L7.11589 12.3721 5.49482 15.2385C2.65334 21.8749 1.27811 30.4123 0.267256 39.7104L0 42.4759 11.2006 44.1816C16.5459 44.7183 22.0805 45 27.7493 45 57.5104 45 83.5735 37.2325 97.9752 25.6041L102 21.747 100.098 16.2076 99.2056 14.2101 96.1035 13.1491C84.0499 9.09102 58.4173 0.922161 46.2159 0.498798Z" fill="#FBC3BC" fill-rule="evenodd" fill-opacity="1" transform="matrix(-1 0 0 1 2386 671)"/><path d="M2204 582C2204 512.964 2261.31 457 2332 457 2402.69 457 2460 512.964 2460 582 2460 651.036 2402.69 707 2332 707 2261.31 707 2204 651.036 2204 582Z" fill="#FBDAD6" fill-rule="evenodd" fill-opacity="1"/><path d="M2164 593.5C2164 571.685 2179.45 554 2198.5 554 2217.55 554 2233 571.685 2233 593.5 2233 615.315 2217.55 633 2198.5 633 2179.45 633 2164 615.315 2164 593.5Z" fill="#FBDAD6" fill-rule="evenodd" fill-opacity="1"/><path d="M2421 593.5C2421 571.685 2436.67 554 2456 554 2475.33 554 2491 571.685 2491 593.5 2491 615.315 2475.33 633 2456 633 2436.67 633 2421 615.315 2421 593.5Z" fill="#FBDAD6" fill-rule="evenodd" fill-opacity="1"/><path d="M2374.86 469.881C2357.88 492.429 2351.62 498.58 2335.78 511.341 2319.93 524.102 2252.68 567.14 2247.64 566.356 2242.59 565.571 2250.22 555.789 2249.78 546.448 2231.79 560.838 2195.82 603.95 2186.06 588.831 2175.23 549.305 2174.78 505.36 2187.98 473.43 2201.17 441.5 2224.95 406.072 2265.23 397.25 2305.51 388.428 2388.39 371.146 2429.67 420.498 2470.95 469.85 2469.93 511.444 2476.36 537.782 2482.79 564.119 2468.24 578.522 2468.24 578.522 2459.1 576.636 2437.11 545.703 2421.55 526.465 2405.98 507.226 2393.8 489.497 2374.86 469.881Z" fill="#404040" fill-rule="evenodd" fill-opacity="1"/><path d="M2223 625.5C2223 618.044 2233.97 612 2247.5 612 2261.03 612 2272 618.044 2272 625.5 2272 632.956 2261.03 639 2247.5 639 2233.97 639 2223 632.956 2223 625.5Z" fill="#FBC3BC" fill-rule="evenodd" fill-opacity="1"/><path d="M2393 621.5C2393 614.044 2403.97 608 2417.5 608 2431.03 608 2442 614.044 2442 621.5 2442 628.956 2431.03 635 2417.5 635 2403.97 635 2393 628.956 2393 621.5Z" fill="#FBC3BC" fill-rule="evenodd" fill-opacity="1"/><path d="M2270 575.5C2270 571.91 2275.37 569 2282 569 2288.63 569 2294 571.91 2294 575.5 2294 579.09 2288.63 582 2282 582 2275.37 582 2270 579.09 2270 575.5Z" fill="#000000" fill-rule="evenodd" fill-opacity="1"/><path d="M2374 576.5C2374 572.91 2379.37 570 2386 570 2392.63 570 2398 572.91 2398 576.5 2398 580.09 2392.63 583 2386 583 2379.37 583 2374 580.09 2374 576.5Z" fill="#000000" fill-rule="evenodd" fill-opacity="1"/><path d="M2327.02 531.5C2324.86 546.134 2322.71 560.769 2323.79 569.052 2324.86 577.336 2328.99 580.097 2333.48 581.201 2337.97 582.306 2346.23 573.654 2350.72 575.679 2355.2 577.704 2361.31 588.38 2360.41 593.351 2359.51 598.321 2352.42 601.91 2345.33 605.5" stroke="#FBC3BC" stroke-width="4.58333" stroke-linecap="butt" stroke-linejoin="miter" stroke-miterlimit="8" stroke-opacity="1" fill="none" fill-rule="evenodd"/><path d="M21 12C16.1184 11.9092 11.2368 11.8183 7.73683 9.81821 4.23689 7.81815 2.11845 3.90907 0 0" stroke="#000000" stroke-width="4.58333" stroke-linecap="butt" stroke-linejoin="miter" stroke-miterlimit="8" stroke-opacity="1" fill="none" fill-rule="evenodd" transform="matrix(1 0 0 -1 2323.5 628.5)"/><path d="M2290.5 750.5C2288.42 758.823 2286.34 767.146 2286.51 774.979 2286.68 782.812 2289.09 790.156 2291.5 797.5" stroke="#4472C4" stroke-width="4.58333" stroke-linecap="butt" stroke-linejoin="miter" stroke-miterlimit="8" stroke-opacity="1" fill="none" fill-rule="evenodd"/><path d="M2314.5 756.5C2313 762.611 2311.5 768.722 2311.5 776.056 2311.5 783.389 2313 791.945 2314.5 800.5" stroke="#4472C4" stroke-width="4.58333" stroke-linecap="butt" stroke-linejoin="miter" stroke-miterlimit="8" stroke-opacity="1" fill="none" fill-rule="evenodd"/><path d="M2332.5 752.5C2334.81 759.744 2337.13 766.988 2337.46 773.988 2337.79 780.988 2336.14 787.744 2334.48 794.5" stroke="#4472C4" stroke-width="4.58333" stroke-linecap="butt" stroke-linejoin="miter" stroke-miterlimit="8" stroke-opacity="1" fill="none" fill-rule="evenodd"/><path d="M2358.5 749.5C2362.39 758.467 2366.27 767.435 2367.24 774.935 2368.21 782.435 2366.27 788.467 2364.33 794.5" stroke="#4472C4" stroke-width="4.58333" stroke-linecap="butt" stroke-linejoin="miter" stroke-miterlimit="8" stroke-opacity="1" fill="none" fill-rule="evenodd"/><path d="M2376.5 745.5C2380.25 752.608 2384 759.716 2385.11 768.049 2386.23 776.382 2384.72 785.941 2383.2 795.5" stroke="#4472C4" stroke-width="4.58333" stroke-linecap="butt" stroke-linejoin="miter" stroke-miterlimit="8" stroke-opacity="1" fill="none" fill-rule="evenodd"/><path d="M2285 1099.09C2285 1090.75 2291.75 1084 2300.09 1084L2485.92 1084C2494.25 1084 2501 1090.75 2501 1099.09L2501 1108.91C2501 1117.25 2494.25 1124 2485.92 1124L2300.09 1124C2291.75 1124 2285 1117.25 2285 1108.91Z" fill="#42413B" fill-rule="evenodd" fill-opacity="1"/><path d="M2418 1124 2465.55 847.514C2475.3 808.057 2482.24 797.85 2520.05 796L2862.27 797.394C2894.19 800.172 2903.66 802.951 2894.89 839.157L2848.62 1121.21 2418 1124Z" fill="#4F4F4F" fill-rule="evenodd" fill-opacity="1"/><path d="M53.2602 25.792C48.2561 24.2631 41.705 25.6775 35.4523 29.5571L32.6312 31.8823 32.5086 30.5948C31.0492 23.1511 27.5702 17.1189 23.0883 14.1116 21.0963 12.775 18.9063 12.0359 16.6074 12.0359 14.3086 12.0359 12.1186 12.775 10.1268 14.1116L6.98852 17.4683 8.64511 19.4188C9.6319 21.2709 10.1775 23.3071 10.1775 25.4446 10.1775 29.7194 7.99496 33.5897 4.46594 36.3912L0 38.7814 1.26626 48.7305C3.7939 58.2105 9.71093 64.8626 16.6074 64.8626L19.8379 63.828 21.482 66.7954C28.1793 73.0961 41.7119 69.5908 51.7075 58.9661 61.7032 48.3414 64.3772 34.6203 57.6799 28.3196 56.424 27.1381 54.9281 26.3015 53.2602 25.792ZM39.639 0.902063C38.7011 0.321225 37.6697 0 36.5873 0 32.2571 0 28.7469 5.13898 28.7467 11.4784 28.7467 17.8177 32.2569 22.9567 36.5871 22.9567 40.9172 22.9567 44.4274 17.8177 44.4276 11.4784 44.4276 6.72383 42.453 2.64458 39.639 0.902063Z" fill="#6E6E6E" fill-rule="evenodd" fill-opacity="1" transform="matrix(-0.929607 -0.368552 -0.368552 0.929607 2727.54 894.568)"/><path d="M2158 1196.5C2158 1161.43 2258.74 1133 2383 1133 2507.26 1133 2608 1161.43 2608 1196.5 2608 1231.57 2507.26 1260 2383 1260 2258.74 1260 2158 1231.57 2158 1196.5Z" fill="#1E3941" fill-rule="evenodd" fill-opacity="1"/><path d="M2.93087 159.693C61.7937 123.363 270.867 43.9935 353.177 19.4651 435.488-5.06328 473.101-5.29462 496.793 12.5232 520.485 30.3409 517.798 95.827 495.328 126.372 472.857 156.916 418.391 178.668 361.97 195.791 305.55 212.915 156.805 229.113 156.805 229.113 96.4765 236.055 0 237.443 0 237.443 5.61756 216.849 1.22138 186.304 2.93087 159.693Z" fill="#305A66" fill-rule="evenodd" fill-opacity="1" transform="matrix(-0.987187 0.159567 0.159567 0.987187 2508.25 1103.26)"/><path d="M2260.1 1337.54C2243.24 1334.96 2226.51 1332.92 2206.05 1330.68 2185.59 1328.45 2151.7 1323.58 2137.34 1324.13 2122.97 1324.68 2119.27 1329.03 2119.86 1334 2120.29 1337.57 2130.13 1342 2130.38 1344.54 2130.64 1347.08 2123.74 1344.71 2123.15 1351.08 2124.59 1354.24 2128.39 1356.62 2128.83 1358.5 2129.27 1360.37 2127.15 1359.57 2125.8 1362.32 2124.46 1365.08 2125.58 1367.12 2127.09 1368.63 2128.61 1370.14 2133.97 1369.26 2134.89 1371.39 2135.81 1373.51 2131.03 1378.19 2132.62 1381.4 2134.21 1384.61 2141.91 1387.47 2144.44 1390.62 2146.97 1393.78 2142.06 1398.52 2147.8 1400.32 2153.55 1402.12 2165.57 1402.39 2178.94 1401.4 2192.3 1400.42 2213.25 1396.19 2227.98 1394.42 2242.71 1392.66 2260.31 1391.67 2267.32 1390.81 2274.33 1389.95 2272.19 1389.59 2270.06 1389.24" fill="#DBBDBA" fill-rule="evenodd" fill-opacity="1"/><path d="M139.838 20.263C123.152 16.7377 106.558 13.7676 86.2542 10.3923 65.9501 7.017 32.3867 0.261269 18.014 0.0107115 3.64122-0.239846-0.301087 3.89272 0.0176973 8.88919 0.246365 12.4748 9.82223 17.447 9.93237 19.9966 10.0425 22.5462 3.28704 19.7963 2.34373 26.1297 3.60792 29.3638 7.26613 31.9519 7.60285 33.8469 7.93956 35.7419 5.86246 34.8251 4.36401 37.4995 2.86556 40.1739 3.87314 42.2762 5.30057 43.8687 6.728 45.4612 12.1273 44.8788 12.9286 47.0551 13.7298 49.2314 8.69822 53.6357 10.1084 56.9261 11.5186 60.2164 19.039 63.5064 21.3893 66.7967 23.7395 70.0871 18.5691 74.5524 24.2094 76.6674 29.8497 78.7825 41.8359 79.7228 55.2318 79.4878 68.6277 79.2529 89.7795 76.1975 104.586 75.2575 119.392 74.3174 137.018 74.3174 144.069 73.8473 151.119 73.3771 149.004 72.9072 146.889 72.4373" fill="#DBBDBA" fill-rule="evenodd" fill-opacity="1" transform="matrix(-0.965975 -0.258636 -0.258636 0.965975 2732.83 1315.01)"/><path d="M2244.93 1327.63C2301.56 1286.05 2505.62 1190.72 2586.36 1160.28 2667.09 1129.83 2704.63 1127.48 2729.34 1144.94 2754.04 1162.39 2755.22 1231.55 2734.59 1265 2713.96 1298.44 2660.86 1324.41 2605.53 1345.61 2550.21 1366.81 2402.65 1392.19 2402.65 1392.19 2342.83 1402.87 2246.59 1409.73 2246.59 1409.73 2250.98 1387.71 2244.79 1355.76 2244.93 1327.63Z" fill="#3A748F" fill-rule="evenodd" fill-opacity="1"/><path d="M2290 1334.75 2302.76 1333.32 2308 1321 2313.24 1333.32 2326 1334.75 2316.48 1343.8 2319.12 1357 2308 1350.27 2296.88 1357 2299.52 1343.8Z" fill="#FFFFFF" fill-rule="evenodd" fill-opacity="1"/><path d="M2361 1285.75 2373.76 1284.32 2379 1272 2384.24 1284.32 2397 1285.75 2387.48 1294.8 2390.12 1308 2379 1301.27 2367.88 1308 2370.52 1294.8Z" fill="#FFFFFF" fill-rule="evenodd" fill-opacity="1"/><path d="M2413 1355.37 2425.41 1353.97 2430.5 1342 2435.59 1353.97 2448 1355.37 2438.74 1364.16 2441.32 1377 2430.5 1370.46 2419.68 1377 2422.26 1364.16Z" fill="#FFFFFF" fill-rule="evenodd" fill-opacity="1"/><path d="M2477 1290.75 2489.76 1289.32 2495 1277 2500.24 1289.32 2513 1290.75 2503.48 1299.8 2506.12 1313 2495 1306.27 2483.88 1313 2486.52 1299.8Z" fill="#FFFFFF" fill-rule="evenodd" fill-opacity="1"/><path d="M2600 1302.75 2612.76 1301.32 2618 1289 2623.24 1301.32 2636 1302.75 2626.48 1311.8 2629.12 1325 2618 1318.27 2606.88 1325 2609.52 1311.8Z" fill="#FFFFFF" fill-rule="evenodd" fill-opacity="1"/><path d="M2552 1224.37 2564.76 1222.97 2570 1211 2575.24 1222.97 2588 1224.37 2578.48 1233.16 2581.12 1246 2570 1239.46 2558.88 1246 2561.52 1233.16Z" fill="#FFFFFF" fill-rule="evenodd" fill-opacity="1"/><path d="M2697 1227.75 2709.76 1226.32 2715 1214 2720.24 1226.32 2733 1227.75 2723.48 1236.8 2726.12 1250 2715 1243.27 2703.88 1250 2706.52 1236.8Z" fill="#FFFFFF" fill-rule="evenodd" fill-opacity="1"/><path d="M2229 1273.75 2241.76 1272.32 2247 1260 2252.24 1272.32 2265 1273.75 2255.48 1282.8 2258.12 1296 2247 1289.27 2235.88 1296 2238.52 1282.8Z" fill="#FFFFFF" fill-rule="evenodd" fill-opacity="1"/><path d="M2059 1268.37 2071.76 1266.97 2077 1255 2082.24 1266.97 2095 1268.37 2085.48 1277.16 2088.12 1290 2077 1283.46 2065.88 1290 2068.52 1277.16Z" fill="#FFFFFF" fill-rule="evenodd" fill-opacity="1"/><path d="M2148 1230.75 2160.76 1229.32 2166 1217 2171.24 1229.32 2184 1230.75 2174.48 1239.8 2177.12 1253 2166 1246.27 2154.88 1253 2157.52 1239.8Z" fill="#FFFFFF" fill-rule="evenodd" fill-opacity="1"/><path d="M2302 1227.75 2314.76 1226.32 2320 1214 2325.24 1226.32 2338 1227.75 2328.48 1236.8 2331.12 1250 2320 1243.27 2308.88 1250 2311.52 1236.8Z" fill="#FFFFFF" fill-rule="evenodd" fill-opacity="1"/><path d="M1501 1151.5C1501 1136.31 1513.31 1124 1528.5 1124L2706.5 1124C2721.69 1124 2734 1136.31 2734 1151.5 2734 1166.69 2721.69 1179 2706.5 1179L1528.5 1179C1513.31 1179 1501 1166.69 1501 1151.5Z" fill="#D2CCCC" fill-rule="evenodd" fill-opacity="1"/><path d="M2118 1151.5C2118 1136.31 2130.31 1124 2145.5 1124L3322.5 1124C3337.69 1124 3350 1136.31 3350 1151.5L3350 1151.5C3350 1166.69 3337.69 1179 3322.5 1179L2145.5 1179C2130.31 1179 2118 1166.69 2118 1151.5Z" fill="#C2BCBC" fill-rule="evenodd" fill-opacity="1"/><path d="M2127.73 1895.96C2167.59 1877.41 2207.45 1858.85 2231.03 1857.98 2254.61 1857.11 2285.2 1873.75 2269.21 1890.77 2253.23 1907.78 2156.67 1949.61 2135.11 1960.05" fill="#227D6A" fill-rule="evenodd" fill-opacity="1"/><path d="M2183.68 1938.85C2160.62 1930.49 2122.06 1878.82 2106.78 1859.13 2019.9 1931.43 2036.7 1933.95 2032.42 1953.69 2028.14 1973.43 2045.71 1980.34 2081.12 1977.56 2104.41 1973.46 2159.38 1962.82 2183.68 1938.85Z" fill="#5EA598" fill-rule="evenodd" fill-opacity="1"/><path d="M0 52.5001C-1.27313e-14 23.5051 22.3858 0 50 0 77.6143-1.33679e-14 100 23.5051 100 52.5001 100 81.4951 77.6143 105 50 105 22.3858 105-1.9097e-14 81.4951 0 52.5001Z" stroke="#000000" stroke-width="6.875" stroke-linecap="butt" stroke-linejoin="miter" stroke-miterlimit="8" stroke-opacity="1" fill="none" fill-rule="evenodd" transform="matrix(1 0 0 -1 2135.5 1128.5)"/><path d="M0 6.0002C7.19285 3.08708 14.3859 0.17396 21.0526 0.00754979 27.7193-0.15886 33.8595 2.42128 39.9999 5.00142" stroke="#000000" stroke-width="6.875" stroke-linecap="butt" stroke-linejoin="miter" stroke-miterlimit="8" stroke-opacity="1" fill="none" fill-rule="evenodd" transform="matrix(1 0 0 -1 2094.5 1085.5)"/><path d="M0 52.0001C-1.28587e-14 23.2812 22.6096 0 50.5 0 78.3904-1.32406e-14 101 23.2812 101 52.0001 101 80.7189 78.3904 104 50.5 104 22.6096 104-1.9288e-14 80.7189 0 52.0001Z" stroke="#000000" stroke-width="6.875" stroke-linecap="butt" stroke-linejoin="miter" stroke-miterlimit="8" stroke-opacity="1" fill="none" fill-rule="evenodd" transform="matrix(1 0 0 -1 1994.5 1120.5)"/><path d="M0 43.9437C36.754 23.5778 73.5083 3.2123 95.4979 0.358727 117.488-2.49485 124.713 12.1632 131.938 26.8212" stroke="#000000" stroke-width="6.875" stroke-linecap="butt" stroke-linejoin="miter" stroke-miterlimit="8" stroke-opacity="1" fill="none" fill-rule="evenodd" transform="matrix(0.699771 -0.714367 -0.714367 -0.699771 2025.49 1111.1)"/><path d="M0 43.9437C36.754 23.5778 73.5083 3.2123 95.4979 0.358727 117.488-2.49485 124.713 12.1632 131.938 26.8212" stroke="#000000" stroke-width="6.875" stroke-linecap="butt" stroke-linejoin="miter" stroke-miterlimit="8" stroke-opacity="1" fill="none" fill-rule="evenodd" transform="matrix(0.699771 -0.714367 -0.714367 -0.699771 2264.2 1118.42)"/><path d="M2929.37 2074C2887.14 2062.35 2844.92 2050.71 2826.44 2036.07 2807.97 2021.43 2795.43 1988.83 2818.52 1986.16 2841.62 1983.5 2941.91 2014.11 2965 2020.1" fill="#227D6A" fill-rule="evenodd" fill-opacity="1"/><path d="M132.24 56.3458C114.61 27.9076 66.4757 0.305676 58.181 0 42.6964 11.2375 1.22431 79.5262 0.0551695 99.0606-1.11397 118.595 16.3068 124.018 51.1658 117.206 73.1964 110.087 131.07 75.8802 132.24 56.3458Z" fill="#5EA598" fill-rule="evenodd" fill-opacity="1" transform="matrix(-0.886654 0.462434 0.462434 0.886654 2995.29 1952.72)"/><path d="M31.7696 0 66.2304 0C66.9545 0 67.5414 0.585859 67.5414 1.30858L67.5414 6.54278C67.5414 7.2655 66.9545 7.85136 66.2304 7.85136L62.6914 7.85136 62.6914 21.0466 95.2676 21.0466 95.2676 26.9122 95.3999 26.9122 97.0045 31.5356C97.6572 34.3886 98 37.3426 98 40.3683 98 43.3939 97.6572 46.348 97.0045 49.201L95.3999 53.8244 95.2676 53.8244 95.2676 71.0002 2.7324 71.0002 2.7324 53.8244 2.60012 53.8244 0.995537 49.201C0.342812 46.348 0 43.3939 0 40.3683 0 37.3426 0.342812 34.3886 0.995537 31.5356L2.60012 26.9122 2.7324 26.9122 2.7324 21.0466 35.3086 21.0466 35.3086 7.85136 31.7696 7.85136C31.0456 7.85136 30.4586 7.2655 30.4586 6.54278L30.4586 1.30858C30.4586 0.585859 31.0456 0 31.7696 0Z" fill="#262626" fill-rule="evenodd" fill-opacity="1" transform="matrix(-1 0 0 1 1884 811)"/><path d="M28.8234 0 51.1767 0 77.7696 0 77.7696 5.87106 77.8776 5.87106 79.1875 10.4987C79.7203 13.3544 80.0001 16.3112 80.0001 19.3397 80.0001 22.3682 79.7203 25.325 79.1875 28.1807L77.8776 32.8084 77.7696 32.8084 77.7696 50.0002 2.23053 50.0002 2.23053 32.8084 2.12255 32.8084 0.812685 28.1807C0.279847 25.325 0 22.3682 0 19.3397 0 16.3112 0.279847 13.3544 0.812685 10.4987L2.12255 5.87106 2.23053 5.87106 2.23053 0 28.8234 0Z" fill="#404040" fill-rule="evenodd" fill-opacity="1" transform="matrix(-1 0 0 1 1884 832)"/><path d="M0 19.6711 0 19.6711 0 19.6711ZM19.76 0 94.2402 0C105.153 0 114 8.80709 114 19.6711L114 19.6711C114 26.4611 110.544 32.4477 105.288 35.9827L103.165 37.1297 103.165 58.127 105.623 59.455C110.677 62.8541 114 68.6106 114 75.1396L114 237.085C114 247.532 105.493 256 94.9997 256L19.0004 256C8.50673 256 0 247.532 0 237.085L0 75.1396C0 68.6106 3.32293 62.8541 8.37709 59.455L10.8347 58.127 10.8347 36.9314 7.19081 34.8502C3.77515 32.0441 1.32272 28.1174 0.401464 23.6355L0 19.6711 0.401464 15.7067C2.24403 6.74294 10.211 0 19.76 0Z" fill="#436A88" fill-rule="evenodd" fill-opacity="1" transform="matrix(-1 0 0 1 1892 864)"/><path d="M0 19.6711 0 19.6711 0 19.6711ZM16.4666 0 78.5333 0C87.6275 0 94.9999 8.80709 94.9999 19.6711L94.9998 19.6711C94.9998 26.4611 92.12 32.4477 87.7399 35.9827L85.9709 37.1297 85.9709 58.127 88.0189 59.455C92.2307 62.8541 94.9998 68.6106 94.9998 75.1396L94.9998 237.085C94.9998 247.532 87.9109 256 79.1662 256L15.8336 256C7.08892 256 0 247.532 0 237.085L0 75.1396C0 68.6106 2.7691 62.8541 6.98089 59.455L9.02891 58.127 9.02891 36.9314 5.99233 34.8502C3.14595 32.0441 1.10226 28.1174 0.334553 23.6355L0 19.6711 0.334553 15.7067C1.87002 6.74294 8.50915 0 16.4666 0Z" fill="#70B3E7" fill-rule="evenodd" fill-opacity="1" transform="matrix(-1 0 0 1 1891 864)"/><path d="M0 63.0003 2.45343 0 5.00016 63.0003Z" fill="#436A88" fill-rule="evenodd" fill-opacity="1" transform="matrix(-6.12323e-17 -1 -1 6.12323e-17 1862 907)"/><path d="M0 63.0003 2.45326 0 4.9998 63.0003Z" fill="#436A88" fill-rule="evenodd" fill-opacity="1" transform="matrix(-6.12323e-17 -1 -1 6.12323e-17 1862 921)"/><path d="M0 53.763 555.767 0 569 645.158 29.7731 681 0 53.763Z" fill="#27457C" fill-rule="evenodd" fill-opacity="1" transform="matrix(-1 0 0 1 1757 271)"/><path d="M0 0 69.1632 0 69.1632 56.6956 177.519 56.6956 177.519 36.6853 248.988 36.6853 248.988 91.1575 308.929 91.1575 308.929 47.8021 361.954 47.8021 361.954 18.8985 412.674 18.8985 412.674 43.3554 444.95 43.3554 444.95 6.67004 527.946 6.67004 551 219 13.8326 198.99 0 0Z" fill="#243142" fill-rule="evenodd" fill-opacity="1" transform="matrix(-1 0 0 1 1724 787)"/><path d="M0 88C-2.24072e-14 39.3989 39.3989 0 88 0 136.601-2.24072e-14 176 39.3989 176 88 176 136.601 136.601 176 88 176 39.3989 176-3.36107e-14 136.601 0 88Z" fill="url(#fill2)" fill-rule="evenodd" transform="matrix(-1 0 0 1 1410 415)"/><g clip-path="url(#clip3)"><g clip-path="url(#clip4)"><g clip-path="url(#clip5)"><path d="M144.181 88.3156C143.628 88.3156 142.891 88.3156 142.338 88.3156 142.338 88.3156 142.338 88.3156 142.338 88.3156 142.338 79.2813 137.913 70.9844 130.722 65.8219 123.347 60.6594 113.944 59.3688 105.463 62.3188 98.4563 48.675 82.9688 41.6688 68.2188 45.1719 53.4688 48.675 42.775 61.95 42.775 77.2531 42.775 77.2531 42.775 77.4375 42.775 77.6219 32.6344 75.9625 22.4938 80.2031 16.225 88.3156 10.1406 96.6125 9.03438 107.491 13.275 116.709 17.7 125.928 26.9188 132.013 37.0594 132.566L37.0594 132.75 143.997 132.75C156.166 132.75 166.122 122.794 166.122 110.625 166.122 98.4563 156.35 88.3156 144.181 88.3156Z" fill="#6B85C4" fill-rule="nonzero" fill-opacity="1" transform="matrix(-1 0 0 1 1714 404)"/></g></g></g><g clip-path="url(#clip6)"><g clip-path="url(#clip7)"><g clip-path="url(#clip8)"><path d="M170.248 104.282C169.595 104.282 168.724 104.282 168.071 104.282 168.071 104.282 168.071 104.282 168.071 104.282 168.071 93.6146 162.846 83.8177 154.355 77.7219 145.647 71.626 134.544 70.1021 124.529 73.5854 116.256 57.475 97.9688 49.2021 80.5521 53.3385 63.1354 57.475 50.5083 73.15 50.5083 91.2198 50.5083 91.2198 50.5083 91.4375 50.5083 91.6552 38.5344 89.6958 26.5604 94.7031 19.1583 104.282 11.974 114.079 10.6677 126.924 15.675 137.809 20.9 148.695 31.7854 155.879 43.7594 156.532L43.7594 156.75 170.03 156.75C184.399 156.75 196.155 144.994 196.155 130.625 196.155 116.256 184.617 104.282 170.248 104.282Z" fill="#6B85C4" fill-rule="nonzero" fill-opacity="1" transform="matrix(1 0 0 1.00478 1358 586)"/></g></g></g><path d="M564.64 40.7956 48.4076 80.616 89.6343 721.058 582.564 745.946ZM607.893 0 629 794 48.5469 765.977 0 44.8377Z" fill="#7C7878" fill-rule="evenodd" fill-opacity="1" transform="matrix(-1 0 0 1 1787 242)"/><rect x="0" y="0" width="568.566" height="50.0713" fill="#7C7878" fill-opacity="1" transform="matrix(-0.993392 -0.11477 -0.11477 0.993392 1751.95 587.917)"/><rect x="0" y="0" width="705.687" height="50.0709" fill="#7C7878" fill-opacity="1" transform="matrix(-0.0515783 0.998669 0.998669 0.0515783 1470.6 295.623)"/><path d="M2815.5-56.1364C2787.06 7.90168 2758.62 71.9397 2711.31 80.3184 2664.01 88.6971 2578.99 32.4395 2531.69-5.8635 2484.38-44.1664 2427.5-149.5 2427.5-149.5 2432.29-26.2121 2431.09 87.5002 2431.09 87.5002" stroke="#407281" stroke-width="6.875" stroke-linecap="butt" stroke-linejoin="miter" stroke-miterlimit="8" stroke-opacity="1" fill="none" fill-rule="evenodd"/><path d="M2429.48 32C2436.53 32 2442.25 37.7151 2442.25 44.7653L2442.25 65.4893 2446.51 66.3497C2453.38 69.2566 2458.21 76.0617 2458.21 83.9932L2458.21 131.614 2466.85 134.31C2508.66 152.085 2538 193.699 2538 242.2L2536.82 254 2306.18 254 2305 242.2C2305 185.615 2344.93 138.405 2398.02 127.487L2400.75 127.21 2400.75 83.9932C2400.75 76.0617 2405.58 69.2566 2412.45 66.3497L2416.71 65.4893 2416.71 44.7653C2416.71 37.7151 2422.43 32 2429.48 32Z" fill="#407281" fill-rule="evenodd" fill-opacity="1"/><path d="M2305 255C2305 251.686 2357.16 249 2421.5 249 2485.84 249 2538 251.686 2538 255 2538 258.314 2485.84 261 2421.5 261 2357.16 261 2305 258.314 2305 255Z" fill="#FFC000" fill-rule="evenodd" fill-opacity="1"/></g></svg>