<svg width="632" height="289" xmlns="http://www.w3.org/2000/svg" xmlns:xlink="http://www.w3.org/1999/xlink" overflow="hidden"><defs><clipPath id="clip0"><rect x="4111" y="2030" width="632" height="289"/></clipPath></defs><g clip-path="url(#clip0)" transform="translate(-4111 -2030)"><path d="M4374.96 2035.66C4438.15 2032.49 4505.02 2058.66 4554 2063.5 4609.98 2069.04 4654.24 2056.64 4684.02 2072.18 4713.81 2087.71 4732.47 2122.81 4732.72 2156.71 4732.78 2165.19 4731.38 2175.5 4728.85 2186.53L4718.69 2219.39 4704.34 2250.07C4703.94 2250.91 4703.54 2251.76 4703.14 2252.61 4697.56 2262.13 4691.58 2270.16 4685.53 2275.61L4676.89 2281.49 4678.14 2281.92 4591.72 2287.96 4591.15 2287.37 4587.74 2287.48C4551.44 2292.5 4501.36 2304.97 4467.74 2305.74 4434.12 2306.52 4418.81 2298.61 4386.02 2292.15 4353.23 2285.68 4312.7 2269.35 4270.99 2266.94 4229.29 2264.52 4159.12 2297.19 4135.78 2277.67 4112.44 2258.15 4107.81 2186.52 4130.95 2149.8 4154.08 2113.08 4277.65 2053.34 4348.16 2038.96 4356.98 2037.16 4365.93 2036.11 4374.96 2035.66Z" fill="#CE8D61" fill-rule="evenodd" fill-opacity="1"/><path d="M4381.61 2045.97C4444.8 2042.8 4511.68 2068.97 4560.66 2073.81 4616.63 2079.35 4660.89 2066.95 4690.68 2082.49 4720.46 2098.02 4739.12 2133.12 4739.37 2167.02 4739.44 2175.5 4738.03 2185.81 4735.51 2196.84L4725.34 2229.7 4711 2260.38C4710.59 2261.22 4710.19 2262.07 4709.79 2262.92 4704.21 2272.44 4698.23 2280.47 4692.19 2285.92L4683.55 2291.8 4684.79 2292.23 4598.37 2298.27 4597.8 2297.68 4594.4 2297.79C4558.1 2302.81 4508.01 2315.28 4474.39 2316.05 4440.77 2316.83 4425.47 2308.93 4392.68 2302.46 4359.89 2295.99 4319.35 2279.66 4277.65 2277.25 4235.94 2274.83 4165.78 2307.5 4142.44 2287.98 4119.1 2268.46 4114.46 2196.83 4137.6 2160.11 4160.74 2123.39 4284.31 2063.65 4354.82 2049.27 4363.63 2047.47 4372.58 2046.42 4381.61 2045.97Z" fill="#855E44" fill-rule="evenodd" fill-opacity="1"/><path d="M4381.61 2045.97C4444.8 2042.8 4511.68 2068.97 4560.66 2073.81 4602.64 2077.96 4638.03 2072.03 4665.67 2075.35L4667.6 2075.91 4642.51 2100.13C4613.62 2123.96 4580.21 2144.35 4555.38 2150.48 4505.73 2162.74 4447.49 2107.57 4404.58 2102.66 4361.67 2097.76 4339.6 2121.05 4297.92 2121.05 4277.08 2121.05 4253.93 2118.75 4229.64 2115.3L4201.78 2110.62 4228.44 2096.31C4271.04 2074.99 4319.56 2056.46 4354.82 2049.27 4363.63 2047.47 4372.58 2046.42 4381.61 2045.97Z" fill="#6B4A34" fill-rule="evenodd" fill-opacity="1"/><path d="M4127.39 2259.49C4130.57 2238.45 4146.49 2191.46 4180.28 2175.79 4214.07 2160.13 4301.24 2154.99 4330.13 2165.52 4359.03 2176.04 4364.9 2219.6 4353.64 2238.94 4342.38 2258.27 4268.68 2274.91 4262.55 2281.52 4256.43 2288.13 4304.42 2274.67 4316.91 2278.58 4329.4 2282.5 4348.5 2299.63 4337.48 2305.02 4326.46 2310.4 4280.18 2311.38 4250.8 2310.89 4221.42 2310.4 4181.51 2310.89 4161.18 2302.08 4140.86 2293.27 4124.21 2280.54 4127.39 2259.49Z" fill="#78533A" fill-rule="evenodd" fill-opacity="1"/></g></svg>