<svg width="468" height="349" xmlns="http://www.w3.org/2000/svg" xmlns:xlink="http://www.w3.org/1999/xlink" overflow="hidden"><defs><clipPath id="clip0"><rect x="4514" y="2002" width="468" height="349"/></clipPath></defs><g clip-path="url(#clip0)" transform="translate(-4514 -2002)"><path d="M4798.8 2176.59 4796.45 2189.43 4786.29 2222.29 4807.19 2216.8C4819.33 2214.62 4832.6 2213.68 4848.16 2215.18 4879.27 2218.18 4941.59 2233.53 4959.75 2243.76 4977.92 2253.99 4992.56 2275.81 4957.17 2276.56 4930.63 2277.13 4852.53 2266.52 4795.17 2256.99L4771.94 2252.97C4771.54 2253.81 4771.14 2254.66 4770.73 2255.51 4765.16 2265.03 4759.17 2273.06 4753.13 2278.51L4744.49 2284.39 4745.74 2284.82C4778.57 2296.61 4807.13 2307.87 4818.62 2317.07 4833.95 2329.33 4824.75 2347.1 4803.91 2346.49 4783.07 2345.88 4721.77 2326.87 4693.57 2313.39 4679.47 2306.64 4668.59 2298.98 4659.32 2290.86L4658.74 2290.27 4655.34 2290.38 4633.74 2293.96 4654.4 2259.74 4729.72 2259.74 4763.2 2203.55Z" fill="#855E44" fill-rule="evenodd" fill-opacity="1"/><path d="M4654.74 2033.56C4626.18 2022.15 4646.58 2001.75 4625.37 2004.2 4604.16 2006.65 4543.79 2026.22 4527.48 2048.25 4511.17 2070.27 4516.06 2130.63 4527.48 2136.34 4538.9 2142.04 4596 2082.5 4596 2082.5 4604.16 2084.95 4581.32 2124.1 4576.42 2151.02 4571.53 2177.93 4557.66 2217.9 4566.64 2244 4575.61 2270.1 4596.82 2304.36 4630.26 2307.62 4663.71 2310.88 4734.68 2292.94 4767.31 2263.57 4799.94 2234.21 4826.04 2131.44 4826.04 2131.44 4837.46 2117.58 4827.67 2185.27 4835.83 2180.38 4843.99 2175.49 4875.8 2124.92 4874.98 2102.08 4874.17 2079.24 4830.94 2043.35 4830.94 2043.35 4817.88 2038.46 4796.67 2072.72 4796.67 2072.72 4766.49 2069.45 4683.29 2044.98 4654.74 2033.56Z" fill="#E09969" fill-rule="evenodd" fill-opacity="1"/><path d="M4660.12 2044.56C4631.49 2033.15 4651.94 2012.75 4630.67 2015.2 4609.4 2017.65 4548.87 2037.22 4532.51 2059.25 4516.15 2081.27 4521.06 2141.63 4532.51 2147.34 4543.96 2153.04 4601.22 2093.5 4601.22 2093.5 4609.4 2095.95 4586.5 2135.1 4581.59 2162.02 4576.68 2188.93 4562.78 2228.9 4571.77 2255 4580.77 2281.1 4602.04 2315.36 4635.58 2318.62 4669.12 2321.88 4740.29 2303.94 4773.01 2274.57 4805.73 2245.21 4831.9 2142.44 4831.9 2142.44 4843.36 2128.58 4833.54 2196.27 4841.72 2191.38 4849.9 2186.49 4881.8 2135.92 4880.98 2113.08 4880.17 2090.24 4836.81 2054.35 4836.81 2054.35 4823.72 2049.46 4802.46 2083.72 4802.46 2083.72 4772.19 2080.45 4688.75 2055.98 4660.12 2044.56Z" fill="#906648" fill-rule="evenodd" fill-opacity="1"/><path d="M4669.13 2129.01C4662.9 2122.56 4638.41 2104.78 4626.39 2105 4614.37 2105.22 4597.22 2125.01 4597 2130.35 4596.78 2135.68 4613.92 2134.79 4625.05 2137.02 4636.18 2139.24 4657.11 2145.46 4663.79 2143.68 4670.46 2141.91 4675.36 2135.46 4669.13 2129.01Z" fill="#78533A" fill-rule="evenodd" fill-opacity="1"/><path d="M72.1586 24.0541C65.9229 17.5956 41.4253-0.220746 29.3992 0.0019947 17.3732 0.224736 0.224869 20.0455 0.00212768 25.3904-0.220614 30.7352 16.9277 29.8444 28.0629 32.0714 39.1982 34.2984 60.1324 40.5342 66.8136 38.7526 73.4948 36.9709 78.3943 30.5125 72.1586 24.0541Z" fill="#78533A" fill-rule="evenodd" fill-opacity="1" transform="matrix(-0.867652 -0.497172 -0.497172 0.867652 4793.38 2164.62)"/><path d="M4602.64 2162.69C4603.31 2159.24 4610.77 2157.77 4619.3 2159.42 4627.84 2161.06 4634.22 2165.19 4633.56 2168.65 4632.89 2172.1 4625.43 2173.57 4616.9 2171.92 4608.36 2170.28 4601.98 2166.14 4602.64 2162.69Z" fill="#000000" fill-rule="evenodd" fill-opacity="1"/><path d="M4712.97 2195.26C4714.21 2191.97 4721.81 2191.8 4729.94 2194.88 4738.07 2197.96 4743.65 2203.13 4742.41 2206.41 4741.16 2209.7 4733.56 2209.87 4725.43 2206.79 4717.3 2203.71 4711.72 2198.55 4712.97 2195.26Z" fill="#000000" fill-rule="evenodd" fill-opacity="1"/><path d="M4637.61 2249.72C4657.94 2251.84 4678.27 2253.96 4694.93 2264.44 4711.6 2274.92 4737.59 2312.62 4737.59 2312.62 4741.37 2319.98 4717.6 2308.6 4717.6 2308.6 4710.26 2312.17 4693.6 2334.03 4693.6 2334.03 4686.71 2334.48 4676.27 2311.28 4676.27 2311.28 4667.16 2312.17 4638.94 2339.38 4638.94 2339.38 4630.94 2342.73 4628.27 2331.35 4628.27 2331.35 4622.27 2330.46 4602.94 2334.03 4602.94 2334.03 4596.06 2329.12 4586.95 2301.91 4586.95 2301.91 4582.72 2298.79 4577.61 2315.3 4577.61 2315.3 4573.84 2311.06 4564.28 2276.49 4564.28 2276.49 4560.73 2271.58 4556.28 2285.85 4556.28 2285.85 4553.4 2282.51 4540.06 2264.89 4546.95 2256.41 4553.84 2247.94 4575.73 2241.47 4597.61 2235" fill="#78533A" fill-rule="evenodd" fill-opacity="1"/><path d="M4609.38 2266.68C4620.01 2269.75 4649.27 2259.7 4651.11 2253.84 4652.94 2247.97 4631.02 2234.55 4620.4 2231.48 4609.77 2228.42 4589.01 2229.35 4587.34 2235.45 4585.66 2241.55 4598.76 2263.62 4609.38 2266.68Z" fill="#000000" fill-rule="evenodd" fill-opacity="1"/></g></svg>