<svg width="811" height="353" xmlns="http://www.w3.org/2000/svg" xmlns:xlink="http://www.w3.org/1999/xlink" overflow="hidden"><defs><clipPath id="clip0"><rect x="4111" y="2002" width="811" height="353"/></clipPath></defs><g clip-path="url(#clip0)" transform="translate(-4111 -2002)"><path d="M4584.74 2033.66C4556.18 2022.21 4576.58 2001.75 4555.37 2004.2 4534.16 2006.66 4473.79 2026.3 4457.48 2048.39 4441.17 2070.49 4446.06 2131.04 4457.48 2136.77 4468.9 2142.5 4526 2082.76 4526 2082.76 4534.16 2085.22 4511.32 2124.5 4506.42 2151.5 4501.53 2178.51 4487.66 2218.6 4496.64 2244.79 4505.61 2270.98 4526.82 2305.34 4560.26 2308.62 4593.71 2311.89 4664.68 2293.89 4697.31 2264.43 4729.94 2234.97 4756.04 2131.86 4756.04 2131.86 4767.46 2117.95 4757.67 2185.87 4765.83 2180.96 4773.99 2176.05 4805.8 2125.31 4804.98 2102.4 4804.17 2079.49 4760.94 2043.48 4760.94 2043.48 4747.88 2038.57 4726.67 2072.94 4726.67 2072.94 4696.49 2069.67 4613.29 2045.12 4584.74 2033.66Z" fill="#E09969" fill-rule="evenodd" fill-opacity="1"/><path d="M4558.52 2064.61C4615.17 2070.43 4659.87 2058.23 4690.08 2073.94 4720.28 2089.65 4739.32 2124.92 4739.75 2158.9 4739.85 2167.39 4738.48 2177.71 4735.98 2188.76L4725.86 2221.64 4746.98 2216.23C4759.24 2214.12 4772.67 2213.23 4788.41 2214.81 4819.89 2217.97 4883 2233.67 4901.43 2244.01 4919.85 2254.35 4934.77 2276.28 4898.98 2276.86 4872.13 2277.3 4793.09 2266.28 4735.02 2256.46L4711.5 2252.31C4711.1 2253.15 4710.7 2254 4710.3 2254.85 4704.7 2264.36 4698.69 2272.38 4692.6 2277.81L4683.89 2283.66 4685.16 2284.1C4718.42 2296.07 4747.37 2307.5 4759.04 2316.77 4774.6 2329.13 4765.39 2346.9 4744.3 2346.19 4723.22 2345.47 4661.12 2326.12 4632.53 2312.47 4618.24 2305.64 4607.19 2297.91 4597.77 2289.73L4597.19 2289.13 4593.75 2289.23C4557.06 2294.08 4506.46 2306.32 4472.46 2306.94 4438.45 2307.55 4422.94 2299.55 4389.74 2292.91 4356.54 2286.27 4315.46 2269.7 4273.26 2267.08 4231.07 2264.45 4160.26 2296.85 4136.56 2277.17 4112.85 2257.49 4107.81 2185.69 4131.03 2149.01 4154.25 2112.32 4278.95 2053.07 4350.2 2039 4421.44 2024.94 4501.88 2058.79 4558.52 2064.61Z" fill="#CE8D61" fill-rule="evenodd" fill-opacity="1"/><path d="M4560.66 2073.81C4616.63 2079.35 4660.89 2066.95 4690.68 2082.49 4720.46 2098.02 4739.12 2133.12 4739.37 2167.02 4739.44 2175.5 4738.03 2185.81 4735.5 2196.84L4725.34 2229.7 4746.25 2224.21C4758.38 2222.03 4771.66 2221.09 4787.21 2222.59 4818.33 2225.59 4880.64 2240.94 4898.81 2251.17 4916.98 2261.4 4931.62 2283.22 4896.23 2283.97 4869.68 2284.54 4791.59 2273.93 4734.23 2264.4L4711 2260.38C4710.59 2261.22 4710.19 2262.07 4709.79 2262.92 4704.21 2272.44 4698.23 2280.47 4692.19 2285.92L4683.55 2291.8 4684.79 2292.23C4717.62 2304.02 4746.19 2315.28 4757.68 2324.48 4773.01 2336.74 4763.81 2354.51 4742.97 2353.9 4722.13 2353.29 4660.82 2334.28 4632.63 2320.8 4618.53 2314.05 4607.65 2306.39 4598.37 2298.27L4597.8 2297.68 4594.39 2297.79C4558.09 2302.81 4508.01 2315.28 4474.39 2316.05 4440.77 2316.83 4425.47 2308.92 4392.68 2302.46 4359.89 2295.99 4319.35 2279.66 4277.65 2277.25 4235.94 2274.83 4165.78 2307.5 4142.44 2287.98 4119.1 2268.46 4114.46 2196.83 4137.6 2160.11 4160.74 2123.39 4284.31 2063.65 4354.82 2049.27 4425.33 2034.89 4504.68 2068.28 4560.66 2073.81Z" fill="#855E44" fill-rule="evenodd" fill-opacity="1"/><path d="M4381.61 2045.97C4444.8 2042.8 4511.68 2068.97 4560.66 2073.81 4602.64 2077.96 4638.03 2072.03 4665.67 2075.35L4667.6 2075.91 4642.51 2100.13C4613.62 2123.96 4580.21 2144.35 4555.38 2150.48 4505.73 2162.74 4447.49 2107.57 4404.58 2102.66 4361.67 2097.76 4339.6 2121.05 4297.92 2121.05 4277.08 2121.05 4253.93 2118.75 4229.64 2115.3L4201.78 2110.62 4228.44 2096.31C4271.04 2074.99 4319.56 2056.46 4354.82 2049.27 4363.63 2047.47 4372.58 2046.42 4381.61 2045.97Z" fill="#6B4A34" fill-rule="evenodd" fill-opacity="1"/><path d="M4590.74 2045.56C4562.18 2034.15 4582.58 2013.75 4561.37 2016.2 4540.16 2018.65 4479.79 2038.22 4463.48 2060.25 4447.17 2082.27 4452.06 2142.63 4463.48 2148.34 4474.9 2154.04 4532 2094.5 4532 2094.5 4540.16 2096.95 4517.32 2136.1 4512.42 2163.02 4507.53 2189.93 4493.66 2229.9 4502.64 2256 4511.61 2282.1 4532.82 2316.36 4566.26 2319.62 4599.71 2322.88 4670.68 2304.94 4703.31 2275.57 4735.94 2246.21 4762.04 2143.44 4762.04 2143.44 4773.46 2129.58 4763.67 2197.27 4771.83 2192.38 4779.99 2187.49 4811.8 2136.92 4810.98 2114.08 4810.17 2091.24 4766.94 2055.35 4766.94 2055.35 4753.88 2050.46 4732.67 2084.72 4732.67 2084.72 4702.49 2081.45 4619.29 2056.98 4590.74 2045.56Z" fill="#906648" fill-rule="evenodd" fill-opacity="1"/><path d="M4600.13 2130.01C4593.9 2123.56 4569.41 2105.78 4557.39 2106 4545.37 2106.22 4528.22 2126.01 4528 2131.35 4527.78 2136.68 4544.92 2135.79 4556.05 2138.02 4567.18 2140.24 4588.11 2146.46 4594.79 2144.68 4601.46 2142.91 4606.36 2136.46 4600.13 2130.01Z" fill="#78533A" fill-rule="evenodd" fill-opacity="1"/><path d="M72.1586 24.0541C65.9229 17.5956 41.4253-0.220746 29.3992 0.0019947 17.3732 0.224736 0.224869 20.0455 0.00212768 25.3904-0.220614 30.7352 16.9277 29.8444 28.0629 32.0714 39.1982 34.2984 60.1324 40.5342 66.8136 38.7526 73.4948 36.9709 78.3943 30.5125 72.1586 24.0541Z" fill="#78533A" fill-rule="evenodd" fill-opacity="1" transform="matrix(-0.867652 -0.497172 -0.497172 0.867652 4723.73 2165.46)"/><path d="M4532.99 2163.53C4533.66 2160.07 4541.12 2158.61 4549.65 2160.25 4558.19 2161.9 4564.57 2166.03 4563.91 2169.48 4563.24 2172.93 4555.78 2174.4 4547.25 2172.76 4538.71 2171.11 4532.33 2166.98 4532.99 2163.53Z" fill="#000000" fill-rule="evenodd" fill-opacity="1"/><path d="M4643.32 2196.1C4644.56 2192.81 4652.16 2192.64 4660.29 2195.72 4668.42 2198.8 4674 2203.96 4672.76 2207.25 4671.51 2210.54 4663.91 2210.71 4655.78 2207.63 4647.65 2204.55 4642.07 2199.39 4643.32 2196.1Z" fill="#000000" fill-rule="evenodd" fill-opacity="1"/><path d="M4567.61 2250.72C4587.94 2252.84 4608.27 2254.96 4624.93 2265.44 4641.6 2275.92 4667.59 2313.62 4667.59 2313.62 4671.37 2320.98 4647.6 2309.6 4647.6 2309.6 4640.26 2313.17 4623.6 2335.03 4623.6 2335.03 4616.71 2335.48 4606.27 2312.28 4606.27 2312.28 4597.16 2313.17 4568.94 2340.38 4568.94 2340.38 4560.94 2343.73 4558.27 2332.35 4558.27 2332.35 4552.28 2331.46 4532.94 2335.03 4532.94 2335.03 4526.06 2330.12 4516.95 2302.91 4516.95 2302.91 4512.72 2299.79 4507.61 2316.3 4507.61 2316.3 4503.84 2312.06 4494.28 2277.49 4494.28 2277.49 4490.73 2272.58 4486.28 2286.85 4486.28 2286.85 4483.4 2283.51 4470.06 2265.89 4476.95 2257.41 4483.84 2248.94 4505.73 2242.47 4527.61 2236" fill="#78533A" fill-rule="evenodd" fill-opacity="1"/><path d="M4539.73 2267.52C4550.36 2270.58 4579.62 2260.54 4581.46 2254.67 4583.29 2248.8 4561.38 2235.38 4550.75 2232.32 4540.12 2229.25 4519.36 2230.18 4517.69 2236.28 4516.01 2242.38 4529.11 2264.45 4539.73 2267.52Z" fill="#000000" fill-rule="evenodd" fill-opacity="1"/><path d="M4127.39 2259.49C4130.57 2238.45 4146.49 2191.46 4180.28 2175.79 4214.07 2160.13 4301.24 2154.99 4330.13 2165.52 4359.03 2176.04 4364.9 2219.6 4353.64 2238.94 4342.38 2258.27 4268.68 2274.91 4262.55 2281.52 4256.43 2288.13 4304.42 2274.67 4316.91 2278.58 4329.4 2282.5 4348.5 2299.63 4337.48 2305.02 4326.46 2310.4 4280.18 2311.38 4250.8 2310.89 4221.42 2310.4 4181.51 2310.89 4161.18 2302.08 4140.86 2293.27 4124.21 2280.54 4127.39 2259.49Z" fill="#78533A" fill-rule="evenodd" fill-opacity="1"/></g></svg>