<svg width="298" height="343" xmlns="http://www.w3.org/2000/svg" xmlns:xlink="http://www.w3.org/1999/xlink" overflow="hidden"><defs><clipPath id="clip0"><rect x="4" y="229" width="298" height="343"/></clipPath></defs><g clip-path="url(#clip0)" transform="translate(-4 -229)"><path d="M131 327.616C142.839 299.402 154.679 271.188 178.358 255.422 202.037 239.655 256.873 232.602 273.075 233.017 289.276 233.432 275.567 257.912 275.567 257.912 278.891 262.061 289.276 255.007 293.015 257.912 296.754 260.816 298 275.338 298 275.338 293.846 279.072 268.089 280.316 268.089 280.316 266.428 282.806 287.614 286.125 288.03 290.274 288.445 294.424 279.721 303.137 270.582 305.211 261.443 307.285 242.749 297.743 233.194 302.722 223.639 307.7 225.716 326.371 213.254 335.084 200.791 343.797 179.604 349.399 158.418 355" fill="#FCDAD6" fill-rule="evenodd" fill-opacity="1"/><path d="M7.928 538.976C10.9517 568.279 52.5034 576.612 76.3207 565.201 100.138 553.79 150.831 470.511 150.831 470.511 172.639 434.673 207.164 350.169 207.164 350.169 205.92 319.472 143.368 286.328 143.368 286.328 118.537 292.863 81.2734 347.546 58.1787 389.378 35.0841 431.21 4.90433 509.672 7.928 538.976Z" fill="#8FAADD" fill-rule="evenodd" fill-opacity="1"/></g></svg>