<svg width="500" height="605" xmlns="http://www.w3.org/2000/svg" xmlns:xlink="http://www.w3.org/1999/xlink" overflow="hidden"><defs><clipPath id="clip0"><rect x="3524" y="178" width="500" height="605"/></clipPath></defs><g clip-path="url(#clip0)" transform="translate(-3524 -178)"><path d="M21.9509 471C16.497 467.024 11.0431 463.048 7.80025 435.659 4.5574 408.27-4.28674 357.615 2.49377 306.665 9.27428 255.716 28.4366 180.027 48.4833 129.961 68.53 79.895 122.774 6.26835 122.774 6.26835 138.104-11.402 139.283 12.7475 140.462 23.9388 141.642 35.13 129.555 60.1631 129.849 73.4159 130.144 86.6687 144 90.7918 142.231 103.456 140.462 116.119 121.005 137.618 119.236 149.399 117.468 161.179 127.491 165.007 131.618 174.137 135.745 183.267 139.873 193.722 144 204.177" fill="#5C9E91" fill-rule="evenodd" fill-opacity="1" transform="matrix(-1 0 0 1 3742 181)"/><path d="M19.3901 517.461C7.44304 489.586-4.50406 461.712 1.69073 405.964 7.88553 350.216 27.3549 249.338 56.5589 182.971 85.7629 116.605 176.915 7.76289 176.915 7.76289 200.809-16.7191 200.219 23.396 199.924 36.0794 199.629 48.7629 177.8 67.0506 175.145 83.8636 172.49 100.677 190.484 121.324 183.995 136.957 177.505 152.59 144.466 161.439 136.206 177.662 127.947 193.885 140.926 217.777 134.436 234.295 127.947 250.813 100.217 260.842 97.2675 276.77 94.3176 292.698 119.982 312.461 116.737 329.864 113.492 347.266 82.813 364.079 77.7982 381.187 72.7834 398.295 94.0227 409.209 86.6479 432.511 79.2731 455.813 56.4114 488.407 33.5497 521" fill="#5C9E91" fill-rule="evenodd" fill-opacity="1" transform="matrix(-1 0 0 1 3726 253)"/><path d="M263.316 399.413C275.654 394.406 274.773 364.656 268.604 332.255 262.435 299.854 254.504 254.788 226.304 205.009 198.104 155.229 136.122 67.7474 99.4036 33.5794 62.6847-0.58864 5.99089 0.000463862 5.99089 0.000463862-8.40288 1.47322 6.87214 33.2849 13.0409 42.416 19.2097 51.5471 37.1284 46.2451 43.0035 54.7872 48.8785 63.3292 42.1222 83.0642 48.291 93.668 54.4597 104.272 73.8473 105.45 80.016 118.41 86.1848 131.371 77.3723 160.237 85.3035 171.43 93.2348 182.623 118.791 177.026 127.604 185.568 136.416 194.11 130.835 212.078 138.179 222.682 145.522 233.286 166.085 237.409 171.666 249.192 177.247 260.974 167.554 281.003 171.666 293.374 175.779 305.746 192.522 311.931 196.341 323.419 200.16 334.906 184.297 348.456 194.579 362.3 204.86 376.143 250.979 404.421 263.316 399.413Z" fill="#5C9E91" fill-rule="evenodd" fill-opacity="1" transform="matrix(-1 0 0 1 4007 341)"/><path d="M21.9509 471C16.497 467.024 11.0431 463.048 7.80025 435.659 4.5574 408.27-4.28674 357.615 2.49377 306.665 9.27428 255.716 28.4366 180.027 48.4833 129.961 68.53 79.895 122.774 6.26835 122.774 6.26835 138.104-11.402 139.283 12.7475 140.462 23.9388 141.642 35.13 129.555 60.1631 129.849 73.4159 130.144 86.6687 144 90.7918 142.231 103.456 140.462 116.119 121.005 137.618 119.236 149.399 117.468 161.179 127.491 165.007 131.618 174.137 135.745 183.267 139.873 193.722 144 204.177" fill="#1B6D5C" fill-rule="evenodd" fill-opacity="1" transform="matrix(-1 0 0 1 3758 184)"/><path d="M0 443.475C5.59495 357.636 11.1899 271.798 30.0361 197.885 48.8822 123.973 80.9796 61.9863 113.077 0" stroke="#145044" stroke-width="6.875" stroke-linecap="butt" stroke-linejoin="miter" stroke-miterlimit="8" stroke-opacity="1" fill="none" fill-rule="evenodd" transform="matrix(-0.992897 -0.118977 -0.118977 0.992897 3764.57 276.593)"/><path d="M19.3901 516.467C7.44304 488.646-4.50406 460.826 1.69073 405.185 7.88553 349.544 27.3549 248.86 56.5589 182.62 85.7629 116.381 176.915 7.74799 176.915 7.74799 200.809-16.687 200.219 23.3511 199.924 36.0102 199.629 48.6692 177.8 66.9219 175.145 83.7026 172.49 100.483 190.484 121.091 183.995 136.694 177.505 152.297 144.466 161.129 136.206 177.321 127.947 193.513 140.926 217.359 134.436 233.845 127.947 250.332 100.217 260.341 97.2675 276.239 94.3176 292.136 119.982 311.861 116.737 329.23 113.492 346.6 82.813 363.38 77.7982 380.455 72.7834 397.53 94.0227 408.423 86.6479 431.68 79.2731 454.938 56.4114 487.469 33.5497 520" fill="#0E3A32" fill-rule="evenodd" fill-opacity="1" transform="matrix(-1 0 0 1 3741 257)"/><path d="M264.281 399.413C276.664 394.405 275.779 364.656 269.588 332.255 263.396 299.854 255.436 254.788 227.133 205.009 198.829 155.229 136.621 67.7474 99.7677 33.5794 62.9144-0.58864 6.01284 0.000463861 6.01284 0.000463861-8.43366 1.47322 6.89732 33.2848 13.0887 42.4159 19.28 51.547 37.2645 46.2451 43.161 54.7871 49.0575 63.3291 42.2765 83.0641 48.4679 93.668 54.6592 104.272 74.1178 105.45 80.3091 118.41 86.5005 131.371 77.6557 160.237 85.616 171.43 93.5763 182.623 119.226 177.026 128.071 185.568 136.916 194.11 131.314 212.078 138.685 222.682 146.055 233.286 166.693 237.409 172.295 249.191 177.897 260.973 168.167 281.003 172.295 293.374 176.423 305.745 193.228 311.931 197.06 323.418 200.893 334.906 184.973 348.455 195.291 362.299 205.61 376.143 251.898 404.42 264.281 399.413Z" fill="#0E3A32" fill-rule="evenodd" fill-opacity="1" transform="matrix(-1 0 0 1 4023 344)"/><path d="M0 443C5.59115 357.253 11.1823 271.506 30.0157 197.673 48.849 123.84 80.9245 61.9199 113 0" stroke="#062300" stroke-width="6.875" stroke-linecap="butt" stroke-linejoin="miter" stroke-miterlimit="8" stroke-opacity="1" fill="none" fill-rule="evenodd" transform="matrix(-1 0 0 1 3713.5 339.5)"/><path d="M205 391C183.204 320.968 161.408 250.936 127.241 185.769 93.0747 120.603 58.908 63.8398 0 0" stroke="#062300" stroke-width="6.875" stroke-linecap="butt" stroke-linejoin="miter" stroke-miterlimit="8" stroke-opacity="1" fill="none" fill-rule="evenodd" transform="matrix(-1 0 0 1 3955.5 388.5)"/></g></svg>