<svg width="147" height="192" xmlns="http://www.w3.org/2000/svg" xmlns:xlink="http://www.w3.org/1999/xlink" overflow="hidden"><defs><clipPath id="clip0"><rect x="3657" y="756" width="147" height="192"/></clipPath></defs><g clip-path="url(#clip0)" transform="translate(-3657 -756)"><path d="M49.7748 0 79.2255 0C106.715-6.01556e-15 129 22.2849 129 49.7748L129 189 0 189 0 49.7748C-6.01556e-15 22.2849 22.2849-1.20311e-14 49.7748-1.20311e-14Z" fill="#D9D9D9" fill-rule="evenodd" fill-opacity="1" transform="matrix(1 -1.22465e-16 -1.22465e-16 -1 3658 948)"/><path d="M49.7748 0 79.2255 0C106.715-6.01556e-15 129 22.2849 129 49.7748L129 189 0 189 0 49.7748C-6.01556e-15 22.2849 22.2849-1.20311e-14 49.7748-1.20311e-14Z" fill="#898989" fill-rule="evenodd" fill-opacity="1" transform="matrix(1 -1.22465e-16 -1.22465e-16 -1 3674 948)"/></g></svg>