<svg width="321" height="311" xmlns="http://www.w3.org/2000/svg" xmlns:xlink="http://www.w3.org/1999/xlink" overflow="hidden"><defs><clipPath id="clip0"><rect x="421" y="206" width="321" height="311"/></clipPath></defs><g clip-path="url(#clip0)" transform="translate(-421 -206)"><path d="M0 94.3337C11.7857 66.2133 36.5718 48.4866 60.1431 32.7723 83.7144 17.0579 127.468 1.3667 141.429 0.0479987 155.39-1.2707 143.91 24.8601 143.91 24.8601 147.218 28.9955 157.556 21.9654 161.278 24.8601 165 27.7548 166.241 42.2284 166.241 42.2284 162.105 45.9503 136.466 47.1907 136.466 47.1907 134.812 49.6718 155.902 52.9801 156.316 57.1156 156.729 61.251 148.045 69.9352 138.948 72.0027 129.85 74.0703 111.241 64.5593 101.729 69.5216 92.2181 74.4839 94.2857 93.0929 81.8796 101.777 69.4736 110.461 48.3834 116.044 27.2932 121.627" fill="#FCDAD6" fill-rule="evenodd" fill-opacity="1" transform="matrix(-0.977861 -0.209254 -0.209254 0.977861 596.267 237.192)"/><path d="M738.723 471.373C734.597 446.188 649.595 362.376 649.595 362.376 619.473 330.173 557.991 278.152 557.991 278.152 534.059 274.436 506 340.082 506 340.082 510.539 373.937 557.166 452.381 585.225 481.281 613.284 510.182 648.77 515.962 674.353 513.485 699.936 511.008 742.85 496.557 738.723 471.373Z" fill="#8FAADD" fill-rule="evenodd" fill-opacity="1"/></g></svg>